<svg width="44" height="42" viewBox="0 0 44 42" fill="none" xmlns="http://www.w3.org/2000/svg">
<g clip-path="url(#clip0_0_2042)">
<path d="M35.4489 42H7.62806C3.40997 42 0 38.59 0 34.3719V7.62806C0 3.40997 3.40997 0 7.62806 0H35.4489C39.667 0 43.0769 3.40997 43.0769 7.62806V34.3719C43.0769 38.59 39.667 42 35.4489 42Z" fill="#FF26BE"/>
<path d="M34.7665 40.2045H8.31039C4.72122 40.2045 1.79544 37.2787 1.79544 33.6896V8.31036C1.79544 4.72119 4.72122 1.79541 8.31039 1.79541H34.7493C38.3574 1.79541 41.2642 4.72119 41.2642 8.31036V33.6723C41.2815 37.2787 38.3557 40.2045 34.7665 40.2045Z" fill="#2E001F"/>
<path d="M17.0326 19.6534L22.0588 29.3095C22.1484 29.4525 22.095 29.5972 21.9503 29.5972H18.8263C18.6282 29.5972 18.5386 29.5438 18.449 29.3646C17.2997 26.9954 16.1332 24.6262 14.9305 22.0777H14.8943C13.8173 24.4832 12.6319 27.0144 11.4843 29.3836C11.3947 29.5266 11.3051 29.5817 11.1604 29.5817H8.20184C8.02264 29.5817 8.00368 29.4387 8.09501 29.3302L13.0127 19.9601L8.25698 10.4832C8.14842 10.3401 8.25698 10.2316 8.36381 10.2316H11.4516C11.6308 10.2316 11.7031 10.2678 11.7738 10.4297C12.9041 12.799 14.0534 15.2406 15.1303 17.627H15.1665C16.2073 15.2578 17.3565 12.799 18.4697 10.447C18.5593 10.304 18.6127 10.2144 18.7936 10.2144H21.6832C21.8262 10.2144 21.8813 10.3229 21.7917 10.4659L17.0326 19.6534ZM22.9393 22.5792C22.9393 18.3972 25.7221 15.1303 30.1366 15.1303C30.514 15.1303 30.7104 15.1303 31.0705 15.1665V10.4108C31.0705 10.3022 31.1601 10.2316 31.2497 10.2316H34.0859C34.2289 10.2316 34.2651 10.285 34.2651 10.3746V26.8524C34.2651 27.3366 34.2651 27.9465 34.3547 28.6116C34.3547 28.7202 34.3185 28.7547 34.2117 28.8098C32.704 29.5283 31.1239 29.8505 29.6162 29.8505C25.7204 29.866 22.9376 27.4624 22.9393 22.5792ZM31.0688 17.9854C30.8172 17.8769 30.4588 17.8062 30.0281 17.8062C27.7657 17.8062 26.1873 19.5465 26.1873 22.4379C26.1873 25.741 27.8036 27.0695 29.8316 27.0695C30.2624 27.0695 30.7293 27.0161 31.0705 26.8713V17.9854H31.0688Z" fill="#FFD9F2"/>
</g>
<defs>
<clipPath id="clip0_0_2042">
<rect width="43.0769" height="42" fill="white"/>
</clipPath>
</defs>
</svg>
