<svg width="42" height="42" viewBox="0 0 42 42" fill="none" xmlns="http://www.w3.org/2000/svg">
<path d="M13.755 0.21L15.645 3.465C12.18 5.25 9.66001 8.61 9.66001 12.705H32.34C32.34 8.82 29.82 5.565 26.355 3.57L28.245 0.315C28.245 0.315 28.455 0.105 28.035 0.105C27.825 -0.105 27.825 0.315 27.825 0.315L25.935 3.57C24.36 2.835 22.68 2.415 20.895 2.415C19.11 2.415 17.43 2.835 15.855 3.57L13.755 0.21C13.965 0 13.755 0 13.545 0C13.545 0.105 13.755 0.21 13.755 0.21ZM15.435 6.825C16.065 6.825 16.38 7.455 16.59 7.98C16.59 8.61 15.96 8.925 15.435 9.135C14.805 9.135 14.28 8.715 14.28 8.19C14.49 7.245 14.91 6.825 15.435 6.825ZM26.355 6.825C26.985 6.825 27.3 7.455 27.51 7.98C27.51 8.61 26.88 8.925 26.355 9.135C25.725 9.135 25.2 8.715 25.2 8.19C25.2 7.245 25.725 6.825 26.355 6.825ZM9.45001 13.86V31.185C9.45001 31.92 10.605 33.075 11.34 33.075H14.07V39.06C14.07 40.635 15.225 41.79 16.59 41.79C17.955 41.79 19.11 40.635 19.11 39.06V33.285H22.995V39.27C22.995 40.845 24.15 42 25.515 42C26.88 42 28.035 40.845 28.035 39.27V33.285H30.45C31.185 33.285 32.34 32.13 32.34 31.395V14.07H9.45001V13.86Z" fill="#A4C639"/>
<path d="M5.775 13.4399C7.14 13.4399 8.295 14.5949 8.295 16.1699V26.4599C8.295 28.0349 7.14 29.1899 5.775 29.1899C4.41 29.1899 3.255 27.8249 3.255 26.4599V16.1699C3.255 14.8049 4.41 13.4399 5.775 13.4399Z" fill="#A4C639"/>
<path d="M36.225 13.4399C37.59 13.4399 38.745 14.5949 38.745 16.1699V26.4599C38.745 28.0349 37.59 29.1899 36.225 29.1899C34.86 29.1899 33.705 28.0349 33.705 26.4599V16.1699C33.705 14.8049 34.86 13.4399 36.225 13.4399Z" fill="#A4C639"/>
</svg>
