<svg width="43" height="42" viewBox="0 0 43 42" fill="none" xmlns="http://www.w3.org/2000/svg">
<path d="M17.5752 3.675C17.0502 3.15 16.5252 2.94 15.7902 2.94C15.0552 2.94 14.4252 3.255 14.0052 3.675C13.4802 4.2 13.2702 4.935 13.2702 5.46C13.2702 6.195 13.4802 6.825 14.0052 7.245C14.5302 7.77 15.0552 7.98 15.7902 7.98C16.5252 7.98 17.1552 7.665 17.5752 7.245C18.1002 6.72 18.3102 6.195 18.3102 5.46C18.2052 4.935 18.1002 4.2 17.5752 3.675ZM15.7902 39.06C16.5252 39.06 17.1552 38.745 17.5752 38.325C18.1002 37.8 18.3102 37.275 18.3102 36.54C18.3102 35.805 17.9952 35.175 17.5752 34.755C17.0502 34.23 16.5252 34.02 15.7902 34.02C15.0552 34.02 14.4252 34.335 14.0052 34.755C13.4802 35.28 13.2702 36.015 13.2702 36.54C13.2702 37.275 13.4802 37.905 14.0052 38.325C14.4252 38.64 15.0552 39.06 15.7902 39.06ZM29.4402 31.185C30.1752 30.975 30.7002 30.66 31.0152 29.925V29.715C31.3302 29.19 31.3302 28.455 31.2252 27.825C31.1202 27.195 30.7002 26.565 29.9652 26.25C29.4402 25.935 28.7052 25.935 28.0752 26.04C27.3402 26.25 26.8152 26.565 26.5002 27.3C26.1852 27.825 26.1852 28.56 26.2902 29.19C26.5002 29.925 26.8152 30.45 27.5502 30.765C28.1802 31.29 28.9152 31.29 29.4402 31.185ZM18.2052 18.375C17.4702 17.64 16.6302 17.325 15.5802 17.325C14.5302 17.325 13.6902 17.64 12.9552 18.375C12.2202 19.11 11.9052 19.95 11.9052 21C11.9052 22.05 12.2202 22.89 12.9552 23.625C13.6902 24.36 14.5302 24.675 15.5802 24.675C16.6302 24.675 17.4702 24.36 18.2052 23.625C18.9402 22.89 19.2552 22.05 19.2552 21C19.2552 19.95 18.9402 19.11 18.2052 18.375ZM16.8402 13.965C18.2052 14.175 19.6752 14.805 20.7252 15.855C20.9352 16.065 21.0402 16.17 21.2502 16.38L23.6652 14.805C23.3502 13.755 23.3502 12.705 23.6652 11.655C23.9802 10.29 24.9252 9.03 26.2902 8.295C27.5502 7.56 29.1252 7.455 30.2802 7.77C31.6452 8.085 32.9052 9.135 33.6402 10.395C34.3752 11.76 34.4802 13.23 34.1652 14.595C33.8502 15.96 32.9052 17.22 31.5402 17.955L31.2252 18.27C29.9652 18.795 28.8102 19.005 27.3402 18.585C26.2902 18.27 25.4502 17.745 24.7152 17.01L22.3002 18.375C22.6152 19.215 22.8252 19.95 22.8252 20.79C22.8252 21.63 22.6152 22.575 22.3002 23.205L24.7152 24.57C25.4502 23.73 26.2902 23.205 27.3402 22.995C28.7052 22.68 30.1752 22.785 31.5402 23.52C32.8002 24.255 33.6402 25.41 33.9552 26.88C34.2702 28.245 34.1652 29.82 33.4302 31.08V31.5C32.6952 32.76 31.5402 33.6 30.0702 33.915C28.7052 34.23 27.2352 34.125 25.8702 33.39C24.6102 32.655 23.7702 31.5 23.2452 30.03C22.9302 28.98 23.0352 27.93 23.2452 26.88L20.8302 25.515C20.6202 25.725 20.5152 25.83 20.3052 26.04C19.2552 27.09 17.9952 27.825 16.4202 27.93V30.87C17.4702 31.08 18.3102 31.605 19.2552 32.445C20.3052 33.495 20.8302 34.86 20.8302 36.33C20.8302 37.695 20.3052 39.165 19.2552 40.215C18.5202 41.265 17.1552 42 15.7902 42C14.2152 42 12.9552 41.265 11.9052 40.425C10.8552 39.375 10.3302 38.01 10.3302 36.54C10.3302 34.965 11.0652 33.6 11.9052 32.655C12.6402 31.92 13.6902 31.395 14.7402 31.08V27.93C13.3752 27.72 11.9052 27.09 10.8552 26.04C9.49019 24.675 8.75519 22.89 8.75519 21C8.75519 19.11 9.59519 17.325 10.8552 15.96C11.9052 14.91 13.1652 14.175 14.7402 14.07V11.13C13.6902 10.92 12.8502 10.395 11.9052 9.555C10.8552 8.505 10.1202 7.14 10.1202 5.67C10.1202 4.2 10.6452 2.835 11.6952 1.785C12.8502 0.525 14.2152 0 15.7902 0C17.3652 0 18.6252 0.735 19.6752 1.575C20.7252 2.625 21.2502 3.99 21.2502 5.46C21.2502 6.93 20.7252 8.295 19.6752 9.345C18.9402 10.08 17.8902 10.605 16.8402 10.92V13.965ZM31.0152 12.075C30.7002 11.55 30.1752 11.025 29.4402 10.815C28.7052 10.605 28.0752 10.815 27.5502 11.025C27.0252 11.34 26.5002 11.865 26.2902 12.6C26.0802 13.335 26.2902 13.965 26.5002 14.49C26.8152 15.015 27.3402 15.54 28.0752 15.75C28.8102 15.96 29.4402 15.96 29.9652 15.54C30.4902 15.225 31.0152 14.7 31.2252 13.965C31.5402 13.335 31.3302 12.6 31.0152 12.075Z" fill="#919191"/>
</svg>
