<svg width="42" height="42" viewBox="0 0 42 42" fill="none" xmlns="http://www.w3.org/2000/svg">
<g clip-path="url(#clip0_0_2096)">
<path d="M6.3 0H35.7C39.165 0 42 2.835 42 6.3V35.7C42 39.165 39.165 42 35.7 42H6.3C2.835 42 0 39.165 0 35.7V6.3C0 2.835 2.835 0 6.3 0Z" fill="#555555"/>
<path d="M33.6 27.405C33.6 27.405 32.76 29.82 31.185 32.235C30.765 32.97 28.77 35.805 26.46 35.805C24.78 35.805 23.625 34.545 21.42 34.545C18.69 34.545 17.64 35.805 15.96 35.805C15.015 35.91 14.175 35.385 13.125 34.545C6.825 28.56 6.51 19.74 8.82 16.065C10.29 13.65 12.81 12.18 15.435 12.075C17.535 12.075 19.845 13.44 20.79 13.44C21.42 13.44 24.885 11.76 26.88 11.97C29.61 12.18 31.5 13.23 32.865 15.12C28.77 17.01 27.405 24.675 33.6 27.405ZM26.985 4.62C27.615 7.245 24.78 12.285 20.475 11.97C20.265 8.39999 23.31 4.83 26.985 4.62Z" fill="#F2F2F2"/>
</g>
<defs>
<clipPath id="clip0_0_2096">
<rect width="42" height="42" fill="white"/>
</clipPath>
</defs>
</svg>
