<svg width="43" height="42" viewBox="0 0 43 42" fill="none" xmlns="http://www.w3.org/2000/svg">
<path fill-rule="evenodd" clip-rule="evenodd" d="M27.8022 1.05C28.1172 1.47 28.3272 2.1 28.6422 3.255L36.3072 28.35C33.4722 26.88 30.3222 25.83 27.1722 25.305L22.2372 8.4C22.1322 8.085 21.8172 7.875 21.3972 7.98C21.1872 8.085 20.9772 8.19 20.9772 8.4L16.0422 25.2C12.8922 25.725 9.74223 26.775 6.90723 28.35L14.5722 3.15C14.8872 2.1 15.0972 1.47 15.4122 1.05C15.7272 0.63 16.1472 0.42 16.5672 0.21C17.0922 0 17.7222 0 18.8772 0H24.3372C25.4922 0 26.1222 0 26.6472 0.21C27.1722 0.42 27.4872 0.63 27.8022 1.05Z" fill="url(#paint0_linear_0_1675)"/>
<path fill-rule="evenodd" clip-rule="evenodd" d="M28.7473 29.505C27.4873 30.555 24.9673 31.29 22.0273 31.29C18.4573 31.29 15.5173 30.135 14.6773 28.665C14.3623 29.505 14.3623 30.45 14.3623 31.08C14.3623 31.08 14.1523 34.125 16.2523 36.225C16.2523 35.07 17.1973 34.23 18.2473 34.23C20.1373 34.23 20.1373 35.91 20.1373 37.275V37.38C20.1373 39.375 21.2923 41.16 23.1823 41.895C22.8673 41.37 22.7623 40.74 22.7623 40.11C22.7623 38.22 23.9173 37.485 25.2823 36.645C26.3323 36.015 27.4873 35.28 28.3273 33.705C28.7473 32.865 28.9573 32.025 28.9573 31.08C29.0623 30.555 28.9573 30.03 28.7473 29.505Z" fill="#FF5D01"/>
<path fill-rule="evenodd" clip-rule="evenodd" d="M28.7473 29.505C27.4873 30.555 24.9673 31.29 22.0273 31.29C18.4573 31.29 15.5173 30.135 14.6773 28.665C14.3623 29.505 14.3623 30.45 14.3623 31.08C14.3623 31.08 14.1523 34.125 16.2523 36.225C16.2523 35.07 17.1973 34.23 18.2473 34.23C20.1373 34.23 20.1373 35.91 20.1373 37.275V37.38C20.1373 39.375 21.2923 41.16 23.1823 41.895C22.8673 41.37 22.7623 40.74 22.7623 40.11C22.7623 38.22 23.9173 37.485 25.2823 36.645C26.3323 36.015 27.4873 35.28 28.3273 33.705C28.7473 32.865 28.9573 32.025 28.9573 31.08C29.0623 30.555 28.9573 30.03 28.7473 29.505Z" fill="url(#paint1_linear_0_1675)"/>
<defs>
<linearGradient id="paint0_linear_0_1675" x1="30.2266" y1="-1.34221" x2="21.6094" y2="28.3102" gradientUnits="userSpaceOnUse">
<stop stop-color="#45459E"/>
<stop offset="1" stop-color="#2E104D"/>
</linearGradient>
<linearGradient id="paint1_linear_0_1675" x1="28.0412" y1="17.689" x2="20.5769" y2="33.3114" gradientUnits="userSpaceOnUse">
<stop stop-color="#FF1639"/>
<stop offset="1" stop-color="#FF1639" stop-opacity="0"/>
</linearGradient>
</defs>
</svg>
