<svg width="42" height="42" viewBox="0 0 42 42" fill="none" xmlns="http://www.w3.org/2000/svg">
<path d="M11.865 17.5349C11.865 18.0599 11.97 18.4799 12.075 18.7949C12.18 19.1099 12.285 19.4249 12.495 19.8449C12.6 19.8449 12.6 19.9499 12.6 20.0549C12.6 20.1599 12.495 20.3699 12.285 20.4749L11.34 21.1049C11.235 21.2099 11.13 21.2099 10.92 21.2099C10.815 21.2099 10.605 21.1049 10.5 20.9999C10.29 20.7899 10.08 20.5799 9.97501 20.3699C9.87001 20.1599 9.66001 19.8449 9.55501 19.5299C8.40001 20.8949 7.14001 21.5249 5.46001 21.5249C4.30501 21.5249 3.25501 21.2099 2.73001 20.4749C1.99501 19.7399 1.68001 18.8999 1.68001 17.8499C1.68001 16.5899 2.10001 15.6449 2.94001 15.0149C3.78001 14.3849 4.93501 13.8599 6.30001 13.8599C6.82501 13.8599 7.24501 13.8599 7.77001 13.9649C8.29501 14.0699 8.82001 14.1749 9.45001 14.2799V13.2299C9.45001 12.1799 9.24001 11.3399 8.82001 10.9199C8.40001 10.4999 7.56001 10.2899 6.51001 10.2899C5.98501 10.2899 5.46001 10.3949 4.93501 10.4999C4.41001 10.6049 3.88501 10.8149 3.36001 11.0249C3.15001 11.1299 2.94001 11.2349 2.83501 11.2349C2.73001 11.2349 2.62501 11.2349 2.62501 11.2349C2.41501 11.2349 2.31001 11.1299 2.31001 10.8149V10.0799C2.31001 9.86994 2.31001 9.65994 2.41501 9.55494C2.52001 9.44994 2.73001 9.44994 2.94001 9.34494C3.46501 9.13494 4.09501 8.81994 4.72501 8.71494C5.35501 8.50494 6.09001 8.39994 6.82501 8.39994C8.50501 8.39994 9.66001 8.81994 10.5 9.55494C11.34 10.2899 11.655 11.5499 11.655 13.0199L11.865 17.5349ZM6.09001 19.6349C6.61501 19.6349 7.03501 19.5299 7.56001 19.4249C8.08501 19.3199 8.50501 18.8999 8.92501 18.4799C9.13501 18.1649 9.34501 17.9549 9.45001 17.5349C9.55501 17.2199 9.55501 16.7999 9.55501 16.2749V15.7499C9.13501 15.6449 8.71501 15.5399 8.19001 15.5399C7.77001 15.4349 7.24501 15.4349 6.82501 15.4349C5.88001 15.4349 5.14501 15.6449 4.72501 15.9599C4.20001 16.3799 3.99001 16.9049 3.99001 17.6399C3.99001 18.2699 4.20001 18.7949 4.51501 19.1099C5.04001 19.5299 5.46001 19.6349 6.09001 19.6349ZM17.43 21.2099C17.22 21.2099 17.01 21.2099 16.905 21.1049C16.8 20.9999 16.695 20.7899 16.59 20.5799L13.335 9.65994C13.23 9.34494 13.23 9.13494 13.23 9.13494C13.23 8.92494 13.335 8.81994 13.545 8.81994H14.91C15.225 8.81994 15.33 8.81994 15.435 8.92494C15.54 9.02994 15.645 9.23994 15.75 9.44994L18.06 18.6899L20.265 9.44994C20.37 9.13494 20.475 8.92494 20.58 8.92494C20.685 8.92494 20.895 8.81994 21.105 8.81994H22.26C22.575 8.81994 22.68 8.81994 22.785 8.92494C22.89 9.02994 22.995 9.23994 23.1 9.44994L25.41 18.7949L27.825 9.44994C27.93 9.13494 28.035 8.92494 28.14 8.92494C28.245 8.81994 28.455 8.81994 28.665 8.81994H30.03C30.24 8.81994 30.345 8.92494 30.345 9.13494C30.345 9.23994 30.345 9.23994 30.345 9.34494C30.345 9.44994 30.345 9.55494 30.24 9.65994L26.88 20.4749C26.775 20.7899 26.67 20.9999 26.565 20.9999C26.46 20.9999 26.25 21.1049 26.04 21.1049H24.78C24.465 21.1049 24.36 21.1049 24.255 20.9999C24.15 20.8949 24.045 20.6849 23.94 20.4749L21.735 11.4449L19.53 20.4749C19.425 20.7899 19.32 20.9999 19.215 20.9999C19.11 21.1049 18.9 21.1049 18.69 21.1049L17.43 21.2099ZM35.385 21.6299C34.65 21.6299 33.915 21.5249 33.18 21.4199C32.445 21.3149 31.92 21.1049 31.5 20.8949C31.29 20.7899 31.08 20.5799 31.08 20.4749C30.975 20.3699 30.975 20.1599 30.975 20.0549V19.3199C30.975 19.0049 31.08 18.8999 31.29 18.8999C31.395 18.8999 31.5 18.8999 31.5 18.8999C31.605 18.8999 31.71 19.0049 31.815 19.0049C32.34 19.2149 32.865 19.4249 33.39 19.5299C33.915 19.6349 34.545 19.7399 35.07 19.7399C36.015 19.7399 36.645 19.5299 37.17 19.2149C37.695 18.8999 37.905 18.4799 37.905 17.8499C37.905 17.4299 37.8 17.1149 37.485 16.7999C37.275 16.4849 36.75 16.2749 36.015 16.0649L33.915 15.4349C32.865 15.1199 32.13 14.5949 31.605 13.9649C31.08 13.3349 30.87 12.5999 30.87 11.8649C30.87 11.2349 30.975 10.7099 31.29 10.2899C31.5 9.86994 31.92 9.44994 32.34 9.13494C32.76 8.81994 33.285 8.60994 33.81 8.39994C34.335 8.18994 34.965 8.18994 35.595 8.18994C35.91 8.18994 36.225 8.18994 36.54 8.29494C36.855 8.29494 37.17 8.39994 37.485 8.50494C38.01 8.39994 38.325 8.50494 38.535 8.60994C38.745 8.71494 38.955 8.81994 39.165 8.81994C39.375 8.92494 39.48 9.02994 39.585 9.13494C39.69 9.23994 39.69 9.44994 39.69 9.65994V10.4999C39.69 10.8149 39.585 10.9199 39.375 10.9199C39.27 10.9199 39.06 10.8149 38.85 10.7099C38.01 10.2899 37.065 10.1849 36.225 10.1849C35.385 10.1849 34.755 10.2899 34.335 10.6049C33.915 10.9199 33.705 11.3399 33.705 11.8649C33.705 12.2849 33.81 12.5999 34.125 12.9149C34.44 13.2299 34.965 13.4399 35.7 13.7549L37.695 14.3849C38.745 14.6999 39.48 15.2249 39.9 15.7499C40.32 16.3799 40.53 17.0099 40.53 17.7449C40.53 18.3749 40.425 18.8999 40.11 19.4249C39.9 19.9499 39.48 20.3699 39.06 20.6849C38.64 20.9999 38.115 21.3149 37.485 21.5249C36.75 21.5249 36.12 21.6299 35.385 21.6299Z" fill="white"/>
<path fill-rule="evenodd" clip-rule="evenodd" d="M38.01 28.35C33.39 31.71 26.67 33.6 21 33.6C12.915 33.6 5.67 30.66 0.210003 25.725C-0.209997 25.305 0.210003 24.78 0.735003 25.095C6.72 28.56 13.965 30.66 21.525 30.66C26.67 30.66 32.235 29.61 37.38 27.405C38.115 26.985 38.745 27.825 38.01 28.35Z" fill="#F4991A"/>
<path fill-rule="evenodd" clip-rule="evenodd" d="M39.9 26.25C39.27 25.515 36.015 25.83 34.44 26.04C34.02 26.145 33.915 25.725 34.335 25.41C36.96 23.52 41.265 24.045 41.79 24.675C42.315 25.305 41.685 29.61 39.27 31.605C38.85 31.92 38.535 31.815 38.64 31.29C39.27 30.03 40.53 26.985 39.9 26.25Z" fill="#F4991A"/>
</svg>
