<svg width="84" height="42" viewBox="0 0 84 42" fill="none" xmlns="http://www.w3.org/2000/svg">
<path fill-rule="evenodd" clip-rule="evenodd" d="M5.53 30.2176C5.53 31.5602 6.6185 32.6487 7.9611 32.6487H76.027C77.3696 32.6487 78.4581 31.5602 78.4581 30.2176V11.7824C78.4581 10.4398 77.3696 9.35132 76.027 9.35132H7.9674C6.6248 9.35132 5.5363 10.4398 5.5363 11.7824L5.53 30.2176Z" fill="#CF0A2C"/>
<path d="M17.1675 24.836L17.2193 23.2155V15.631H18.3393V19.572H18.3652C18.767 18.872 19.4852 18.4184 20.5044 18.4184C22.0605 18.4184 23.1623 19.7148 23.149 21.6202C23.149 23.863 21.735 24.9781 20.335 24.9781C19.4278 24.9781 18.7019 24.6281 18.235 23.7986H18.1958L18.144 24.836H17.1591H17.1675ZM18.347 22.3209C18.347 22.4637 18.3729 22.6058 18.3988 22.736C18.6193 23.527 19.2808 24.0716 20.1103 24.0716C21.3031 24.0716 22.0164 23.0916 22.0164 21.6601C22.0164 20.4022 21.3682 19.3263 20.1495 19.3263C19.3795 19.3263 18.6459 19.8583 18.4121 20.7263C18.3862 20.8558 18.347 21.0112 18.347 21.1932V22.3209ZM28.357 24.836L28.266 24.045H28.2268C27.8768 24.5378 27.2027 24.9788 26.3088 24.9788C25.0383 24.9788 24.3908 24.0842 24.3908 23.177C24.3908 21.6601 25.739 20.8306 28.1708 20.8432V20.72C28.1708 20.202 28.028 19.2682 26.7449 19.2682C26.1618 19.2682 25.5521 19.4502 25.1118 19.7351L24.8528 18.9861C25.3708 18.6487 26.1233 18.4289 26.9143 18.4289C28.8323 18.4289 29.2999 19.7379 29.2999 20.9958V23.3422C29.2999 23.8868 29.3258 24.416 29.4035 24.8458L28.357 24.836ZM28.189 21.6342C26.9444 21.6083 25.5311 21.8288 25.5311 23.0482C25.5311 23.7874 26.0239 24.1374 26.607 24.1374C27.4239 24.1374 27.937 23.6194 28.1239 23.0874C28.1644 22.9704 28.1863 22.8478 28.189 22.7241V21.6342ZM31.3215 15.6317H32.4625V24.8367H31.3215V15.6317ZM34.3511 23.6691C34.6885 23.8896 35.2842 24.1227 35.8547 24.1227C36.6842 24.1227 37.0727 23.7076 37.0727 23.1889C37.0727 22.6443 36.7486 22.3461 35.9058 22.0353C34.7858 21.6335 34.2447 21.0112 34.2447 20.2594C34.2447 19.2479 35.0616 18.4184 36.4098 18.4184C37.0454 18.4184 37.6026 18.6004 37.9526 18.8076L37.6677 19.6371C37.282 19.3993 36.8377 19.2735 36.3846 19.2738C35.7105 19.2738 35.3346 19.663 35.3346 20.1292C35.3346 20.6472 35.7105 20.881 36.5274 21.1932C37.6166 21.6083 38.1738 22.1522 38.1738 23.086C38.1738 24.1878 37.3184 24.9662 35.8274 24.9662C35.14 24.9662 34.4974 24.7982 34.0634 24.5406L34.3511 23.6691ZM43.4511 24.836L43.3601 24.045H43.3209C42.9709 24.5378 42.2968 24.9788 41.4029 24.9788C40.1324 24.9788 39.4849 24.0842 39.4849 23.177C39.4849 21.6601 40.8331 20.8306 43.2649 20.8432V20.72C43.2649 20.202 43.1221 19.2682 41.839 19.2682C41.2559 19.2682 40.6462 19.4502 40.2059 19.7351L39.9469 18.9861C40.4649 18.6487 41.2174 18.4289 42.0084 18.4289C43.9264 18.4289 44.394 19.7379 44.394 20.9958V23.3422C44.394 23.8868 44.4199 24.416 44.4976 24.8458L43.4511 24.836ZM43.2831 21.6342C42.0385 21.6083 40.6252 21.8288 40.6252 23.0482C40.6252 23.7874 41.118 24.1374 41.7011 24.1374C42.5173 24.1374 43.0367 23.6194 43.218 23.0874C43.2585 22.9704 43.2804 22.8478 43.2831 22.7241V21.6342ZM46.4065 20.2601L46.3547 18.5619H47.3529L47.4047 19.5734H47.4453C47.7953 18.977 48.3791 18.4198 49.4158 18.4198C50.2712 18.4198 50.9194 18.9378 51.1917 19.6777H51.2176C51.4122 19.3277 51.6586 19.0477 51.9176 18.8608C52.2935 18.5759 52.7086 18.4198 53.3036 18.4198C54.1331 18.4198 55.3651 18.9644 55.3651 21.1498V24.8458H54.25V21.2926C54.25 20.0872 53.809 19.3606 52.8885 19.3606C52.2403 19.3606 51.7349 19.8401 51.5403 20.398C51.4885 20.5534 51.4493 20.762 51.4493 20.9685V24.8451H50.3342V21.0861C50.3342 20.0879 49.8932 19.3641 49.0252 19.3641C48.3112 19.3641 47.7932 19.9346 47.6112 20.5051C47.5474 20.6838 47.5166 20.8726 47.5202 21.0623V24.8479H46.4051V20.2699L46.4065 20.2601ZM58.6747 16.7986C58.6873 17.1878 58.3947 17.4986 57.9488 17.4986C57.547 17.4986 57.2614 17.1871 57.2614 16.7986C57.2586 16.7041 57.2751 16.6101 57.31 16.5223C57.3448 16.4345 57.3973 16.3548 57.4641 16.2879C57.5309 16.2211 57.6106 16.1687 57.6984 16.1339C57.7863 16.099 57.8803 16.0825 57.9747 16.0853C58.3947 16.0853 58.6747 16.3968 58.6747 16.7993V16.7986ZM57.4007 24.836V18.5612H58.5417V24.836H57.4007ZM64.9446 23.856H64.9187C64.5813 24.486 63.8813 24.9711 62.8726 24.9711C61.4082 24.9711 60.2147 23.7006 60.2147 21.7945C60.2147 19.4481 61.7316 18.4107 63.0539 18.4107C64.0339 18.4107 64.6744 18.8902 64.9859 19.4999H65.0118L65.0524 18.5549H66.1283L66.0898 20.279V27.3959H64.9488V23.87L64.9446 23.856ZM64.9446 21.0952C64.9446 20.9398 64.932 20.7578 64.8928 20.6157C64.7248 19.9157 64.1228 19.3193 63.2597 19.3193C62.0802 19.3193 61.3669 20.3175 61.3669 21.7308C61.3669 22.9754 61.9633 24.0646 63.2205 24.0646C63.9597 24.0646 64.5946 23.611 64.8536 22.82C64.91 22.6438 64.9407 22.4604 64.9446 22.2754V21.0952Z" fill="white"/>
</svg>
