<svg width="42" height="42" viewBox="0 0 42 42" fill="none" xmlns="http://www.w3.org/2000/svg">
<path fill-rule="evenodd" clip-rule="evenodd" d="M21.21 0C10.92 0 2.625 8.295 2.625 18.48C2.625 27.51 9.135 34.965 17.64 36.645V41.895C28.77 40.215 38.535 31.395 39.27 19.845C39.69 12.915 36.225 5.775 30.345 2.31C30.03 2.1 29.715 1.89 29.295 1.785C28.98 1.575 28.56 1.47 28.245 1.26C28.14 1.26 28.035 1.155 27.93 1.155C27.615 1.155 27.3 1.05 26.985 0.945C25.095 0.315 23.1 0 21.21 0Z" fill="#00A818"/>
<path fill-rule="evenodd" clip-rule="evenodd" d="M25.095 9.76499C24.465 9.65999 23.73 9.97499 23.31 10.5C22.995 10.92 22.785 11.34 22.575 11.865C21.945 13.44 22.155 15.12 23.1 16.38C24.675 16.065 26.04 15.015 26.67 13.44C26.88 13.02 26.985 12.495 26.985 11.97C27.09 10.71 26.145 9.86999 25.095 9.76499ZM16.8 9.86999C15.75 9.97499 14.805 10.815 14.805 11.97C14.805 12.39 14.91 13.02 15.12 13.44C15.75 15.015 17.22 16.065 18.795 16.38C19.74 15.12 19.95 13.44 19.215 11.865C19.005 11.445 18.795 10.92 18.48 10.605C18.165 10.08 17.43 9.76499 16.8 9.86999ZM11.235 15.33C9.45 15.435 8.61 17.64 10.185 18.795C10.605 19.11 11.025 19.425 11.55 19.635C13.125 20.265 15.015 20.055 16.275 19.215C15.96 17.745 14.805 16.38 13.23 15.75C12.705 15.54 12.18 15.435 11.655 15.435C11.445 15.225 11.34 15.225 11.235 15.33ZM28.665 22.155C27.615 22.155 26.565 22.47 25.725 22.995C26.04 24.465 27.195 25.83 28.77 26.46C29.295 26.67 29.82 26.775 30.345 26.775C32.34 26.88 33.39 24.36 31.815 23.205C31.395 22.89 30.975 22.68 30.45 22.47C29.925 22.26 29.295 22.155 28.665 22.155ZM13.23 22.26C12.6 22.26 11.97 22.365 11.445 22.68C10.92 22.89 10.395 23.205 10.08 23.52C8.61 24.78 9.555 27.09 11.655 26.985C12.18 26.985 12.81 26.88 13.23 26.67C14.805 26.04 15.96 24.675 16.17 23.205C15.33 22.575 14.28 22.26 13.23 22.26ZM19.005 25.725C17.43 26.04 16.065 27.09 15.435 28.665C15.225 29.085 15.12 29.61 15.12 30.135C15.015 32.025 17.64 33.075 18.795 31.605C19.11 31.185 19.32 30.765 19.53 30.24C20.055 28.77 19.845 27.09 19.005 25.725ZM23.205 25.83C22.26 27.09 22.05 28.77 22.785 30.345C22.995 30.765 23.205 31.29 23.52 31.605C24.78 32.97 27.405 31.92 27.3 30.24C27.3 29.82 27.195 29.19 26.985 28.77C26.145 27.195 24.78 26.145 23.205 25.83Z" fill="white"/>
</svg>
