<svg width="42" height="42" viewBox="0 0 42 42" fill="none" xmlns="http://www.w3.org/2000/svg">
<path d="M38.955 5.98503C38.745 5.67003 38.535 5.56503 38.22 5.46003C36.54 5.04003 34.755 4.83003 32.97 4.62003C26.88 3.99003 20.895 4.62003 15.12 6.72003C10.395 8.61003 6.3 11.235 2.94 14.91C1.89 16.065 1.05 17.43 0 18.585C0 19.11 0 19.53 0 20.055C0.21 21.42 0.63 22.68 1.05 23.94C3.255 30.24 7.56 34.44 13.86 36.645C15.12 37.065 16.38 37.275 17.64 37.59C19.11 37.59 20.685 37.59 22.155 37.59C22.47 37.59 22.68 37.59 22.995 37.59L24.78 37.485C28.665 36.855 31.815 34.965 34.755 32.445C42.525 25.62 44.205 14.805 38.955 5.98503ZM21 25.305C16.275 25.305 12.39 21.525 12.39 16.695C12.39 11.865 16.275 7.98003 21 8.08503C25.725 8.08503 29.61 11.97 29.61 16.695C29.505 21.42 25.725 25.305 21 25.305Z" fill="#767676"/>
</svg>
