<svg width="43" height="42" viewBox="0 0 43 42" fill="none" xmlns="http://www.w3.org/2000/svg">
<g clip-path="url(#clip0_0_1682)">
<path d="M25.0721 31.815C19.0871 33.915 12.4721 30.765 10.3721 24.78C8.27213 18.795 11.4221 12.18 17.4071 10.08C19.8221 9.24003 22.3421 9.24003 24.7571 9.97503C25.2821 10.185 25.8071 9.87003 26.0171 9.34503C26.2271 8.82003 26.0171 8.19003 25.4921 7.98003H25.3871C24.1271 7.56003 22.7621 7.35003 21.3971 7.35003C13.8371 7.24503 7.64213 13.335 7.53713 20.79C7.53713 23.1 8.06213 25.305 9.11213 27.405L4.91213 30.03C4.38713 29.61 3.65213 29.505 3.02213 29.505C1.55213 29.715 0.397129 31.08 0.607129 32.55C0.817129 34.02 2.18213 35.175 3.65213 34.965C5.01713 34.755 6.06713 33.6 6.06713 32.235C6.06713 32.13 6.06713 31.92 6.06713 31.815L10.2671 29.19C13.8371 33.915 20.0321 35.805 25.7021 33.81C26.2271 33.6 26.5421 32.97 26.3321 32.445V32.34C26.1221 31.92 25.5971 31.605 25.0721 31.815Z" fill="url(#paint0_linear_0_1682)"/>
<path d="M21.1871 28.98C21.1871 28.455 21.6071 27.93 22.1321 27.93C26.0171 27.405 28.6421 23.835 28.1171 20.055C27.6971 16.905 25.2821 14.49 22.1321 14.07C21.6071 13.965 21.1871 13.545 21.1871 13.02C21.1871 12.39 21.7121 11.97 22.2371 11.97H22.3421C27.3821 12.6 30.9521 17.22 30.2171 22.26C29.6921 26.355 26.4371 29.61 22.3421 30.135C21.7121 30.24 21.1871 29.82 21.1871 29.19C21.1871 29.085 21.1871 29.085 21.1871 28.98Z" fill="url(#paint1_linear_0_1682)"/>
<path d="M39.6671 5.355C38.0921 5.46 37.0421 6.825 37.1471 8.295C37.1471 8.4 37.1471 8.505 37.1471 8.61L35.3621 9.765C32.2121 5.775 27.4871 3.36 22.3421 2.94C21.7121 2.94 21.2921 3.36 21.1871 3.99C21.1871 3.99 21.1871 3.99 21.1871 4.095C21.1871 4.62 21.6071 5.145 22.2371 5.145C30.5321 5.67 36.9371 12.495 37.0421 20.685C37.1471 29.4 29.9021 36.75 21.1871 36.75C17.4071 36.75 13.6271 35.385 10.7921 32.865C10.4771 32.55 9.9521 32.55 9.5321 32.76C9.0071 33.075 8.9021 33.705 9.2171 34.23C9.3221 34.335 9.3221 34.44 9.4271 34.44C12.7871 37.38 17.0921 38.955 21.6071 38.85C31.5821 38.64 39.4571 30.45 39.2471 20.475C39.1421 17.22 38.3021 14.07 36.6221 11.34L38.4071 10.395C39.6671 11.235 41.4521 10.815 42.1871 9.555C43.0271 8.295 42.6071 6.51 41.3471 5.775C40.8221 5.355 40.1921 5.25 39.6671 5.355Z" fill="url(#paint2_linear_0_1682)"/>
</g>
<defs>
<linearGradient id="paint0_linear_0_1682" x1="25.7952" y1="38.0002" x2="10.4983" y2="16.9792" gradientUnits="userSpaceOnUse">
<stop stop-color="#EFAB00"/>
<stop offset="1" stop-color="#EFB700"/>
</linearGradient>
<linearGradient id="paint1_linear_0_1682" x1="23.5783" y1="22.025" x2="27.9164" y2="14.2203" gradientUnits="userSpaceOnUse">
<stop stop-color="#DD3163"/>
<stop offset="1" stop-color="#FF5663"/>
</linearGradient>
<linearGradient id="paint2_linear_0_1682" x1="14.4956" y1="29.7616" x2="40.5574" y2="7.72527" gradientUnits="userSpaceOnUse">
<stop offset="0.03" stop-color="#1890FF"/>
<stop offset="1" stop-color="#18B5FF"/>
</linearGradient>
<clipPath id="clip0_0_1682">
<rect width="42" height="42" fill="white" transform="translate(0.607178)"/>
</clipPath>
</defs>
</svg>
