<svg width="42" height="42" viewBox="0 0 42 42" fill="none" xmlns="http://www.w3.org/2000/svg">
<g clip-path="url(#clip0_0_2143)">
<path fill-rule="evenodd" clip-rule="evenodd" d="M-0.630005 3.36011V3.67511V28.6651V28.9801L7.34999 38.6401H18.27V34.1251H9.24L3.77999 27.7201V7.87511H18.27V3.36011H-0.315005H-0.630005Z" fill="#3E58A4"/>
<path fill-rule="evenodd" clip-rule="evenodd" d="M9.55499 24.8851V25.2001L12.81 28.3501H18.27V24.2551H14.7L14.07 23.5201V18.4801H18.27V13.9651H9.55499V24.8851Z" fill="#3E58A4"/>
<path fill-rule="evenodd" clip-rule="evenodd" d="M24.675 3.36011H21.84V7.87511H24.675C31.395 7.87511 36.855 13.6501 36.855 21.0001C36.855 28.3501 31.395 34.1251 24.675 34.1251H21.84V38.6401H24.675C34.02 38.6401 41.37 30.6601 41.37 21.0001C41.055 11.3401 33.6 3.36011 24.675 3.36011Z" fill="#3E58A4"/>
<path fill-rule="evenodd" clip-rule="evenodd" d="M31.08 21.3151C31.08 17.4301 27.825 13.9651 23.73 13.9651H21.84V18.4801H23.73C25.305 18.4801 26.565 19.7401 26.565 21.3151C26.565 22.8901 25.305 24.1501 23.73 24.1501H21.84V28.6651H23.73C27.51 28.3501 31.08 25.2001 31.08 21.3151Z" fill="#3E58A4"/>
</g>
<defs>
<clipPath id="clip0_0_2143">
<rect width="42" height="42" fill="white"/>
</clipPath>
</defs>
</svg>
