<svg width="43" height="42" viewBox="0 0 43 42" fill="none" xmlns="http://www.w3.org/2000/svg">
<path d="M20.1372 0H26.9622V31.815C23.3922 32.445 20.8722 32.76 18.0372 32.76C9.63718 32.76 5.33218 28.98 5.33218 21.735C5.33218 14.7 9.95218 10.185 17.1972 10.185C18.3522 10.185 19.1922 10.29 20.1372 10.5V0ZM20.1372 15.96C19.2972 15.645 18.6672 15.645 17.8272 15.645C14.3622 15.645 12.3672 17.745 12.3672 21.525C12.3672 25.2 14.2572 27.195 17.8272 27.195C18.5622 27.195 19.1922 27.195 20.1372 26.985V15.96ZM37.8822 10.605V26.565C37.8822 32.025 37.4622 34.65 36.3072 36.96C35.1522 39.165 33.6822 40.53 30.6372 42L24.2322 38.955C27.2772 37.485 28.7472 36.33 29.6922 34.335C30.6372 32.34 30.9522 30.135 30.9522 24.15V10.605H37.8822ZM31.0572 0H37.8822V7.035H31.0572V0Z" fill="#46AC85"/>
</svg>
