<svg width="42" height="42" viewBox="0 0 42 42" fill="none" xmlns="http://www.w3.org/2000/svg">
<path d="M24.2765 16.6112H28.0575V20.4635H29.9836C30.8397 20.4635 31.7671 20.3208 32.6232 20.0355C32.9799 19.8928 33.4793 19.6788 33.836 19.4647C33.3366 18.7514 33.0512 17.8953 32.9085 17.0392C32.7659 15.8978 33.0512 14.3283 33.836 13.4009L34.264 12.9729L34.7634 13.3296C35.9761 14.257 36.9749 15.6124 37.1176 17.1105C38.5444 16.6825 40.2565 16.7539 41.4693 17.5386L41.9686 17.8239L41.6833 18.3233C40.6132 20.3922 38.4017 21.0342 36.1902 20.9629C32.9085 29.0956 25.8459 32.9479 17.2139 32.9479C12.7908 32.9479 8.65314 31.3071 6.37028 27.3121C6.2276 27.0981 6.08492 26.8127 6.01358 26.5273C5.22885 24.8152 4.94349 22.889 5.15751 20.9629L5.22885 20.3922H8.43912V16.6112H12.2201V12.8302H19.7821V9.04919H24.2765V16.6112Z" fill="#394D54"/>
<path d="M7.51172 28.3822C9.86592 28.5249 12.3628 28.5249 14.503 27.8828" stroke="#394D54" stroke-width="0.57982" stroke-miterlimit="5.4354" stroke-linecap="round"/>
<path d="M16.8572 26.67C16.8572 27.1693 16.4291 27.5974 15.9298 27.5974C15.4304 27.5974 15.0023 27.1693 15.0023 26.67C15.0023 26.1706 15.4304 25.7426 15.9298 25.7426C16.4291 25.8139 16.8572 26.1706 16.8572 26.67Z" fill="#D4EDF1"/>
<path d="M16.1438 26.0993C16.0724 26.1707 16.0011 26.242 16.0011 26.3133C16.0011 26.456 16.1438 26.5987 16.2865 26.5987C16.3578 26.5987 16.5005 26.5274 16.5005 26.456C16.5005 26.5274 16.5718 26.5987 16.5718 26.67C16.5718 27.0267 16.2865 27.3121 15.9298 27.3121C15.5731 27.3121 15.2877 27.0267 15.2877 26.67C15.2877 26.3133 15.5731 26.028 15.9298 26.028C16.0011 26.028 16.0724 26.028 16.1438 26.0993ZM0.0210724 23.8878H41.8973C40.9699 23.6738 39.0437 23.3171 39.3291 22.1757C37.6883 24.1018 33.6933 23.5311 32.6945 22.6037C31.5531 24.2445 25.0612 23.6024 24.5618 22.3183C23.135 23.9591 18.7833 23.9591 17.3565 22.3183C16.9285 23.6024 10.3653 24.2445 9.22386 22.6037C8.2251 23.5311 4.2301 24.1018 2.51795 22.1757C2.87465 23.3884 0.877145 23.6738 0.0210724 23.8878Z" fill="#394D54"/>
</svg>
