<svg width="43" height="42" viewBox="0 0 43 42" fill="none" xmlns="http://www.w3.org/2000/svg">
<g clip-path="url(#clip0_0_1570)">
<path d="M22.0382 41.37C33.4622 41.37 42.7232 32.109 42.7232 20.685C42.7232 9.26099 33.4622 0 22.0382 0C10.6142 0 1.35321 9.26099 1.35321 20.685C1.35321 32.109 10.6142 41.37 22.0382 41.37Z" fill="#5C2D91"/>
<path opacity="0.1" d="M7.6532 5.88C-0.851797 13.44 -1.5868 26.46 5.9732 35.07C13.5332 43.68 26.6582 44.415 35.1632 36.75C35.7932 36.225 36.3182 35.7 36.8432 35.07L7.6532 5.88Z" fill="white"/>
<path d="M6.07819 24.045C5.86819 24.045 5.55319 23.94 5.44819 23.835C5.23819 23.625 5.23819 23.415 5.23819 23.205C5.23819 22.995 5.34319 22.68 5.44819 22.575C5.55319 22.365 5.86819 22.26 6.07819 22.365C6.28819 22.365 6.60319 22.47 6.70819 22.575C6.91819 22.785 7.02319 22.995 7.02319 23.205C7.02319 23.415 6.91819 23.73 6.81319 23.835C6.60319 24.045 6.28819 24.045 6.07819 24.045Z" fill="white"/>
<path d="M18.8882 23.94H17.2082L11.1182 14.49C11.0132 14.28 10.9082 13.965 10.6982 13.755C10.8032 14.28 10.8032 14.805 10.8032 15.33V23.835H9.4382V12.18H11.2232L17.1032 21.42C17.3132 21.84 17.5232 22.05 17.6282 22.155C17.5232 21.63 17.5232 21 17.5232 20.37V12.075H18.8882V23.94Z" fill="white"/>
<path d="M28.2332 23.94H21.9332V12.18H27.9182V13.44H23.2982V17.325H27.4982V18.585H23.2982V22.68H28.1282L28.2332 23.94Z" fill="white"/>
<path d="M37.4732 13.335H34.0082V23.94H32.6432V13.335H29.2832V12.075H37.4732V13.335Z" fill="white"/>
<path d="M18.1532 32.025C17.6282 32.235 17.2082 32.34 16.6832 32.34C15.9482 32.34 15.3182 32.13 14.7932 31.605C14.2682 31.08 14.0582 30.345 14.0582 29.715C14.0582 28.98 14.2682 28.14 14.7932 27.615C15.3182 27.09 16.0532 26.775 16.7882 26.775C17.2082 26.775 17.6282 26.88 18.0482 26.985V27.615C17.6282 27.405 17.2082 27.3 16.7882 27.3C16.1582 27.3 15.6332 27.51 15.2132 27.93C14.7932 28.35 14.5832 28.98 14.5832 29.61C14.5832 30.24 14.6882 30.765 15.1082 31.185C15.5282 31.605 15.9482 31.815 16.4732 31.815C16.9982 31.815 17.5232 31.71 17.8382 31.395L18.1532 32.025Z" fill="#F2F2F2"/>
<path d="M20.8832 32.235C20.3582 32.235 19.8332 32.025 19.5182 31.71C19.0982 31.29 18.9932 30.765 18.9932 30.24C18.9932 29.715 19.0982 29.085 19.5182 28.665C19.9382 28.245 20.3582 28.14 20.9882 28.14C21.5132 28.14 22.0382 28.35 22.3532 28.665C22.6682 29.085 22.8782 29.61 22.8782 30.135C22.8782 30.66 22.7732 31.185 22.3532 31.605C21.9332 32.13 21.4082 32.235 20.8832 32.235ZM20.8832 28.77C20.4632 28.77 20.1482 28.875 19.9382 29.19C19.7282 29.505 19.5182 29.925 19.6232 30.345C19.6232 30.765 19.7282 31.08 19.9382 31.395C20.1482 31.605 20.5682 31.815 20.8832 31.815C21.1982 31.815 21.6182 31.71 21.8282 31.395C22.0382 31.08 22.1432 30.66 22.1432 30.24C22.1432 29.82 22.0382 29.505 21.8282 29.085C21.6182 28.875 21.1982 28.665 20.8832 28.77Z" fill="#F2F2F2"/>
<path d="M25.8182 28.98C25.7132 28.875 25.5032 28.875 25.2932 28.875C25.0832 28.875 24.7682 28.98 24.6632 29.295C24.4532 29.61 24.3482 29.925 24.4532 30.345V32.34H23.8232V28.455H24.4532V29.295C24.5582 29.085 24.6632 28.77 24.8732 28.665C25.0832 28.56 25.2932 28.455 25.5032 28.455C25.6082 28.455 25.7132 28.455 25.9232 28.455V28.98H25.8182Z" fill="#F2F2F2"/>
<path d="M29.5982 30.45H26.8682C26.8682 30.87 26.9732 31.185 27.1832 31.5C27.3932 31.71 27.8132 31.92 28.1282 31.815C28.5482 31.815 28.9682 31.71 29.2832 31.395V32.025C28.8632 32.235 28.4432 32.445 27.9182 32.445C27.3932 32.445 26.9732 32.235 26.6582 31.92C26.3432 31.5 26.1332 30.975 26.1332 30.45C26.1332 29.925 26.2382 29.4 26.6582 28.98C26.9732 28.56 27.3932 28.35 27.9182 28.455C28.3382 28.455 28.7582 28.56 29.0732 28.98C29.3882 29.4 29.4932 29.82 29.4932 30.345L29.5982 30.45ZM28.9682 29.925C28.9682 29.61 28.8632 29.295 28.7582 29.085C28.5482 28.875 28.3382 28.77 28.0232 28.77C27.7082 28.77 27.4982 28.875 27.2882 29.085C27.0782 29.295 26.9732 29.61 26.8682 29.925H28.9682Z" fill="#F2F2F2"/>
</g>
<defs>
<clipPath id="clip0_0_1570">
<rect width="42" height="42" fill="white" transform="translate(0.723206)"/>
</clipPath>
</defs>
</svg>
