<svg width="42" height="42" viewBox="0 0 42 42" fill="none" xmlns="http://www.w3.org/2000/svg">
<g clip-path="url(#clip0_0_1553)">
<path d="M41.9934 22.0488C41.9934 18.518 39.7994 15.4671 36.5428 14.2673C36.6807 13.5211 36.7495 12.7637 36.7484 12.0048C36.7484 5.45719 31.435 0.14386 24.8875 0.14386C21.0824 0.14386 17.5173 1.96069 15.289 5.08017C14.1921 4.22311 12.8551 3.77752 11.4496 3.77752C7.98722 3.77752 5.14205 6.5884 5.14205 10.0851C5.14205 10.8393 5.2792 11.5935 5.51906 12.2791C2.2283 13.4103 0 16.5641 0 20.0606C0 23.5915 2.19401 26.6767 5.48477 27.8765C5.34778 28.5964 5.2792 29.3506 5.2792 30.1389C5.2792 36.6522 10.5925 41.9657 17.1058 41.9657C20.9452 41.9657 24.4762 40.1146 26.7043 37.0294C27.8012 37.8863 29.1724 38.3663 30.578 38.3663C34.0403 38.3663 36.8855 35.5553 36.8855 32.0588C36.8855 31.3046 36.7484 30.5504 36.5085 29.8648C39.7307 28.6993 41.9933 25.5455 41.9933 22.0488H41.9934Z" fill="white"/>
<path d="M16.4202 18.1066L25.7788 22.3917L35.2401 14.0959C35.3781 13.4074 35.4469 12.7069 35.4457 12.0048C35.4457 6.17727 30.7151 1.44653 24.8875 1.44653C21.3908 1.44653 18.1343 3.16049 16.1803 6.03995L14.6034 14.1988L16.4202 18.1066Z" fill="#F4BD19"/>
<path d="M6.71885 28.0137C6.58186 28.6993 6.51328 29.4192 6.51328 30.1391C6.51328 35.9666 11.2781 40.7317 17.1058 40.7317C20.6368 40.7317 23.8934 38.9834 25.8815 36.1038L27.4242 27.9451L25.3331 23.9686L15.9403 19.6836L6.71885 28.0137Z" fill="#3CBEB1"/>
<path d="M6.65044 11.7991L13.0609 13.3075L14.5005 6.0057C13.6093 5.32008 12.5465 4.97736 11.4153 4.97736C8.63855 4.97736 6.34184 7.23978 6.34184 10.0508C6.34184 10.6336 6.44487 11.2506 6.65044 11.7991Z" fill="#E9478C"/>
<path d="M6.10181 13.3416C3.22235 14.2672 1.23408 17.044 1.23408 20.0606C1.23408 23.0088 3.05091 25.6484 5.79338 26.6767L14.8091 18.5179L13.1636 14.9873L6.10181 13.3416Z" fill="#2C458F"/>
<path d="M27.5271 36.0695C28.4182 36.7553 29.481 37.1323 30.578 37.1323C33.3547 37.1323 35.6514 34.8699 35.6514 32.0588C35.6514 31.4418 35.5486 30.8589 35.343 30.3104L28.9326 28.8022L27.5271 36.0695Z" fill="#95C63D"/>
<path d="M28.8297 27.1223L35.8915 28.7679C38.7709 27.8081 40.7592 25.0656 40.7592 22.0488C40.7592 19.1006 38.9424 16.4955 36.1999 15.4329L26.9443 23.5229L28.8297 27.1223Z" fill="#176655"/>
</g>
<defs>
<clipPath id="clip0_0_1553">
<rect width="42" height="42" fill="white"/>
</clipPath>
</defs>
</svg>
