<svg width="34" height="42" viewBox="0 0 34 42" fill="none" xmlns="http://www.w3.org/2000/svg">
<g clip-path="url(#clip0_0_1732)">
<path d="M16.0168 24.5119H1.2804V0.685852H16.0168C22.6275 0.685852 27.9298 5.98819 27.9298 12.5989C27.9298 19.2096 22.6275 24.5119 16.0168 24.5119Z" fill="#07A5DE"/>
<path d="M20.4928 41.3141H1.2804V17.488H20.4928C27.1035 17.488 32.4058 22.7904 32.4058 29.4011C32.4058 36.0118 27.1035 41.3141 20.4928 41.3141Z" fill="#3EBEB0"/>
<path opacity="0.26" d="M29.5136 21.6197C27.31 19.0719 24.0735 17.488 20.4928 17.488H1.2804V28.5059H19.1155C25.4508 28.5059 29.8579 21.964 29.5136 21.6197Z" fill="#353535"/>
<path d="M16.0168 24.5119C20.2862 24.5119 24.0047 22.2395 26.1394 18.8653C25.8639 18.7275 25.5885 18.5898 25.2442 18.4521C25.1753 18.4521 25.1065 18.3832 25.0376 18.3832C24.7622 18.2455 24.4867 18.1767 24.1424 18.0389H24.0735C24.0047 18.0389 24.0047 18.0389 23.9358 17.9701L23.1095 17.7635H22.9718C22.9029 17.7635 22.834 17.7635 22.834 17.6946C22.5586 17.6258 22.2831 17.6258 22.0077 17.5569H21.5945C21.2502 17.5569 20.9748 17.488 20.6305 17.488H1.2804V24.5119H16.0168Z" fill="#353535"/>
</g>
<defs>
<clipPath id="clip0_0_1732">
<rect width="32.6128" height="42" fill="white" transform="translate(0.514648)"/>
</clipPath>
</defs>
</svg>
