<svg width="33" height="42" viewBox="0 0 33 42" fill="none" xmlns="http://www.w3.org/2000/svg">
<g clip-path="url(#clip0_0_1717)">
<path d="M1.30955 15.747C6.69228 15.747 11.7801 17.148 16.2042 19.5076L31.9837 0.557434H0.719666V38.1628V15.747H1.30955Z" fill="#E9478B"/>
<path d="M16.2042 19.5076L0.719666 38.1628V41.1122H31.91C30.1403 31.8215 24.2414 23.9317 16.2042 19.5076Z" fill="#3EBEB0"/>
<path d="M16.2042 19.5076L0.719666 38.1628V41.1122H6.24986L21.292 22.9732C21.292 22.9732 20.2597 22.1621 18.8587 21.1298C17.8264 20.3924 16.2042 19.5076 16.2042 19.5076Z" fill="#37A595"/>
<path d="M1.30955 15.7471H0.719666V38.1628L16.2042 19.5076C11.7801 17.1481 6.69228 15.7471 1.30955 15.7471Z" fill="#353535"/>
</g>
<defs>
<clipPath id="clip0_0_1717">
<rect width="32.5146" height="42" fill="white"/>
</clipPath>
</defs>
</svg>
