<svg width="43" height="42" viewBox="0 0 43 42" fill="none" xmlns="http://www.w3.org/2000/svg">
<path d="M14.0419 42.0001C17.9269 42.0001 21.0769 38.8501 21.0769 34.9651V27.9301H14.0419C10.1569 27.9301 7.0069 31.0801 7.0069 34.9651C7.0069 38.8501 10.2619 42.0001 14.0419 42.0001Z" fill="#4CB37D"/>
<path d="M7.11188 21C7.11188 17.115 10.2619 13.965 14.1469 13.965H21.0769V27.93H14.0419C10.2619 28.035 7.11188 24.885 7.11188 21Z" fill="#765FA6"/>
<path d="M7.11188 7.035C7.11188 3.15 10.2619 0 14.0419 0H21.0769V13.965H14.0419C10.2619 13.965 7.11188 10.815 7.11188 7.035Z" fill="#E95025"/>
<path d="M20.8669 0H27.9019C31.7869 0 34.9369 3.15 34.9369 7.035C34.9369 10.92 31.7869 14.07 27.9019 14.07H20.8669V0Z" fill="#EE7265"/>
<path d="M35.0419 21C35.0419 24.885 31.8919 28.035 28.0069 28.035C24.1219 28.035 21.0769 24.885 21.0769 21C21.0769 17.115 24.2269 13.965 28.1119 13.965C31.9969 13.965 34.9369 17.115 35.0419 21Z" fill="#46B7EA"/>
</svg>
