<svg width="43" height="42" viewBox="0 0 43 42" fill="none" xmlns="http://www.w3.org/2000/svg">
<g clip-path="url(#clip0_0_1986)">
<path d="M6.04138 33.9009L6.29711 33.5505L18.3257 10.7246L18.3446 10.4784L13.0407 0.524022C12.5955 -0.309454 11.3453 -0.110557 11.2032 0.836574L6.04138 33.9009Z" fill="#FCC14B"/>
<path d="M6.18347 33.6262L6.3729 33.2568L18.2689 10.6678L12.9839 0.675512C12.5387 -0.139021 11.4211 0.059877 11.2696 0.988066L6.18347 33.6262Z" fill="#F7A521"/>
<path d="M6.18347 33.6262L6.3729 33.2568L18.2689 10.6678L12.9839 0.675512C12.5387 -0.139021 11.4211 0.059877 11.2696 0.988066L6.18347 33.6262Z" fill="#F08217"/>
<path d="M22.2089 18.0081L26.149 13.9733L22.2089 6.43418C21.8396 5.72383 20.7977 5.70488 20.4283 6.43418L18.3068 10.469V10.8005L22.2089 18.0081Z" fill="#F4BE63"/>
<path d="M22.1332 17.847L25.9785 13.9259L22.1332 6.60456C21.7638 5.91315 20.8924 5.84685 20.5136 6.52879L18.4015 10.6109L18.3447 10.8382L22.1332 17.847Z" fill="#F7A420"/>
<path d="M22.1332 17.847L25.9785 13.9259L22.1332 6.60456C21.7638 5.91315 20.8924 5.84685 20.5136 6.52879L18.4015 10.6109L18.3447 10.8382L22.1332 17.847Z" fill="#F08217"/>
<path d="M18.3068 10.431L6.02246 33.9009L6.13612 33.7873L6.56233 33.6168L21.9437 18.2922L22.1332 17.7524L18.3068 10.431Z" fill="#F08217"/>
<path d="M22.692 41.639L36.6148 33.8725L32.6558 9.3702C32.5232 8.61249 31.595 8.29047 31.0362 8.84928L6.04138 33.9009L19.8884 41.6295C20.7598 42.122 21.8206 42.122 22.692 41.639Z" fill="#FDE068"/>
<path d="M36.5011 33.8062L32.5611 9.50284C32.4285 8.74514 31.6518 8.42311 31.112 8.96298L6.18347 33.8441L19.879 41.4969C20.7504 41.98 21.8111 41.98 22.6636 41.4969L36.5011 33.8062Z" fill="#FCC940"/>
<path d="M22.692 41.4117C21.8206 41.8947 20.7598 41.8947 19.8695 41.4117L6.13612 33.7873L6.02246 33.9009L19.8695 41.6295C20.7409 42.1125 21.8017 42.1125 22.692 41.6295L36.6148 33.863L36.5769 33.6547L22.692 41.4117Z" fill="#EEAB36"/>
</g>
<defs>
<clipPath id="clip0_0_1986">
<rect width="42" height="42" fill="white" transform="translate(0.315002)"/>
</clipPath>
</defs>
</svg>
