<svg width="43" height="42" viewBox="0 0 43 42" fill="none" xmlns="http://www.w3.org/2000/svg">
<g clip-path="url(#clip0_0_1777)">
<path d="M42.3388 18.4715H41.588C40.2229 18.4545 37.6087 18.6012 35.2368 20.6489C29.5749 25.5531 28.2781 32.7712 18.5891 36.6618C10.5178 39.9073 0.566101 36.8358 0.566101 36.8358C0.566101 36.8358 9.4428 36.2181 10.6236 29.4437C11.5417 24.1436 6.7228 20.3827 3.69223 15.6013C0.61388 10.7313 -0.177891 6.69052 1.30327 4.94316C5.50443 -0.0224648 17.0841 13.3967 22.8346 15.2089C28.4624 16.9801 32.2574 12.8711 36.9159 13.4718C38.4004 13.6595 39.1274 14.3011 39.6086 15.1201C39.769 15.3932 40.1717 16.3351 40.5266 16.6798C40.8781 17.0177 41.3389 17.2702 41.7723 17.5262C42.3354 17.847 42.8814 18.4715 42.3388 18.4715Z" fill="url(#paint0_linear_0_1777)"/>
<path d="M15.7328 10.7076C14.3404 9.64961 12.9036 8.53703 11.4975 7.53025C11.1801 7.3016 10.8559 7.07976 10.5453 6.86135C6.76053 4.27103 3.25217 2.64653 1.31028 4.93994C-0.170877 6.68729 0.620894 10.7349 3.69924 15.5981C3.72655 15.6493 3.7675 15.6971 3.7948 15.7483C5.39882 18.2294 10.0573 24.0516 21.0909 23.8025C21.8144 23.0346 22.9236 21.5774 24.3467 19.9904C22.0294 16.2568 18.5484 13.001 15.7328 10.7076Z" fill="url(#paint1_linear_0_1777)"/>
<path d="M26.8551 28.263C26.8995 26.6112 26.5991 24.9731 26.0258 23.3998C24.5788 23.6182 22.9406 23.7684 21.0875 23.8059C19.736 25.2427 16.6508 29.0787 11.5419 32.529C4.74014 37.1329 0.566284 36.8428 0.566284 36.8428C0.566284 36.8428 10.5248 39.9143 18.5893 36.6688C21.4834 35.505 23.6334 34.0477 25.3705 32.4369C25.6572 32.1639 26.7937 30.7441 26.8551 28.263Z" fill="url(#paint2_linear_0_1777)"/>
<path d="M24.3433 19.9904C22.9167 21.5705 21.811 23.0312 21.0875 23.8025C22.9474 23.7649 24.5788 23.6148 26.0258 23.3963C25.8586 22.922 25.6572 22.4612 25.4422 22.0005C25.118 21.3214 24.7494 20.649 24.3433 19.9904Z" fill="url(#paint3_linear_0_1777)"/>
<path d="M32.6159 13.9906C29.6365 14.8916 26.6606 16.4001 22.8348 15.2056C20.9407 14.6084 18.4152 12.7552 15.726 10.7075C18.5415 13.0009 22.0226 16.2567 24.3365 19.9972C26.4524 17.6526 29.2714 15.0418 32.6159 13.9906Z" fill="url(#paint4_linear_0_1777)"/>
<path d="M26.0258 23.3964C26.5992 24.9731 26.8995 26.6079 26.8551 28.2597C26.7869 30.7373 25.6538 32.1571 25.3705 32.4301C29.4454 28.6624 31.2713 24.079 35.2404 20.6457C35.9809 20.0041 36.7386 19.5536 37.4826 19.2328H37.4758C34.8752 20.3249 32.0528 22.492 26.0258 23.3964Z" fill="url(#paint5_linear_0_1777)"/>
<path d="M42.339 18.4718C42.885 18.4718 42.3322 17.8472 41.7895 17.5264C41.3561 17.2705 40.8885 17.0213 40.5439 16.68C40.1821 16.3353 39.7828 15.3934 39.6258 15.1204C39.1412 14.2979 38.4177 13.6631 36.9331 13.472C35.4417 13.2775 34.0322 13.571 32.6296 13.9942C29.285 15.0453 26.4626 17.6561 24.3535 19.9939C24.7596 20.6491 25.1316 21.318 25.4559 21.9972C25.6743 22.4579 25.8688 22.9221 26.0394 23.393C32.0665 22.4852 34.8888 20.3215 37.4894 19.2294H37.4962C39.1344 18.5161 40.6701 18.4513 41.6052 18.4683H42.339V18.4718Z" fill="url(#paint6_linear_0_1777)"/>
<path d="M11.5419 32.5256C16.6508 29.0685 19.736 25.2393 21.0875 23.8025C10.0539 24.0516 5.3954 18.2294 3.79138 15.7483C6.81853 20.4614 11.535 24.2018 10.6272 29.4405C9.44639 36.2217 0.562866 36.8394 0.562866 36.8394C0.562866 36.8394 4.74014 37.1295 11.5419 32.5256Z" fill="url(#paint7_linear_0_1777)"/>
<path d="M36.6123 16.8677C37.1005 16.8677 37.4962 16.4766 37.4962 15.994C37.4962 15.5115 37.1005 15.1204 36.6123 15.1204C36.1241 15.1204 35.7284 15.5115 35.7284 15.994C35.7284 16.4766 36.1241 16.8677 36.6123 16.8677Z" fill="white"/>
</g>
<defs>
<linearGradient id="paint0_linear_0_1777" x1="13.1574" y1="35.692" x2="13.2018" y2="35.692" gradientUnits="userSpaceOnUse">
<stop stop-color="#2D5AA3"/>
<stop offset="1" stop-color="#2D5AA3"/>
</linearGradient>
<linearGradient id="paint1_linear_0_1777" x1="11.4618" y1="35.6998" x2="11.5087" y2="35.6998" gradientUnits="userSpaceOnUse">
<stop stop-color="#92D4F2"/>
<stop offset="0.266" stop-color="#70B2DE"/>
<stop offset="0.521" stop-color="#5598CE"/>
<stop offset="0.673" stop-color="#4B8FC8"/>
</linearGradient>
<linearGradient id="paint2_linear_0_1777" x1="13.161" y1="35.6819" x2="13.2057" y2="35.6819" gradientUnits="userSpaceOnUse">
<stop stop-color="#2C9EC7"/>
<stop offset="0.404" stop-color="#2C64A7"/>
<stop offset="1" stop-color="#3B5EA2"/>
</linearGradient>
<linearGradient id="paint3_linear_0_1777" x1="-41.0249" y1="35.6912" x2="-41.0247" y2="35.6912" gradientUnits="userSpaceOnUse">
<stop stop-color="#51ABC5"/>
<stop offset="0.002" stop-color="#2F76B2"/>
<stop offset="1" stop-color="#366FAE"/>
</linearGradient>
<linearGradient id="paint4_linear_0_1777" x1="28.3257" y1="35.6981" x2="28.3546" y2="35.6981" gradientUnits="userSpaceOnUse">
<stop stop-color="#51ABC5"/>
<stop offset="0.002" stop-color="#3082B7"/>
<stop offset="1" stop-color="#3C5FA9"/>
</linearGradient>
<linearGradient id="paint5_linear_0_1777" x1="-41.0203" y1="35.6871" x2="-41.0199" y2="35.6871" gradientUnits="userSpaceOnUse">
<stop stop-color="#51ABC5"/>
<stop offset="0.002" stop-color="#213871"/>
<stop offset="1" stop-color="#23356D"/>
</linearGradient>
<linearGradient id="paint6_linear_0_1777" x1="-59.1946" y1="-6.86408" x2="-59.1946" y2="-6.87995" gradientUnits="userSpaceOnUse">
<stop stop-color="#51ABC5"/>
<stop offset="0.002" stop-color="#2C5B9B"/>
<stop offset="1" stop-color="#384581"/>
</linearGradient>
<linearGradient id="paint7_linear_0_1777" x1="8.59343" y1="35.6866" x2="8.62635" y2="35.6866" gradientUnits="userSpaceOnUse">
<stop offset="0.112" stop-color="#3AB1DA"/>
<stop offset="1" stop-color="#3470B6"/>
</linearGradient>
<clipPath id="clip0_0_1777">
<rect width="42" height="42" fill="white" transform="translate(0.565186)"/>
</clipPath>
</defs>
</svg>
