<svg width="131" height="70" viewBox="0 0 131 70" fill="none" xmlns="http://www.w3.org/2000/svg">
<g filter="url(#filter0_b_0_1980)">
<rect width="130.315" height="70" rx="10" fill="url(#paint0_linear_0_1980)" fill-opacity="0.5"/>
<rect x="0.5" y="0.5" width="129.315" height="69" rx="9.5" stroke="#3A3A3A"/>
<g clip-path="url(#clip0_0_1980)">
<path d="M51.9 56H14.52C13.26 56 12.21 54.95 12.21 53.69V16.31C12.21 15.05 13.155 14 14.52 14H51.9C53.16 14 54.21 15.05 54.21 16.31V53.69C54.21 54.95 53.16 56 51.9 56Z" fill="#62A72E"/>
<path d="M19.98 24.815V19.04L46.44 32.48V37.94L19.98 50.96V45.08L40.56 35.105L19.98 24.815Z" fill="white"/>
</g>
<path d="M71.5494 37.2969C71.5858 37.9479 71.7395 38.4766 72.0103 38.8828C72.5259 39.6432 73.4348 40.0234 74.7369 40.0234C75.3202 40.0234 75.8515 39.9401 76.3306 39.7734C77.2577 39.4505 77.7213 38.8724 77.7213 38.0391C77.7213 37.4141 77.5259 36.9688 77.1353 36.7031C76.7395 36.4427 76.1197 36.2161 75.2759 36.0234L73.7213 35.6719C72.7056 35.4427 71.9869 35.1901 71.565 34.9141C70.8358 34.4349 70.4713 33.7188 70.4713 32.7656C70.4713 31.7344 70.828 30.888 71.5416 30.2266C72.2551 29.5651 73.2655 29.2344 74.5728 29.2344C75.7759 29.2344 76.7968 29.526 77.6353 30.1094C78.4791 30.6875 78.9009 31.6146 78.9009 32.8906H77.44C77.3619 32.276 77.1952 31.8047 76.94 31.4766C76.466 30.8776 75.6614 30.5781 74.5259 30.5781C73.6093 30.5781 72.9504 30.7708 72.5494 31.1562C72.1483 31.5417 71.9478 31.9896 71.9478 32.5C71.9478 33.0625 72.1822 33.474 72.6509 33.7344C72.9582 33.901 73.6535 34.1094 74.7369 34.3594L76.3463 34.7266C77.1223 34.9036 77.7213 35.1458 78.1431 35.4531C78.8723 35.9896 79.2369 36.7682 79.2369 37.7891C79.2369 39.0599 78.7733 39.9688 77.8463 40.5156C76.9244 41.0625 75.8515 41.3359 74.6275 41.3359C73.2004 41.3359 72.0832 40.9714 71.2759 40.2422C70.4686 39.5182 70.0728 38.5365 70.0884 37.2969H71.5494ZM84.5494 40.0547C85.2056 40.0547 85.7499 39.7812 86.1822 39.2344C86.6197 38.6823 86.8384 37.8594 86.8384 36.7656C86.8384 36.099 86.7421 35.526 86.5494 35.0469C86.1848 34.125 85.5181 33.6641 84.5494 33.6641C83.5754 33.6641 82.9088 34.151 82.5494 35.125C82.3567 35.6458 82.2603 36.3073 82.2603 37.1094C82.2603 37.7552 82.3567 38.3047 82.5494 38.7578C82.914 39.6224 83.5806 40.0547 84.5494 40.0547ZM80.9088 32.6719H82.2759V33.7812C82.5572 33.401 82.8645 33.1068 83.1978 32.8984C83.6718 32.5859 84.2291 32.4297 84.8697 32.4297C85.8176 32.4297 86.6223 32.7943 87.2838 33.5234C87.9452 34.2474 88.2759 35.2839 88.2759 36.6328C88.2759 38.4557 87.7994 39.7578 86.8463 40.5391C86.2421 41.0339 85.539 41.2812 84.7369 41.2812C84.1067 41.2812 83.578 41.1432 83.1509 40.8672C82.9009 40.7109 82.6223 40.4427 82.315 40.0625V44.3359H80.9088V32.6719ZM89.9634 29.5234H91.3697V41H89.9634V29.5234ZM94.8931 32.6328V38.1875C94.8931 38.6146 94.9608 38.9635 95.0963 39.2344C95.3463 39.7344 95.8124 39.9844 96.4947 39.9844C97.4739 39.9844 98.1405 39.5469 98.4947 38.6719C98.6874 38.2031 98.7838 37.5599 98.7838 36.7422V32.6328H100.19V41H98.8619L98.8775 39.7656C98.6952 40.0833 98.4686 40.3516 98.1978 40.5703C97.6614 41.0078 97.0103 41.2266 96.2447 41.2266C95.052 41.2266 94.2395 40.8281 93.8072 40.0312C93.5728 39.6042 93.4556 39.0339 93.4556 38.3203V32.6328H94.8931ZM102.393 32.6328H103.729V33.8203C104.125 33.3307 104.544 32.9792 104.987 32.7656C105.43 32.5521 105.922 32.4453 106.463 32.4453C107.651 32.4453 108.453 32.8594 108.87 33.6875C109.099 34.1406 109.213 34.7891 109.213 35.6328V41H107.784V35.7266C107.784 35.2161 107.708 34.8047 107.557 34.4922C107.307 33.9714 106.854 33.7109 106.198 33.7109C105.864 33.7109 105.591 33.7448 105.378 33.8125C104.992 33.9271 104.654 34.1562 104.362 34.5C104.128 34.776 103.974 35.0625 103.901 35.3594C103.833 35.651 103.799 36.0703 103.799 36.6172V41H102.393V32.6328ZM111.268 29.5234H112.62V36.1875L116.229 32.6328H118.026L114.823 35.7656L118.206 41H116.409L113.799 36.7812L112.62 37.8594V41H111.268V29.5234Z" fill="white"/>
</g>
<defs>
<filter id="filter0_b_0_1980" x="-32.5" y="-32.5" width="195.315" height="135" filterUnits="userSpaceOnUse" color-interpolation-filters="sRGB">
<feFlood flood-opacity="0" result="BackgroundImageFix"/>
<feGaussianBlur in="BackgroundImageFix" stdDeviation="16.25"/>
<feComposite in2="SourceAlpha" operator="in" result="effect1_backgroundBlur_0_1980"/>
<feBlend mode="normal" in="SourceGraphic" in2="effect1_backgroundBlur_0_1980" result="shape"/>
</filter>
<linearGradient id="paint0_linear_0_1980" x1="65.1575" y1="0" x2="65.1575" y2="70" gradientUnits="userSpaceOnUse">
<stop stop-color="#181815" stop-opacity="0.5"/>
<stop offset="1" stop-color="#181815" stop-opacity="0.5"/>
</linearGradient>
<clipPath id="clip0_0_1980">
<rect width="42.315" height="42" fill="white" transform="translate(12 14)"/>
</clipPath>
</defs>
</svg>
