<svg width="42" height="42" viewBox="0 0 42 42" fill="none" xmlns="http://www.w3.org/2000/svg">
<g clip-path="url(#clip0_0_1890)">
<path d="M21.0847 -0.0045166C20.008 -0.0045166 18.9959 0.555372 18.4791 1.50287C17.6823 2.92413 18.1991 4.71146 19.6204 5.46516C20.0511 5.70204 20.5679 5.85278 21.0416 5.85278C22.1184 5.85278 23.1305 5.29289 23.6473 4.34538C24.444 2.92413 23.9272 1.13679 22.506 0.383099C22.0753 0.146223 21.5585 -0.0045166 21.0847 -0.0045166Z" fill="#ED8E53"/>
<path d="M4.18035 27.8607C3.10365 27.8607 2.09154 28.4206 1.57472 29.3681C0.777957 30.7894 1.29478 32.5767 2.71603 33.3304C3.14671 33.5673 3.66353 33.718 4.13729 33.718C5.21399 33.718 6.2261 33.1581 6.74292 32.2106C7.53968 30.7894 7.02286 29.002 5.60161 28.2483C5.17093 28.0115 4.65411 27.8607 4.18035 27.8607Z" fill="#ED8E53"/>
<path d="M37.2568 29.3896C36.1801 29.3896 35.168 29.9495 34.6512 30.897C33.8544 32.3183 34.3713 34.1056 35.7925 34.8593C36.2232 35.0962 36.74 35.2469 37.2138 35.2469C38.2905 35.2469 39.3026 34.6871 39.8194 33.7395C40.6162 32.3183 40.0993 30.531 38.6781 29.7773C38.2474 29.4758 37.7091 29.3896 37.2568 29.3896Z" fill="#ED8E53"/>
<path d="M28.3194 3.23558C27.7715 2.96166 27.0867 3.23558 26.8128 3.78343C26.5389 4.33127 26.8128 5.01608 27.3606 5.29C32.4282 7.34442 36.4001 11.3163 37.9067 16.3839L30.6477 18.1644C30.3738 16.9317 29.4151 16.1099 28.8672 14.8773C27.0867 12.8229 24.3475 11.3163 21.3343 11.3163C18.3212 11.0424 15.582 12.275 13.8015 13.7816L8.73389 8.71404C11.1992 6.65962 14.0754 5.15304 17.0885 4.46823C16.8146 3.92039 16.8146 2.96166 16.8146 2.00293C9.28174 3.5095 3.25544 8.851 1.20102 16.3839C0.653177 18.8492 0.379254 21.5884 0.653176 24.3276C0.653176 24.8755 1.20102 25.2864 1.88583 25.2864C2.43367 25.2864 3.11848 24.7385 2.84456 24.0537C2.57064 21.5884 2.84456 19.534 3.3924 17.2056C3.94025 14.4664 5.44682 12.412 6.9534 10.3576L12.021 15.1512C10.7883 16.9317 9.96655 18.7122 9.55566 21.1775C9.28174 25.9712 12.021 30.217 16.1298 31.9975L14.0754 38.8455C11.0622 37.6129 8.32301 35.8324 6.26859 33.0932C5.72075 33.641 5.03594 34.0519 4.48809 34.3258C7.22732 37.6129 10.7883 40.3521 15.0341 41.5848C16.8146 42.1326 18.5951 42.1326 20.3756 42.1326C24.8953 42.1326 29.1411 40.626 32.7021 37.8868C33.25 37.6129 33.25 36.6541 32.9761 36.3802C32.7021 35.8324 31.7434 35.8324 31.4695 36.1063C26.9498 39.3934 21.6083 40.626 16.4037 39.3934L18.4582 32.5453C18.7321 32.5453 19.4169 32.5453 19.6908 32.8192C19.9647 32.8192 20.2386 32.8192 20.6495 32.8192C26.4019 32.8192 31.1956 28.2995 31.4695 22.5471C31.4695 21.5884 31.4695 21.0406 31.4695 20.0818L38.7284 18.3013C39.2763 21.0406 39.2763 24.0537 38.4545 26.656C38.1806 27.2038 38.1806 27.8886 37.9067 28.1625C38.1806 28.1625 38.8654 28.4365 39.1393 28.4365C39.4132 28.7104 39.6872 28.7104 40.098 28.9843C40.372 28.4365 40.6459 27.4777 40.6459 26.9299C43.3851 17.3426 38.3175 6.79658 28.3194 3.23558ZM12.4319 21.5884C12.7058 17.0687 16.6777 13.5077 21.1974 13.5077C21.4713 13.5077 21.4713 13.5077 21.7452 13.5077C24.2105 13.7816 26.2649 14.7403 27.7715 16.5208C29.2781 18.3013 30.2368 20.4927 29.8259 22.8211C29.4151 25.1494 28.5933 27.3408 26.8128 28.8473C25.0323 30.3539 22.8409 31.3127 20.5126 30.9018C15.7189 30.217 12.1579 26.382 12.4319 21.5884Z" fill="#ED8E53"/>
<path d="M27.7715 16.11C26.2649 14.3295 24.2105 13.0968 21.7452 13.0968C21.4713 13.0968 21.4713 13.0968 21.1974 13.0968C16.6776 13.0968 12.8427 16.6578 12.4318 21.1775C12.1579 25.9712 15.7189 30.217 20.5126 30.4909C25.3062 30.7648 29.552 27.2038 29.8259 22.4102C29.8259 20.3558 29.2781 18.0274 27.7715 16.11ZM21.1974 27.3408C19.9647 27.3408 18.7321 27.3408 18.7321 26.7929L19.6908 20.7666C19.143 20.4927 18.7321 19.534 18.7321 18.9861C18.7321 17.7535 19.6908 16.5208 21.1974 16.5208C22.7039 16.5208 23.6627 17.4796 23.6627 18.9861C23.6627 19.9449 23.3888 20.4927 22.7039 20.7666L23.9366 26.7929C23.5257 27.6147 22.2931 27.3408 21.1974 27.3408Z" fill="#ED8E53"/>
</g>
<defs>
<clipPath id="clip0_0_1890">
<rect width="42" height="42" fill="white"/>
</clipPath>
</defs>
</svg>
