<svg width="43" height="42" viewBox="0 0 43 42" fill="none" xmlns="http://www.w3.org/2000/svg">
<g clip-path="url(#clip0_0_2048)">
<path d="M6.91874 -0.00292969H35.228C38.9351 -0.00292969 41.9942 3.0302 41.9942 6.76329V35.254C41.9942 38.9611 38.961 42.0202 35.228 42.0202H6.91874C3.21158 42.0202 0.152527 38.987 0.152527 35.254V6.76329C0.178451 3.0302 3.15973 -0.00292969 6.91874 -0.00292969Z" fill="url(#paint0_linear_0_2048)"/>
<path d="M21.3845 18.0921C22.4733 18.0921 23.251 17.8588 23.8213 17.4181C24.3917 16.9774 24.625 16.2774 24.625 15.3701C24.625 14.4627 24.3657 13.7887 23.8213 13.3221C23.2769 12.8295 22.4733 12.5962 21.3845 12.5962H17.6254V18.0921H21.3845ZM21.6178 29.4728C22.9658 29.4728 24.0287 29.2136 24.7028 28.6173C25.3768 28.0211 25.7397 27.1656 25.7397 26.0249C25.7397 24.8843 25.3768 24.0806 24.7028 23.4844C24.0287 22.8881 22.9918 22.6289 21.6178 22.6289H17.6254V29.421L21.6178 29.4728ZM27.9174 20.0883C29.3691 20.5031 30.5098 21.2549 31.3134 22.3955C32.1171 23.5362 32.48 24.8843 32.48 26.5175C32.48 29.0062 31.6245 30.9246 29.8876 32.143C28.1766 33.3615 25.5842 34.0096 22.0844 34.0096H10.8333V7.98169H21.0215C24.6509 7.98169 27.3211 8.52609 28.9543 9.61491C30.5875 10.7037 31.3912 12.4666 31.3912 14.8775C31.3912 16.1478 31.0801 17.2366 30.4838 18.0921C29.9135 18.9995 29.058 19.6735 27.9174 20.0883Z" fill="white"/>
</g>
<defs>
<linearGradient id="paint0_linear_0_2048" x1="2.56286" y1="39.8288" x2="4.80889" y2="37.5436" gradientUnits="userSpaceOnUse">
<stop stop-color="#181632"/>
<stop offset="1" stop-color="#612D51"/>
</linearGradient>
<clipPath id="clip0_0_2048">
<rect width="42" height="42" fill="white" transform="translate(0.0769043)"/>
</clipPath>
</defs>
</svg>
