<svg width="53" height="42" viewBox="0 0 53 42" fill="none" xmlns="http://www.w3.org/2000/svg">
<g clip-path="url(#clip0_0_1908)">
<path d="M33.1161 11.5659H34.7087L39.2458 7.02877L39.4689 5.10367C31.0269 -2.34734 18.1397 -1.54449 10.6887 6.89751C8.61702 9.24263 7.11413 12.0318 6.29596 15.0507C6.8013 14.8429 7.36133 14.8101 7.88854 14.9545L16.9606 13.4582C16.9606 13.4582 17.4222 12.6947 17.6606 12.7428C21.6968 8.31071 28.4893 7.79443 33.1489 11.5659H33.1161Z" fill="#EA4335"/>
<path d="M45.708 15.0508C44.6645 11.2115 42.525 7.75947 39.5477 5.11902L33.1817 11.485C35.8703 13.6813 37.4016 16.9912 37.336 20.4629V21.5939C40.4665 21.5939 43.0019 24.1316 43.0019 27.2599C43.0019 30.3903 40.4643 32.9258 37.336 32.9258H26.002L24.871 34.0721V40.869L26.002 42H37.336C43.8332 42.0503 49.5976 37.8392 51.527 31.6351C53.4521 25.4288 51.0895 18.691 45.708 15.0508Z" fill="#4285F4"/>
<path d="M14.6526 41.9365H25.9867V32.8645H14.6526C13.8454 32.8645 13.0469 32.6916 12.3119 32.3547L10.7193 32.8469L6.15156 37.3841L5.75342 38.9766C8.31511 40.9105 11.4412 41.9496 14.6526 41.9365Z" fill="#34A853"/>
<path d="M14.6526 12.5044C8.35668 12.5415 2.78045 16.5733 0.772218 22.5389C-1.23601 28.5046 0.765655 35.0893 5.7556 38.9264L12.3294 32.3526C9.47673 31.0641 8.21011 27.7083 9.49861 24.8556C10.7871 22.003 14.1429 20.7363 16.9956 22.0248C18.2513 22.5936 19.2576 23.5999 19.8263 24.8556L26.4001 18.2818C23.6022 14.6263 19.2554 12.489 14.6526 12.5044Z" fill="#FBBC05"/>
</g>
<defs>
<clipPath id="clip0_0_1908">
<rect width="52.1899" height="42" fill="white"/>
</clipPath>
</defs>
</svg>
