<svg width="37" height="42" viewBox="0 0 37 42" fill="none" xmlns="http://www.w3.org/2000/svg">
<g clip-path="url(#clip0_0_1627)">
<path d="M3.74529 31.4857L2.27692 30.638L18.6347 2.30621L20.1031 3.15398L3.74529 31.4857Z" fill="#E535AB"/>
<path d="M1.94067 28.3746H34.6563V30.0701H1.94067V28.3746Z" fill="#E535AB"/>
<path d="M18.952 38.7751L2.58804 29.3271L3.43581 27.8588L19.7998 37.3068L18.952 38.7751ZM33.1673 14.1512L16.8034 4.70318L17.6511 3.2348L34.0151 12.6828L33.1673 14.1512Z" fill="#E535AB"/>
<path d="M3.4403 14.1446L2.59253 12.6763L18.9565 3.22833L19.8043 4.6966L3.4403 14.1446Z" fill="#E535AB"/>
<path d="M32.8656 31.4861L16.5078 3.15429L17.9761 2.30652L34.334 30.6383L32.8656 31.4861ZM3.23786 11.552H4.93339V30.448H3.23786V11.552Z" fill="#E535AB"/>
<path d="M31.6738 11.552H33.3693V30.448H31.6738V11.552Z" fill="#E535AB"/>
<path d="M18.6633 38.0575L17.9228 36.7748L32.1551 28.5576L32.8956 29.8401L18.6633 38.0575Z" fill="#E535AB"/>
<path d="M35.6164 30.9996C34.6359 32.7053 32.4501 33.2875 30.7443 32.307C29.0386 31.3264 28.4564 29.1406 29.4369 27.4348C30.4175 25.7291 32.6033 25.1469 34.309 26.1274C36.025 27.1182 36.6072 29.2938 35.6164 30.9996ZM7.16006 14.5651C6.17951 16.2709 3.9937 16.8531 2.28795 15.8725C0.582202 14.892 2.38419e-07 12.7062 0.98055 11.0004C1.9611 9.29467 4.14691 8.71247 5.85266 9.69302C7.55841 10.6838 8.14061 12.8594 7.16006 14.5651ZM0.990764 30.9996C0.0102144 29.2938 0.592416 27.1182 2.29816 26.1274C4.00391 25.1469 6.17951 25.7291 7.17027 27.4348C8.15082 29.1406 7.56862 31.3162 5.86287 32.307C4.14691 33.2875 1.97131 32.7053 0.990764 30.9996ZM29.4471 14.5651C28.4666 12.8594 29.0488 10.6838 30.7545 9.69302C32.4603 8.71247 34.6359 9.29467 35.6266 11.0004C36.6072 12.7062 36.025 14.8818 34.3192 15.8725C32.6135 16.8531 30.4277 16.2709 29.4471 14.5651ZM18.3036 40.9991C16.3323 40.9991 14.7389 39.4057 14.7389 37.4344C14.7389 35.4631 16.3323 33.8697 18.3036 33.8697C20.2749 33.8697 21.8683 35.4631 21.8683 37.4344C21.8683 39.3955 20.2749 40.9991 18.3036 40.9991ZM18.3036 8.13027C16.3323 8.13027 14.7389 6.53688 14.7389 4.56556C14.7389 2.59425 16.3323 1.00085 18.3036 1.00085C20.2749 1.00085 21.8683 2.59425 21.8683 4.56556C21.8683 6.53688 20.2749 8.13027 18.3036 8.13027Z" fill="#E535AB"/>
</g>
<defs>
<clipPath id="clip0_0_1627">
<rect width="36.6072" height="42" fill="white"/>
</clipPath>
</defs>
</svg>
