<svg width="43" height="42" viewBox="0 0 43 42" fill="none" xmlns="http://www.w3.org/2000/svg">
<path d="M42.2099 8.715C42.2099 8.4 42.2099 8.4 42.2099 8.085C42.2099 7.77 42.2099 7.455 41.5799 7.77C40.7399 8.085 39.7949 8.085 38.9549 8.4C36.6449 9.03 34.3349 9.24 32.0249 9.87C32.0249 9.87 32.0249 9.555 31.7099 9.555C27.6149 6.405 23.3099 3.15 19.2149 0C19.2149 0 19.2149 0 18.8999 0C18.2699 0.84 18.5849 1.785 18.5849 2.625C18.5849 4.095 18.5849 4.41 17.1149 4.62C13.0199 6.09 9.34492 7.77 5.24992 9.24C4.82992 9.555 4.19992 9.87 3.67492 10.395C2.83492 11.55 1.67992 13.02 0.734922 14.175C0.419922 14.49 0.419922 15.015 0.419922 15.33C0.419922 18.795 0.419922 22.575 0.419922 26.04C0.419922 26.67 0.419922 26.88 1.04992 27.195C2.20492 27.51 3.35992 27.825 4.51492 28.035C8.29492 32.655 12.0749 37.065 16.0649 41.895C16.0649 40.11 16.0649 38.955 16.0649 37.59C16.0649 36.75 16.0649 36.75 16.9049 36.96C21.5249 38.43 26.1449 40.11 30.7649 41.58C31.3949 41.895 31.6049 41.58 32.2349 41.265C35.1749 38.955 38.0099 36.645 40.9499 34.335C41.5799 33.705 41.7899 33.495 41.7899 32.55C42.2099 24.57 42.2099 16.8 42.2099 8.715ZM32.0249 30.66C32.0249 31.815 32.0249 31.815 30.8699 31.5C28.8749 31.185 26.7749 30.87 24.4649 30.66C22.1549 30.345 19.8449 30.03 17.5349 29.82C15.2249 29.505 12.5999 29.19 10.2899 28.665C8.50492 28.35 6.82492 28.035 5.03992 27.825C5.03992 23.52 5.03992 19.425 5.03992 15.12C5.03992 14.49 5.35492 14.49 5.66992 14.28C8.60992 13.65 11.4449 13.125 14.6999 12.495C17.3249 11.865 19.6349 11.655 22.2599 11.025C25.7249 10.395 28.8749 9.555 32.4449 9.24C32.0249 16.8 32.0249 23.73 32.0249 30.66Z" fill="#2970B7"/>
</svg>
