<svg width="39" height="42" viewBox="0 0 39 42" fill="none" xmlns="http://www.w3.org/2000/svg">
<mask id="mask0_0_1608" style="mask-type:luminance" maskUnits="userSpaceOnUse" x="0" y="0" width="39" height="42">
<path d="M38.8332 0H0.613159V42H38.8332V0Z" fill="white"/>
</mask>
<g mask="url(#mask0_0_1608)">
<g clip-path="url(#clip0_0_1608)">
<path d="M37.1191 20.7047C37.1191 18.1453 35.3472 16.0453 33.0504 15.4547L38.3004 0.0327759H12.3785L17.6285 15.5203C15.3972 16.1765 13.691 18.2765 13.691 20.7703C13.691 22.6078 14.6097 24.1828 15.9879 25.2328C15.3972 26.0203 14.8066 26.7422 14.0847 27.3984C12.7066 28.6453 11.2629 29.6297 9.62223 30.2859C8.17848 29.3015 7.52223 27.5296 8.11286 26.0203C10.4097 25.2984 11.9847 23.1984 11.9847 20.8359C11.9847 17.8172 9.55661 15.389 6.53786 15.389C3.51911 15.389 1.09098 17.8172 1.09098 20.8359C1.09098 22.2797 1.68161 23.6578 2.66598 24.6422L2.40348 25.1672C1.61598 26.8734 0.697231 28.7109 0.303481 30.8765C-0.418394 35.1422 0.762856 38.5546 3.51911 40.4578C5.09411 41.5734 6.80036 42.0984 8.70348 42.0984C11.9191 42.0984 15.1347 40.5234 18.2847 38.9484C20.516 37.7672 22.8129 36.5859 25.1097 36.0609C25.9629 35.864 26.816 35.7328 27.7347 35.6015C29.6379 35.339 31.541 35.0765 33.3129 34.0265C35.3472 32.8453 36.7254 30.8765 37.1191 28.6453C37.4472 26.8734 37.1191 25.1672 36.3316 23.5922C36.8566 22.739 37.1191 21.7547 37.1191 20.7047ZM34.7566 20.7047C34.7566 22.4109 33.3785 23.789 31.6722 23.789C29.966 23.789 28.5879 22.4109 28.5879 20.7047C28.5879 20.1797 28.7191 19.6547 28.9816 19.1953C29.1129 18.9984 29.1785 18.8672 29.3097 18.7359C29.441 18.6047 29.5722 18.4734 29.7035 18.3421L30.0316 18.1453C30.0972 18.1453 30.0972 18.0797 30.1629 18.0797C30.1629 18.0797 30.1629 18.0797 30.2285 18.0797C30.2941 18.0797 30.3597 18.014 30.4254 18.014C30.491 18.014 30.5566 17.9484 30.6222 17.9484C30.6222 17.9484 30.6222 17.9484 30.6879 17.9484C30.7535 17.9484 30.7535 17.8828 30.8191 17.8828H30.8847L31.0816 17.8172L31.2785 17.7515H31.3441C31.4097 17.7515 31.4097 17.7515 31.4754 17.7515H31.541C31.6066 17.7515 31.6722 17.7515 31.7379 17.7515H31.8691C31.9347 17.7515 31.9347 17.7515 32.0004 17.7515C32.066 17.7515 32.1972 17.7515 32.2629 17.8172C33.7722 18.014 34.7566 19.2609 34.7566 20.7047ZM15.791 2.4609H34.8879L30.491 15.389C30.2941 15.4547 30.0972 15.4547 29.966 15.5203L25.3722 6.07028L20.7129 15.5203C20.516 15.4547 20.3191 15.389 20.1222 15.389L15.791 2.4609ZM24.4535 19.6546C24.2566 18.539 23.666 17.489 22.8129 16.7015L25.3066 11.6484L27.866 16.8328C27.0785 17.6203 26.5535 18.6047 26.3566 19.6546H24.4535ZM18.416 17.7515L18.5472 17.6859H18.6129C18.6785 17.6859 18.6785 17.6859 18.7441 17.6859H18.8097C18.8754 17.6859 18.8754 17.6859 18.941 17.6859H19.4004C19.466 17.6859 19.466 17.6859 19.5316 17.6859H19.5972C19.6629 17.6859 19.6629 17.6859 19.7285 17.6859C19.7285 17.6859 19.7285 17.6859 19.7941 17.6859L19.9254 17.7515C19.991 17.7515 20.0566 17.7515 20.0566 17.8172C20.0566 17.8172 20.0566 17.8172 20.1222 17.8172C20.1879 17.8172 20.1879 17.8172 20.2535 17.8828C20.2535 17.8828 20.2535 17.8828 20.3191 17.8828C20.3847 17.8828 20.3847 17.9484 20.4504 17.9484C20.516 17.9484 20.5816 18.014 20.5816 18.014C20.6472 18.014 20.7129 18.0797 20.7129 18.0797C20.7785 18.0797 20.7785 18.1453 20.8441 18.1453C20.9754 18.2765 21.1066 18.4078 21.2379 18.4734C21.3691 18.6047 21.5004 18.7359 21.566 18.9328C21.8941 19.4578 22.091 19.9828 22.091 20.639C22.091 22.3453 20.7129 23.7234 19.0066 23.7234C17.3004 23.7234 15.9222 22.3453 15.9222 20.639C16.0535 19.2609 17.0379 18.0797 18.416 17.7515ZM6.40661 17.6203C8.11286 17.6203 9.49098 18.9984 9.49098 20.7047C9.49098 22.4109 8.11286 23.789 6.40661 23.789C4.70036 23.789 3.32223 22.4109 3.32223 20.7047C3.32223 18.9984 4.70036 17.6203 6.40661 17.6203ZM34.691 28.1859C34.4285 29.7609 33.4441 31.0734 32.066 31.9265C30.7535 32.714 29.1129 32.9109 27.4066 33.1734C26.4879 33.3046 25.5035 33.4359 24.5191 33.6984C22.0254 34.289 19.5972 35.5359 17.2347 36.6515C14.216 38.1609 11.3941 39.539 8.70348 39.539C7.32536 39.539 6.07848 39.1453 4.96286 38.3578C2.27223 36.5203 2.40348 33.0422 2.73161 31.139C2.99411 29.3672 3.84723 27.7265 4.63473 26.0859C4.70036 26.0203 4.70036 25.889 4.76598 25.8234C5.02848 25.9547 5.29098 26.0203 5.61911 26.0203C5.15973 28.5797 6.47223 31.2703 9.03161 32.5828L9.49098 32.8453L10.016 32.6484C12.116 31.8609 14.0847 30.6797 15.8566 29.039C16.841 28.1203 17.6941 27.1359 18.416 26.0203C18.5472 26.0859 18.8754 26.1515 19.1379 26.1515C21.6972 26.1515 23.7972 24.3797 24.3879 22.0828H26.4222C27.0129 24.4453 29.1785 26.1515 31.6722 26.1515C32.6566 26.1515 33.5754 25.889 34.4285 25.4297C34.7566 26.2828 34.8879 27.2015 34.691 28.1859Z" fill="#99424F"/>
</g>
</g>
<defs>
<clipPath id="clip0_0_1608">
<rect width="38.1937" height="42.0656" fill="white" transform="translate(0.106628 0.0327759)"/>
</clipPath>
</defs>
</svg>
