<svg width="40" height="42" viewBox="0 0 40 42" fill="none" xmlns="http://www.w3.org/2000/svg">
<path d="M36.5592 0.000536878C36.6615 -0.00592645 36.7585 0.0463762 36.8094 0.135367C36.8602 0.224358 36.856 0.334529 36.7985 0.419376L26.4472 14.4804C26.3714 14.566 26.2624 14.615 26.148 14.615C26.0336 14.615 25.9247 14.566 25.8489 14.4804L22.199 10.4117C22.1098 10.3191 21.9835 10.2721 21.8556 10.2837C21.7276 10.2953 21.6118 10.3644 21.5408 10.4715L19.327 13.2837C19.2569 13.4421 19.2799 13.6261 19.3868 13.7624L25.9685 20.5835C26.0444 20.6691 26.1533 20.7181 26.2677 20.7181C26.3821 20.7181 26.491 20.6691 26.5669 20.5835L39.4911 6.04378C39.5674 5.96178 39.6856 5.93392 39.7905 5.97325C39.8954 6.01259 39.9662 6.11133 39.9697 6.22329V41.5853C39.9747 41.666 39.9448 41.745 39.8875 41.8022C39.8303 41.8595 39.7513 41.8894 39.6706 41.8844H0.299701C0.218939 41.8894 0.139933 41.8595 0.0827187 41.8022C0.0255045 41.745 -0.0044216 41.666 0.000529978 41.5853V0.299708C-0.0044216 0.218946 0.0255045 0.13994 0.0827187 0.0827256C0.139933 0.0255114 0.218939 -0.0044147 0.299701 0.000536878H36.5592ZM26.3874 23.8744C24.6061 23.843 22.8893 24.541 21.6352 25.8064C20.381 27.0718 19.6985 28.7948 19.7458 30.5758C19.7458 34.7043 22.7375 37.337 26.6267 37.337C28.4271 37.3818 30.1925 36.8354 31.6528 35.7813C31.7882 35.6584 31.8136 35.4551 31.7126 35.3027L30.6356 33.6871C30.5145 33.5483 30.3085 33.5226 30.1569 33.6273C29.2208 34.2666 28.119 34.62 26.9857 34.6445C24.8915 34.6445 23.5752 33.3281 23.3358 31.7725C23.3402 31.7083 23.3913 31.6571 23.4555 31.6528H32.4905C32.6831 31.6398 32.8364 31.4864 32.8495 31.2938V30.9348C32.8495 26.7464 30.2168 23.8744 26.3874 23.8744ZM17.4721 21.6007C15.6547 20.1152 13.3552 19.3486 11.01 19.4466C6.94129 19.4466 4.42826 21.84 4.42826 24.712C4.42826 31.234 14.3607 29.1398 14.3607 32.1913C14.3607 33.1486 13.4034 34.106 11.369 34.106C9.43688 34.1219 7.57278 33.3934 6.16345 32.0716C6.07931 31.993 5.96532 31.9544 5.85071 31.9659C5.7361 31.9773 5.632 32.0377 5.5651 32.1315L4.00942 34.2855C3.90847 34.4379 3.93389 34.6413 4.06925 34.7642C5.68477 36.26 7.95847 37.2772 11.1297 37.2772C15.7967 37.2772 18.0704 34.8838 18.1901 31.7725C18.1901 25.3104 8.25764 27.1652 8.25764 24.4129C8.25764 23.3957 9.15515 22.6777 10.7108 22.6777C12.4258 22.6542 14.0959 23.225 15.4377 24.2932C15.5166 24.3578 15.6182 24.3879 15.7196 24.3766C15.8209 24.3654 15.9135 24.3137 15.9762 24.2334L17.5319 22.1392C17.5966 22.0603 17.6266 21.9587 17.6154 21.8573C17.6041 21.756 17.5525 21.6634 17.4721 21.6007ZM26.4472 26.5071C28.0746 26.416 29.4796 27.6354 29.6184 29.2594C29.6141 29.3236 29.563 29.3748 29.4988 29.3791H23.3957C23.3315 29.3748 23.2804 29.3236 23.276 29.2594C23.4761 27.6673 24.8428 26.4811 26.4472 26.5071Z" fill="#2CB134"/>
</svg>
