<svg width="43" height="18" viewBox="0 0 43 18" fill="none" xmlns="http://www.w3.org/2000/svg">
<path d="M7.33814 9.20996C6.91814 8.89496 6.49814 8.57996 5.97314 8.36996C5.44814 8.15996 4.92314 8.05496 4.39814 7.73996C4.18814 7.63496 4.08314 7.63496 3.87314 7.42496C3.55814 7.10996 3.66314 6.58496 3.97814 6.47996C4.08314 6.37496 4.29314 6.37496 4.50314 6.37496C5.55314 6.37496 6.49814 6.58496 7.44314 7.00496L7.54814 7.10996C7.54814 6.26996 7.54814 5.42996 7.54814 4.69496C7.54814 4.37996 7.54814 4.37996 7.33814 4.37996C6.60314 4.06496 5.76314 3.95996 5.02814 3.95996C4.29314 3.95996 3.45314 4.06496 2.61314 4.27496C1.56314 4.69496 1.03814 5.42996 0.828145 6.58496C0.828145 6.68996 0.828145 6.79496 0.723145 6.89996C0.723145 6.89996 0.723145 6.89996 0.723145 7.00496C0.828145 7.10996 0.723145 7.31996 0.723145 7.42496C0.723145 7.42496 0.723145 7.42496 0.723145 7.52996V7.63496C0.723145 7.94996 0.828145 8.15996 0.933145 8.36996C1.14314 8.99996 1.66814 9.41996 2.19314 9.62996C2.71814 9.83996 3.24314 10.155 3.76814 10.26C4.08314 10.365 4.50314 10.47 4.81814 10.68C4.92314 10.785 5.13314 10.89 5.13314 10.995C5.23814 11.31 5.02814 11.73 4.60814 11.835C4.29314 11.94 3.76814 11.94 3.45314 11.835C2.61314 11.73 1.66814 11.415 0.933145 10.995C0.933145 10.995 0.828145 10.89 0.828145 10.995C0.828145 11.835 0.828145 12.675 0.828145 13.41C0.828145 13.725 0.828145 13.725 1.14314 13.725C1.98314 14.25 2.82314 14.46 3.66314 14.565C4.50314 14.67 5.34314 14.46 6.07814 14.25C6.81314 13.935 7.33814 13.515 7.75814 12.78C8.07314 12.255 8.07314 11.73 8.07314 10.995C8.07314 10.365 7.86314 9.73496 7.33814 9.20996Z" fill="#4E56A2"/>
<path d="M24.5581 17.715C24.5581 13.2 24.5581 8.78996 24.5581 4.37996C24.5581 4.27496 24.5581 4.27496 24.5581 4.27496C24.4531 4.37996 24.5581 4.37996 24.5581 4.37996C24.5581 8.78996 24.5581 13.2 24.5581 17.715C24.6631 17.715 24.6631 17.715 24.5581 17.715Z" fill="#4E56A2"/>
<path d="M31.6982 4.79997C30.8582 4.06497 29.8082 3.85497 28.6532 4.06497C28.1282 4.16997 27.7082 4.37997 27.2882 4.79997C27.1832 4.90497 27.1832 4.90497 27.1832 4.79997C27.1832 4.69497 27.0782 4.48497 27.0782 4.27497C27.0782 4.16997 26.9732 4.16997 26.9732 4.16997C26.1332 4.16997 25.2932 4.16997 24.5582 4.16997V4.27497C24.5582 4.37997 24.5582 4.37997 24.5582 4.37997C24.5582 8.68497 24.5582 13.095 24.5582 17.4C24.5582 17.505 24.5582 17.505 24.5582 17.61C25.3982 17.4 26.3432 17.295 27.2882 16.98C27.3932 16.98 27.3932 16.875 27.3932 16.875C27.3932 15.825 27.3932 14.88 27.3932 13.83C27.3932 13.725 27.3932 13.725 27.3932 13.725C27.4982 13.725 27.4982 13.83 27.4982 13.83C28.6532 14.67 29.9132 14.67 31.1732 14.04C32.0132 13.62 32.6432 12.78 32.9582 11.94C33.2732 11.31 33.3782 10.575 33.3782 9.83997C33.4832 8.99997 33.3782 8.05497 33.1682 7.31997C33.0632 6.37497 32.5382 5.42997 31.6982 4.79997ZM30.3332 10.89C30.2282 11.205 30.0182 11.52 29.7032 11.73C29.2832 12.045 28.8632 12.045 28.4432 11.94C28.1282 11.835 27.8132 11.73 27.6032 11.52C27.4982 11.415 27.4982 11.415 27.4982 11.415C27.4982 10.68 27.4982 10.05 27.4982 9.31497C27.4982 8.68497 27.4982 7.94997 27.4982 7.31997C27.4982 7.21497 27.4982 7.21498 27.6032 7.10998C28.2332 6.47998 29.1782 6.47997 29.7032 6.89997C30.0182 7.21497 30.3332 7.52997 30.5432 7.94997C30.7532 8.99997 30.7532 9.94497 30.3332 10.89Z" fill="#4E56A2"/>
<path d="M42.6182 8.15995C42.5132 7.31995 42.3032 6.58495 41.8832 5.95495C41.4632 5.11495 40.8332 4.58995 39.9932 4.16995C39.2582 3.85495 38.5232 3.85495 37.7882 3.95995C36.9482 4.06495 36.1082 4.58995 35.5832 5.11495C34.9532 5.74495 34.5332 6.47995 34.3232 7.31995C34.1132 8.05495 34.0082 8.89495 34.1132 9.52495C34.1132 10.155 34.2182 10.68 34.4282 11.205C35.0582 12.99 36.3182 14.04 38.2082 14.355C38.8382 14.46 39.4682 14.46 40.0982 14.355C40.8332 14.25 41.4632 14.04 42.0932 13.725C42.1982 13.62 42.1982 13.62 42.1982 13.41C42.1982 13.305 42.1982 13.305 42.1982 13.2C42.1982 12.57 42.1982 11.94 42.1982 11.31C42.0932 11.31 42.0932 11.31 42.0932 11.31C41.0432 11.835 39.8882 11.94 38.7332 11.94C38.4182 11.835 37.8932 11.835 37.6832 11.52C37.3682 11.205 37.0532 10.785 37.0532 10.365C37.0532 10.26 37.0532 10.26 37.1582 10.26C38.1032 10.26 39.0482 10.26 39.9932 10.26C40.8332 10.26 41.7782 10.26 42.6182 10.26C42.7232 10.26 42.7232 10.26 42.7232 10.155C42.7232 9.52495 42.7232 8.89495 42.6182 8.15995ZM39.8882 8.26495C39.4682 8.26495 38.9432 8.26495 38.5232 8.26495C38.1032 8.26495 37.5782 8.26495 37.1582 8.26495C37.0532 8.26495 37.0532 8.26495 37.0532 8.15995C37.0532 7.73995 37.1582 7.31995 37.3682 6.89995C37.9982 6.05995 39.3632 6.05995 39.7832 7.10995C39.8882 7.42495 39.9932 7.73995 39.9932 8.05495C39.9932 8.26495 39.8882 8.26495 39.8882 8.26495Z" fill="#4E56A2"/>
<path d="M11.7482 6.68994C12.3782 6.68994 13.0082 6.68994 13.7432 6.68994C13.8482 6.68994 13.8482 6.68994 13.8482 6.58494C13.8482 5.84994 13.8482 5.00994 13.8482 4.37994C13.8482 4.27494 13.8482 4.27494 13.7432 4.27494C13.1132 4.27494 12.4832 4.27494 11.7482 4.27494C11.6432 4.27494 11.6432 4.27494 11.6432 4.16994C11.6432 3.32994 11.6432 2.59494 11.6432 1.85994C11.6432 1.75494 11.6432 1.75494 11.5382 1.75494C10.6982 1.96494 9.75317 2.06994 8.91317 2.38494C8.80817 2.38494 8.80817 2.48994 8.80817 2.48994C8.80817 5.53494 8.80817 8.57994 8.80817 11.6249C8.80817 11.8349 8.80817 12.0449 8.91317 12.2549C9.12317 13.5149 10.1732 14.4599 11.5382 14.6699C11.9582 14.7749 12.3782 14.6699 12.7982 14.6699C13.1132 14.5649 13.5332 14.5649 13.8482 14.3549C13.9532 14.3549 13.9532 14.2499 13.9532 14.2499C13.9532 13.5149 13.9532 12.7799 13.9532 12.1499V12.0449C13.8482 12.0449 13.8482 12.0449 13.8482 12.0449C13.5332 12.1499 13.1132 12.1499 12.7982 12.1499C12.2732 12.1499 11.9582 11.8349 11.8532 11.5199C11.5382 11.3099 11.5382 11.2049 11.5382 10.8899C11.5382 9.62994 11.5382 8.15994 11.5382 6.89994C11.5382 6.68994 11.5382 6.68994 11.7482 6.68994Z" fill="#4E56A2"/>
<path d="M19.8332 4.16995C19.7282 4.06495 19.5182 4.06495 19.4132 4.06495C18.8882 3.95995 18.4682 4.06495 18.0482 4.37995C17.8382 4.48495 17.7332 4.69495 17.4182 5.00995C17.3132 4.69495 17.3132 4.48495 17.3132 4.27495C17.3132 4.16995 17.2082 4.16995 17.2082 4.16995C16.3682 4.16995 15.6332 4.16995 14.8982 4.16995C14.7932 4.16995 14.7932 4.16995 14.7932 4.27495C14.7932 7.63495 14.7932 10.8899 14.7932 14.2499C14.7932 14.3549 14.7932 14.3549 14.8982 14.3549C15.7382 14.3549 16.6832 14.3549 17.6282 14.3549C17.7332 14.3549 17.7332 14.3549 17.7332 14.2499C17.7332 12.0449 17.7332 9.83995 17.7332 7.52995C17.7332 7.42495 17.7332 7.42495 17.8382 7.42495C18.1532 7.10995 18.6782 6.79495 19.0982 6.79495C19.4132 6.79495 19.7282 6.79495 19.9382 6.89995C19.9382 6.05995 19.9382 5.21995 19.9382 4.37995C19.8332 4.16995 19.8332 4.16995 19.8332 4.16995Z" fill="#4E56A2"/>
<path d="M23.2981 4.16998C22.4581 4.16998 21.5131 4.16998 20.5681 4.16998C20.4631 4.16998 20.4631 4.16998 20.4631 4.27498C20.4631 5.95498 20.4631 7.52998 20.4631 9.20998C20.4631 10.89 20.4631 12.57 20.4631 14.25C20.4631 14.355 20.4631 14.355 20.5681 14.355C21.4081 14.355 22.3531 14.355 23.2981 14.355C23.4031 14.355 23.4031 14.355 23.4031 14.25C23.4031 10.89 23.4031 7.63498 23.4031 4.27498C23.5081 4.16998 23.5081 4.16998 23.2981 4.16998Z" fill="#4E56A2"/>
<path d="M20.5681 3.32997C21.5131 3.11997 22.4581 2.90997 23.4031 2.69997C23.5081 2.69997 23.5081 2.59497 23.5081 2.59497C23.5081 1.85997 23.5081 1.12497 23.5081 0.389974C23.5081 0.284974 23.5081 0.284973 23.4031 0.284973C22.4581 0.494973 21.6181 0.599974 20.6731 0.914973C20.5681 0.914973 20.5681 1.01997 20.5681 1.01997C20.5681 1.85997 20.5681 2.59497 20.5681 3.32997C20.5681 3.22497 20.5681 3.22497 20.5681 3.32997Z" fill="#4E56A2"/>
</svg>
