<svg width="43" height="42" viewBox="0 0 43 42" fill="none" xmlns="http://www.w3.org/2000/svg">
<path d="M21.6072 42C10.0572 42 0.607208 32.55 0.607208 21C0.607208 9.45 10.0572 0 21.6072 0C33.1572 0 42.6072 9.45 42.6072 21C42.6072 32.55 33.1572 42 21.6072 42Z" fill="#D0140F"/>
<path d="M14.9922 24.885V17.325H15.4122V18.48C15.5172 18.375 15.5172 18.375 15.5172 18.27C15.8322 17.535 16.5672 17.115 17.4072 17.115C18.3522 17.01 19.0872 17.43 19.5072 18.27C20.1372 19.32 20.1372 20.58 19.6122 21.63C19.1922 22.575 18.1422 22.995 17.0922 22.89C16.3572 22.785 15.8322 22.365 15.4122 21.84V24.885H14.9922ZM15.5172 19.95L15.6222 20.79C15.8322 21.84 16.3572 22.47 17.3022 22.575C18.2472 22.785 19.0872 22.155 19.4022 21.315C19.8222 20.475 19.7172 19.425 19.2972 18.585C18.9822 17.85 18.1422 17.43 17.3022 17.535C16.5672 17.64 15.8322 18.165 15.6222 18.9C15.6222 19.32 15.5172 19.635 15.5172 19.95ZM28.4322 21C28.3272 22.05 27.3822 22.995 26.2272 22.995C24.4422 23.1 23.7072 21.945 23.6022 20.58C23.4972 19.845 23.6022 19.11 23.9172 18.48C24.3372 17.535 25.2822 17.01 26.3322 17.22C27.2772 17.325 28.1172 17.955 28.3272 18.9C28.4322 19.32 28.5372 19.74 28.5372 20.16H24.0222C23.9172 21.315 24.5472 22.365 25.4922 22.575C26.6472 22.89 27.5922 22.365 27.9072 21.315C28.0122 21 28.2222 21 28.4322 21ZM24.0222 19.74H28.0122C28.0122 18.48 27.1722 17.535 26.1222 17.535C24.9672 17.535 24.1272 18.375 24.0222 19.74ZM29.2722 21H29.6922C29.7972 21.63 30.1122 22.155 30.6372 22.365C31.2672 22.68 32.1072 22.68 32.7372 22.26C33.1572 22.05 33.3672 21.735 33.2622 21.315C33.2622 20.895 33.0522 20.58 32.6322 20.475C32.2122 20.265 31.6872 20.16 31.2672 20.055C30.8472 19.95 30.3222 19.74 29.9022 19.53C29.1672 19.215 29.1672 17.85 30.0072 17.43C30.8472 16.905 31.8972 16.905 32.7372 17.325C33.2622 17.64 33.5772 18.165 33.4722 18.795H33.1572L33.0522 18.9C32.9472 17.85 32.1072 17.535 31.1622 17.64C30.8472 17.745 30.5322 17.745 30.3222 17.955C30.0072 18.165 29.7972 18.48 29.7972 18.795C29.7972 19.215 30.0072 19.425 30.3222 19.53C30.7422 19.74 31.1622 19.845 31.5822 19.95L32.6322 20.265C33.1572 20.475 33.4722 20.895 33.4722 21.42C33.5772 22.05 33.2622 22.575 32.7372 22.785C31.7922 23.31 30.3222 23.205 29.5872 22.47C29.4822 22.05 29.2722 21.525 29.2722 21ZM38.7222 19.005H38.4072C38.4072 18.9 38.4072 18.9 38.4072 18.795C38.4072 18.165 37.9872 17.745 37.4622 17.64C36.9372 17.43 36.4122 17.535 35.8872 17.745C35.4672 17.85 35.1522 18.27 35.1522 18.69C35.1522 19.11 35.4672 19.425 35.7822 19.53L37.4622 19.95C37.6722 20.055 37.8822 20.055 37.9872 20.16C38.5122 20.37 38.9322 20.895 38.9322 21.42C38.9322 22.05 38.6172 22.47 38.0922 22.68C37.2522 23.1 36.4122 23.1 35.5722 22.68C34.9422 22.365 34.5222 21.735 34.5222 21H34.9422C35.1522 21.63 35.5722 22.155 36.0972 22.47C36.6222 22.785 37.3572 22.68 37.9872 22.26C38.3022 22.05 38.5122 21.735 38.5122 21.315C38.5122 20.895 38.3022 20.58 37.8822 20.475C37.4622 20.265 36.9372 20.16 36.5172 20.055C35.9922 19.95 35.5722 19.74 35.1522 19.53C34.4172 19.215 34.4172 17.85 35.2572 17.43C36.0972 16.905 37.1472 16.905 37.9872 17.325C38.5122 17.85 38.8272 18.375 38.7222 19.005ZM14.3622 22.785C14.0472 22.89 13.7322 22.785 13.5222 22.47L12.0522 20.475L11.8422 20.16L10.1622 22.47C9.95221 22.785 9.63721 22.89 9.42721 22.785L11.6322 19.845L9.63721 17.325C9.95221 17.22 10.2672 17.325 10.4772 17.64L12.0522 19.635L13.6272 17.64C13.8372 17.325 14.1522 17.22 14.3622 17.325L13.6272 18.375L12.4722 19.74C12.3672 19.845 12.3672 20.055 12.4722 20.16L14.3622 22.785ZM23.4972 17.22V17.64C22.3422 17.535 21.3972 18.375 21.2922 19.53C21.2922 19.635 21.2922 19.635 21.2922 19.74C21.2922 20.685 21.2922 21.63 21.2922 22.47V22.785H20.8722V17.22H21.2922V18.375C21.9222 17.64 22.6572 17.325 23.4972 17.22ZM4.28221 19.845L4.49221 19.005C5.01721 17.22 6.90721 16.59 8.27221 17.64C9.11221 18.27 9.21721 19.215 9.21721 20.16H4.80721C4.70221 21.945 5.96221 22.995 7.64221 22.47C8.16721 22.26 8.58721 21.84 8.69221 21.315C8.79721 21 8.90221 20.895 9.21721 21C9.11221 21.735 8.69221 22.26 8.16721 22.68C7.11721 23.1 5.85721 22.995 5.12221 22.26C4.70221 21.84 4.49221 21.21 4.38721 20.58C4.38721 20.475 4.28221 20.37 4.28221 20.265C4.28221 20.16 4.28221 20.055 4.28221 19.845ZM4.80721 19.74H8.79721C8.79721 18.48 7.95721 17.535 6.90721 17.535C5.75221 17.535 4.80721 18.48 4.80721 19.74Z" fill="white"/>
</svg>
