<svg width="43" height="42" viewBox="0 0 43 42" fill="none" xmlns="http://www.w3.org/2000/svg">
<path d="M6.61494 0H36.0149C39.4799 0 42.3149 2.835 42.3149 6.3V35.7C42.3149 39.165 39.4799 42 36.0149 42H6.61494C3.14994 42 0.314941 39.165 0.314941 35.7V6.3C0.314941 2.835 3.14994 0 6.61494 0Z" fill="#0080FF"/>
<path d="M6.71992 30.555V26.67H10.6049V35.175H15.3299V24.57H21.3149V36.645C29.9249 36.645 36.9599 29.61 36.9599 21C36.9599 12.39 29.9249 5.35498 21.3149 5.35498C12.7049 5.35498 5.66992 12.39 5.66992 21H11.7599C11.7599 15.75 16.0649 11.445 21.3149 11.445C26.5649 11.445 30.8699 15.75 30.8699 21C30.8699 26.25 26.5649 30.555 21.3149 30.555" fill="white"/>
</svg>
