<svg width="43" height="42" viewBox="0 0 43 42" fill="none" xmlns="http://www.w3.org/2000/svg">
<path d="M34.23 42H8.39997C6.19497 42 4.40997 40.215 4.40997 38.01V3.99C4.40997 1.785 6.19497 0 8.39997 0H34.23C36.435 0 38.22 1.785 38.22 3.99V38.01C38.22 40.215 36.435 42 34.23 42Z" fill="#6762A6"/>
<path d="M24.7799 36.225V19.53C24.7799 19.53 25.8299 15.54 11.4449 21.21C11.4449 21.315 11.4449 5.77502 11.4449 5.77502H16.1699V15.645C16.1699 15.645 29.3999 10.395 29.3999 19.53V36.12L24.7799 36.225ZM27.5099 11.76H22.5749C24.3599 9.55502 26.0399 5.77502 26.0399 5.77502H31.1849C31.1849 5.77502 30.3449 8.19002 27.5099 11.76ZM11.5499 36.225V26.775L16.2749 31.5L11.5499 36.225Z" fill="white"/>
</svg>
