<svg xmlns="http://www.w3.org/2000/svg" xmlns:xlink="http://www.w3.org/1999/xlink" viewBox="0,0,256,256" width="48px" height="48px"><g fill="none" fill-rule="none" stroke="none" stroke-width="1" stroke-linecap="butt" stroke-linejoin="miter" stroke-miterlimit="10" stroke-dasharray="" stroke-dashoffset="0" font-family="none" font-weight="none" font-size="none" text-anchor="none" style="mix-blend-mode: normal"><g transform="scale(5.33333,5.33333)"><path d="M13.432,18l0.068,10h1.5v-10zM32,18v10.005h1.805c0,0 0.015,-3.609 0.035,-3.608c0.019,0.001 2.69,3.743 2.716,3.733c0.027,-0.01 1.599,-0.576 1.599,-0.59c0,-0.014 -2.684,-3.441 -2.684,-3.448c0,-0.006 2.251,-2.509 2.231,-2.529c-0.06,-0.06 -1.281,-0.586 -1.314,-0.566c-0.018,0.011 -2.582,2.796 -2.582,2.796v-5.793zM2.099,21.05c-0.651,0.137 -1.259,0.552 -1.509,1.031c-0.23,0.44 -0.227,1.043 0.007,1.491c0.16,0.305 0.625,0.735 1.348,1.246c0.782,0.552 1.078,0.832 1.153,1.092c0.111,0.385 -0.06,0.752 -0.434,0.931c-0.187,0.089 -0.27,0.101 -0.603,0.086c-0.433,-0.02 -0.729,-0.132 -1.172,-0.446c-0.14,-0.099 -0.269,-0.167 -0.285,-0.152c-0.016,0.016 -0.155,0.224 -0.311,0.466l-0.283,0.435l0.109,0.081c0.06,0.045 0.248,0.158 0.422,0.255c1.187,0.66 2.944,0.555 3.835,-0.229c0.475,-0.418 0.697,-1.025 0.602,-1.647c-0.089,-0.582 -0.409,-0.965 -1.417,-1.695c-0.791,-0.573 -1.166,-0.889 -1.253,-1.059c-0.167,-0.326 -0.049,-0.643 0.307,-0.827c0.178,-0.092 0.251,-0.102 0.608,-0.087c0.347,0.015 0.453,0.041 0.741,0.179l0.335,0.161l0.263,-0.41c0.144,-0.224 0.252,-0.426 0.239,-0.445c-0.048,-0.071 -0.598,-0.299 -0.941,-0.391c-0.458,-0.121 -1.339,-0.155 -1.761,-0.066zM10.031,21.935c0.788,0.369 1.212,1.528 1.041,2.852c-0.06,0.467 -0.227,1.032 -0.383,1.296c-0.159,0.268 -0.463,0.56 -0.705,0.675c-0.444,0.212 -1.107,0.13 -1.523,-0.187c-0.577,-0.442 -0.893,-1.524 -0.772,-2.649c0.111,-1.032 0.483,-1.684 1.133,-1.986c0.334,-0.155 0.878,-0.155 1.209,-0.001zM9.313,20.784c-0.472,0.106 -0.85,0.319 -1.254,0.705l-0.366,0.35v-0.839h-0.879h-0.814v5v5h1.693v-4.08l0.324,0.319c0.592,0.583 1.287,0.814 2.101,0.701c0.532,-0.074 0.904,-0.21 1.3,-0.475c1.111,-0.743 1.721,-2.221 1.554,-3.771c-0.158,-1.467 -0.912,-2.484 -2.128,-2.871c-0.313,-0.099 -1.165,-0.121 -1.531,-0.039zM16.258,21c0,0 0.055,5.284 0.091,5.438c0.136,0.583 0.525,1.137 0.964,1.374c0.403,0.218 0.727,0.287 1.333,0.284c0.861,-0.004 1.386,-0.211 2.027,-0.8l0.327,-0.296v1h1.742l-0.023,-7h-1.719c0,0 0.025,4.347 0,4.5c-0.1,0.611 -0.573,1.109 -1.053,1.27c-0.287,0.096 -0.786,0.174 -1.086,0.127c-0.312,-0.049 -0.828,-0.39 -0.861,-0.897v-4.977zM30.742,28c0,0 -0.055,-5.284 -0.091,-5.438c-0.136,-0.583 -0.525,-1.137 -0.964,-1.374c-0.403,-0.218 -0.727,-0.287 -1.333,-0.284c-0.861,0.004 -1.386,0.211 -2.027,0.8l-0.327,0.296v-1h-1.742l0.023,7h1.719c0,0 -0.025,-4.347 0,-4.5c0.1,-0.611 0.573,-1.109 1.053,-1.27c0.287,-0.096 0.661,-0.17 1.086,-0.127c0.427,0.044 0.892,0.432 0.861,0.897v4.977z" fill="#212121" fill-rule="nonzero"></path><path d="M40,20.5v1.5l6,2l-6,2.601v1.399l7,-3v-2z" fill="#77b539" fill-rule="evenodd"></path></g></g></svg>