<svg width="42" height="42" viewBox="0 0 42 42" fill="none" xmlns="http://www.w3.org/2000/svg">
<g clip-path="url(#clip0_0_1750)">
<path d="M0.63 28.98C0.63 28.35 0.735 27.825 0.945 27.405C1.155 26.985 1.365 26.565 1.68 26.355C1.995 26.04 2.415 25.83 2.835 25.725C3.255 25.62 3.78 25.515 4.2 25.515C4.62 25.515 5.145 25.62 5.565 25.725C5.985 25.83 6.405 26.04 6.72 26.355C7.035 26.67 7.35 26.985 7.455 27.405C7.665 27.825 7.77 28.35 7.77 28.98C7.77 29.61 7.665 30.135 7.455 30.555C7.245 30.975 7.035 31.29 6.72 31.605C6.405 31.92 5.985 32.13 5.565 32.235C5.145 32.34 4.62 32.445 4.2 32.445C3.675 32.445 3.255 32.34 2.835 32.235C2.415 32.13 1.995 31.92 1.68 31.605C1.365 31.29 1.05 30.975 0.945 30.555C0.735 30.135 0.63 29.61 0.63 28.98ZM12.18 42C11.55 42 10.815 42 10.185 41.895C9.45 41.79 8.925 41.685 8.4 41.475V36.54C8.82 36.645 9.24 36.75 9.555 36.855C9.975 36.96 10.395 36.96 10.815 36.96C11.13 36.96 11.445 36.855 11.76 36.75C12.075 36.645 12.39 36.435 12.6 36.225C12.81 36.015 13.02 35.595 13.125 35.175C13.23 34.755 13.335 34.125 13.335 33.495V9.03H19.635V34.44C19.635 35.49 19.53 36.435 19.215 37.38C19.005 38.22 18.585 39.06 17.955 39.795C17.325 40.53 16.59 41.055 15.645 41.475C14.7 41.79 13.545 42 12.18 42ZM13.125 3.045C13.125 2.415 13.23 1.995 13.44 1.575C13.65 1.155 13.86 0.84 14.175 0.63C14.49 0.42 14.805 0.21 15.225 0.105C15.645 0 16.065 0 16.59 0C17.01 0 17.43 0 17.85 0.105C18.27 0.21 18.585 0.315 18.9 0.63C19.215 0.84 19.53 1.155 19.635 1.575C19.845 1.995 19.95 2.415 19.95 3.045C19.95 3.57 19.845 4.095 19.635 4.515C19.53 4.935 19.215 5.25 18.9 5.46C18.585 5.67 18.27 5.88 17.85 5.985C17.43 6.09 17.01 6.09 16.59 6.09C16.17 6.09 15.645 6.09 15.225 5.985C14.805 5.88 14.49 5.67 14.175 5.46C13.86 5.25 13.65 4.935 13.44 4.515C13.23 4.095 13.125 3.675 13.125 3.045ZM41.37 25.095C41.37 26.25 41.16 27.3 40.74 28.245C40.32 29.085 39.69 29.925 38.85 30.45C38.01 31.08 37.065 31.5 35.91 31.815C34.755 32.13 33.495 32.235 32.025 32.235C31.29 32.235 30.555 32.235 29.925 32.13C29.295 32.13 28.665 32.025 28.14 31.92C27.615 31.815 26.985 31.71 26.46 31.5C25.935 31.29 25.41 31.08 24.885 30.87V25.725C25.41 26.04 26.04 26.25 26.67 26.46L28.56 27.09L30.345 27.51C30.87 27.615 31.5 27.615 32.025 27.615C32.55 27.615 33.075 27.615 33.495 27.51C33.915 27.405 34.23 27.195 34.44 27.09C34.65 26.88 34.86 26.67 34.965 26.46C35.07 26.25 35.175 25.935 35.175 25.62C35.175 25.305 35.175 25.095 35.07 24.885C34.965 24.675 34.755 24.465 34.44 24.15C34.125 23.94 33.705 23.625 33.075 23.31L30.66 22.155L28.035 20.79C27.3 20.37 26.67 19.845 26.25 19.32C25.83 18.795 25.41 18.165 25.2 17.43C24.99 16.695 24.885 15.855 24.885 14.91C24.885 13.86 25.095 12.915 25.515 12.075C25.935 11.235 26.565 10.605 27.3 10.08C28.035 9.555 28.98 9.135 30.03 8.925C31.08 8.61 32.235 8.505 33.6 8.505C34.965 8.505 36.225 8.715 37.485 8.925C38.745 9.24 40.005 9.66 41.265 10.29L39.375 14.7C38.325 14.175 37.38 13.755 36.435 13.44C35.49 13.125 34.545 13.02 33.6 13.02C32.76 13.02 32.13 13.125 31.71 13.44C31.29 13.755 31.185 14.175 31.185 14.7C31.185 15.015 31.185 15.225 31.29 15.435C31.395 15.645 31.605 15.855 31.815 16.065C32.13 16.275 32.55 16.485 33.075 16.8L35.07 17.745L37.695 19.005C38.43 19.425 39.06 19.845 39.69 20.37C40.215 20.895 40.635 21.525 40.95 22.26C41.16 23.205 41.37 24.045 41.37 25.095Z" fill="#555588"/>
</g>
<defs>
<clipPath id="clip0_0_1750">
<rect width="42" height="42" fill="white"/>
</clipPath>
</defs>
</svg>
