<svg width="42" height="42" viewBox="0 0 42 42" fill="none" xmlns="http://www.w3.org/2000/svg">
<g clip-path="url(#clip0_0_1921)">
<path fill-rule="evenodd" clip-rule="evenodd" d="M35.7 20.0811C35.7 28.3498 29.2687 35.0436 21 35.0436C12.7312 35.0436 6.3 28.2186 6.3 20.0811C6.3 11.9436 13.125 5.11858 21.1312 5.11858C29.1375 5.11858 35.7 11.8123 35.7 20.0811Z" fill="#D43833"/>
<path d="M7.0875 23.756C7.0875 23.756 6.16875 8.00598 20.475 7.61223L19.5562 5.90598L11.6812 8.39973L9.58125 10.8935L7.6125 14.5685L6.43125 18.8997L6.825 21.7872" fill="#E83F3D"/>
<path d="M11.1562 9.84351C8.6625 12.3373 7.0875 16.1435 7.0875 20.081C7.0875 24.0185 8.6625 27.6935 11.1562 30.3185C13.65 32.9435 17.1938 34.6498 21.1313 34.6498C25.0688 34.6498 28.6125 33.0748 31.1063 30.3185C33.6 27.5623 35.175 24.0185 35.175 20.081C35.175 16.1435 33.6 12.4685 31.1063 9.84351C28.6125 7.21851 25.0688 5.51226 21.1313 5.51226C17.1938 5.51226 13.7812 7.21851 11.1562 9.84351ZM10.3688 30.9748C7.6125 28.2185 5.90625 24.281 5.90625 19.9498C5.90625 15.6185 7.6125 11.9435 10.3688 8.92476C13.125 5.90601 16.8 4.46226 21 4.46226C25.2 4.46226 28.875 6.1685 31.6313 8.92476C34.3875 11.681 36.0938 15.6185 36.0938 19.9498C36.0938 24.281 34.3875 27.956 31.6313 30.9748C28.875 33.9935 25.2 35.4373 21 35.4373C16.8 35.4373 13.125 33.731 10.3688 30.9748Z" fill="#231F20"/>
<path fill-rule="evenodd" clip-rule="evenodd" d="M27.3 20.2123L25.2 20.6061L22.05 20.7373H20.0813H18.1125L16.8 20.3436L15.4875 19.0311L14.5687 16.2748L14.175 15.7498L12.8625 15.3561L12.075 14.0436L11.55 12.3373L12.075 10.7623L13.7812 9.9748L14.9625 10.4998L15.4875 11.6811L16.0125 11.5498L16.1438 11.4186L16.0125 10.2373V8.6623L16.4062 6.56231V5.38105L17.1937 3.4123L18.9 2.0998L22.05 0.787304L25.5938 1.31231L28.4813 3.4123L29.7938 5.51231L30.7125 7.08731L30.8438 11.0248L30.3188 14.5686L29.1375 17.7186L27.9563 19.2936" fill="#F0D6B8"/>
<path fill-rule="evenodd" clip-rule="evenodd" d="M25.3312 29.7936L17.325 30.1873V31.4998L17.85 36.2248V36.3561L12.3375 34.3873L11.8125 33.9936L11.2875 27.6936L9.975 24.0186L9.84375 23.0998L14.3062 19.9498L15.6187 19.4248L16.8 20.9998L17.7187 21.9186L18.9 22.3123L19.6875 22.4436L20.2125 25.3311L20.7375 25.8561L22.05 25.4623L21.1312 27.1686L25.9875 29.5311L25.3312 29.7936Z" fill="#355162"/>
<path fill-rule="evenodd" clip-rule="evenodd" d="M12.2062 10.3686L13.5187 9.84356L14.7 10.3686L15.225 11.5498L15.75 11.4186L15.8812 10.8936L15.4875 9.58105L15.8812 6.43106L15.75 4.7248L16.6687 3.54356L18.7688 1.83731L18.2438 1.0498L15.0938 2.62481L13.7812 3.54356L13.2562 5.24981L12.075 6.82481L11.8125 8.39981L12.2062 10.3686Z" fill="#6E6C6E"/>
<path fill-rule="evenodd" clip-rule="evenodd" d="M14.5688 5.1186C14.5688 5.1186 15.3563 3.0186 18.6375 1.9686C21.9187 0.918602 18.7688 1.1811 18.7688 1.1811L15.225 2.4936L13.65 4.0686L13.125 5.1186H14.5688ZM12.7313 9.97485C12.7313 9.97485 11.55 6.03735 16.0125 5.51235L15.8813 4.98735L12.7313 5.77485L11.9438 8.66235L12.075 10.6311L12.7313 9.97485Z" fill="#DDDAD9"/>
<path fill-rule="evenodd" clip-rule="evenodd" d="M14.5688 15.0936L15.3563 14.3061C15.3563 14.3061 15.75 14.3061 15.75 14.6998C15.75 15.0936 15.8813 18.6373 18.2438 20.6061C18.375 20.7373 16.5375 20.4748 16.5375 20.4748L14.8313 17.7186M24.9375 14.1748C24.9375 14.1748 25.0687 12.4686 25.4625 12.5998C25.8562 12.7311 25.8563 13.1248 25.8563 13.1248C25.8563 13.1248 24.675 13.7811 24.9375 14.1748Z" fill="#F7E5CF"/>
<path d="M29.4 7.87479C29.4 7.87479 28.4813 8.00604 28.4813 8.79354C28.4813 9.58104 29.4 8.92479 29.6625 8.92479M22.7063 7.87479C22.7063 7.87479 21.525 8.00604 21.525 8.79354C21.525 9.58104 22.8375 9.58104 23.2313 9.18729" fill="#F7E5CF"/>
<path fill-rule="evenodd" clip-rule="evenodd" d="M15.0937 11.5497C15.0937 11.5497 12.9937 10.2372 12.7312 11.5497C12.6 12.7309 11.9437 13.6497 13.125 14.8309L12.3375 14.6997L11.8125 12.9934L11.6812 11.2872L12.9937 9.97468L14.3062 10.1059L15.0937 10.6309V11.5497ZM16.1437 8.00593C16.1437 8.00593 17.0625 3.14968 21.7875 2.09968C25.725 1.31218 27.825 2.23093 28.6125 3.01843C28.6125 3.01843 25.0688 -1.05032 21.7875 0.130932C18.5062 1.44343 16.1437 3.80593 16.1437 5.24968V8.00593ZM29.0063 3.80594C29.0063 3.80594 27.4313 3.80594 27.3 5.11844C27.3 5.11844 27.3 5.24968 27.4312 5.51218C27.4312 5.51218 28.7437 4.19968 29.5312 4.98718M21.9187 5.64343C21.9187 5.64343 21.7875 3.54343 19.8187 4.72468C18.6375 5.51218 18.6375 6.69343 18.9 6.82468C19.0312 6.95593 19.0312 7.34968 19.2937 7.21843C19.425 6.82468 19.425 5.90593 20.0813 5.64343C20.6062 5.51218 21.525 5.24968 21.9187 5.64343Z" fill="#F7E5CF"/>
<path fill-rule="evenodd" clip-rule="evenodd" d="M16.6687 20.8685L11.4187 23.231C11.4187 23.231 13.5187 31.8935 12.3375 34.6498L11.8125 34.1248V30.8435L10.2375 24.806L9.7125 23.0998L15.225 19.4248L16.6687 20.8685ZM17.325 25.7248L18.1125 26.6435V29.9248H17.0625L16.9312 27.431C16.9312 27.2998 17.0625 26.1185 17.0625 26.1185M17.325 30.4498L14.8312 30.581L15.6187 31.106L17.325 31.2373" fill="#4A738B"/>
<path fill-rule="evenodd" clip-rule="evenodd" d="M25.8562 29.7935H27.9562L28.4812 34.9122L26.3812 35.0435L25.8562 29.7935Z" fill="#355162"/>
<path fill-rule="evenodd" clip-rule="evenodd" d="M26.5125 29.7935L29.6625 29.6622L30.975 26.381C30.975 26.2497 32.1562 21.656 32.1562 21.656L29.4 19.1622L28.875 18.6372L27.5625 19.9497V25.0685L26.5125 29.7935Z" fill="#355162"/>
<path fill-rule="evenodd" clip-rule="evenodd" d="M27.825 29.3997L25.8562 29.7935L25.9875 31.3685C26.775 31.7622 27.9562 30.8435 27.9562 30.8435M27.825 19.6872L31.7625 22.5747L31.8937 21.2622L29.0062 18.506L27.825 19.6872Z" fill="#4A738B"/>
<path fill-rule="evenodd" clip-rule="evenodd" d="M19.2937 40.8185L18.1125 36.0935L17.5875 32.5497L17.4562 30.056L22.7062 29.9247H25.9875L25.5937 35.831L26.1187 40.2935V41.081L21.7875 41.4747L19.2937 40.8185Z" fill="white"/>
<path fill-rule="evenodd" clip-rule="evenodd" d="M25.0688 29.7934C25.0688 29.7934 24.9375 35.6997 25.5938 39.7684C25.5938 39.7684 23.8875 40.6872 21.525 41.0809H26.25L26.9063 40.6872L26.3813 31.4997L26.25 29.5309" fill="#DDDAD9"/>
<path fill-rule="evenodd" clip-rule="evenodd" d="M28.6125 34.5184L30.7125 33.9934L34.7812 33.8622L35.3062 31.8934L34.125 28.6122L32.8125 28.4809L31.2375 28.8747L29.5312 29.6622L28.6125 29.5309L27.825 29.6622" fill="white"/>
<path fill-rule="evenodd" clip-rule="evenodd" d="M28.4812 33.3372C28.4812 33.3372 29.7937 32.8122 30.1875 32.8122L29.6625 29.6622L30.45 29.531L30.975 32.681L34.2562 32.8122C34.2562 32.8122 34.7812 31.4997 34.7812 30.3185L35.3062 32.0247V32.9435L34.3875 34.256L33.4687 34.3872H31.7625L31.2375 33.5997L29.2687 33.731L28.6125 34.1247" fill="#DDDAD9"/>
<path d="M26.25 29.3998L25.0687 26.2498L23.7562 24.5435C23.7562 24.5435 23.8875 23.756 24.2812 23.756H25.5937L26.775 24.1498L26.6437 26.2498L26.25 29.3998Z" fill="white"/>
<path fill-rule="evenodd" clip-rule="evenodd" d="M26.5125 28.2186C26.5125 28.2186 24.9375 25.3311 24.9375 24.6748C24.9375 24.6748 25.0687 24.1498 25.4625 24.1498C25.8562 24.1498 26.6437 24.6748 26.6437 24.6748V23.7561L24.675 23.3623L23.3625 23.4936L25.4625 28.6123H25.8562" fill="#DDDAD9"/>
<path d="M19.8187 20.9998L18.2437 20.8686L16.9312 20.4748V20.8686L17.7187 21.6561L19.6875 22.5748" fill="white"/>
<path fill-rule="evenodd" clip-rule="evenodd" d="M17.325 21.2623C17.325 21.2623 19.0312 22.0498 19.6875 21.7873V22.3123L18.1125 21.9185L17.0625 21.3935L17.325 21.2623Z" fill="#DDDAD9"/>
<path fill-rule="evenodd" clip-rule="evenodd" d="M28.6125 23.756C27.6938 23.756 26.9063 23.6247 26.1188 23.3622C26.1188 22.9685 26.1188 22.8372 26.1188 22.5747C26.25 22.4435 26.6438 22.4435 26.9063 22.4435C26.5125 22.3122 26.3813 22.3122 25.9875 22.3122C25.9875 22.181 25.8563 21.9185 25.8563 21.7872C26.3813 21.656 27.5625 20.4747 28.35 20.8685C28.7438 20.9997 28.7438 22.181 28.875 22.5747C28.875 23.231 28.6125 23.6247 28.6125 23.756Z" fill="#D43833"/>
<path d="M28.6125 23.756C27.6938 23.756 26.9063 23.6247 26.1188 23.3622C26.1188 22.9685 26.1188 22.8372 26.1188 22.5747C26.25 22.4435 26.6438 22.4435 26.9063 22.4435C26.5125 22.3122 26.3813 22.3122 25.9875 22.3122C25.9875 22.181 25.8563 21.9185 25.8563 21.7872C26.3813 21.656 27.5625 20.4747 28.35 20.8685C28.7438 20.9997 28.7438 22.181 28.875 22.5747C28.875 23.231 28.6125 23.6247 28.6125 23.756Z" stroke="#D43833" stroke-width="0.572375" stroke-miterlimit="6.25"/>
<path fill-rule="evenodd" clip-rule="evenodd" d="M23.8875 22.4435V22.5748C23.7563 22.706 23.1 22.706 22.9688 22.706C23.3625 22.706 23.7563 22.8373 24.15 23.0998V23.6248C23.4938 24.1498 23.1 24.806 22.3125 24.9373C21.9188 25.0685 21 25.4623 20.6063 25.4623C20.475 25.4623 20.475 25.331 20.475 25.0685C20.3438 24.6748 19.95 23.8873 19.95 23.3623C19.95 22.5748 19.8188 20.9998 20.7375 21.2623C21.525 21.3935 22.3125 21.656 22.8375 22.0498C23.3625 22.0498 23.4938 22.181 23.8875 22.4435Z" fill="#D43833"/>
<path d="M23.8875 22.4435V22.5748C23.7563 22.706 23.1 22.706 22.9688 22.706C23.3625 22.706 23.7563 22.8373 24.15 23.0998V23.6248C23.4938 24.1498 23.1 24.806 22.3125 24.9373C21.9188 25.0685 21 25.4623 20.6063 25.4623C20.475 25.4623 20.475 25.331 20.475 25.0685C20.3438 24.6748 19.95 23.8873 19.95 23.3623C19.95 22.5748 19.8188 20.9998 20.7375 21.2623C21.525 21.3935 22.3125 21.656 22.8375 22.0498C23.3625 22.0498 23.4938 22.181 23.8875 22.4435Z" stroke="#D43833" stroke-width="0.572375" stroke-miterlimit="6.25"/>
<path fill-rule="evenodd" clip-rule="evenodd" d="M24.5437 23.3622C24.5437 22.9685 24.4125 22.8372 24.4125 22.4435C25.725 21.3935 25.8562 23.756 24.5437 23.3622Z" fill="#D43833"/>
<path d="M24.5437 23.3622C24.5437 22.9685 24.4125 22.8372 24.4125 22.4435C25.725 21.3935 25.8562 23.756 24.5437 23.3622Z" stroke="#D43833" stroke-width="0.572375" stroke-miterlimit="6.25"/>
<path fill-rule="evenodd" clip-rule="evenodd" d="M26.25 23.756C26.25 23.756 25.8562 23.231 26.1187 22.9685C26.25 22.8373 26.6437 22.9685 26.9062 22.8373C27.0375 22.706 26.9062 22.4435 26.9062 22.0498C26.9062 21.656 27.3 21.656 27.4312 21.656C27.5625 21.656 28.35 21.5248 28.6125 21.7873L28.2188 20.8685L27.6938 20.7373L25.5938 21.9185L25.4625 22.4435V23.6248M20.6063 25.5935L20.475 23.0998C20.3438 21.7873 20.8688 22.181 21.7875 22.181C21.9188 22.181 22.7063 22.3123 22.9688 22.5748C23.1 22.9685 22.4438 22.9685 23.1 23.3623C23.8875 23.756 25.0687 23.231 24.8062 22.181C24.675 22.0498 24.0188 22.181 23.625 22.0498L22.3125 21.5248C21.9188 21.131 20.6063 20.7373 19.95 21.131C18.6375 21.7873 20.2125 24.4123 20.6063 25.5935Z" fill="#E83F3D"/>
<path fill-rule="evenodd" clip-rule="evenodd" d="M21.9187 5.64355C20.475 5.2498 19.6875 6.2998 19.2937 7.21855C18.9 7.0873 19.1625 6.69355 19.1625 6.2998C19.2937 5.5123 20.475 4.59355 21.525 4.7248C21.7875 4.9873 22.3125 5.2498 21.9187 5.64355ZM29.4 7.48105C29.7937 8.26855 30.1875 8.79355 30.5812 9.58105C30.45 10.1061 28.4812 10.7623 28.4812 9.58105C28.875 9.4498 29.6625 9.58105 30.0562 9.4498C29.6625 8.79355 29.4 8.26855 29.4 7.48105ZM22.7062 7.48105C23.1 8.00605 23.1 8.6623 23.625 9.1873C23.7562 9.31855 24.15 9.58105 24.0187 10.1061C24.0187 10.2373 23.625 10.4998 23.4937 10.4998C22.7062 10.6311 21.1312 10.4998 21.7875 9.71231C22.3125 9.71231 23.1 10.1061 23.4937 9.71231C23.1 9.18731 22.575 8.26855 22.7062 7.48105ZM29.0063 13.5186C27.825 14.3061 26.6437 14.8311 24.9375 14.8311C24.5437 14.4373 24.4125 13.9123 24.8062 13.2561C24.9375 13.6498 24.8062 14.1748 25.3312 14.1748C26.25 14.3061 27.4312 13.6498 28.2187 13.2561C28.6125 12.4686 28.2187 12.3373 27.825 11.6811C27.0375 10.7623 25.8562 9.58105 25.8562 8.00605C26.25 7.8748 26.25 8.39981 26.25 8.39981C26.6437 9.31856 27.825 10.7623 28.6125 11.5498C28.7437 11.6811 29.1375 11.9436 29.1375 12.0748C29.4 12.7311 29.0063 13.3873 29.0063 13.5186ZM14.7 12.9936C14.3062 12.8623 14.3062 12.0748 13.9125 12.0748C13.3875 12.0748 13.5187 13.2561 13.5187 13.7811C13.125 13.3873 13.125 12.3373 13.3875 11.8123C12.9937 11.6811 12.9937 11.9436 12.8625 12.2061C12.9937 10.2373 15.0937 11.0248 14.7 12.9936ZM29.7937 14.3061C29.2687 15.2248 28.6125 16.2748 27.0375 16.4061C27.0375 16.0123 27.0375 15.6186 27.0375 15.4873C28.2187 15.3561 28.875 14.6998 29.7937 14.3061ZM22.7062 14.9623C23.625 15.4873 25.4625 15.4873 26.6437 15.4873C26.6437 15.6186 26.6437 16.0123 26.6437 16.4061C25.0687 16.5373 23.1 16.1436 22.7062 14.9623ZM22.575 15.8811C23.1 17.4561 25.4625 17.1936 27.4312 17.1936C27.4312 17.3248 27.3 17.5873 26.9062 17.7186C26.3812 17.8498 24.5437 18.1123 23.7562 17.7186C23.2312 17.5873 22.9687 16.7998 22.575 16.4061C22.3125 16.2748 21.525 15.8811 22.575 15.8811Z" fill="#231F20"/>
<path fill-rule="evenodd" clip-rule="evenodd" d="M29.0062 24.9373L26.6437 28.8748C27.0375 27.6935 27.1687 25.9873 27.1687 24.4123C28.0875 24.0185 28.6125 24.5435 29.0062 24.9373Z" fill="#82B0C4"/>
<path fill-rule="evenodd" clip-rule="evenodd" d="M33.2062 29.6623C32.4187 29.7935 31.8938 30.581 30.8438 30.581C31.3688 30.056 32.1562 29.7935 33.2062 29.6623ZM33.6 30.9748C32.8125 30.9748 32.025 31.106 31.5 31.106C31.6313 30.581 32.9438 30.8435 33.6 30.9748ZM33.7313 32.156C32.9438 32.156 32.025 32.156 31.2375 32.156C31.7625 31.631 33.3375 32.0248 33.7313 32.156Z" fill="#231F20"/>
<path fill-rule="evenodd" clip-rule="evenodd" d="M27.4313 35.306C27.5625 36.2248 27.9563 37.2748 27.825 38.456C27.4313 38.5873 27.0375 38.5873 26.6438 38.5873L26.5125 35.4373C26.9063 35.5685 27.3 35.306 27.4313 35.306Z" fill="#DDDAD9"/>
<path fill-rule="evenodd" clip-rule="evenodd" d="M26.25 20.8685C25.8562 20.9998 25.4625 21.3935 25.0687 21.656C24.2812 21.656 23.7562 21.656 23.1 21.131C24.15 21.3935 25.3312 20.8685 26.25 20.8685Z" fill="#F0D6B8"/>
<path fill-rule="evenodd" clip-rule="evenodd" d="M21.525 26.906C21.6563 25.9873 22.7063 25.331 23.625 24.806C24.5438 25.9873 24.9375 27.2998 25.725 28.8748C24.2813 28.481 22.7063 27.6935 21.525 26.906Z" fill="#82B0C4"/>
<path fill-rule="evenodd" clip-rule="evenodd" d="M26.6438 35.5685C26.6438 36.356 26.6437 37.931 26.775 38.7185C27.3 38.7185 27.5625 38.5873 27.9563 38.5873C27.9563 37.406 27.5625 36.4873 27.5625 35.4373C27.3 35.306 26.9062 35.5685 26.6438 35.5685ZM17.4563 30.581C17.85 34.1248 18.375 37.0123 19.425 40.1623C21.7875 40.9498 24.5437 40.9498 26.5125 40.2935C26.1187 38.5873 26.3813 36.356 26.1187 34.3873L25.725 30.1873C23.3625 29.6623 19.8188 30.056 17.4563 30.581ZM26.25 30.1873C26.25 31.7623 26.25 33.0748 26.3813 34.6498L27.9563 34.5185C27.825 33.206 27.825 31.3685 27.4312 30.056C27.0375 30.056 26.6438 30.056 26.25 30.1873ZM29.2688 30.056C29.1375 30.056 28.7437 30.056 28.4813 30.056L29.0063 33.9935C29.4 33.9935 29.5312 33.8623 29.925 33.8623C30.0562 32.5498 29.7938 30.9748 29.2688 30.056ZM33.7313 34.1248C34.5188 33.9935 35.0438 32.8123 34.9125 31.7623C34.7812 30.9748 34.5188 29.6623 34.125 29.2685C33.9937 28.8748 33.3375 28.481 32.8125 28.8748C32.025 29.3998 30.7125 29.3998 30.0562 30.1873C30.45 31.106 30.45 32.5498 30.5812 33.731C31.5 33.731 32.9438 33.5998 33.7313 33.731C33.2063 33.8623 32.4187 33.8623 32.025 34.1248C32.1562 34.3873 33.2063 34.3873 33.7313 34.1248ZM25.725 28.8748C25.2 27.5623 24.5437 25.9873 23.625 24.806C22.7063 25.331 21.9187 25.9873 21.525 26.906C22.7062 27.6935 24.2813 28.481 25.725 28.8748ZM27.3 24.4123C27.3 25.7248 27.1687 27.6935 26.775 28.8748C27.6938 27.6935 28.35 26.381 29.1375 24.9373C28.6125 24.5435 28.0875 24.0185 27.3 24.4123ZM25.4625 23.756C25.0687 23.756 24.9375 24.1498 24.2812 23.8873L23.8875 24.281C25.0688 25.4623 25.4625 27.1685 26.25 28.6123C26.6438 27.2998 26.6438 25.856 26.6438 24.281C26.25 24.4123 25.8562 23.756 25.4625 23.756ZM24.2812 22.4435C24.2812 22.8373 24.2813 22.9685 24.4125 23.3623C25.8563 23.756 25.725 21.3935 24.2812 22.4435ZM22.9688 21.7873C22.4438 21.3935 21.6562 21.2623 20.8687 20.9998C19.95 20.8685 20.0813 22.181 20.0813 23.0998C20.0813 23.6248 20.475 24.4123 20.6062 24.806C20.6062 24.9373 20.6063 25.1998 20.7375 25.1998C21.1313 25.1998 22.05 24.806 22.4438 24.6748C22.9688 24.281 23.625 23.756 24.15 23.4935V22.9685C23.7562 22.8373 23.3625 22.8373 22.9688 22.5748C22.9688 22.706 23.4938 22.706 23.7563 22.5748V22.4435C23.4938 22.181 23.3625 22.0498 22.9688 21.7873ZM17.4563 20.8685C17.0625 21.3935 18.7688 22.0498 19.425 22.0498C19.425 21.656 19.5563 21.5248 19.5563 21.2623C18.9 20.9998 17.85 21.2623 17.4563 20.8685ZM23.3625 20.9998C23.8875 21.5248 24.2813 21.5248 25.0688 21.5248L26.25 20.7373C25.3313 20.8685 24.15 21.3935 23.3625 20.9998ZM28.875 22.8373C28.875 22.3123 28.7438 21.2623 28.35 21.131C27.5625 20.7373 26.3813 21.9185 25.8563 22.0498C25.8563 22.181 25.9875 22.4435 25.9875 22.5748C26.3813 22.5748 26.5125 22.5748 26.9062 22.706C26.5125 22.706 26.3813 22.706 26.1187 22.8373C26.1187 22.9685 26.1187 23.3623 26.1187 23.6248C26.9062 23.756 27.6938 24.0185 28.6125 24.0185C28.6125 23.6248 28.875 23.231 28.875 22.8373ZM16.5375 21.2623C16.4062 21.131 15.3563 19.9498 15.225 19.9498C13.5188 20.7373 11.6813 21.9185 10.1063 23.0998C11.6813 26.2498 12.2063 30.1873 12.2063 33.8623C13.9125 34.6498 15.3563 35.831 17.7188 35.831L17.0625 30.581C16.5375 30.4498 15.75 30.581 15.0938 30.581C15.0938 30.056 15.8812 30.4498 16.0125 29.7935C16.0125 29.3998 15.6188 29.3998 15.8812 29.006C16.275 29.1373 16.4062 29.531 17.0625 29.531C17.4563 28.6123 17.0625 27.0373 17.0625 26.2498C17.0625 26.1185 17.0625 25.4623 17.4563 25.7248C17.5875 25.856 17.4563 27.431 17.4563 28.0873C17.4563 28.6123 17.4563 29.3998 17.5875 29.7935C19.6875 29.3998 22.05 29.2685 24.4125 29.2685C23.8875 29.1373 23.2313 28.8748 22.7063 28.481C22.3125 28.3498 21.1313 27.956 21.1313 27.5623C21 27.0373 21.525 26.7748 21.6562 26.2498C20.475 26.7748 20.3438 25.7248 20.0813 24.9373C19.5563 24.0185 19.2937 23.3623 19.2937 22.9685C18.5063 22.4435 17.4563 22.0498 16.5375 21.2623ZM27.825 20.081C29.4 19.2935 29.5312 22.8373 29.0063 24.0185C29.0063 24.4123 29.4 24.4123 29.5312 24.806L26.775 29.2685C27.3 28.8748 28.35 29.2685 29.1375 28.8748C29.2687 28.7435 29.5312 28.0873 29.925 27.6935C30.45 26.381 31.1063 24.5435 31.5 23.231C31.5 22.8373 31.6313 22.3123 31.6313 22.0498C31.6313 21.5248 30.8438 21.2623 30.7125 20.8685L29.0063 19.2935C28.6125 19.4248 28.0875 19.8185 27.825 20.081ZM12.9938 6.29979C12.2062 7.08729 12.4688 8.66229 12.4688 9.58104C13.7812 8.79354 15.6188 9.58104 15.6188 11.156C16.1438 11.156 15.75 10.3685 15.75 9.84354C15.3563 8.26854 16.275 6.56229 15.75 4.98729C14.7 5.11854 13.7812 5.51229 12.9938 6.29979ZM18.2438 1.57479C16.5375 1.96854 14.5688 3.28104 13.7812 4.72479C14.3063 4.72479 14.7 4.33104 15.0938 4.33104C15.225 4.33104 15.4875 4.33104 15.6188 4.33104C16.0125 4.19979 16.4063 3.14979 16.8 2.75604C17.1938 2.36229 17.5875 2.23104 17.7188 1.96854C18.1125 1.96854 18.2438 1.96854 18.2438 1.57479C18.5063 1.57479 18.5063 1.83729 18.2438 1.57479ZM26.9062 2.23104C25.2 1.31229 22.1812 0.524788 20.475 1.44354C18.9 2.23104 16.9313 3.41229 16.4062 4.98729C16.9313 6.43104 16.1438 7.87479 16.1438 9.18729C16.1438 9.97479 16.5375 10.7623 16.5375 11.5498C16.4062 11.9435 15.6188 11.9435 15.225 11.9435C15.0938 11.156 14.8313 10.3685 14.0438 10.2373C12.8625 10.106 12.075 11.0248 12.075 11.9435C12.075 13.1248 12.9938 15.0935 14.175 14.831C14.7 14.831 14.7 14.306 15.3562 14.306C15.75 14.831 14.9625 15.0935 14.8312 15.4873C14.8312 15.6185 14.8313 16.0123 14.9625 16.2748C15.0938 17.1935 15.75 18.6373 16.275 19.4248C16.8 20.3435 18.2437 20.606 19.8187 20.606C19.95 20.081 21 20.081 21.525 20.2123C20.7375 20.081 20.2125 19.2935 19.5563 18.6373C19.0312 17.8498 18.2438 17.0623 18.2438 16.2748C19.425 17.981 20.3438 19.4248 22.7063 20.2123C24.4125 20.7373 26.3813 20.081 27.5625 19.031C28.0875 18.6373 28.35 18.1123 28.7437 17.456C30.0562 15.356 30.8438 12.3373 30.7125 9.58104C30.7125 8.39979 30.7125 7.21854 30.3188 6.43104C29.925 5.64354 28.6125 4.85604 27.825 5.64354C27.6938 4.85604 28.35 4.33104 29.4 4.72479C28.6125 3.80604 28.0875 2.62479 26.9062 2.23104ZM30.1875 28.8748C31.5 28.3498 34.125 27.1685 34.9125 28.8748C35.3063 29.3998 35.4375 30.581 35.7 31.3685C35.8313 32.2873 35.5687 34.256 34.5187 34.6498C33.6 34.781 32.55 34.781 31.6313 34.6498C31.5 34.5185 31.5 34.256 31.2375 34.256C30.45 34.256 29.925 34.256 29.1375 34.6498C29.1375 35.1748 28.7437 35.1748 28.6125 35.4373C28.4813 36.356 29.1375 37.7998 29.0063 38.7185C28.875 39.2435 28.0875 39.506 27.4312 39.6373C27.4312 40.031 27.4312 40.4248 27.4312 40.556C27.3 41.081 26.6437 41.3435 26.1187 41.4748C23.8875 41.9998 21 42.2623 19.0312 41.4748C18.5063 40.1623 18.1125 38.5873 17.7188 37.1435C16.0125 37.2748 14.4375 36.356 12.9938 35.831C12.4688 35.306 11.8125 35.0435 11.6813 34.6498C11.4188 34.1248 11.4188 33.3373 11.4188 32.8123C11.2875 31.106 11.2875 29.531 10.8938 27.6935C10.7625 26.906 10.3688 26.1185 10.1063 25.331C9.84375 24.806 9.1875 23.756 9.1875 23.231C9.05625 22.3123 9.975 22.0498 10.5 21.656C11.4188 20.8685 12.2063 20.4748 13.2562 19.9498C13.65 19.8185 14.5687 19.1623 14.8312 19.031C14.9625 18.6373 14.4375 18.1123 14.3063 17.7185C14.175 17.1935 13.9125 16.7998 13.9125 16.1435C12.9938 16.0123 12.3375 15.6185 11.9438 14.9623C11.4188 14.0435 10.7625 12.206 11.4188 10.8935C11.4188 10.7623 11.55 10.4998 11.8125 10.3685C11.8125 9.97479 11.6813 9.58104 11.6813 9.18729C11.6813 7.48104 12.075 5.90604 13.2562 5.24979C13.7812 3.28104 15.6188 2.75604 17.1938 1.70604C17.7188 1.31229 18.5063 1.18104 19.1625 0.918541C21.6562 -0.000209808 25.5938 0.131039 27.825 1.70604C28.7437 2.23104 30.1875 3.80604 30.5812 4.85604C31.8937 7.61229 31.7625 12.0748 30.975 15.4873C30.8438 15.881 30.5812 16.6685 30.45 17.0623C30.3187 17.456 29.6625 18.2435 29.925 18.3748C29.925 18.7685 31.1063 19.556 31.5 19.9498C31.8938 20.3435 32.8125 20.8685 32.8125 21.5248C32.8125 22.181 32.6813 22.8373 32.4188 23.4935L30.1875 28.8748Z" fill="#231F20"/>
<path fill-rule="evenodd" clip-rule="evenodd" d="M21.1312 15.356C21.1312 15.356 21.525 15.2247 22.05 15.356C22.05 15.356 21.525 15.4872 21.525 16.5372H21.3937C21.3937 16.5372 21 15.4872 21.1312 15.356Z" fill="#F7E5CF"/>
<path fill-rule="evenodd" clip-rule="evenodd" d="M26.1188 24.9373C26.1188 25.0685 25.9875 25.331 25.725 25.331C25.5938 25.331 25.5938 25.1998 25.5938 24.9373C25.5938 24.806 25.5938 24.806 25.725 24.806C25.8563 24.806 26.1188 24.806 26.1188 24.9373ZM26.25 26.381C26.25 26.5123 26.1188 26.7748 25.8563 26.7748C25.725 26.7748 25.4625 26.6435 25.4625 26.381C25.4625 26.2498 25.5938 25.9873 25.8563 25.9873C26.25 26.1185 26.25 26.381 26.25 26.381Z" fill="#1E1A1A"/>
</g>
<defs>
<clipPath id="clip0_0_1921">
<rect width="42" height="42" fill="white"/>
</clipPath>
</defs>
</svg>
