<svg width="42" height="42" viewBox="0 0 42 42" fill="none" xmlns="http://www.w3.org/2000/svg">
<g clip-path="url(#clip0_0_2182)">
<path d="M25.6893 0.203891C25.0314 0.60204 23.9409 1.69262 22.6252 3.28522L23.8197 5.55293C24.6506 4.34118 25.5161 3.26791 26.3817 2.33312C26.4509 2.26388 26.4856 2.22926 26.4856 2.22926C26.4509 2.26388 26.4163 2.2985 26.3817 2.33312C26.1047 2.64472 25.2565 3.63143 23.9755 5.58756C25.2045 5.51831 27.0914 5.27596 28.6494 4.99899C29.1168 2.41968 28.1993 1.24254 28.1993 1.24254C28.1993 1.24254 27.0395 -0.609718 25.6893 0.203891Z" fill="url(#paint0_linear_0_2182)"/>
<path d="M21.6558 19.2285C21.5 19.2631 21.3442 19.2804 21.1884 19.3151C21.275 19.3151 21.3615 19.2978 21.4308 19.2804C21.5 19.2631 21.5866 19.2458 21.6558 19.2285Z" fill="#BE202E"/>
<path opacity="0.35" d="M21.6558 19.2285C21.5 19.2631 21.3442 19.2804 21.1884 19.3151C21.275 19.3151 21.3615 19.2978 21.4308 19.2804C21.5 19.2631 21.5866 19.2458 21.6558 19.2285Z" fill="#BE202E"/>
<path d="M22.054 17.2377C22.0713 17.2377 22.1059 17.2377 22.1232 17.2377C22.2271 17.2204 22.3309 17.2031 22.4175 17.1858C22.3136 17.2031 22.1752 17.2204 22.054 17.2377Z" fill="#BE202E"/>
<path opacity="0.35" d="M22.054 17.2377C22.0713 17.2377 22.1059 17.2377 22.1232 17.2377C22.2271 17.2204 22.3309 17.2031 22.4175 17.1858C22.3136 17.2031 22.1752 17.2204 22.054 17.2377Z" fill="#BE202E"/>
<path d="M20.2883 11.404C20.6518 10.7288 21.0326 10.0537 21.3962 9.3959C21.777 8.72078 22.1752 8.06297 22.5733 7.43978C22.5906 7.40516 22.6252 7.35322 22.6425 7.33591C23.0407 6.71272 23.4215 6.12415 23.8197 5.5529L22.6252 3.30249C22.5387 3.40636 22.4521 3.52753 22.3483 3.6314C22.002 4.06417 21.6385 4.53156 21.275 5.01626C20.8595 5.57021 20.4441 6.15878 19.994 6.78197C19.5958 7.35322 19.1804 7.9591 18.7822 8.58229C18.436 9.11893 18.0898 9.65556 17.7436 10.2095C17.7263 10.2268 17.7263 10.2441 17.709 10.2788L19.2669 13.3601C19.6132 12.7023 19.9421 12.0445 20.2883 11.404Z" fill="url(#paint1_linear_0_2182)"/>
<path d="M13.1735 28.784C12.9658 29.3552 12.7581 29.9265 12.5503 30.5323V30.5497C12.5157 30.6362 12.4811 30.7228 12.4638 30.792C12.3253 31.1902 12.2041 31.5537 11.9271 32.3673C12.3945 32.575 12.7581 33.129 13.1043 33.7522C13.0697 33.0944 12.7927 32.4885 12.2907 32.0211C14.5584 32.1249 16.5145 31.5537 17.5185 29.8918C17.6051 29.7361 17.6916 29.5803 17.7609 29.4245C17.2935 30.013 16.7396 30.2554 15.6663 30.1861C17.2416 29.4764 18.0379 28.8013 18.7303 27.6761C18.9034 27.4164 19.0592 27.1221 19.2323 26.7932C17.8474 28.2127 16.2549 28.6108 14.5584 28.2993L13.2947 28.4377C13.2601 28.5762 13.2081 28.6801 13.1735 28.784Z" fill="url(#paint2_linear_0_2182)"/>
<path d="M13.7621 25.9624C14.0391 25.2526 14.316 24.5429 14.593 23.8158C14.87 23.1234 15.147 22.431 15.4412 21.7386C15.7355 21.0461 16.0298 20.3364 16.3241 19.6439C16.6357 18.9342 16.9473 18.2245 17.2589 17.5147C17.5705 16.8223 17.8994 16.1125 18.2283 15.4201C18.3495 15.1777 18.4706 14.9181 18.5918 14.6757C18.7995 14.2603 19.0073 13.8275 19.215 13.412C19.215 13.3947 19.2323 13.3601 19.2496 13.3428L17.709 10.2615C17.6916 10.2961 17.657 10.348 17.6224 10.3826C17.2589 10.9712 16.8954 11.5771 16.5318 12.2003C16.1683 12.8235 15.8221 13.464 15.4759 14.1218C15.1816 14.6757 14.9046 15.2124 14.6276 15.7836C14.5757 15.8875 14.5238 16.0087 14.4545 16.1125C14.1256 16.805 13.7967 17.4974 13.5371 18.1379C13.2255 18.8823 12.9485 19.5747 12.7061 20.2498C12.5503 20.6826 12.3945 21.1154 12.2734 21.5135C12.1695 21.8597 12.0656 22.2059 11.9618 22.5522C11.7194 23.3658 11.529 24.1794 11.3732 24.993L12.9485 28.0916C13.1562 27.5377 13.3639 26.9837 13.589 26.4125C13.6409 26.274 13.6928 26.1182 13.7621 25.9624Z" fill="url(#paint3_linear_0_2182)"/>
<path d="M11.3386 25.1315C11.1482 26.1182 11.0097 27.1049 10.9231 28.0916C10.9231 28.1262 10.9231 28.1608 10.9231 28.1955C10.4384 27.4165 9.12279 26.6375 9.12279 26.6548C10.0576 28.0224 10.7846 29.3726 10.8712 30.6882C10.3692 30.7921 9.67674 30.6363 8.88044 30.3593C9.71136 31.121 10.3346 31.3287 10.5769 31.3807C9.81523 31.4326 9.01893 31.9519 8.22263 32.5578C9.38246 32.0731 10.3346 31.8827 11.0097 32.0558C9.9364 35.0852 8.86313 38.4435 7.78986 42.0095C8.11877 41.9229 8.30919 41.6806 8.43036 41.3863C8.62078 40.7458 9.90178 36.5047 11.8925 30.9479C11.9445 30.7921 12.0137 30.6363 12.0656 30.4632C12.0829 30.4113 12.1003 30.3766 12.1176 30.3247C12.3253 29.7361 12.5503 29.1476 12.7754 28.5417C12.8273 28.4032 12.8792 28.2647 12.9312 28.1262L11.3559 25.0276C11.3559 25.0622 11.3559 25.0968 11.3386 25.1315Z" fill="url(#paint4_linear_0_2182)"/>
<path d="M19.5093 13.6198C19.4574 13.7063 19.4227 13.7929 19.3708 13.8967C19.2323 14.1737 19.0938 14.468 18.9553 14.745C18.7995 15.0566 18.6611 15.3855 18.5053 15.7144C18.4187 15.8875 18.3495 16.0433 18.2629 16.2164C18.0206 16.7184 17.7955 17.255 17.5532 17.7917C17.2589 18.4668 16.9646 19.1419 16.653 19.869C16.3587 20.5441 16.0644 21.2711 15.7701 21.9982C15.4932 22.6906 15.1989 23.4177 14.9046 24.1621C14.6449 24.8199 14.3853 25.495 14.1256 26.2047C14.1083 26.2394 14.1083 26.274 14.091 26.3086C13.8313 27.001 13.5717 27.7108 13.2947 28.4378C13.2947 28.4551 13.2774 28.4724 13.2774 28.4898L14.5411 28.3513C14.5238 28.3513 14.4891 28.3513 14.4545 28.334C15.9606 28.1435 17.9686 27.0183 19.2669 25.6162C19.8555 24.9757 20.4094 24.214 20.9115 23.3311C21.2923 22.6733 21.6385 21.9463 21.9674 21.1327C22.2617 20.4229 22.5387 19.6612 22.7983 18.8303C22.4521 19.0034 22.054 19.1419 21.6212 19.2458C21.5347 19.2631 21.4654 19.2804 21.3789 19.2977C21.2923 19.315 21.2231 19.315 21.1365 19.3323C22.556 18.7957 23.4388 17.7397 24.0793 16.4587C23.7158 16.7011 23.1099 17.0473 22.3829 17.2031C22.2963 17.2204 22.1925 17.2377 22.0886 17.255C22.0713 17.255 22.0367 17.255 22.002 17.255C22.4867 17.0473 22.9022 16.8223 23.2657 16.5453C23.3523 16.4934 23.4215 16.4241 23.4908 16.3722C23.5946 16.2856 23.6985 16.1818 23.8024 16.0779C23.8716 16.0087 23.9235 15.9394 23.9928 15.8702C24.1313 15.6971 24.2698 15.524 24.3909 15.3335C24.4256 15.2643 24.4775 15.2124 24.4948 15.1604C24.5467 15.0739 24.5814 14.9873 24.6333 14.9008C24.8237 14.5026 24.9795 14.1564 25.118 13.8448C25.1872 13.689 25.2392 13.5505 25.2911 13.412C25.3084 13.3601 25.3257 13.3082 25.343 13.2562C25.395 13.1004 25.4296 12.9793 25.4642 12.8581C25.5161 12.685 25.5508 12.5465 25.5508 12.4426C25.4988 12.4772 25.4469 12.5292 25.3777 12.5465C24.9622 12.7888 24.2178 13.0312 23.6293 13.1351H23.612C23.56 13.1351 23.4908 13.1524 23.4388 13.1697C23.4388 13.1697 23.4562 13.1697 23.4735 13.1524L19.5266 13.5505C19.5266 13.5851 19.5266 13.6025 19.5093 13.6198Z" fill="url(#paint5_linear_0_2182)"/>
<path d="M23.9928 5.60495C23.6466 6.14158 23.2484 6.76477 22.833 7.45721C22.8157 7.49183 22.781 7.52645 22.7637 7.56107C22.4002 8.16695 22.0194 8.82476 21.6212 9.55182C21.275 10.175 20.9115 10.8501 20.5306 11.5772C20.2017 12.2004 19.8728 12.8755 19.5266 13.5852L23.4908 13.1525C24.6506 12.6158 25.1526 12.1484 25.6546 11.4387C25.7931 11.2483 25.9143 11.0405 26.0528 10.8328C26.4682 10.1923 26.8664 9.49988 27.2126 8.80745C27.5588 8.13233 27.8704 7.47452 28.0955 6.86864C28.2513 6.4878 28.3551 6.12427 28.4417 5.81268C28.5109 5.53571 28.5628 5.27604 28.6148 5.03369C27.1087 5.27604 25.2219 5.53571 23.9928 5.60495Z" fill="url(#paint6_linear_0_2182)"/>
<path d="M21.4308 19.2805C21.3442 19.2978 21.275 19.2978 21.1884 19.3151C21.2577 19.2978 21.3442 19.2805 21.4308 19.2805Z" fill="#BE202E"/>
<path opacity="0.35" d="M21.4308 19.2805C21.3442 19.2978 21.275 19.2978 21.1884 19.3151C21.2577 19.2978 21.3442 19.2805 21.4308 19.2805Z" fill="#BE202E"/>
<path d="M21.4308 19.2805C21.3442 19.2978 21.275 19.2978 21.1884 19.3151C21.2577 19.2978 21.3442 19.2805 21.4308 19.2805Z" fill="url(#paint7_linear_0_2182)"/>
</g>
<defs>
<linearGradient id="paint0_linear_0_2182" x1="23.6691" y1="3.41974" x2="25.1187" y2="3.01682" gradientUnits="userSpaceOnUse">
<stop stop-color="#F69923"/>
<stop offset="0.3123" stop-color="#F79A23"/>
<stop offset="0.8383" stop-color="#E97826"/>
</linearGradient>
<linearGradient id="paint1_linear_0_2182" x1="4.4058" y1="42.8717" x2="7.35443" y2="36.5489" gradientUnits="userSpaceOnUse">
<stop offset="0.3233" stop-color="#9E2064"/>
<stop offset="0.6302" stop-color="#C92037"/>
<stop offset="0.7514" stop-color="#CD2335"/>
<stop offset="1" stop-color="#E97826"/>
</linearGradient>
<linearGradient id="paint2_linear_0_2182" x1="10.4191" y1="40.0395" x2="12.1762" y2="36.2717" gradientUnits="userSpaceOnUse">
<stop stop-color="#282662"/>
<stop offset="0.0954839" stop-color="#662E8D"/>
<stop offset="0.7882" stop-color="#9F2064"/>
<stop offset="0.9487" stop-color="#CD2032"/>
</linearGradient>
<linearGradient id="paint3_linear_0_2182" x1="5.05606" y1="40.5526" x2="8.00473" y2="34.2297" gradientUnits="userSpaceOnUse">
<stop offset="0.3233" stop-color="#9E2064"/>
<stop offset="0.6302" stop-color="#C92037"/>
<stop offset="0.7514" stop-color="#CD2335"/>
<stop offset="1" stop-color="#E97826"/>
</linearGradient>
<linearGradient id="paint4_linear_0_2182" x1="6.88592" y1="38.0005" x2="8.4355" y2="34.6777" gradientUnits="userSpaceOnUse">
<stop stop-color="#282662"/>
<stop offset="0.0954839" stop-color="#662E8D"/>
<stop offset="0.7882" stop-color="#9F2064"/>
<stop offset="0.9487" stop-color="#CD2032"/>
</linearGradient>
<linearGradient id="paint5_linear_0_2182" x1="9.02496" y1="42.4035" x2="11.9736" y2="36.0806" gradientUnits="userSpaceOnUse">
<stop offset="0.3233" stop-color="#9E2064"/>
<stop offset="0.6302" stop-color="#C92037"/>
<stop offset="0.7514" stop-color="#CD2335"/>
<stop offset="1" stop-color="#E97826"/>
</linearGradient>
<linearGradient id="paint6_linear_0_2182" x1="7.72314" y1="44.6929" x2="10.6718" y2="38.37" gradientUnits="userSpaceOnUse">
<stop offset="0.3233" stop-color="#9E2064"/>
<stop offset="0.6302" stop-color="#C92037"/>
<stop offset="0.7514" stop-color="#CD2335"/>
<stop offset="1" stop-color="#E97826"/>
</linearGradient>
<linearGradient id="paint7_linear_0_2182" x1="10.2138" y1="42.9594" x2="13.1627" y2="36.6362" gradientUnits="userSpaceOnUse">
<stop offset="0.3233" stop-color="#9E2064"/>
<stop offset="0.6302" stop-color="#C92037"/>
<stop offset="0.7514" stop-color="#CD2335"/>
<stop offset="1" stop-color="#E97826"/>
</linearGradient>
<clipPath id="clip0_0_2182">
<rect width="42" height="42" fill="white"/>
</clipPath>
</defs>
</svg>
