<svg width="43" height="42" viewBox="0 0 43 42" fill="none" xmlns="http://www.w3.org/2000/svg">
<g clip-path="url(#clip0_0_1740)">
<path d="M2.12243 10.605C-1.65757 16.275 -1.34257 23.52 1.70243 29.295L2.12243 30.03C2.12243 30.03 2.12243 30.03 2.12243 30.45L2.54243 30.87V31.29L3.27743 31.92C3.27743 32.34 3.69743 32.34 3.69743 32.655C3.69743 33.075 4.11743 33.075 4.11743 33.39V33.81L4.53743 34.23C4.53743 34.65 4.95743 34.65 4.95743 34.965C4.95743 35.385 5.37743 35.385 5.37743 35.7L5.79743 36.12C6.21743 36.54 6.21743 36.54 6.53243 36.54L6.95243 36.96H7.37243L7.47743 37.275L7.89743 37.695L8.31743 38.115H8.73743L9.15743 38.535H9.57743C9.99743 38.535 9.99743 38.955 10.3124 38.955H10.7324L11.4674 39.375H11.6774L12.0974 39.795L12.8324 40.215C13.2524 40.215 13.2524 40.635 13.5674 40.635H13.9874L14.7224 41.055C15.1424 41.055 15.1424 41.055 15.4574 41.475H15.8774C16.2974 41.475 16.2974 41.475 16.6124 41.895C35.3024 45.36 40.9724 30.45 40.9724 30.45C36.4574 36.54 28.3724 38.01 20.3924 36.12C19.9724 36.12 19.6574 36.12 19.6574 35.7H19.2374C18.8174 35.7 18.8174 35.7 18.5024 35.28C18.0824 35.28 18.0824 35.28 17.7674 34.86H17.3474C16.9274 34.86 16.9274 34.44 16.6124 34.44L17.3474 35.595H16.9274L16.5074 35.175H16.0874C15.8774 34.965 15.8774 34.65 15.4574 34.65H15.0374C14.6174 34.65 14.6174 34.23 14.3024 34.23C14.3024 34.23 14.3024 34.23 13.8824 34.23L13.4624 33.81L13.0424 33.39L12.3074 32.97H11.8874L11.6774 31.605C11.2574 31.605 11.2574 31.185 10.9424 30.87L10.5224 30.45L10.1024 29.715C9.68243 29.295 9.68243 29.295 9.68243 28.98L9.26243 28.56L8.84243 27.825C4.85243 22.05 3.27743 14.07 6.74243 7.245M14.3024 6.09C11.6774 10.29 11.6774 15.645 13.8824 19.74C14.3024 20.475 14.6174 21.21 15.0374 21.63C15.4574 22.365 15.7724 22.785 16.5074 23.52C16.9274 23.94 16.9274 23.94 17.2424 24.255L17.9774 24.99C18.3974 25.41 18.3974 25.41 18.7124 25.725C19.1324 26.145 19.1324 26.145 19.4474 26.46C19.4474 26.46 19.8674 26.46 19.8674 26.88C20.2874 26.88 20.2874 27.3 20.6024 27.3L21.0224 27.72H21.4424C21.8624 27.72 21.8624 28.14 22.1774 28.14L22.9124 28.56H23.3324C23.3324 28.56 23.7524 28.56 23.7524 28.98H24.1724C24.5924 28.98 24.5924 28.98 24.9074 29.4C39.3974 31.71 42.7574 20.685 42.7574 20.685C39.7124 24.885 34.0424 27.195 27.5324 25.62C27.1124 25.62 27.1124 25.62 26.7974 25.2C26.7974 25.2 26.7974 25.2 26.3774 25.2C25.9574 25.2 25.9574 25.2 25.6424 24.78H25.3274C24.9074 24.78 24.9074 24.78 24.5924 24.36H24.1724C23.7524 24.36 23.7524 23.94 23.4374 23.94C23.4374 23.94 23.0174 23.94 23.0174 23.52H22.5974C22.5974 23.52 22.1774 23.52 22.1774 23.1C21.7574 23.1 21.7574 22.68 21.4424 22.68L22.1774 22.26C21.7574 22.26 21.7574 21.84 21.4424 21.525C18.8174 19.215 16.5074 16.59 15.3524 13.125C14.1974 9.66 14.6174 5.88 16.5074 2.52M24.1724 2.31C22.7024 4.62 22.2824 7.665 23.4374 10.29C24.5924 12.915 27.2174 15.225 29.9474 16.38H30.3674H30.7874C38.7674 17.85 41.0774 12.18 41.3924 11.445C39.5024 14.07 36.4574 14.91 32.2574 13.755C31.8374 13.755 31.5224 13.755 31.5224 13.335C31.1024 13.335 30.7874 12.915 30.3674 12.915C29.6324 12.495 28.8974 12.18 28.4774 11.76C25.0124 9.135 22.7024 4.2 25.0124 0" fill="#0A69AD"/>
</g>
<defs>
<clipPath id="clip0_0_1740">
<rect width="42" height="42" fill="white" transform="translate(0.127441)"/>
</clipPath>
</defs>
</svg>
