<svg width="42" height="42" viewBox="0 0 42 42" fill="none" xmlns="http://www.w3.org/2000/svg">
<g clip-path="url(#clip0_0_1975)">
<path d="M20.9135 0.619267C20.528 0.619267 20.1879 0.709965 19.8478 0.914036L5.17733 7.85245C4.4064 8.19256 3.86221 8.91815 3.68081 9.73443L0.0982345 25.4025C-0.105836 26.1281 0.0528854 26.8991 0.483702 27.5339C0.529051 27.6246 0.5744 27.67 0.619749 27.7834L10.7099 40.3677C11.2541 41.048 12.0704 41.3881 12.8867 41.3881H29.099C29.9153 41.3881 30.7542 41.0026 31.2757 40.3677L41.3659 27.806C41.9101 27.1258 42.0915 26.3095 41.9101 25.4706L38.3275 9.80245C38.1234 8.98617 37.6019 8.30594 36.831 7.92047L22.2739 0.914036C21.8204 0.664616 21.3896 0.573918 20.9135 0.619267Z" fill="#3E66AF"/>
<path d="M21.0949 5.94775C20.6187 5.9931 20.2106 6.42392 20.2106 6.92276V7.17218C20.2106 7.46695 20.2559 7.71637 20.3013 7.98846C20.3919 8.53265 20.3919 9.05417 20.3919 9.59836C20.3466 9.80243 20.2559 9.93847 20.0972 10.0292V10.4146C19.553 10.46 19.0315 10.5507 18.4873 10.6641C16.3105 11.1402 14.3152 12.3193 12.7506 13.9065L12.4105 13.6571C12.2064 13.7024 12.0704 13.7024 11.8663 13.6117C11.4355 13.2716 11.05 12.9315 10.7099 12.546C10.5059 12.342 10.3245 12.1152 10.1204 11.9112L9.91631 11.7751C9.71224 11.6391 9.53084 11.5257 9.28142 11.5257C8.98666 11.5257 8.73724 11.6164 8.60119 11.8205C8.30642 12.2513 8.39712 12.7955 8.80526 13.1356L9.00933 13.2716C9.25875 13.4077 9.4855 13.5664 9.73492 13.7024C10.2111 13.9519 10.6646 14.292 11.05 14.6321C11.1407 14.7682 11.1861 14.9722 11.2541 15.1083L11.5489 15.3577C9.98433 17.6932 9.37212 20.5048 9.75759 23.2711L9.41747 23.3618C9.32677 23.4978 9.16805 23.6566 9.032 23.7473C8.48782 23.8833 8.01165 23.9967 7.46746 23.9967C7.17269 23.9967 6.87792 24.042 6.65118 24.042L6.40176 24.0874H6.35641C5.88024 24.1327 5.54013 24.5636 5.58547 25.0624C5.63082 25.2665 5.67617 25.4479 5.83489 25.5386C6.08431 25.788 6.42443 25.8787 6.76455 25.7426L7.01397 25.6973C7.30874 25.6066 7.55816 25.4932 7.7849 25.4025C8.26107 25.1984 8.80526 25.0624 9.28142 24.9717C9.4855 24.9717 9.62154 25.017 9.75759 25.1758L10.1431 25.1304C11.0274 27.806 12.8187 30.0281 15.1995 31.4339V31.8648C15.2902 32.0008 15.2902 32.2049 15.2902 32.3409C15.0861 32.8171 14.814 33.3159 14.5192 33.7921C14.3152 34.0415 14.1791 34.2229 14.0431 34.4723L13.9524 34.7217C13.703 35.1526 13.8617 35.6968 14.2471 35.9462C14.3832 36.0369 14.5873 36.0822 14.7913 36.0369C15.1315 35.9915 15.4262 35.7874 15.5169 35.4473L15.6076 35.1979C15.6983 34.9485 15.8117 34.6537 15.857 34.3816C16.1065 33.7921 16.1972 33.1572 16.5373 32.8171C16.628 32.7264 16.7867 32.681 16.9227 32.613L17.1268 32.2729C19.689 33.3159 22.5687 33.3159 25.1309 32.2956L25.335 32.6357C25.5391 32.681 25.6751 32.7717 25.7658 32.9305C26.0152 33.4066 26.1966 33.9055 26.3554 34.3816C26.4007 34.6764 26.4914 34.9258 26.6048 35.1979L26.6955 35.4473C26.8315 35.8781 27.3757 36.1276 27.8065 35.9915C28.0106 35.9462 28.1466 35.7874 28.2373 35.6514C28.4414 35.3566 28.4414 35.0165 28.2373 34.7217L28.1466 34.4723C28.0106 34.2229 27.8519 33.9962 27.6705 33.7921C27.3757 33.3613 27.0809 32.8624 26.8995 32.3863C26.8542 32.1822 26.8995 32.0008 26.9902 31.8421C26.9449 31.7514 26.8995 31.5927 26.8542 31.502C29.235 30.0961 31.0263 27.806 31.9106 25.1984L32.2961 25.2438C32.4321 25.1077 32.5909 25.0397 32.7722 25.0397C33.3164 25.1304 33.7926 25.2891 34.2688 25.4705C34.5182 25.5612 34.813 25.6746 35.0397 25.7653C35.0851 25.7653 35.1758 25.8107 35.2891 25.8107C35.7199 25.9467 36.2641 25.72 36.4002 25.2211C36.4455 25.017 36.4455 24.8356 36.4002 24.6316C36.3095 24.2915 36.0147 24.0874 35.6746 24.042H35.4705C35.1758 24.042 34.881 24.042 34.6542 24.042C34.11 23.9967 33.5885 23.9513 33.0897 23.7926C32.9536 23.7019 32.7949 23.5432 32.7042 23.4072L32.3641 23.2711C32.7496 20.5048 32.0693 17.6932 30.5275 15.403L30.8222 15.1083C30.8222 14.9042 30.8676 14.7682 30.9583 14.6321C31.3438 14.292 31.7746 13.9972 32.2734 13.7024C32.5228 13.5664 32.7496 13.4077 32.999 13.2716L33.2031 13.1356C33.6339 12.8862 33.7473 12.3646 33.4978 11.9112C33.4071 11.7071 33.2031 11.6164 33.067 11.5257C32.7269 11.435 32.3868 11.4803 32.1374 11.7298L31.9333 11.8658C31.7292 12.0699 31.5478 12.2513 31.3438 12.5007C31.0036 12.8862 30.6182 13.2716 30.1874 13.5664C30.0513 13.6117 29.8472 13.6571 29.6432 13.6117L29.3484 13.9065C27.3984 11.9112 24.8362 10.6641 22.0699 10.4146C22.0699 10.3239 22.0699 10.0745 22.0699 10.0292C21.9338 9.93847 21.8204 9.77975 21.7751 9.59836C21.7751 9.05417 21.7751 8.53265 21.8658 7.98846C21.9111 7.69369 21.9565 7.44427 21.9565 7.17218V6.92276C22.0245 6.37857 21.639 5.94775 21.0949 5.94775ZM20.0292 12.6821L19.7344 17.285C19.7344 17.7158 19.3489 18.056 18.9181 18.0106C18.7821 18.0106 18.6233 17.9653 18.4873 17.8746L14.7006 15.2216C15.9251 14.0652 17.4216 13.2263 19.0315 12.8408C19.4169 12.7955 19.689 12.7274 20.0292 12.6821ZM22.2286 12.6821C24.2239 12.9315 26.0606 13.7931 27.4664 15.199L23.7251 17.8746C23.385 18.124 22.9088 18.0786 22.6594 17.7839C22.5687 17.6478 22.5234 17.4891 22.5234 17.3077L22.2286 12.6821ZM13.3855 16.9676L16.832 20.0286C17.1722 20.3234 17.1722 20.7996 16.9227 21.0943C16.832 21.185 16.6733 21.2984 16.5373 21.3438L12.0704 22.6589C11.889 20.6409 12.3198 18.6682 13.3855 16.9676ZM28.8269 16.9676C29.8926 18.6682 30.3234 20.6635 30.142 22.6362L25.7205 21.3664C25.335 21.2757 25.0856 20.8223 25.1763 20.3914C25.2216 20.2554 25.3123 20.0967 25.4257 20.006L28.8269 16.9676ZM20.4146 20.2554H21.8204L22.7048 21.3211L22.3646 22.6816L21.0949 23.3165L19.8478 22.6816L19.553 21.3211L20.4146 20.2554ZM24.9495 23.9967C24.9949 23.9967 25.0402 23.9967 25.1536 23.9967L29.7112 24.7676C29.0309 26.6496 27.7612 28.2595 26.0606 29.3706L24.2693 25.0397C24.1332 24.6543 24.2693 24.2234 24.6548 24.0194C24.7455 24.042 24.8362 23.9967 24.9495 23.9967ZM17.2629 23.9967C17.6937 23.9967 18.0338 24.3368 18.0338 24.7676C18.0338 24.8583 18.0338 24.9717 17.9884 25.0624L16.2425 29.2799C14.5873 28.2142 13.2721 26.6043 12.5919 24.7676L17.1041 23.9967C17.1722 23.9967 17.2175 23.9967 17.2629 23.9967ZM21.0949 25.9013C21.3896 25.9013 21.6844 26.0374 21.8204 26.2868L24.0425 30.3229C23.7478 30.4136 23.453 30.527 23.1582 30.5723C21.503 30.9578 19.8024 30.8671 18.2152 30.3229L20.4373 26.2868C20.5733 26.0374 20.8228 25.9013 21.0949 25.9013Z" fill="white" stroke="white" stroke-width="0.0025176" stroke-miterlimit="2.1595"/>
</g>
<defs>
<clipPath id="clip0_0_1975">
<rect width="42" height="42" fill="white"/>
</clipPath>
</defs>
</svg>
