<svg width="38" height="42" viewBox="0 0 38 42" fill="none" xmlns="http://www.w3.org/2000/svg">
<path d="M34.1157 37.7497L19.0216 41.9988L3.92746 37.8131L0.566162 0.0144043H37.6038L34.1157 37.7497Z" fill="#3655A2"/>
<path d="M19.0216 38.7644L31.3252 35.4031L34.1157 3.05859H19.0216V38.7644Z" fill="#3C61AB"/>
<path d="M19.0216 17.1379H8.30347L8.68399 21.7042H19.0216V17.1379Z" fill="#EBEBEB"/>
<path d="M19.0216 7.68835H7.479L7.85952 12.3815H19.0216V7.68835Z" fill="#EBEBEB"/>
<path d="M19.0216 29.1244L13.8211 27.7926L13.5674 24.0508H11.0306H8.87427L9.50847 31.3442L19.0216 34.0078V29.1244Z" fill="#EBEBEB"/>
<path d="M25.4905 12.3815L25.11 17.138H19.0216V21.7043H24.7295L24.2221 27.7927L19.0216 29.1245V34.0079L28.5347 31.3442V30.5198L29.6763 18.343L29.8031 17.138L30.691 7.68835H19.0216V12.3815H25.4905Z" fill="white"/>
</svg>
