<svg width="42" height="42" viewBox="0 0 42 42" fill="none" xmlns="http://www.w3.org/2000/svg">
<path d="M20.1985 9.86736C18.7696 7.72448 18.4608 4.86061 18.3934 3.68373C14.7639 4.46861 11.158 5.87648 11.3663 6.91336C11.3925 7.04373 11.557 7.20036 11.83 7.35261L11.403 8.11648C10.8815 7.82423 10.5884 7.48736 10.5088 7.08486C10.2734 5.91148 11.6025 4.85011 14.5705 3.83948C16.597 3.14911 18.641 2.73698 18.7276 2.72036L19.25 2.61536V3.14998C19.25 3.18673 19.2728 6.90198 20.9265 9.38261L20.1985 9.86736Z" fill="#CFD8DC"/>
<path d="M21.6571 37.625H21.4375C14.2695 37.625 6.29213 35.3736 5.34976 31.6059C4.77488 29.3046 6.65526 26.7619 10.787 24.255L11.242 25.0023C7.52413 27.2589 5.73301 29.5278 6.19938 31.3941C7.01751 34.6649 14.5775 36.7036 21.2083 36.7491C21.9966 35.5705 26.2325 28.6466 23.8149 19.3603L24.661 19.1398C27.4164 29.7203 21.8453 37.3721 21.7893 37.4483L21.6571 37.625Z" fill="#CFD8DC"/>
<path d="M8.68962 34.3928C8.218 34.3928 7.98437 34.3411 7.94587 34.3315C7.79187 34.2939 7.67112 34.1758 7.62912 34.0235C7.58625 33.8713 7.63 33.7076 7.742 33.5965C7.805 33.5335 14.0394 27.2895 14.8811 22.2408L15.7439 22.3843C15.0202 26.7278 10.7432 31.6794 9.04487 33.5029C10.7415 33.4058 15.0255 32.6113 23.2496 28.0079C16.8315 27.3044 15.8165 22.1664 15.806 22.1113L16.6661 21.9529C16.7072 22.1681 17.7389 27.2125 24.7546 27.2125C24.7572 27.2125 24.759 27.2125 24.7616 27.2125C24.9602 27.2125 25.1326 27.3455 25.1834 27.5363C25.2359 27.727 25.1519 27.9291 24.9812 28.0289C15.1506 33.7243 10.3836 34.3919 8.68962 34.3928Z" fill="#CFD8DC"/>
<path d="M12.7085 36.4875C12.5274 36.4875 12.3629 36.3755 12.299 36.2031C12.2299 36.0185 12.2929 35.8093 12.4539 35.6938C12.4836 35.672 14.0402 34.5231 15.6966 31.9943C15.0596 31.7126 14.4147 31.3836 13.7751 30.9995C12.9981 30.5331 12.411 30.0326 11.9726 29.5198C9.72387 30.1131 7.64837 30.3476 5.82574 30.1927L5.89924 29.3212C7.54074 29.4603 9.40712 29.2661 11.4301 28.7612C10.0537 26.4092 11.3172 24.0747 11.3347 24.0432L12.0995 24.4693C12.0409 24.5761 10.9926 26.5431 12.3174 28.5232C14.2432 27.9702 16.2977 27.1521 18.424 26.089C18.9131 24.4833 19.2955 22.6572 19.4959 20.5975C19.5099 20.4566 19.5904 20.3315 19.7129 20.2606C19.8354 20.1897 19.985 20.1836 20.1136 20.2422C20.1416 20.2553 22.9696 21.5468 25.0171 22.3895C25.1659 22.4507 25.2691 22.589 25.2857 22.7491C25.3032 22.9092 25.2306 23.065 25.0967 23.156C23.0939 24.521 21.1041 25.7048 19.166 26.6927C18.5517 28.6396 17.7914 30.2601 17.0144 31.5848C20.2536 32.795 23.065 32.8133 23.1009 32.8133C23.3004 32.8133 23.4745 32.9481 23.5244 33.1415C23.5742 33.3348 23.4876 33.537 23.3135 33.6341C19.341 35.8408 13.0174 36.4621 12.7505 36.4875C12.7365 36.4866 12.7225 36.4875 12.7085 36.4875ZM16.5454 32.3461C15.6354 33.7583 14.7411 34.7725 14.0726 35.4348C15.8209 35.1776 18.886 34.6141 21.4296 33.5632C20.2116 33.4136 18.4485 33.0811 16.5454 32.3461ZM12.9211 29.2521C13.265 29.5951 13.6937 29.9302 14.2249 30.2496C14.8689 30.6363 15.5225 30.9645 16.1674 31.2427C16.8271 30.1367 17.4807 28.8093 18.0416 27.2457C16.2732 28.0875 14.5565 28.7595 12.9211 29.2521ZM20.3017 21.2878C20.1224 22.8348 19.8459 24.2462 19.5029 25.5316C20.9554 24.7572 22.4376 23.8726 23.9321 22.8838C22.5767 22.3098 21.0866 21.6422 20.3017 21.2878Z" fill="#CFD8DC"/>
<path d="M15.6835 9.27497C15.5811 9.27497 15.4796 9.23822 15.3991 9.16997C13.9904 7.96422 12.3322 5.51072 12.2622 5.4066C12.1494 5.23947 12.1669 5.01635 12.3025 4.8676C12.4372 4.71797 12.6595 4.68297 12.8345 4.77835C12.8441 4.78097 13.6552 5.11522 19.1494 6.03047C19.3077 6.05672 19.4381 6.16697 19.4906 6.31747C19.544 6.46797 19.5099 6.63597 19.4031 6.75497C17.8649 8.46385 15.9215 9.21635 15.8392 9.24697C15.7885 9.26535 15.7351 9.27497 15.6835 9.27497ZM13.6911 5.90272C14.2432 6.6456 15.0386 7.64922 15.7666 8.3256C16.2137 8.12172 17.2165 7.60985 18.1676 6.75235C15.9075 6.36647 14.5285 6.09172 13.6911 5.90272Z" fill="#CFD8DC"/>
<path d="M19.1126 21.3501C19.0531 21.3501 18.9928 21.3378 18.9368 21.3133C18.7626 21.2363 18.6576 21.0561 18.6778 20.8671C18.9333 18.4617 15.2425 17.4966 15.2049 17.4878C15.0526 17.4493 14.9319 17.3312 14.8908 17.1798C14.8496 17.0284 14.8925 16.8657 15.0036 16.7546C15.1848 16.5734 19.5003 12.2938 24.9148 9.94356C25.0661 9.87793 25.2376 9.90243 25.3654 10.0048C25.4923 10.1081 25.5509 10.2734 25.5176 10.4327C24.4799 15.4587 19.6464 20.9712 19.4416 21.2031C19.355 21.2984 19.2343 21.3501 19.1126 21.3501ZM16.1481 16.8744C17.1841 17.2638 18.9989 18.1651 19.4583 19.8109C20.7261 18.2289 23.4325 14.5846 24.4431 11.1187C20.6045 12.9649 17.3723 15.7492 16.1481 16.8744Z" fill="#B71C1C"/>
<path d="M11.4441 24.815L11.0285 24.045C12.6761 23.1569 14.5635 21.5224 16.1096 19.6228C14.7936 20.524 14.0403 21.1409 14.0166 21.161L13.4575 20.4873C13.4916 20.4593 15.001 19.2212 17.5096 17.6698C18.1983 16.562 18.7276 15.4228 18.9998 14.3308C19.0461 14.1453 19.0864 13.9659 19.1188 13.7927C17.4344 13.1915 15.8804 12.8354 14.8129 12.6823C14.651 12.6595 14.5163 12.5484 14.462 12.3953C14.4078 12.2422 14.4436 12.0707 14.553 11.9517C14.6274 11.8712 16.4045 9.96716 18.6253 8.92154C18.7976 8.84016 19.0041 8.88041 19.1336 9.02129C19.1923 9.08516 20.3936 10.4344 20.0883 13.2257C21.0989 13.6194 22.1401 14.098 23.1429 14.6677C25.557 13.5827 28.2984 12.6062 31.2183 12.0164C31.3688 11.9867 31.5359 12.0409 31.6391 12.1634C31.7415 12.2859 31.7695 12.4548 31.7118 12.6035C30.5743 15.519 27.524 18.6332 27.3945 18.7644C27.3061 18.8537 27.1854 18.8983 27.0594 18.8939C26.9343 18.8869 26.8188 18.8274 26.74 18.7294C25.76 17.4974 24.479 16.4772 23.0974 15.6468C21.1943 16.5253 19.509 17.465 18.1239 18.3147C16.3564 21.0735 13.6885 23.6067 11.4441 24.815ZM24.0555 15.2215C25.1843 15.9495 26.2351 16.8053 27.104 17.801C27.8285 17.0153 29.5671 15.029 30.5533 13.0568C28.2345 13.5905 26.04 14.3632 24.0555 15.2215ZM19.9491 14.1068C19.9203 14.2494 19.887 14.3955 19.8503 14.5443C19.6665 15.2784 19.3743 16.0327 18.9998 16.7852C19.9588 16.2374 21.0201 15.6722 22.1655 15.1244C21.4323 14.7359 20.6841 14.3982 19.9491 14.1068ZM15.792 11.963C16.7641 12.1538 17.962 12.4653 19.2404 12.9133C19.3734 11.3007 18.9376 10.3128 18.6743 9.87529C17.4703 10.5035 16.4159 11.3873 15.792 11.963Z" fill="#B71C1C"/>
<path d="M15.7937 16.1875C15.7937 20.02 12.6 23.065 10.2988 25.2875C9.91375 25.6638 8.61 25.725 8.61 25.725C8.93375 25.3925 9.30125 25.0425 9.695 24.6663C11.8825 22.5488 14.9187 19.6525 14.9187 16.1875C14.9187 12.0838 13.265 10.465 11.9613 9.17004C11.3838 8.58379 10.8938 8.02379 10.5963 7.34129L10.8675 7.22754C11.165 7.35879 11.5063 7.50754 11.7688 7.62129C11.9788 7.92754 12.2588 8.22504 12.5825 8.54879C13.9213 9.88754 15.7937 11.725 15.7937 16.1875Z" fill="#B71C1C"/>
<path d="M37.5681 17.3197C37.5681 17.3197 37.0388 17.395 36.89 17.4125C29.225 18.2612 21.315 20.4662 16.7913 22.2775C15.155 22.9337 13.4575 23.73 11.9088 24.6225C11.9 24.6312 11.8913 24.6312 11.8738 24.64C10.9638 25.165 8.75 26.25 6.95625 27.2037C9.58125 24.4125 14.4988 22.26 16.4588 21.4725C20.895 19.6962 28.5163 17.5525 36.015 16.6337C35.1313 15.6012 32.97 13.4137 28.7175 11.7862C26.2325 10.8237 22.4525 10.2812 19.1188 9.79998C13.8163 9.03873 10.7975 8.53123 10.5088 7.08748C10.4475 6.79873 10.4913 6.50998 10.6225 6.22998C10.9113 6.70248 11.3225 7.03498 11.5938 7.22748C11.725 7.31498 11.8213 7.36748 11.8563 7.38498L11.865 7.39373C13.1075 8.04998 16.4588 8.53123 19.25 8.93373C22.6275 9.42373 26.4513 9.97498 29.0325 10.9637C35.0438 13.2825 37.1175 16.5987 37.205 16.7387C37.2838 16.87 37.5681 17.3197 37.5681 17.3197Z" fill="#B71C1C"/>
</svg>
