<svg width="43" height="42" viewBox="0 0 43 42" fill="none" xmlns="http://www.w3.org/2000/svg">
<g clip-path="url(#clip0_0_1770)">
<path d="M21.3552 0.209961L22.4052 2.30996C22.6152 2.62496 22.9302 3.04496 23.2452 3.35996C24.0852 4.19996 25.1352 5.24996 25.8702 6.29996C27.7602 8.71496 29.0202 11.445 29.9652 14.595C30.4902 16.485 30.8052 18.165 30.8052 20.055C31.0152 25.725 28.9152 30.555 25.1352 34.545C24.4002 35.28 23.7702 35.7 23.0352 36.225C22.7202 36.225 22.5102 35.91 22.3002 35.7C21.9852 35.175 21.7752 34.65 21.7752 34.125C21.5652 33.39 21.5652 32.76 21.5652 32.025V31.71C21.7752 31.5 21.3552 0.314961 21.3552 0.209961Z" fill="#5A9636"/>
<path d="M21.3552 0C21.1452 0.525 21.0402 0.84 20.8302 1.155C20.5152 1.47 20.0952 1.89 19.7802 2.205C17.6802 3.885 16.2102 5.985 14.9502 8.4C13.2702 11.55 12.3252 14.91 12.2202 18.585C12.1152 19.95 12.6402 24.465 13.1652 25.83C14.2152 29.295 16.3152 32.235 18.8352 34.755C19.5702 35.49 20.2002 35.91 20.9352 36.435C21.1452 36.435 21.1452 36.225 21.2502 36.12C21.4602 35.805 21.4602 35.595 21.4602 35.28C21.6702 34.125 21.7752 33.075 21.9852 31.815L21.3552 0Z" fill="#6DAD49"/>
<path d="M22.6152 37.485C22.6152 36.96 22.9302 36.435 23.1402 36.12C22.8252 35.91 22.6152 35.805 22.4052 35.595C22.1952 35.385 22.1952 35.07 22.0902 34.86C21.7752 33.81 21.7752 32.97 21.5652 31.92V31.5C21.3552 31.71 21.3552 32.34 21.3552 32.55C21.3552 33.6 21.1452 34.65 21.0402 35.7C21.0402 36.015 20.8302 36.54 20.7252 36.855V37.065C21.0402 38.22 21.2502 39.48 21.2502 40.635V41.16C21.2502 41.685 21.2502 41.685 21.7752 41.895C21.9852 41.895 22.0902 42.105 22.3002 42.105C22.5102 42.105 22.5102 41.895 22.5102 41.895V41.16V39.06C22.4052 38.22 22.6152 37.905 22.6152 37.485Z" fill="#C2BFBF"/>
</g>
<defs>
<clipPath id="clip0_0_1770">
<rect width="42" height="42" fill="white" transform="translate(0.565186)"/>
</clipPath>
</defs>
</svg>
