<svg width="43" height="42" viewBox="0 0 43 42" fill="none" xmlns="http://www.w3.org/2000/svg">
<g clip-path="url(#clip0_0_1651)">
<path fill-rule="evenodd" clip-rule="evenodd" d="M39.7722 32.025C37.4622 32.025 35.6772 32.025 33.8922 32.97C33.4722 32.97 32.5272 32.97 32.5272 33.915C32.9472 34.335 32.9472 34.335 32.9472 34.86C33.3672 35.28 33.8922 36.225 34.3122 36.645L36.0972 38.01C37.4622 38.955 38.4072 38.955 39.6672 39.795C40.0872 40.215 41.0322 40.74 41.4522 41.16C41.8722 41.58 41.8722 41.58 42.3972 42.105C42.3972 41.685 41.9772 41.685 41.9772 41.16L41.0322 40.215C40.0872 39.27 39.2472 37.905 37.8822 37.485C36.9372 37.065 34.7322 36.12 34.7322 34.755C35.1522 34.755 36.0972 34.335 36.5172 34.335C37.4622 33.915 38.3022 34.335 39.2472 33.915L40.6122 33.495V33.075C40.1922 32.655 39.6672 31.71 39.2472 31.29C37.8822 29.925 36.0972 28.56 34.3122 27.72C33.3672 27.3 32.0022 26.775 31.1622 26.355C30.7422 26.355 30.2172 25.935 29.7972 25.935C29.3772 25.515 28.8522 24.57 28.4322 23.625L27.4872 18.165C27.0672 16.8 26.5422 15.855 26.1222 15.015C23.4972 10.29 19.4022 6.30003 14.8872 3.99003C13.9422 3.57003 12.5772 3.04503 11.3172 2.62503H9.00715C8.58715 2.62503 8.06215 1.68003 7.64215 1.68003C5.85715 0.84003 1.76215 -1.46997 0.922155 1.26003C-0.0228453 3.15003 2.28715 4.93503 2.70715 5.77503C2.70715 6.30003 3.65215 7.14003 3.65215 7.66503C3.65215 8.19003 4.07215 8.61003 4.07215 9.03003L5.85715 13.545C6.27715 13.965 6.80215 14.91 6.80215 15.33C7.22215 15.75 7.22215 15.75 7.64215 16.17C7.22215 16.59 7.22215 17.535 7.22215 18.48C6.27715 21.63 6.80215 25.725 8.16715 28.455C8.58715 29.4 9.95215 30.765 11.3172 30.24C12.6822 29.82 12.2622 27.93 12.6822 26.67C12.6822 26.25 12.6822 26.25 12.6822 25.725L14.0472 28.035C14.9922 29.4 16.3572 30.765 17.6172 32.13C18.5622 32.55 18.9822 33.495 19.9272 33.915C19.9272 33.495 19.5072 33.495 19.5072 33.495C19.0872 33.075 18.5622 32.55 18.1422 31.71C16.7772 29.925 15.8322 28.14 14.9922 26.25C14.5722 25.305 14.0472 24.465 13.6272 23.52C13.6272 23.1 13.6272 22.575 13.2072 22.575C12.7872 22.995 12.2622 23.94 11.8422 24.36C11.4222 25.725 11.4222 27.09 10.8972 28.875C9.95215 28.875 9.53216 27.51 9.11215 27.09C8.16715 24.78 8.16715 21.63 8.69215 19.425C8.69215 19.005 9.63715 16.695 9.63715 16.275C9.63715 15.855 8.69215 15.33 8.69215 14.91C8.27215 14.49 7.74715 13.545 7.74715 13.125C7.22215 11.235 6.80215 9.45003 5.85715 8.08503C5.43715 7.14003 5.01715 6.72003 4.49215 5.77503C3.96715 4.83003 3.12715 4.41003 2.70715 3.57003C2.70715 3.15003 2.28715 2.62503 2.70715 2.20503C2.70715 1.78503 2.70715 1.78503 3.12715 1.78503C3.54715 1.36503 4.49215 1.78503 4.91215 2.20503C5.85715 2.62503 6.80215 3.15003 7.64215 3.57003C8.16715 3.99003 8.58715 4.41003 9.00715 4.41003H9.42715C10.3722 4.41003 11.2122 4.41003 12.1572 4.83003C13.5222 5.25003 14.8872 6.19503 16.2522 6.61503C20.3472 8.92503 23.0772 12.495 25.2822 16.59C25.7022 17.01 25.7022 17.955 26.2272 18.375L28.0122 22.47C28.4322 23.835 29.3772 25.2 30.3222 26.565C30.7422 26.985 32.6322 27.51 33.4722 27.93C33.8922 28.35 34.8372 28.35 35.2572 28.875L37.9872 30.66C37.9872 30.66 39.3522 31.185 39.7722 32.025Z" fill="#06688D"/>
<path fill-rule="evenodd" clip-rule="evenodd" d="M9.95216 6.72003C9.53216 6.72003 9.00716 6.72003 8.58716 6.72003C9.00716 7.14003 9.00716 7.66503 9.53216 8.08503L9.95216 9.45003C10.3722 9.03003 10.3722 8.50503 10.3722 8.08503C10.3722 8.08503 10.3722 7.66503 9.95216 7.66503C10.3722 7.14003 10.3722 6.72003 9.95216 6.72003Z" fill="#06688D"/>
</g>
<defs>
<clipPath id="clip0_0_1651">
<rect width="42" height="42" fill="white" transform="translate(0.607178)"/>
</clipPath>
</defs>
</svg>
