<svg width="43" height="42" viewBox="0 0 43 42" fill="none" xmlns="http://www.w3.org/2000/svg">
<g clip-path="url(#clip0_0_1621)">
<path d="M40.2031 42H3.24314C1.87814 42 0.723145 40.845 0.723145 39.48V2.52C0.723145 1.155 1.87814 0 3.24314 0H40.3081C41.5681 0 42.7231 1.155 42.7231 2.52V39.585C42.7231 40.845 41.5681 42 40.2031 42Z" fill="#EE705E"/>
<path d="M33.5881 13.335C32.2231 13.335 31.0681 14.28 30.6481 15.54H26.6581C24.3481 15.54 23.2981 17.22 23.2981 18.795C23.2981 19.74 22.9831 20.055 22.3531 20.16C22.2481 20.16 22.1431 20.16 22.0381 20.16H21.1981C20.8831 18.795 19.6231 17.85 18.1531 17.85C16.6831 17.85 15.4231 18.9 15.1081 20.265H12.7981C12.4831 18.9 11.2231 17.85 9.75315 17.85C8.07315 17.85 6.60315 19.215 6.60315 21C6.60315 22.785 7.96815 24.15 9.75315 24.15C11.2231 24.15 12.4831 23.1 12.7981 21.735H15.1081C15.4231 23.1 16.6831 24.15 18.1531 24.15C19.6231 24.15 20.8831 23.1 21.1981 21.735H22.0381C22.1431 21.735 22.2481 21.735 22.3531 21.735C22.8781 21.84 23.2981 22.05 23.2981 23.1C23.2981 24.78 24.3481 26.355 26.6581 26.355H27.3931C27.7081 27.72 28.9681 28.77 30.4381 28.77C32.1181 28.77 33.5881 27.405 33.5881 25.62C33.5881 23.835 32.2231 22.47 30.4381 22.47C28.9681 22.47 27.8131 23.415 27.3931 24.78H26.6581C24.8731 24.78 24.7681 23.415 24.7681 22.995C24.7681 22.155 24.5581 21.42 24.1381 20.895C24.5581 20.37 24.7681 19.74 24.7681 18.795C24.7681 18.375 24.8731 17.01 26.6581 17.01H30.5431C30.7531 18.48 32.1181 19.53 33.5881 19.53C35.2681 19.53 36.7381 18.165 36.7381 16.38C36.7381 14.595 35.2681 13.335 33.5881 13.335ZM9.85815 22.575C8.91315 22.575 8.17815 21.84 8.17815 20.895C8.17815 19.95 8.91315 19.215 9.85815 19.215C10.8031 19.215 11.5381 19.95 11.5381 20.895C11.5381 21.84 10.8031 22.575 9.85815 22.575ZM18.2581 22.575C17.3131 22.575 16.5781 21.84 16.5781 20.895C16.5781 19.95 17.3131 19.215 18.2581 19.215C19.2031 19.215 19.9381 19.95 19.9381 20.895C19.9381 21.84 19.2031 22.575 18.2581 22.575ZM30.3331 23.94C31.2781 23.94 32.0131 24.675 32.0131 25.62C32.0131 26.565 31.2781 27.3 30.3331 27.3C29.3881 27.3 28.6531 26.565 28.6531 25.62C28.6531 24.675 29.4931 23.94 30.3331 23.94ZM33.5881 18.06C32.6431 18.06 31.9081 17.325 31.9081 16.38C31.9081 15.435 32.6431 14.7 33.5881 14.7C34.5331 14.7 35.2681 15.435 35.2681 16.38C35.1631 17.325 34.4281 18.06 33.5881 18.06Z" fill="white"/>
</g>
<defs>
<clipPath id="clip0_0_1621">
<rect width="42" height="42" fill="white" transform="translate(0.723145)"/>
</clipPath>
</defs>
</svg>
