<svg width="43" height="42" viewBox="0 0 43 42" fill="none" xmlns="http://www.w3.org/2000/svg">
<g clip-path="url(#clip0_0_1745)">
<path fill-rule="evenodd" clip-rule="evenodd" d="M24.6974 0.315002C24.3824 0.315002 24.1724 0.315002 23.8574 0.525002C24.3824 0.840002 24.6974 1.365 24.9074 1.89V2.1V2.31C24.9074 3.15 24.6974 3.36 24.3824 3.885C24.0674 4.62 24.1724 5.46 24.5924 5.985C24.5924 5.985 24.5924 6.195 24.8024 6.195C24.4874 3.36 26.6924 3.045 27.1124 2.205C27.1124 1.47 26.5874 0.945002 26.0624 0.630002C25.7474 0.315002 25.2224 0.315002 24.6974 0.315002ZM28.1624 0.840002C28.1624 1.05 28.1624 1.05 28.1624 1.155V1.47V1.68C28.1624 1.89 28.1624 1.89 28.1624 1.89L27.8474 2.205C27.8474 2.205 27.8474 2.205 27.8474 2.415V2.625L27.6374 2.835L27.4274 2.94L27.2174 3.15C27.0074 3.36 26.6924 3.465 26.4824 3.675L26.3774 3.78L26.1674 3.99L25.9574 4.2L25.7474 4.41L25.5374 4.62L25.3274 4.83V5.04V5.355V5.565C25.3274 5.565 25.3274 5.565 25.3274 5.775V6.09V6.3C25.3274 6.3 25.3274 6.51 25.3274 6.615C25.3274 6.825 25.3274 6.825 25.3274 6.825V7.035V7.245L22.9124 6.195L21.6524 5.88L21.1274 5.355C20.3924 5.145 19.8674 5.145 19.2374 5.04C18.5024 5.04 17.8724 4.83 17.3474 4.83H15.9824C15.2474 4.83 14.6174 5.04 14.0924 5.04H13.5674L12.2024 5.775L11.6774 5.985L11.1524 6.195L10.8374 6.405H10.4174L9.99744 6.51C9.99744 6.51 9.78744 6.51 9.78744 6.72C9.78744 6.72 9.78744 6.72 9.57744 6.72L9.36744 6.93C9.15744 6.93 9.15744 7.14 9.15744 7.14H8.94744L8.84244 7.245L8.63244 7.455C8.52744 7.455 8.52744 7.56 8.52744 7.56L8.31744 7.77L8.10744 7.98L8.00244 8.085L7.79244 8.295L7.26744 8.82L6.74244 9.345C6.53244 9.555 6.42744 9.66 6.21744 9.87L5.48244 10.185C5.16744 10.395 4.95744 10.5 4.64244 10.5C4.43244 10.71 4.11744 10.71 3.90744 10.71C3.38244 10.92 3.06744 11.025 2.54244 11.025C2.54244 11.025 2.33244 11.025 2.22744 11.025H1.91244L1.70244 11.235C1.70244 11.235 1.49244 11.235 1.49244 11.445L1.28244 11.655L1.17744 11.76L0.967441 11.97L0.757441 12.285L0.547441 12.495C0.652441 12.6 0.442441 12.6 0.442441 12.6L0.232441 12.915L0.127441 13.335V13.545C0.127441 13.65 0.127441 13.65 0.127441 13.86C0.127441 14.07 0.127441 14.07 0.127441 14.07V14.28V14.49V14.7C0.127441 14.7 0.127441 14.91 0.337441 14.91L0.547441 15.12L0.757441 15.33L0.967441 15.54C0.967441 15.435 1.17744 15.645 1.49244 15.75H1.70244C1.70244 15.96 1.70244 15.96 1.91244 16.065C1.91244 16.275 1.91244 16.275 1.91244 16.275V16.485L2.01744 16.8L2.22744 17.01L2.43744 17.22L2.64744 17.43L2.85744 17.64L3.06744 17.85C3.06744 17.85 3.27744 17.85 3.27744 18.06H3.48744C3.48744 18.585 3.48744 19.32 3.48744 19.425C3.69744 19.635 4.01244 18.9 4.53744 18.165C4.53744 18.9 4.32744 19.74 4.53744 20.055C4.74744 20.265 5.27244 19.53 5.90244 18.48C13.5674 16.695 20.4974 21.84 21.1274 29.4C20.9174 28.14 19.5524 27.615 18.8174 27.825C18.5024 28.665 17.9774 29.61 17.0324 30.24C17.0324 29.505 17.0324 28.875 16.8224 28.14C16.6124 29.19 16.0874 30.03 15.4574 30.975C14.4074 30.975 13.5674 30.66 12.8324 29.715V29.505L12.6224 29.19V28.98V28.77V28.56V28.35C12.6224 28.35 12.6224 28.14 12.8324 28.14C13.0424 27.615 13.0424 27.3 12.6224 26.88C12.6224 26.88 12.4124 26.88 12.4124 26.67H12.2024H11.9924H11.7824H11.5724H11.3624H11.1524H10.9424H10.7324L10.5224 26.88L10.3124 27.09C7.89744 28.665 9.26244 32.445 11.0474 33.705C10.3124 33.915 9.68244 33.915 9.47244 34.02C9.99744 34.335 10.3124 34.545 10.8374 34.755L12.6224 35.28C13.4624 35.49 14.4074 35.49 15.4574 35.49C20.1824 35.175 24.1724 31.5 24.8024 26.775V27.09L25.0124 27.615C25.0124 27.825 25.0124 27.825 25.0124 27.93V28.35V28.665V28.875V29.085V29.295V29.4V29.61C25.0124 29.61 25.0124 29.61 25.0124 29.82V30.03C25.0124 30.03 25.0124 30.03 25.0124 30.24V30.45C25.0124 30.45 25.0124 30.45 25.0124 30.66V30.975V31.29V31.605L25.3274 32.13L25.1174 32.445L24.9074 33.18H24.6974L24.4874 33.495C23.7524 34.86 22.7024 36.12 21.3374 37.17L21.1274 37.38V37.485H21.6524L22.4924 37.275H22.7024H22.9124H23.1224H23.2274C24.2774 37.065 25.3274 36.75 26.3774 36.225C24.5924 38.64 22.3874 40.425 19.7624 41.58C21.0224 41.58 22.1774 41.265 23.4374 40.845C27.7424 39.585 31.4174 36.645 33.7274 32.655C33.2024 35.07 32.3624 37.485 30.7874 39.585C31.8374 38.85 32.8874 38.01 33.7274 37.17C36.1424 34.545 37.7174 31.395 38.2424 27.93C38.5574 29.715 38.7674 31.395 38.5574 33.18C46.4324 22.365 39.2924 11.13 36.2474 8.085C36.2474 8.085 36.2474 8.295 36.2474 8.4L36.0374 9.135L35.8274 9.87V10.71L35.5124 11.445L34.7774 12.285L34.2524 12.81C34.0424 13.02 33.9374 13.125 33.7274 13.335L33.3074 13.65L33.0974 13.86C32.8874 14.07 32.7824 14.175 32.5724 14.175L31.8374 14.49L31.1024 14.805C30.8924 14.805 30.5774 15.015 30.3674 15.015L29.6324 15.225C29.4224 15.225 29.1074 15.225 28.8974 15.225H28.3724C28.1624 15.225 27.8474 15.225 27.6374 15.225C27.4274 15.225 27.1124 15.225 26.9024 15.015C26.6924 15.015 26.3774 14.805 26.1674 14.805H26.9024L27.6374 14.595L28.3724 14.385C28.5824 14.385 28.8974 14.175 29.1074 14.07C29.3174 13.86 29.6324 13.86 29.8424 13.755L30.3674 13.44C30.5774 13.23 30.6824 13.125 30.8924 12.915C31.1024 12.705 31.2074 12.6 31.4174 12.39L31.9424 11.865C31.9424 11.865 31.9424 11.865 31.9424 11.655L32.2574 11.13L32.5724 10.395L32.7824 9.66C32.7824 9.45 32.9924 9.135 32.9924 8.925L33.2024 8.19V7.77V7.245V6.51L32.8874 5.775L32.6774 5.04C32.6774 4.83 32.4674 4.515 32.3624 4.305L32.0474 3.57L31.7324 3.045L31.2074 2.52L30.8924 2.205L29.3174 1.155C29.3174 1.155 29.1074 1.155 29.1074 0.945002C28.7924 1.155 28.4774 0.945002 28.1624 0.840002Z" fill="#E72B47"/>
</g>
<defs>
<clipPath id="clip0_0_1745">
<rect width="42" height="42" fill="white" transform="translate(0.127441)"/>
</clipPath>
</defs>
</svg>
