<svg width="43" height="42" viewBox="0 0 43 42" fill="none" xmlns="http://www.w3.org/2000/svg">
<g clip-path="url(#clip0_0_1664)">
<path d="M19.9272 0.42001C20.9772 -0.20999 22.3422 -0.20999 23.3922 0.42001L39.1422 9.24001C40.0872 9.76501 40.8222 10.92 40.8222 12.075V29.82C40.8222 30.975 40.0872 32.13 39.0372 32.655L23.3922 41.475C22.3422 42.105 20.9772 42 19.9272 41.37L15.2022 38.64C14.8872 38.43 14.5722 38.325 14.2572 38.01C14.4672 37.695 14.7822 37.695 15.0972 37.59C15.7272 37.38 16.3572 37.065 16.9872 36.75C17.0922 36.645 17.3022 36.645 17.5122 36.75L21.5022 39.06C21.8172 39.27 22.0272 38.955 22.3422 38.85L37.6722 30.135C37.8822 30.03 37.9872 29.82 37.9872 29.61V12.18C37.9872 11.97 37.8822 11.76 37.6722 11.655L21.9222 2.83501C21.7122 2.73001 21.5022 2.73001 21.2922 2.83501L5.64719 11.655C5.43719 11.76 5.33219 11.97 5.33219 12.18V29.82C5.33219 30.03 5.43719 30.24 5.64719 30.345L9.84719 32.655C10.5822 33.075 11.6322 33.285 12.4722 32.97C13.2072 32.655 13.7322 31.92 13.7322 31.08V13.545C13.7322 13.335 13.9422 13.02 14.2572 13.125H16.2522C16.5672 13.125 16.6722 13.44 16.6722 13.65V31.29C16.6722 32.865 16.0422 34.545 14.5722 35.28C12.7872 36.225 10.5822 36.015 8.79719 35.07L4.28219 32.55C3.23219 32.025 2.49719 30.87 2.49719 29.715V12.075C2.49719 10.92 3.12719 9.87001 4.17719 9.24001L19.9272 0.42001ZM24.4422 12.81C26.7522 12.705 29.1672 12.705 31.1622 13.86C32.7372 14.7 33.5772 16.485 33.6822 18.27C33.6822 18.48 33.3672 18.69 33.1572 18.585C32.5272 18.585 31.7922 18.585 31.1622 18.585C30.8472 18.585 30.7422 18.375 30.6372 18.06C30.4272 17.22 30.0072 16.38 29.1672 15.96C27.9072 15.33 26.5422 15.33 25.1772 15.435C24.2322 15.54 23.1822 15.54 22.3422 16.17C21.7122 16.59 21.5022 17.535 21.7122 18.165C21.9222 18.69 22.5522 18.795 22.9722 19.005C25.7022 19.74 28.6422 19.635 31.2672 20.58C32.4222 21 33.4722 21.735 33.8922 22.89C34.4172 24.465 34.2072 26.355 33.0522 27.615C32.1072 28.665 30.8472 29.19 29.4822 29.505C27.6972 29.925 25.9122 29.925 24.1272 29.715C22.4472 29.505 20.7672 29.085 19.4022 27.93C18.3522 26.985 17.7222 25.515 17.8272 24.045C17.8272 23.835 18.0372 23.625 18.3522 23.625H20.5572C20.8722 23.625 20.9772 23.835 21.0822 24.045C21.1872 24.885 21.5022 25.725 22.2372 26.145C23.6022 26.985 25.2822 26.985 26.8572 26.985C28.1172 26.88 29.5872 26.88 30.6372 26.04C31.1622 25.515 31.3722 24.78 31.1622 24.045C30.9522 23.415 30.3222 23.205 29.7972 22.995C27.0672 22.155 24.1272 22.47 21.5022 21.525C20.4522 21.105 19.4022 20.37 18.9822 19.32C18.3522 17.745 18.6672 15.75 19.9272 14.595C20.9772 13.335 22.7622 12.915 24.4422 12.81Z" fill="#8CC84B"/>
</g>
<defs>
<clipPath id="clip0_0_1664">
<rect width="42" height="42" fill="white" transform="translate(0.607178)"/>
</clipPath>
</defs>
</svg>
