<svg width="43" height="42" viewBox="0 0 43 42" fill="none" xmlns="http://www.w3.org/2000/svg">
<path d="M19.208 10.6798L13.3985 7.74731L7.02295 10.9292L12.9895 13.9255L19.208 10.6798Z" fill="#4DABCF"/>
<path d="M21.8707 12.0237L27.9616 15.0981L21.6423 18.2717L15.6665 15.2703L21.8707 12.0237Z" fill="#4DABCF"/>
<path d="M30.0053 7.79187L36.2625 10.9293L30.6664 13.7399L24.563 10.6613L30.0053 7.79187Z" fill="#4DABCF"/>
<path d="M27.3123 6.44029L21.6793 3.61621L16.1067 6.39661L21.9111 9.32401L27.3123 6.44029Z" fill="#4DABCF"/>
<path d="M22.9081 30.697V38.3838L29.7322 34.9785L29.7247 27.2883L22.9081 30.697Z" fill="#4DABCF"/>
<path d="M29.7222 24.6044L29.7146 16.9949L22.9081 20.3784V27.9905L29.7222 24.6044Z" fill="#4DABCF"/>
<path d="M37.9148 23.1781V30.8952L32.0944 33.7999L32.0902 26.1181L37.9148 23.1781Z" fill="#4DABCF"/>
<path d="M37.9148 20.4801V12.9184L32.0835 15.8172L32.0885 23.4419L37.9148 20.4801Z" fill="#4DABCF"/>
<path d="M20.499 20.3784L15.9025 18.0676V28.056C15.9025 28.056 10.2812 16.0952 9.76045 15.0209C9.69325 14.8823 9.41689 14.7302 9.34633 14.6933C8.33833 14.1641 5.38489 12.668 5.38489 12.668V30.3148L9.47065 32.4988V23.2747C9.47065 23.2747 15.0323 33.962 15.0886 34.0788C15.1448 34.1956 15.7034 35.322 16.2998 35.7176C17.0945 36.2435 20.4998 38.2914 20.4998 38.2914L20.499 20.3784Z" fill="#4D77CF"/>
</svg>
