<svg width="43" height="42" viewBox="0 0 43 42" fill="none" xmlns="http://www.w3.org/2000/svg">
<g clip-path="url(#clip0_0_1510)">
<path d="M39.8718 17.1869C40.3414 15.7727 40.5038 14.2746 40.3482 12.7926C40.1926 11.3106 39.7225 9.87885 38.9693 8.59304C37.8528 6.64954 36.1479 5.11082 34.1004 4.19872C32.053 3.28662 29.7688 3.04828 27.5772 3.51804C26.3321 2.13303 24.7444 1.10002 22.9737 0.522764C21.203 -0.0544894 19.3116 -0.155663 17.4894 0.229406C15.6673 0.614474 13.9785 1.47223 12.5927 2.71651C11.207 3.9608 10.173 5.54782 9.5947 7.31817C8.13462 7.61757 6.75526 8.22517 5.5488 9.10036C4.34234 9.97554 3.33658 11.0982 2.59873 12.3932C1.47004 14.3334 0.987645 16.5824 1.22129 18.8149C1.45493 21.0473 2.3925 23.1477 3.89845 24.8122C3.42712 26.2257 3.26307 27.7236 3.41729 29.2057C3.57151 30.6877 4.04044 32.1197 4.7927 33.4059C5.91067 35.3502 7.61706 36.8892 9.66595 37.8013C11.7148 38.7134 14.0004 38.9515 16.1933 38.4811C17.1825 39.5951 18.3979 40.4852 19.7585 41.092C21.1191 41.6988 22.5935 42.0084 24.0833 42C26.3297 42.0021 28.5186 41.2903 30.3341 39.9674C32.1496 38.6445 33.4977 36.7789 34.184 34.6399C35.6439 34.3399 37.023 33.7321 38.2294 32.857C39.4358 31.9818 40.4417 30.8594 41.1799 29.5647C42.2953 27.6273 42.7694 25.3868 42.5344 23.1636C42.2995 20.9405 41.3675 18.8484 39.8718 17.1869ZM24.0833 39.2511C22.2436 39.254 20.4615 38.6092 19.0496 37.4297L19.2979 37.289L27.66 32.4622C27.8681 32.3401 28.0409 32.166 28.1613 31.957C28.2818 31.7479 28.3459 31.5112 28.3472 31.2699V19.4803L31.8822 21.5254C31.8997 21.5342 31.9148 21.5471 31.9263 21.5629C31.9379 21.5787 31.9456 21.597 31.9487 21.6164V31.3859C31.9442 33.4706 31.1141 35.4686 29.6401 36.9426C28.166 38.4167 26.1679 39.2467 24.0833 39.2511ZM7.17708 32.0317C6.25443 30.4385 5.92315 28.571 6.24153 26.7577L6.49003 26.9068L14.8603 31.7336C15.0674 31.8552 15.3032 31.9192 15.5433 31.9192C15.7834 31.9192 16.0192 31.8552 16.2263 31.7336L26.4512 25.8388V29.9205C26.4503 29.9416 26.4445 29.9623 26.4345 29.9809C26.4244 29.9996 26.4103 30.0157 26.3931 30.0281L17.9235 34.9129C16.116 35.9541 13.9691 36.2356 11.9542 35.6954C9.9394 35.1552 8.22127 33.8375 7.17708 32.0317ZM4.97488 13.8173C5.90392 12.2139 7.37033 10.9909 9.1145 10.3649V20.3C9.11136 20.54 9.17268 20.7765 9.29209 20.9847C9.41149 21.193 9.58459 21.3654 9.79333 21.4839L19.9685 27.3539L16.4334 29.3988C16.4142 29.4089 16.3929 29.4143 16.3712 29.4143C16.3496 29.4143 16.3282 29.4089 16.3091 29.3988L7.85608 24.5224C6.05194 23.4766 4.73574 21.7585 4.19572 19.7444C3.6557 17.7302 3.93587 15.5841 4.97488 13.776V13.8173ZM34.0184 20.565L23.8101 14.637L27.3371 12.6C27.3562 12.5899 27.3775 12.5845 27.3992 12.5845C27.4209 12.5845 27.4422 12.5899 27.4613 12.6L35.9144 17.4848C37.2068 18.2306 38.2605 19.3286 38.9523 20.6507C39.6441 21.9729 39.9455 23.4645 39.8214 24.9515C39.6973 26.4385 39.1527 27.8596 38.2513 29.0487C37.3498 30.2378 36.1287 31.146 34.7305 31.6671V21.732C34.7231 21.4924 34.6536 21.2588 34.5288 21.0542C34.4039 20.8496 34.2281 20.6811 34.0184 20.565ZM37.5371 15.2745L37.2886 15.1254L28.935 10.2573C28.7266 10.135 28.4894 10.0705 28.2478 10.0705C28.0062 10.0705 27.7689 10.135 27.5606 10.2573L17.3442 16.152V12.0705C17.3421 12.0497 17.3455 12.0288 17.3543 12.0098C17.363 11.9909 17.3767 11.9746 17.3939 11.9628L25.847 7.08629C27.1425 6.33995 28.6238 5.97791 30.1175 6.04252C31.6113 6.10713 33.0558 6.59572 34.282 7.45114C35.5083 8.30656 36.4656 9.49345 37.0421 10.873C37.6186 12.2525 37.7903 13.7677 37.5373 15.2413L37.5371 15.2745ZM15.4149 22.5103L11.8799 20.4736C11.8622 20.463 11.847 20.4486 11.8356 20.4314C11.8241 20.4143 11.8165 20.3948 11.8134 20.3744V10.6299C11.8153 9.13497 12.2428 7.67152 13.0458 6.41062C13.8488 5.14971 14.9942 4.14347 16.348 3.50954C17.7019 2.8756 19.2082 2.64017 20.6909 2.83078C22.1736 3.02139 23.5714 3.63015 24.7208 4.58589L24.4723 4.72677L16.1105 9.55327C15.9024 9.67533 15.7296 9.84943 15.6091 10.0585C15.4886 10.2675 15.4246 10.5043 15.4233 10.7455L15.4149 22.5103ZM17.3357 18.3708L21.8892 15.7462L26.4512 18.3708V23.6198L21.9058 26.2442L17.3441 23.6198L17.3357 18.3708Z" fill="white"/>
</g>
<defs>
<clipPath id="clip0_0_1510">
<rect width="42" height="42" fill="white" transform="translate(0.878479)"/>
</clipPath>
</defs>
</svg>
