<svg width="105" height="42" viewBox="0 0 105 42" fill="none" xmlns="http://www.w3.org/2000/svg">
<path d="M37.5231 25.2614C36.2208 25.2614 34.8944 24.7225 34.0638 23.6661V29.3725H31.4554V15.2854H33.814L33.904 16.835C34.7131 15.6443 36.1498 15.0153 37.5206 15.0153C40.1493 15.0153 42.0857 17.218 42.0857 20.1384C42.0857 23.0587 40.1519 25.2627 37.5231 25.2614ZM36.7154 16.9491C35.1873 16.9491 33.9522 18.1399 33.9522 20.1396C33.9522 22.1394 35.1873 23.3326 36.7154 23.3326C38.2434 23.3326 39.4785 22.1419 39.4785 20.1422C39.4785 18.1424 38.2434 16.9491 36.7154 16.9491Z" fill="white"/>
<path d="M51.9171 24.9938L51.8271 23.4442C51.018 24.6349 49.58 25.2639 48.2092 25.2626C45.5805 25.2626 43.6442 23.0613 43.6442 20.1409C43.6442 17.2205 45.5767 15.0178 48.2092 15.0191C49.58 15.0191 51.018 15.6531 51.8271 16.8388L51.9171 15.2892H54.2808V24.9938H51.9171ZM49.0195 16.9504C47.4915 16.9504 46.2564 18.1411 46.2551 20.1409C46.2539 22.1406 47.4902 23.3326 49.0183 23.3326C50.5463 23.3326 51.7827 22.1419 51.7827 20.1421C51.7827 18.1424 50.5476 16.9504 49.0195 16.9504Z" fill="white"/>
<path d="M63.3945 24.9951V19.626C63.3945 17.7391 62.7439 17.1102 61.5532 17.1102C60.3168 17.1102 58.9689 18.2324 58.9689 19.5804V24.9951H56.3617V15.2892H58.7444L58.8573 17.0874C59.5091 15.851 60.9686 15.0204 62.4523 15.0204C65.0353 15.0204 66.0029 16.8185 66.0029 19.2215V24.9964L63.3945 24.9951Z" fill="white"/>
<path d="M75.5554 24.9976L75.4653 23.4467C74.6563 24.6375 73.2183 25.2664 71.8488 25.2664C69.22 25.2664 67.2837 23.0638 67.2837 20.1434C67.2837 17.223 69.2162 15.0216 71.8488 15.0216C73.1511 15.0216 74.4762 15.5618 75.3081 16.6169V11.5179H77.9153V24.9976H75.5554ZM72.6578 16.9542C71.1361 16.9542 69.8947 18.1449 69.8947 20.1434C69.8947 22.1419 71.1298 23.3326 72.6578 23.3326C74.1858 23.3326 75.421 22.1432 75.421 20.1434C75.421 18.1437 74.1896 16.9542 72.6578 16.9542Z" fill="white"/>
<path d="M87.7073 24.9989L87.6173 23.4493C86.8083 24.64 85.3703 25.2677 83.9995 25.2677C81.3707 25.2677 79.4344 23.0663 79.4344 20.1447C79.4344 17.223 81.3669 15.0229 83.9995 15.0229C85.3703 15.0229 86.8083 15.6569 87.6173 16.8438L87.7073 15.293H90.066V24.9976L87.7073 24.9989ZM84.8098 16.9554C83.2881 16.9554 82.0466 18.1462 82.0454 20.1459C82.0441 22.1457 83.2817 23.3326 84.8085 23.3326C86.3353 23.3326 87.5729 22.1419 87.5729 20.1421C87.5729 18.1424 86.3378 16.9554 84.8098 16.9554Z" fill="white"/>
<path d="M95.8395 25.3146C94.4685 25.3033 93.1259 24.9226 91.9529 24.2127L92.3802 22.4158C93.1664 22.8875 94.3572 23.4949 95.7952 23.4949C96.8286 23.4949 97.5476 23.1805 97.5476 22.3714C97.5476 21.6752 96.8058 21.428 95.4807 21.1135C93.0992 20.5961 92.2458 19.3382 92.2458 17.9674C92.2458 16.4394 93.4365 15.0026 96.0653 15.0026C97.6605 15.0026 99.0541 15.6988 99.3623 15.8789L98.9349 17.587C98.0861 17.076 97.1179 16.797 96.1274 16.7779C95.0724 16.7779 94.555 17.1368 94.555 17.7214C94.555 18.3719 95.2296 18.6648 96.2618 18.9121C98.8233 19.451 99.8568 20.6418 99.8568 21.9453C99.8619 24.0339 98.3338 25.3146 95.8395 25.3146Z" fill="white"/>
<path d="M13.1913 8.67621H10.1365V15.0191H13.1913V8.67621Z" fill="white"/>
<path d="M13.1913 21.7057H10.1365V28.0486H13.1913V21.7057Z" fill="white"/>
<path d="M13.1913 16.8705H10.1365V19.8631H13.1913V16.8705Z" fill="#FFCA00"/>
<path d="M8.28508 13.8918H5.23029V34.9761H8.28508V13.8918Z" fill="white"/>
<path d="M17.9973 26.939H14.9425V33.2819H17.9973V26.939Z" fill="white"/>
<path d="M17.9973 13.8994H14.9425V20.2423H17.9973V13.8994Z" fill="white"/>
<path d="M17.9973 22.0937H14.9425V25.0864H17.9973V22.0937Z" fill="#E70488"/>
<path d="M22.8021 7.02386H19.7473V28.1082H22.8021V7.02386Z" fill="white"/>
</svg>
