<svg width="41" height="40" viewBox="0 0 41 40" fill="none" xmlns="http://www.w3.org/2000/svg">
<g clip-path="url(#clip0_0_1658)">
<path d="M12.6071 34C11.1071 32.8 9.50715 31.6 8.30715 30C5.90715 27.2 4.10715 23.9 2.90715 20.3C2.20715 18.1 1.90715 15.7 1.00715 13.5C0.00714737 12 1.10715 10.2 2.90715 9.79999C3.60715 9.69999 5.00715 8.89999 3.30715 9.49999C1.80715 10.5 1.70715 8.49999 3.20715 8.49999C4.20715 8.39999 4.50715 7.49999 4.20715 6.69999C3.20715 5.99999 6.90715 5.19999 4.90715 4.19999C3.10715 1.99999 7.80715 1.59999 6.60715 3.99999C6.30715 5.79999 9.90715 3.69999 9.20715 5.79999C10.1071 6.79999 12.3071 6.09999 12.3071 7.39999C13.5071 7.49999 13.9071 8.39999 15.1071 8.59999C16.3071 9.19999 18.5071 9.59999 18.8071 11C17.6071 11.9 14.8071 9.09999 14.8071 11.6C15.1071 15.5 15.1071 19.5 16.4071 23C17.0071 25.2 18.6071 27 20.1071 28.6C21.4071 30.2 23.4071 31.4 25.3071 32.5C26.9071 33.2 28.9071 33.8 30.7071 34.1C31.4071 33.5 32.8071 31.4 34.0071 32.3C34.0071 33.3 31.6071 34.4 33.9071 34.2C35.2071 33.8 36.1071 35.2 37.2071 33.9C38.2071 35.1 41.2071 33.2 40.6071 35.5C39.7071 36.1 38.2071 35.8 37.3071 36.5C35.8071 35.8 34.5071 37.2 32.8071 36.9C30.9071 37.2 28.9071 37.3 27.0071 37.3C23.9071 37 20.6071 37 17.5071 35.8C15.7071 35.9 14.1071 34.9 12.6071 34ZM15.3071 35.2C16.9071 35.9 18.6071 36.7 20.4071 37C23.4071 37.4 26.3071 38 29.2071 37.4C27.9071 36.8 26.5071 37.7 25.2071 37C23.6071 37.3 21.9071 36.9 20.3071 36.7C18.5071 36 16.6071 35.4 14.8071 34.3C12.7071 33.6 15.8071 35.3 16.4071 35.5C17.7071 36.2 14.9071 35.1 14.6071 34.8C13.6071 34.2 13.4071 34.4 14.5071 34.9C14.8071 34.9 15.0071 35 15.3071 35.2ZM12.1071 32.9C13.7071 33.5 12.1071 31.7 11.4071 31.9C11.1071 31.3 10.2071 31 10.8071 30.7C9.60715 31.2 9.60715 29.2 9.00715 29.4C7.80715 29 8.60715 27.6 7.10715 26.7C7.00715 25.8 5.60715 25.1 5.20715 23.7C5.10715 23 3.70715 21 4.50715 22.8C5.20715 24.6 6.40715 26.1 7.50715 27.7C8.20715 29.2 9.30715 30.7 10.6071 31.6C10.9071 32.1 11.4071 32.8 12.1071 32.9ZM7.40715 27.7C7.50715 27.6 7.70715 28.3 7.40715 27.7V27.7ZM14.1071 33.5C13.5071 33.4 14.4071 33.4 14.1071 33.5V33.5ZM15.0071 34C14.5071 34.1 14.8071 33.5 15.0071 34V34ZM16.0071 34.4C15.3071 34 16.6071 33.8 16.0071 34.4V34.4ZM17.9071 35.5C16.9071 35.2 18.2071 34.9 17.9071 35.5V35.5ZM14.2071 32.9C13.2071 32.9 15.1071 32.4 14.2071 32.9V32.9ZM15.1071 33.2C14.8071 33.4 15.1071 33.1 15.1071 33.2V33.2ZM19.3071 35.9C19.9071 36.3 23.2071 36.8 21.2071 36C20.8071 36.1 17.3071 35 19.3071 35.9ZM12.7071 30.9C11.7071 30.4 12.6071 30.6 12.7071 30.9V30.9ZM14.7071 31.9C13.6071 31.6 15.1071 31.6 14.7071 31.9V31.9ZM16.1071 32.9C15.1071 32.7 16.9071 32.7 16.1071 32.9V32.9ZM11.8071 30C12.5071 30.6 14.9071 30.1 13.0071 29.7C12.1071 29.3 10.2071 29 11.5071 30H11.8071ZM17.3071 33.2C16.0071 32.9 17.6071 32.7 17.3071 33.2V33.2ZM15.7071 31.9C17.6071 32.5 14.1071 30.7 15.3071 31.8L15.6071 31.9H15.7071ZM19.0071 33.8C17.3071 33.5 20.8071 33.8 19.0071 33.8V33.8ZM11.2071 28.9C10.8071 28.9 11.1071 28.6 11.2071 28.9V28.9ZM21.9071 35.5C21.3071 35.9 22.1071 34.9 21.9071 35.5V35.5ZM14.4071 30.7C13.8071 30.7 14.2071 30.4 14.4071 30.7V30.7ZM11.4071 28.6C10.1071 28.2 12.4071 28.6 11.4071 28.6V28.6ZM8.00715 26.4C6.90715 25.5 7.80715 26 8.00715 26.4V26.4ZM17.0071 32.2C16.7071 31.9 16.9071 32.2 17.0071 32.2V32.2ZM22.5071 35.6C22.2071 35.8 22.5071 35.3 22.5071 35.6V35.6ZM16.4071 31.6C15.6071 31.6 16.6071 31.3 16.4071 31.6V31.6ZM12.3071 29.1C11.1071 28.5 13.0071 28.9 12.3071 29.1V29.1ZM19.4071 33.4C18.2071 33.2 20.6071 32.9 19.4071 33.4V33.4ZM15.7071 30.9C17.0071 31 14.1071 30 15.4071 30.8L15.7071 30.9ZM20.5071 33.8C21.8071 33.1 21.4071 35.6 22.7071 33.9C24.0071 33 21.5071 35.1 23.1071 34C24.3071 33.3 25.9071 34.3 27.1071 34.7C27.8071 34.7 28.6071 35.4 29.5071 35C31.0071 34.6 26.5071 34.4 27.7071 33.7C26.4071 34.1 25.3071 33.3 24.6071 32.4C23.0071 32.1 21.2071 31.2 20.4071 29.9C20.1071 29.3 20.8071 30 20.1071 29.2C19.2071 28.3 18.6071 27.4 18.0071 26.4C17.3071 26 17.1071 24.8 17.1071 26.4C17.1071 25.4 16.2071 24.8 15.9071 25.1C15.9071 24.2 16.9071 24.7 16.2071 23.9C16.1071 22.9 15.6071 21.8 15.5071 20.8C15.2071 20.2 15.5071 19.2 14.8071 20.4C14.5071 21.7 14.7071 18.8 15.1071 19.8C15.7071 18.9 15.0071 18.9 14.8071 19.1C15.1071 18.4 15.1071 17.2 14.7071 17.6C14.8071 16.7 15.0071 14.5 14.4071 14.8C14.7071 13.9 15.1071 10.6 13.5071 12C12.9071 12 11.7071 12.3 11.3071 12.4C12.9071 13.3 11.2071 12.7 10.4071 12.5C10.3071 13.4 9.70715 12.9 8.80715 12.9C10.1071 13 8.20715 14.2 7.50715 13.8C6.50715 14.2 8.40715 15.4 7.50715 15.9C7.60715 16.5 6.00715 15.8 6.20715 16.9C5.30715 16.5 6.10715 18.4 6.50715 17.8C8.10715 18.2 7.70715 19.3 7.70715 20.2C7.40715 20.8 6.40715 18.9 7.40715 19C6.50715 17.7 6.50715 18.6 5.80715 19.1C5.70715 19.1 7.60715 20 6.40715 20.4C7.40715 20.5 7.40715 21.6 7.70715 22.2C8.30715 22.9 8.10715 21.5 9.00715 22.2C8.60715 21.5 6.30715 20.1 8.10715 20.6C8.10715 19.9 7.80715 19.3 8.20715 19.3C8.60715 18.4 7.60715 21.7 8.80715 20.5C9.10715 20.4 9.20715 19.6 9.80715 20.6C10.7071 21.5 10.1071 22.1 8.90715 21.3C9.00715 22 10.5071 22.3 10.2071 23.4C10.5071 24.4 10.8071 24 11.2071 24C11.5071 24.9 11.6071 24.3 11.6071 23.9C12.8071 24.2 12.5071 24.9 12.9071 25.4C13.8071 25.8 11.7071 22.9 13.2071 24.5C14.7071 25.8 13.8071 26.4 12.5071 26.1C13.4071 26.1 13.7071 27.3 14.7071 27.1C15.7071 27.5 16.3071 29.3 14.7071 28.6C14.1071 28.2 12.0071 27.4 13.8071 28.5C15.3071 29.2 16.6071 29.7 18.1071 30.6C19.1071 31.3 19.6071 32.2 20.0071 32.4C19.1071 32.8 17.3071 32.1 18.7071 31.8C17.8071 31.7 16.9071 31.2 17.7071 32.2C18.4071 32.8 20.1071 32.6 20.4071 32.8C20.1071 33.4 19.7071 33.4 20.4071 33.5C19.4071 33.5 20.5071 33.7 20.5071 33.8ZM18.8071 29.2C18.4071 28.8 18.2071 27.7 18.7071 28.6C19.0071 28.6 19.6071 30.1 18.8071 29.2ZM24.2071 32.7C24.2071 32.8 24.5071 32.7 24.2071 32.7V32.7ZM18.1071 27.9C18.1071 27.2 18.2071 28.5 18.1071 27.9V27.9ZM17.5071 27.2C16.9071 26 18.4071 27.6 17.5071 27.2V27.2ZM11.1071 22.7C11.2071 23.3 11.4071 22.7 11.1071 22.7V22.7ZM16.1071 25.5C16.4071 24.6 16.4071 26.3 16.1071 25.5V25.5ZM12.6071 23C12.3071 22.5 13.0071 23.4 12.6071 23V23ZM15.7071 24C15.1071 22.7 16.1071 23.3 15.8071 24.1L15.7071 24ZM10.2071 20.3C9.90715 19.9 9.50715 18.7 9.60715 18.2C9.70715 18.8 10.9071 20.9 10.2071 19.1C9.30715 17.6 11.2071 19.5 11.4071 20C11.5071 20.4 11.0071 19.9 11.3071 20.7C10.6071 19.9 10.9071 21.4 10.2071 20.3ZM8.60715 19.3C8.70715 18.2 9.00715 19.9 8.60715 19.3V19.3ZM9.30715 19.4C9.80715 18.7 9.90715 20.6 9.30715 19.4V19.4ZM7.50715 18.1C6.90715 17.5 6.50715 16.9 7.50715 17.7C7.90715 17.7 6.60715 16.4 7.60715 17.3C8.70715 17.5 8.30715 19.1 7.50715 18.1ZM8.40715 18.1C8.70715 18.4 8.90715 17.6 8.40715 18.1V18.1ZM9.00715 18.2C8.60715 17.2 9.80715 18.7 9.00715 18.2V18.2ZM8.00715 17.2C6.20715 15.6 10.2071 18.1 8.30715 17.5L8.00715 17.2ZM13.0071 20.2C12.3071 19.8 12.9071 16.9 13.0071 18.9C13.7071 18.6 13.0071 19.9 13.6071 19.9C13.6071 20.6 13.3071 20.9 13.0071 20.2ZM15.0071 21.4C15.1071 20.5 15.1071 21.8 15.0071 21.4V21.4ZM14.7071 20.9C14.7071 21.4 14.8071 20.6 14.7071 20.9V20.9ZM8.30715 16.6C7.10715 15 11.7071 18.2 9.00715 17C8.70715 16.9 8.40715 16.9 8.30715 16.6ZM12.0071 18.5C11.8071 17.2 12.1071 18.8 12.0071 18.5V18.5ZM14.7071 20.3C14.8071 20.9 15.0071 19.6 14.7071 20.3V20.3ZM8.40715 16C9.10715 15.9 11.2071 17.2 9.30715 16.4C9.00715 16.2 8.60715 16.3 8.40715 16ZM14.4071 19C14.4071 17.7 14.8071 18.1 14.4071 19.1V19ZM8.90715 15.6C9.20715 15.2 8.20715 13.7 9.00715 15.2C9.40715 15.5 10.0071 15.6 9.40715 15.8C10.6071 16.6 9.30715 15.9 8.90715 15.6ZM14.1071 18.5C14.2071 16.9 14.2071 19.4 14.1071 18.5V18.5ZM8.30715 14.1C8.40715 14.4 8.60715 13.9 8.30715 14.1V14.1ZM9.60715 14.8C10.1071 14.1 10.4071 15.7 9.60715 14.8V14.8ZM13.5071 16.9C13.5071 16.6 13.5071 17.3 13.5071 16.9V16.9ZM13.2071 16.5C12.7071 15.1 13.8071 17.2 13.2071 16.5V16.5ZM12.9071 15.6C12.9071 15.1 13.2071 16.3 12.9071 15.6V15.6ZM13.5071 14.8C13.2071 14.2 13.9071 12 14.1071 13.3C13.7071 14.3 14.0071 14.9 14.2071 13.6C14.7071 12.4 14.1071 15.7 13.5071 14.8ZM13.9071 11.5C13.9071 11.8 14.1071 11.4 13.9071 11.5V11.5ZM13.0071 29.2C12.9071 29.1 13.0071 29.4 13.0071 29.2V29.2ZM15.0071 30.1C16.0071 30.4 16.0071 30 15.1071 29.8C14.7071 29.4 13.0071 28.9 14.5071 29.8C14.4071 30.1 14.7071 30.1 15.0071 30.1ZM11.2071 27.7C11.8071 28.1 13.3071 28.9 11.9071 27.8C12.3071 27.2 11.0071 27.1 11.5071 26.6C10.5071 25.9 10.6071 26 11.4071 26C10.1071 25.4 11.5071 25.4 11.5071 25.1C11.1071 25 9.00715 24.2 10.2071 25.1C9.00715 24.5 9.90715 25.4 9.60715 25.2C8.40715 24.9 10.6071 26.1 9.50715 25.8C10.2071 26.4 11.4071 27.3 9.80715 26.4C9.60715 27 10.9071 27.4 11.2071 27.7ZM13.2071 28.8C12.0071 27.9 15.6071 29.7 13.2071 28.8V28.8ZM23.1071 34.9C22.8071 35.3 23.1071 34.4 23.1071 34.9V34.9ZM24.2071 35.3C24.8071 34.7 24.2071 36.2 25.1071 35.2C25.1071 34.5 25.1071 34.2 24.1071 34.9C23.7071 35 23.6071 35.6 24.2071 35.3ZM8.00715 25.2C6.80715 24.5 7.80715 24.5 8.00715 25.2V25.2ZM9.00715 25.8C7.70715 25.2 8.70715 25.2 9.00715 25.8V25.8ZM15.3071 29.5C15.9071 30.1 18.1071 29.9 16.0071 29.5C15.7071 29.2 14.1071 29.4 15.3071 29.5ZM23.7071 34.9C22.8071 35.2 24.6071 34.1 23.7071 34.9V34.9ZM25.7071 36.2C25.2071 36.2 25.7071 35.9 25.7071 36.2V36.2ZM25.7071 35.8C24.6071 35.9 26.7071 34.7 25.7071 35.8V35.8ZM5.30715 23C4.40715 21.8 4.70715 21.2 4.00715 20.2C3.90715 19.5 2.50715 17.7 3.40715 19.5C4.00715 20.5 4.10715 22.2 5.30715 23ZM25.4071 35.5C24.6071 34.9 27.3071 34.3 25.4071 35.5V35.5ZM26.8071 36.1C26.3071 35.9 27.7071 35.2 26.8071 36.1V36.1ZM7.70715 23.7C6.90715 23.7 8.00715 23.4 7.70715 23.7V23.7ZM26.6071 35.6C27.5071 35 26.5071 35.2 26.5071 35.6H26.6071ZM14.1071 27.7C13.6071 27.9 14.1071 27.4 14.1071 27.7V27.7ZM14.8071 28.2C14.5071 27.7 14.5071 28.3 14.8071 28.2V28.2ZM28.0071 36.1C29.2071 35.2 27.3071 36 27.7071 36.2L28.0071 36.1ZM27.6071 35.8C26.6071 36.2 28.5071 35 27.6071 35.8V35.8ZM29.8071 37.4C29.1071 37.3 30.4071 37 29.8071 37.4V37.4ZM8.30715 23.4C9.20715 23.5 11.7071 25.5 10.2071 23.5C9.50715 23.2 9.90715 21.4 9.20715 21.7C9.80715 22.6 9.60715 23 8.50715 22.4C7.20715 21.7 7.80715 22.7 8.10715 23C7.50715 23.3 8.40715 23.4 8.30715 23.4ZM4.30715 20.3C4.40715 19.7 2.80715 16.7 3.60715 18.8C3.80715 19.4 3.80715 20.2 4.30715 20.3ZM12.6071 25.1C11.4071 24.8 12.6071 24.5 12.6071 25.1V25.1ZM22.1071 31C21.3071 31 21.9071 30.6 22.1071 31V31ZM22.5071 31.5C22.2071 31.5 22.5071 31.2 22.5071 31.5V31.5ZM26.3071 33.7C25.8071 33.7 26.7071 33.5 26.3071 33.7V33.7ZM6.30715 20.9C5.10715 20.6 7.40715 20.5 6.30715 20.9V20.9ZM21.2071 30.3C20.6071 30.4 21.2071 29.7 21.2071 30.3V30.3ZM5.90715 19.9C5.30715 19.7 6.50715 19.7 5.90715 19.9V19.9ZM7.80715 20.9C7.70715 20.9 7.80715 20.6 7.80715 20.9V20.9ZM31.3071 35.3C32.2071 35.2 34.1071 35.7 34.4071 35C33.4071 35 30.8071 34.3 30.7071 35.1H31.0071L31.3071 35.3ZM8.40715 21.1C7.80715 21.1 8.40715 20.3 8.40715 21.1V21.1ZM3.40715 17.5C2.50715 17.3 3.10715 16.2 3.40715 17.5V17.5ZM4.60715 17.8C3.50715 17.5 4.60715 17.3 4.60715 17.8V17.8ZM5.30715 18.1C5.00715 17.9 5.10715 18.4 5.30715 18.1V18.1ZM9.60715 20.9C9.20715 20.8 9.80715 20.8 9.60715 20.9V20.9ZM4.90715 17.3C3.40715 17.2 4.70715 16.5 4.90715 17.3V17.3ZM2.30715 15.9C2.00715 16 2.30715 15.3 2.30715 15.9V15.9ZM2.60715 15.6C2.30715 15.6 2.60715 15 2.60715 15.6V15.6ZM4.70715 16.7C5.60715 16.5 3.10715 16 4.60715 16.7H4.70715ZM31.9071 33.5C31.2071 33.4 32.5071 32.9 31.9071 33.5V33.5ZM35.2071 35.2C34.7071 35.3 35.5071 34.6 35.2071 35.2V35.2ZM4.90715 15.7C4.30715 15.9 5.00715 15 4.90715 15.7V15.7ZM2.00715 13.8C1.90715 12.9 1.90715 11.3 3.30715 11.9C1.40715 12.3 4.60715 14.4 4.20715 12.8C5.10715 12.8 5.80715 12.4 5.40715 13.1C7.00715 13 8.20715 11.5 9.70715 11.8C10.9071 11.7 12.2071 11.5 13.6071 11.1C14.6071 11 15.7071 9.89999 15.1071 9.19999C13.6071 8.89999 12.0071 8.99999 10.4071 9.49999C8.60715 9.89999 6.90715 10.5 5.00715 11C3.20715 11.3 5.30715 11.6 4.90715 11.7C4.00715 12 5.90715 12.3 4.80715 12.6C4.10715 12.5 3.20715 12.2 3.60715 11.4C2.00715 11.2 0.507147 12 2.00715 13.8ZM6.20715 11.5C6.60715 9.99999 8.40715 12.7 6.80715 11.6C6.60715 11.7 6.30715 11.5 6.20715 11.5ZM6.20715 11C6.50715 11.1 6.80715 10.5 6.20715 11V11ZM6.90715 11C6.90715 10.3 8.50715 11.3 7.20715 11.3L6.90715 11ZM8.00715 10.5C8.10715 10.8 8.40715 10.1 8.00715 10.5V10.5ZM8.30715 10.4C8.90715 9.69999 11.7071 9.99999 9.60715 10.4C9.00715 9.79999 8.70715 10.5 8.30715 10.4ZM12.0071 9.79999C12.0071 7.69999 13.9071 10.5 12.0071 9.79999V9.79999ZM13.0071 9.79999C13.4071 8.79999 14.5071 9.39999 13.1071 9.69999C13.3071 9.59999 13.2071 10.1 13.0071 9.79999ZM4.60715 15.1C3.20715 14.5 5.60715 14.4 4.60715 15.1V15.1ZM5.30715 15.4C4.40715 15.3 5.70715 15 5.30715 15.4V15.4ZM2.80715 13.6C2.00715 13.3 3.50715 13 2.80715 13.6V13.6ZM37.1071 35C36.7071 35.3 37.3071 34.4 37.1071 35V35ZM33.7071 32.7C33.2071 32.8 33.8071 32.1 33.7071 32.7V32.7ZM38.1071 35.3C39.0071 35.3 40.9071 35 38.8071 35C38.6071 35 37.1071 35 38.1071 35.3ZM6.20715 15C6.90715 15 7.40715 14.1 6.10715 14.3C4.00715 14.2 7.90715 15 5.80715 14.7C5.40715 14.8 6.00715 15 6.20715 15ZM6.80715 15.3C6.50715 15.6 6.60715 14.8 6.80715 15.3V15.3ZM7.50715 13.2C7.10715 13 7.80715 12.7 7.50715 13.2V13.2ZM5.00715 8.99999C6.30715 8.59999 8.10715 7.99999 8.90715 9.29999C8.30715 8.59999 8.60715 7.79999 9.20715 8.89999C10.1071 10.1 10.5071 8.39999 9.90715 7.99999C10.5071 8.69999 11.2071 9.19999 10.3071 7.99999C11.3071 6.79999 8.20715 8.09999 7.60715 8.09999C7.40715 8.29999 4.30715 8.89999 5.00715 8.99999ZM5.90715 7.49999C6.60715 6.89999 8.60715 7.79999 7.40715 6.89999C7.20715 6.79999 4.70715 7.69999 5.90715 7.49999ZM8.70715 7.69999C9.60715 7.69999 8.30715 6.49999 9.40715 7.09999C9.30715 6.49999 8.30715 6.29999 7.70715 6.19999C7.20715 6.59999 8.10715 7.69999 8.70715 7.69999ZM6.30715 5.19999C5.70715 5.29999 6.60715 4.69999 6.30715 5.19999V5.19999ZM7.50715 5.29999C9.00715 5.19999 7.20715 4.69999 7.20715 5.29999H7.50715ZM5.30715 3.69999C4.30715 2.39999 7.20715 3.79999 6.20715 2.49999C5.30715 1.89999 4.60715 3.39999 5.30715 3.69999ZM18.4071 10.7C18.8071 9.79999 16.5071 9.69999 18.1071 10.4C18.2071 10.5 18.2071 10.8 18.4071 10.7Z" fill="white"/>
</g>
<defs>
<clipPath id="clip0_0_1658">
<rect width="40" height="40" fill="white" transform="translate(0.607178)"/>
</clipPath>
</defs>
</svg>
