<svg width="41" height="42" viewBox="0 0 41 42" fill="none" xmlns="http://www.w3.org/2000/svg">
<g clip-path="url(#clip0_0_1563)">
<path d="M40.5654 25.1475C40.3212 24.408 39.6816 23.8929 38.8544 23.7693C38.4643 23.7111 38.0177 23.7359 37.489 23.8449C36.5677 24.035 35.8841 24.1073 35.3853 24.1213C37.2683 20.9422 38.7994 17.3169 39.6808 13.9043C41.1061 8.38612 40.3444 5.87226 39.4544 4.73519C37.099 1.72549 33.6625 0.108654 29.5167 0.0591812C27.3051 0.0321384 25.3636 0.468799 24.3507 0.782813C23.4077 0.616421 22.3938 0.523521 21.3299 0.506341C19.3356 0.474526 17.5735 0.909278 16.0679 1.8028C15.2343 1.52092 13.8965 1.12355 12.3515 0.869986C8.71795 0.273455 5.78938 0.738272 3.64727 2.25155C1.0534 4.08378 -0.149052 7.26719 0.0733353 11.7133C0.143965 13.125 0.933613 17.42 2.17694 21.4933C2.89151 23.8345 3.65348 25.7787 4.44169 27.2725C5.55951 29.3905 6.7556 30.6379 8.09835 31.0858C8.85093 31.3365 10.2183 31.5121 11.6565 30.3143C11.8388 30.5351 12.0821 30.7545 12.4048 30.9582C12.8148 31.2167 13.316 31.428 13.8166 31.5532C15.6207 32.0041 17.3105 31.8914 18.7522 31.2592C18.7612 31.5156 18.768 31.7606 18.7737 31.9722C18.7833 32.3153 18.7928 32.6517 18.8054 32.9664C18.8908 35.0939 19.0356 36.7481 19.4644 37.9055C19.488 37.9691 19.5196 38.0662 19.553 38.1691C19.767 38.8242 20.1247 39.9208 21.035 40.7797C21.9775 41.6694 23.1176 41.9422 24.1617 41.9422C24.6854 41.9422 25.1851 41.8735 25.6233 41.7796C27.1854 41.4448 28.9596 40.9348 30.243 39.1073C31.4564 37.3798 32.0463 34.7778 32.153 30.6779C32.1669 30.562 32.1796 30.4513 32.1919 30.3458L32.2173 30.1291L32.5032 30.1543L32.5768 30.1592C34.1679 30.2317 36.1134 29.8943 37.3082 29.3393C38.2523 28.9012 41.2777 27.304 40.5654 25.1475Z" fill="black"/>
<path d="M37.8449 25.5668C33.114 26.5428 32.7887 24.941 32.7887 24.941C37.7837 17.5293 39.8718 8.12109 38.07 5.81847C33.1539 -0.462602 24.6442 2.50796 24.5022 2.58496L24.4565 2.59323C23.5218 2.39916 22.4759 2.28367 21.3001 2.26442C19.1596 2.22942 17.5358 2.82564 16.3036 3.76004C16.3036 3.76004 1.12307 -2.49383 1.82921 11.6253C1.97937 14.629 6.13441 34.3529 11.0902 28.3954C12.9016 26.2168 14.6519 24.3749 14.6519 24.3749C15.5211 24.9523 16.5618 25.2469 17.6527 25.1412L17.7375 25.0693C17.7111 25.3397 17.7232 25.6042 17.7714 25.9174C16.4946 27.3439 16.8699 27.5943 14.3177 28.1197C11.7351 28.6519 13.2522 29.5994 14.2428 29.8472C15.4436 30.1474 18.2217 30.5728 20.0988 27.945L20.024 28.2449C20.5242 28.6456 20.8754 30.851 20.8166 32.8504C20.7577 34.8497 20.7184 36.2223 21.1124 37.2945C21.5068 38.3667 21.8995 40.779 25.2547 40.0602C28.0581 39.4593 29.511 37.9025 29.7131 35.3054C29.8565 33.4592 30.1811 33.7322 30.2015 32.0814L30.4619 31.3001C30.7621 28.7973 30.5096 27.9899 32.2367 28.3654L32.6567 28.4024C33.9277 28.4601 35.5916 28.1978 36.5682 27.7439C38.6708 26.7682 39.918 25.1388 37.8446 25.5668H37.8449Z" fill="#336791"/>
<path d="M17.1922 12.9686C16.7659 12.9093 16.3798 12.9641 16.1844 13.1121C16.0747 13.1953 16.0406 13.2917 16.0314 13.358C16.0069 13.5338 16.13 13.7282 16.2058 13.8284C16.4199 14.1122 16.7326 14.3072 17.0422 14.3502C17.087 14.3565 17.1317 14.3594 17.1761 14.3594C17.6923 14.3594 18.1617 13.9574 18.2031 13.6607C18.2548 13.2891 17.7154 13.0413 17.1922 12.9686ZM31.3155 12.9804C31.2748 12.6891 30.7565 12.6061 30.2647 12.6745C29.7734 12.7429 29.2972 12.9646 29.3369 13.2565C29.3687 13.4835 29.7787 13.871 30.2639 13.871C30.3049 13.871 30.3463 13.8683 30.3879 13.8624C30.7118 13.8176 30.9495 13.6119 31.0624 13.4934C31.2342 13.3127 31.3338 13.1113 31.3155 12.9804Z" fill="white"/>
<path d="M39.4191 25.456C39.2387 24.9105 38.6581 24.7351 37.6935 24.9342C34.8293 25.5253 33.8036 25.1159 33.4668 24.8679C35.6931 21.4764 37.5245 17.3767 38.5125 13.5518C38.9805 11.7399 39.239 10.0572 39.2602 8.68567C39.2836 7.18034 39.0272 6.07413 38.4984 5.39838C36.3665 2.67422 33.2375 1.21296 29.4499 1.17287C26.846 1.1436 24.646 1.80997 24.2195 1.99736C23.3214 1.77402 22.3423 1.63689 21.2763 1.61939C19.3216 1.58774 17.6319 2.05574 16.233 3.00971C15.6253 2.78351 14.0549 2.2444 12.1344 1.935C8.8142 1.40051 6.17578 1.80551 4.29296 3.13936C2.04635 4.73106 1.00918 7.57627 1.21009 11.5958C1.2777 12.9481 2.04826 17.1082 3.26423 21.0922C4.86484 26.336 6.6048 29.3045 8.43544 29.9152C8.64971 29.9866 8.89676 30.0366 9.16925 30.0366C9.83705 30.0366 10.6558 29.7356 11.5077 28.7115C12.5467 27.465 13.6214 26.2489 14.7307 25.0645C15.4503 25.4507 16.2409 25.6664 17.0495 25.6881C17.0511 25.7092 17.0532 25.7304 17.0551 25.7514C16.9159 25.9174 16.7796 26.0857 16.6463 26.2565C16.086 26.9677 15.9694 27.1158 14.166 27.4871C13.6529 27.593 12.2905 27.8738 12.2704 28.8289C12.2488 29.8724 13.8811 30.3106 14.067 30.3571C14.7151 30.5193 15.3395 30.5994 15.9349 30.5994C17.3829 30.5994 18.6573 30.1234 19.6757 29.2025C19.6443 32.9226 19.7994 36.5884 20.2461 37.7052C20.612 38.6196 21.5057 40.8541 24.3286 40.854C24.7429 40.854 25.1988 40.8058 25.7003 40.6982C28.6466 40.0667 29.926 38.7645 30.4209 35.8937C30.6857 34.3594 31.1402 30.6958 31.354 28.7305C31.8051 28.8713 32.3859 28.9358 33.0138 28.9356C34.3233 28.9356 35.8344 28.6574 36.782 28.2175C37.8465 27.7231 39.7675 26.51 39.4191 25.456ZM32.403 12.1764C32.3932 12.7566 32.3134 13.2832 32.2288 13.833C32.1376 14.4243 32.0434 15.0356 32.0197 15.7777C31.9964 16.4999 32.0866 17.2507 32.1737 17.9769C32.35 19.4436 32.5308 20.9535 31.8308 22.4434C31.7145 22.2374 31.6109 22.0244 31.5206 21.8057C31.4335 21.5948 31.2446 21.2559 30.9829 20.787C29.965 18.9614 27.5812 14.6865 28.8015 12.942C29.165 12.4228 30.0875 11.889 32.403 12.1764ZM29.5962 2.34764C32.9899 2.42256 35.6745 3.69214 37.5751 6.1209C39.0329 7.98383 37.4277 16.4605 32.7806 23.7733C32.7339 23.7139 32.6869 23.6546 32.6397 23.5956L32.5808 23.5221C33.7817 21.5389 33.5469 19.5767 33.3378 17.8371C33.2519 17.1232 33.1708 16.4488 33.1915 15.8154C33.2128 15.1441 33.3016 14.5683 33.3875 14.0115C33.4929 13.3254 33.6003 12.6155 33.5707 11.7786C33.5928 11.6907 33.6017 11.587 33.5901 11.4639C33.5146 10.6614 32.5983 8.2595 30.7308 6.08558C29.7092 4.8965 28.2194 3.56584 26.1853 2.66833C27.0603 2.48699 28.2567 2.31789 29.5962 2.34764ZM10.6062 27.9619C9.66763 29.0904 9.01956 28.874 8.8064 28.8031C7.41768 28.3399 5.80625 25.4046 4.38555 20.7501C3.15621 16.7226 2.43783 12.6727 2.38088 11.5371C2.20145 7.94549 3.07206 5.44244 4.96872 4.09731C8.05541 1.90843 13.1302 3.21858 15.1694 3.88303C15.1401 3.91198 15.1096 3.93903 15.0806 3.96846C11.7343 7.34784 11.8137 13.1216 11.822 13.4746C11.8217 13.6108 11.8331 13.8036 11.8487 14.0688C11.9063 15.0399 12.0135 16.8473 11.7272 18.8941C11.4612 20.7962 12.0476 22.6579 13.3356 24.0019C13.4678 24.1396 13.6067 24.2706 13.7519 24.3945C13.1786 25.0085 11.9325 26.3664 10.6062 27.9619ZM14.182 23.1908C13.1439 22.1075 12.6724 20.6007 12.8883 19.0564C13.1905 16.8943 13.079 15.0111 13.019 13.9994C13.0106 13.8578 13.0031 13.7338 12.9988 13.6359C13.4877 13.2024 15.753 11.9887 17.3686 12.3589C18.1058 12.5276 18.555 13.0297 18.7417 13.8931C19.7083 18.3636 18.8696 20.2269 18.1958 21.7242C18.0569 22.0327 17.9257 22.3243 17.8137 22.6259L17.7269 22.8591C17.507 23.4486 17.3024 23.9968 17.1757 24.5173C16.072 24.5141 14.9984 24.0426 14.182 23.1906V23.1908ZM14.3514 29.2197C14.0292 29.1392 13.7393 28.9994 13.5693 28.8834C13.7113 28.8166 13.9641 28.7256 14.4025 28.6353C16.5241 28.1986 16.8518 27.8903 17.5673 26.9818C17.7313 26.7734 17.9173 26.5374 18.1748 26.2498L18.1751 26.2495C18.5587 25.82 18.7341 25.8928 19.0523 26.0248C19.3101 26.1314 19.5613 26.4547 19.6631 26.8104C19.7113 26.9783 19.7654 27.2971 19.5883 27.5453C18.0937 29.6381 15.9156 29.6112 14.3514 29.2197ZM25.4547 39.5519C22.8592 40.1081 21.9403 38.7838 21.3347 37.2698C20.9438 36.2925 20.7517 31.8852 20.888 27.0179C20.8897 26.9532 20.8805 26.8907 20.8627 26.8318C20.8468 26.7156 20.8225 26.6007 20.7902 26.4879C20.5875 25.7797 20.0936 25.1873 19.501 24.9417C19.2656 24.8442 18.8335 24.6652 18.3143 24.7981C18.425 24.3418 18.617 23.8266 18.8253 23.2687L18.9126 23.0341C19.0109 22.7695 19.1343 22.4954 19.2648 22.2053C19.97 20.6387 20.9357 18.493 19.8876 13.6455C19.495 11.8298 18.1839 10.9431 16.1964 11.1491C15.0049 11.2724 13.9148 11.7531 13.3711 12.0288C13.2541 12.088 13.1472 12.1452 13.0473 12.2009C13.1991 10.3715 13.7724 6.9527 15.9171 4.7896C17.2674 3.42792 19.0658 2.75535 21.2569 2.79162C25.5742 2.86225 28.3427 5.07784 29.9052 6.92423C31.2516 8.51514 31.9806 10.1178 32.2716 10.9822C30.0835 10.7597 28.5953 11.1916 27.841 12.2701C26.1998 14.6161 28.7388 19.1695 29.9591 21.3579C30.1829 21.7589 30.376 22.1055 30.4368 22.2529C30.8342 23.2159 31.3486 23.8589 31.7242 24.3281C31.8393 24.4719 31.951 24.6115 32.036 24.7333C31.3733 24.9244 30.1829 25.3658 30.2914 27.5723C30.2039 28.6795 29.5818 33.8631 29.2657 35.6945C28.8484 38.1141 27.9581 39.0152 25.4547 39.5521V39.5519ZM36.2884 27.1543C35.6107 27.4688 34.4767 27.7047 33.3994 27.7554C32.2095 27.8111 31.6038 27.6221 31.4612 27.5058C31.3944 26.1308 31.9062 25.9871 32.4478 25.8351C32.5329 25.8112 32.616 25.7878 32.6961 25.7598C32.7459 25.8004 32.8005 25.8406 32.8603 25.8801C33.8167 26.5113 35.5224 26.5794 37.9307 26.0823L37.9571 26.077C37.6322 26.3807 37.0764 26.7882 36.2884 27.1543Z" fill="white"/>
</g>
<defs>
<clipPath id="clip0_0_1563">
<rect width="40.7232" height="42" fill="white"/>
</clipPath>
</defs>
</svg>
