<svg width="36" height="42" viewBox="0 0 36 42" fill="none" xmlns="http://www.w3.org/2000/svg">
<g clip-path="url(#clip0_0_1514)">
<path d="M30.521 12.2035L27.4028 15.3217C32.5228 20.4418 32.5228 28.6801 27.4028 33.7232C22.2827 38.8433 14.0444 38.8433 9.00131 33.7232C3.88123 28.6031 3.88123 20.3648 9.00131 15.3217L17.1241 7.19888L18.279 6.04397V-0.0770264L6.03705 12.165C-0.776878 18.9789 -0.776878 29.989 6.03705 36.8029C12.851 43.6169 23.8611 43.6169 30.5595 36.8029C37.3349 29.989 37.3349 19.0559 30.521 12.2035Z" fill="#EE4C2C"/>
<path d="M24.4 11.472C25.6544 11.472 26.6713 10.4552 26.6713 9.20076C26.6713 7.94635 25.6544 6.92944 24.4 6.92944C23.1456 6.92944 22.1287 7.94635 22.1287 9.20076C22.1287 10.4552 23.1456 11.472 24.4 11.472Z" fill="#EE4C2C"/>
</g>
<defs>
<clipPath id="clip0_0_1514">
<rect width="34.7626" height="42" fill="white" transform="translate(0.878479)"/>
</clipPath>
</defs>
</svg>
