<svg width="43" height="42" viewBox="0 0 43 42" fill="none" xmlns="http://www.w3.org/2000/svg">
<g clip-path="url(#clip0_0_1669)">
<path d="M21.4218 -0.0125122C19.7047 -0.0125122 18.0763 0.135519 16.6552 0.372368C12.4512 1.14213 11.6518 2.71125 11.6518 5.61265V9.43184H21.6587V10.6753H7.83262C4.93122 10.6753 2.35549 12.3925 1.58573 15.7379C0.638334 19.5571 0.638334 21.896 1.58573 25.8928C2.29628 28.8831 4.01343 31.0147 6.88522 31.0147H10.3195V26.485C10.3195 23.1987 13.2209 20.2381 16.5664 20.2381H26.5733C29.3859 20.2381 31.5767 17.9584 31.5767 15.1754V5.64226C31.5767 2.91849 29.2971 0.875672 26.5733 0.401974C24.8561 0.165125 23.0502 -0.0125122 21.4218 -0.0125122ZM15.9447 3.12574C16.9513 3.12574 17.8099 3.98431 17.8099 4.99092C17.8099 5.99753 16.9513 6.85611 15.9447 6.85611C14.9381 6.85611 14.0795 5.99753 14.0795 4.99092C14.0795 3.98431 14.9381 3.12574 15.9447 3.12574Z" fill="url(#paint0_linear_0_1669)"/>
<path d="M32.8202 10.7049V15.1458C32.8202 18.5801 29.9188 21.4815 26.5733 21.4815H16.5664C13.8427 21.4815 11.563 23.8204 11.563 26.5442V36.1365C11.563 38.8603 13.9019 40.4294 16.5664 41.1992C19.7639 42.1466 22.7245 42.2946 26.5733 41.1992C29.0602 40.4886 31.5767 39.0083 31.5767 36.1365V32.347H21.5699V31.1035H36.5802C39.4816 31.1035 40.577 29.0607 41.5836 26.0409C42.5902 22.9026 42.5902 19.8828 41.5836 15.886C40.873 12.9846 39.4816 10.8233 36.5802 10.8233L32.8202 10.7049ZM27.195 34.8339C28.2016 34.8339 29.0602 35.6925 29.0602 36.6991C29.0602 37.7945 28.2016 38.5642 27.195 38.5642C26.1884 38.5642 25.3298 37.7057 25.3298 36.6991C25.3298 35.6925 26.1884 34.8339 27.195 34.8339Z" fill="url(#paint1_linear_0_1669)"/>
</g>
<defs>
<linearGradient id="paint0_linear_0_1669" x1="-0.118733" y1="1.20905" x2="1.70115" y2="2.78992" gradientUnits="userSpaceOnUse">
<stop stop-color="#5CA0D5"/>
<stop offset="1" stop-color="#316A99"/>
</linearGradient>
<linearGradient id="paint1_linear_0_1669" x1="31.6034" y1="33.2243" x2="30.9535" y2="32.2959" gradientUnits="userSpaceOnUse">
<stop stop-color="#FFD43E"/>
<stop offset="1" stop-color="#FFE975"/>
</linearGradient>
<clipPath id="clip0_0_1669">
<rect width="42" height="42" fill="white" transform="translate(0.607178)"/>
</clipPath>
</defs>
</svg>
