<svg width="43" height="42" viewBox="0 0 43 42" fill="none" xmlns="http://www.w3.org/2000/svg">
<path d="M39.5732 16.695H26.5532C25.8182 16.695 25.2932 16.17 25.2932 15.435V1.785C25.2932 0.735 24.5582 0 23.5082 0H18.6782C17.6282 0 16.8932 0.735 16.8932 1.785V15.33C16.8932 16.065 16.3682 16.59 15.6332 16.59H11.3282C10.5932 16.59 10.0682 16.065 10.0682 15.33V1.785C10.0682 0.735 9.33317 0 8.28317 0H3.66317C2.61317 0 1.87817 0.735 1.87817 1.785V40.215C1.87817 41.265 2.61317 41.685 3.66317 42H39.8882C40.9382 42 41.3582 41.265 41.6732 40.215V18.375C41.3582 17.43 40.6232 16.695 39.5732 16.695ZM33.5882 31.29C33.5882 32.55 32.5382 33.285 31.5932 33.285H27.8132C26.5532 33.285 25.8182 32.235 25.8182 31.29V27.51C25.8182 26.25 26.8682 25.515 27.8132 25.515H31.5932C32.8532 25.515 33.5882 26.565 33.5882 27.51V31.29Z" fill="#EC681C"/>
</svg>
