<svg width="53" height="42" viewBox="0 0 53 42" fill="none" xmlns="http://www.w3.org/2000/svg">
<path d="M43.3189 19.181C43.3189 16.8917 40.4521 14.7222 36.0566 13.3768C37.071 8.89682 36.6202 5.33256 34.6336 4.19143C34.1758 3.92375 33.6405 3.79696 33.0559 3.79696V5.36778C33.3799 5.36778 33.6405 5.43118 33.8588 5.55092C34.8168 6.10034 35.2325 8.19242 34.9083 10.8832C34.831 11.5454 34.7042 12.2427 34.5492 12.9541C33.1685 12.616 31.6611 12.3554 30.0762 12.1864C29.1253 10.8832 28.1392 9.69982 27.1459 8.66437C29.4422 6.53003 31.5978 5.36072 33.0629 5.36072V3.78992C31.1257 3.78992 28.59 5.17054 26.026 7.56549C23.4619 5.18463 20.9261 3.8181 18.9891 3.8181V5.3889C20.4471 5.3889 22.6096 6.55117 24.9059 8.67141C23.9198 9.70688 22.9336 10.8832 21.9967 12.1864C20.4048 12.3554 18.8974 12.616 17.5168 12.9612C17.3547 12.2568 17.235 11.5735 17.1504 10.9184C16.8195 8.22763 17.2279 6.13556 18.179 5.57909C18.3902 5.4523 18.6649 5.39596 18.9891 5.39596V3.82514C18.3973 3.82514 17.8619 3.95193 17.3971 4.21961C15.4177 5.36072 14.974 8.91794 15.9953 13.3838C11.6139 14.7363 8.76111 16.8988 8.76111 19.181C8.76111 21.4704 11.628 23.6399 16.0234 24.9852C15.0091 29.4653 15.4599 33.0295 17.4464 34.1706C17.9043 34.4382 18.4395 34.565 19.0313 34.565C20.9683 34.565 23.5043 33.1845 26.0682 30.7895C28.6322 33.1704 31.1681 34.537 33.1052 34.537C33.6968 34.537 34.2321 34.4102 34.6971 34.1424C36.6764 33.0013 37.1203 29.4441 36.0988 24.9783C40.4661 23.6329 43.3189 21.4633 43.3189 19.181ZM34.1477 14.4827C33.887 15.3914 33.563 16.3282 33.1967 17.265C32.908 16.7016 32.6051 16.138 32.274 15.5745C31.95 15.011 31.6047 14.4616 31.2596 13.9262C32.2598 14.0741 33.2249 14.2573 34.1477 14.4827ZM30.9214 21.9845C30.372 22.9356 29.8086 23.8372 29.2239 24.6754C28.1743 24.7669 27.1108 24.8162 26.04 24.8162C24.9763 24.8162 23.9127 24.7669 22.8703 24.6824C22.2856 23.8441 21.7149 22.9496 21.1655 22.0056C20.6302 21.0829 20.1442 20.146 19.7004 19.2022C20.1372 18.2583 20.6302 17.3143 21.1586 16.3916C21.708 15.4407 22.2714 14.5391 22.8561 13.7008C23.9057 13.6092 24.9693 13.5599 26.04 13.5599C27.1037 13.5599 28.1674 13.6092 29.2098 13.6938C29.7944 14.532 30.3651 15.4266 30.9145 16.3705C31.4499 17.2932 31.9358 18.2301 32.3797 19.1741C31.9358 20.1179 31.4499 21.0618 30.9214 21.9845ZM33.1967 21.0689C33.5664 21.9869 33.8909 22.9225 34.1688 23.8723C33.246 24.0977 32.274 24.2879 31.2667 24.4358C31.6118 23.8935 31.9569 23.3371 32.2811 22.7664C32.6051 22.203 32.908 21.6323 33.1967 21.0689ZM26.054 28.5848C25.3989 27.9085 24.7439 27.1548 24.0959 26.3307C24.7298 26.3589 25.3778 26.38 26.0329 26.38C26.6951 26.38 27.3502 26.366 27.9913 26.3307C27.3866 27.1164 26.7399 27.8689 26.054 28.5848ZM20.8133 24.4358C19.8132 24.2879 18.8481 24.1048 17.9254 23.8794C18.1859 22.9707 18.5101 22.0338 18.8763 21.0969C19.1652 21.6605 19.468 22.2241 19.799 22.7875C20.1301 23.3511 20.4682 23.9005 20.8133 24.4358ZM26.0189 9.77732C26.674 10.4535 27.3291 11.2072 27.9771 12.0314C27.3431 12.0032 26.6951 11.9821 26.04 11.9821C25.3778 11.9821 24.7228 11.9962 24.0818 12.0314C24.6864 11.2457 25.3331 10.4932 26.0189 9.77732ZM20.8063 13.9262C20.4612 14.4686 20.116 15.0251 19.792 15.5956C19.468 16.1591 19.1652 16.7227 18.8763 17.2861C18.5065 16.3682 18.1821 15.4326 17.9043 14.4827C18.827 14.2643 19.799 14.0741 20.8063 13.9262ZM14.4315 22.7453C11.938 21.6816 10.3249 20.287 10.3249 19.181C10.3249 18.0751 11.938 16.6734 14.4315 15.6168C15.0373 15.3562 15.6994 15.1237 16.3827 14.9053C16.7842 16.2859 17.3125 17.7229 17.9676 19.1952C17.3196 20.6603 16.7982 22.0902 16.4038 23.4639C15.7065 23.2454 15.0444 23.006 14.4315 22.7453ZM18.2212 32.8112C17.2632 32.2618 16.8475 30.1697 17.1717 27.4788C17.2492 26.8168 17.3758 26.1193 17.5308 25.4079C18.9116 25.746 20.4189 26.0067 22.0038 26.1757C22.9547 27.4788 23.9409 28.6622 24.9341 29.6976C22.6378 31.8321 20.4823 33.0013 19.0171 33.0013C18.7002 32.9943 18.4326 32.9309 18.2212 32.8112ZM34.9296 27.4437C35.2605 30.1344 34.8521 32.2265 33.9011 32.783C33.6898 32.9098 33.4151 32.9662 33.091 32.9662C31.6329 32.9662 29.4704 31.8039 27.1741 29.6836C28.1603 28.6482 29.1464 27.4719 30.0833 26.1686C31.6753 25.9996 33.1827 25.7389 34.5632 25.3938C34.7253 26.1053 34.8521 26.7886 34.9296 27.4437ZM37.6415 22.7453C37.0357 23.006 36.3735 23.2385 35.6902 23.4568C35.2887 22.0762 34.7604 20.6392 34.1053 19.167C34.7535 17.7018 35.2747 16.2719 35.6691 14.8983C36.3666 15.1167 37.0286 15.3562 37.6485 15.6168C40.1421 16.6803 41.7552 18.0751 41.7552 19.181C41.7481 20.287 40.135 21.6887 37.6415 22.7453Z" fill="white"/>
<path d="M26.0329 22.4002C27.8109 22.4002 29.2521 20.9589 29.2521 19.181C29.2521 17.4031 27.8109 15.9619 26.0329 15.9619C24.2551 15.9619 22.8139 17.4031 22.8139 19.181C22.8139 20.9589 24.2551 22.4002 26.0329 22.4002ZM10.3303 40.1077H9.26767V41.9378H8.668V37.4138H10.1656C10.6752 37.4138 11.0667 37.5298 11.3401 37.7618C11.6156 37.9937 11.7534 38.3314 11.7534 38.7746C11.7534 39.0564 11.6768 39.3018 11.5235 39.5112C11.3723 39.7203 11.161 39.8767 10.8896 39.9802L11.9523 41.9004V41.9378H11.3122L10.3303 40.1077ZM9.26767 39.6198H10.1843C10.4805 39.6198 10.7156 39.5431 10.8896 39.3899C11.0657 39.2366 11.1537 39.0315 11.1537 38.7746C11.1537 38.4951 11.0698 38.2807 10.902 38.1315C10.7363 37.9824 10.496 37.9068 10.1812 37.9047H9.26767V39.6198ZM13.8974 42C13.4416 42 13.0708 41.8508 12.785 41.5525C12.4991 41.2521 12.3562 40.8513 12.3562 40.3501V40.2444C12.3562 39.9109 12.4193 39.6137 12.5457 39.3527C12.6741 39.0895 12.8523 38.8844 13.0801 38.7375C13.3101 38.5883 13.5586 38.5136 13.8259 38.5136C14.263 38.5136 14.6027 38.6576 14.845 38.9455C15.0874 39.2335 15.2085 39.6457 15.2085 40.1822V40.4214H12.931C12.9393 40.753 13.0356 41.0212 13.22 41.2263C13.4064 41.4292 13.6425 41.5308 13.9284 41.5308C14.1314 41.5308 14.3033 41.4893 14.4441 41.4065C14.5851 41.3236 14.7082 41.2139 14.8139 41.0771L15.165 41.3506C14.8832 41.7834 14.4608 42 13.8974 42ZM13.8259 38.986C13.5939 38.986 13.3991 39.0709 13.2417 39.2407C13.0843 39.4086 12.9869 39.6447 12.9496 39.9492H14.6337V39.9057C14.6172 39.6137 14.5384 39.3878 14.3976 39.2283C14.2567 39.0668 14.0661 38.986 13.8259 38.986ZM17.9522 41.9378C17.9189 41.8715 17.892 41.7535 17.8714 41.5835C17.6041 41.8611 17.2851 42 16.9143 42C16.5829 42 16.3106 41.9067 16.0972 41.7202C15.886 41.5317 15.7803 41.2936 15.7803 41.0056C15.7803 40.6556 15.9129 40.3842 16.178 40.1916C16.4451 39.9968 16.8201 39.8994 17.3028 39.8994H17.8621V39.6354C17.8621 39.4345 17.8019 39.2749 17.6819 39.1569C17.5617 39.0367 17.3845 38.9767 17.1504 38.9767C16.9454 38.9767 16.7735 39.0284 16.6348 39.132C16.496 39.2355 16.4265 39.3609 16.4265 39.508H15.8486C15.8486 39.3403 15.9077 39.1787 16.0257 39.0232C16.1458 38.8658 16.3075 38.7416 16.5105 38.6504C16.7156 38.5593 16.9402 38.5136 17.1846 38.5136C17.5721 38.5136 17.8755 38.611 18.095 38.8058C18.3146 38.9985 18.4285 39.2647 18.4368 39.6043V41.1516C18.4368 41.4604 18.4762 41.7058 18.555 41.888V41.9378H17.9522ZM16.9983 41.4997C17.1785 41.4997 17.3494 41.4531 17.511 41.3599C17.6724 41.2666 17.7895 41.1455 17.8621 40.9963V40.3066H17.4114C16.7072 40.3066 16.355 40.5126 16.355 40.9248C16.355 41.105 16.4152 41.246 16.5352 41.3474C16.6554 41.4489 16.8098 41.4997 16.9983 41.4997ZM20.6864 41.5308C20.8915 41.5308 21.0707 41.4685 21.224 41.3443C21.3772 41.22 21.4621 41.0647 21.4787 40.8782H22.0226C22.0122 41.0708 21.9459 41.2542 21.8236 41.4282C21.7014 41.6023 21.5377 41.741 21.3327 41.8445C21.1296 41.9482 20.9143 42 20.6864 42C20.2287 42 19.864 41.8477 19.5926 41.5432C19.3235 41.2365 19.1888 40.8182 19.1888 40.2878V40.1916C19.1888 39.8643 19.2488 39.5732 19.369 39.3185C19.4892 39.0637 19.661 38.8658 19.8848 38.725C20.1105 38.5841 20.3767 38.5136 20.6833 38.5136C21.0603 38.5136 21.3731 38.6266 21.6217 38.8525C21.8723 39.0782 22.0059 39.3713 22.0226 39.7317H21.4787C21.4621 39.5142 21.3793 39.336 21.2301 39.1972C21.0832 39.0564 20.9008 38.986 20.6833 38.986C20.3912 38.986 20.1644 39.0916 20.0028 39.3029C19.8434 39.5121 19.7635 39.8156 19.7635 40.2133V40.322C19.7635 40.7093 19.8434 41.0077 20.0028 41.2168C20.1624 41.4262 20.3903 41.5308 20.6864 41.5308ZM23.4487 37.7618V38.5759H24.0763V39.0202H23.4487V41.105C23.4487 41.2397 23.4767 41.3411 23.5326 41.4095C23.5885 41.4758 23.6838 41.509 23.8185 41.509C23.8847 41.509 23.9759 41.4966 24.0918 41.4717V41.9378C23.9406 41.9792 23.7936 42 23.6506 42C23.3939 42 23.2001 41.9222 23.0695 41.7669C22.9391 41.6116 22.8739 41.3909 22.8739 41.105V39.0202H22.2617V38.5759H22.8739V37.7618H23.4487ZM29.896 41.9378H29.2962L27.0188 38.4516V41.9378H26.4192V37.4138H27.0188L29.3025 40.9155V37.4138H29.896V41.9378ZM32.941 41.9378C32.9078 41.8715 32.8809 41.7535 32.8602 41.5835C32.5929 41.8611 32.274 42 31.9032 42C31.5718 42 31.2993 41.9067 31.086 41.7202C30.8748 41.5317 30.7691 41.2936 30.7691 41.0056C30.7691 40.6556 30.9016 40.3842 31.1668 40.1916C31.434 39.9968 31.809 39.8994 32.2916 39.8994H32.8509V39.6354C32.8509 39.4345 32.7908 39.2749 32.6706 39.1569C32.5506 39.0367 32.3734 38.9767 32.1393 38.9767C31.9342 38.9767 31.7624 39.0284 31.6236 39.132C31.4849 39.2355 31.4154 39.3609 31.4154 39.508H30.8375C30.8375 39.3403 30.8966 39.1787 31.0145 39.0232C31.1347 38.8658 31.2963 38.7416 31.4993 38.6504C31.7044 38.5593 31.929 38.5136 32.1735 38.5136C32.5608 38.5136 32.8643 38.611 33.0839 38.8058C33.3035 38.9985 33.4173 39.2647 33.4257 39.6043V41.1516C33.4257 41.4604 33.4651 41.7058 33.5438 41.888V41.9378H32.941ZM31.9872 41.4997C32.1673 41.4997 32.3382 41.4531 32.4999 41.3599C32.6613 41.2666 32.7783 41.1455 32.8509 40.9963V40.3066H32.4003C31.6961 40.3066 31.3439 40.5126 31.3439 40.9248C31.3439 41.105 31.404 41.246 31.5241 41.3474C31.6443 41.4489 31.7986 41.4997 31.9872 41.4997ZM35.1067 37.7618V38.5759H35.7343V39.0202H35.1067V41.105C35.1067 41.2397 35.1347 41.3411 35.1906 41.4095C35.2465 41.4758 35.3418 41.509 35.4765 41.509C35.5426 41.509 35.6338 41.4966 35.7499 41.4717V41.9378C35.5986 41.9792 35.4516 42 35.3086 42C35.0518 42 34.8581 41.9222 34.7275 41.7669C34.5971 41.6116 34.5319 41.3909 34.5319 41.105V39.0202H33.9198V38.5759H34.5319V37.7618H35.1067ZM37.0332 41.9378H36.4582V38.5759H37.0332V41.9378ZM36.4116 37.684C36.4116 37.591 36.4397 37.5122 36.4956 37.4479C36.5535 37.3837 36.6384 37.3517 36.7503 37.3517C36.8623 37.3517 36.9472 37.3837 37.0051 37.4479C37.0631 37.5122 37.0921 37.591 37.0921 37.684C37.0921 37.7773 37.0631 37.8549 37.0051 37.9172C36.9472 37.9792 36.8623 38.0104 36.7503 38.0104C36.6384 38.0104 36.5535 37.9792 36.4956 37.9172C36.4397 37.8549 36.4116 37.7773 36.4116 37.684ZM39.0652 41.1579L39.8978 38.5759H40.4852L39.2796 41.9378H38.8414L37.6235 38.5759H38.2107L39.0652 41.1579ZM42.3898 42C41.9341 42 41.5633 41.8508 41.2774 41.5525C40.9916 41.2521 40.8487 40.8513 40.8487 40.3501V40.2444C40.8487 39.9109 40.9119 39.6137 41.0382 39.3527C41.1666 39.0895 41.3447 38.8844 41.5726 38.7375C41.8026 38.5883 42.0511 38.5136 42.3183 38.5136C42.7554 38.5136 43.0951 38.6576 43.3375 38.9455C43.5798 39.2335 43.7011 39.6457 43.7011 40.1822V40.4214H41.4235C41.4318 40.753 41.528 41.0212 41.7125 41.2263C41.8988 41.4292 42.1351 41.5308 42.4208 41.5308C42.6238 41.5308 42.7958 41.4893 42.9367 41.4065C43.0775 41.3236 43.2008 41.2139 43.3065 41.0771L43.6576 41.3506C43.3758 41.7834 42.9532 42 42.3898 42ZM42.3183 38.986C42.0864 38.986 41.8916 39.0709 41.7342 39.2407C41.5767 39.4086 41.4794 39.6447 41.4422 39.9492H43.1261V39.9057C43.1096 39.6137 43.0309 39.3878 42.89 39.2283C42.7492 39.0668 42.5586 38.986 42.3183 38.986Z" fill="white"/>
</svg>
