<svg width="43" height="42" viewBox="0 0 43 42" fill="none" xmlns="http://www.w3.org/2000/svg">
<g clip-path="url(#clip0_0_1584)">
<path d="M20.3582 4.82999C20.3582 4.09499 20.8832 3.56999 21.6182 3.56999C22.3532 3.56999 22.8782 4.09499 22.8782 4.82999C22.8782 5.56499 22.3532 6.08999 21.6182 6.08999C20.8832 6.08999 20.3582 5.56499 20.3582 4.82999ZM5.02818 16.275C5.02818 15.54 5.55318 15.015 6.28818 15.015C7.02318 15.015 7.54818 15.54 7.54818 16.275C7.54818 17.01 7.02318 17.535 6.28818 17.535C5.65818 17.745 5.02818 17.01 5.02818 16.275ZM35.4782 16.485C35.4782 15.75 36.0032 15.225 36.7382 15.225C37.4732 15.225 37.9982 15.75 37.9982 16.485C37.9982 17.22 37.4732 17.745 36.7382 17.745C36.0032 17.745 35.4782 17.22 35.4782 16.485ZM8.80818 18.27C9.33318 17.955 9.64818 17.43 9.33318 16.695L8.80818 15.435H11.1182V25.41H6.60318C6.07818 23.52 5.86818 21.42 6.07818 19.53L8.80818 18.27ZM18.0482 18.375V15.435H23.2982C23.6132 15.435 25.1882 15.75 25.1882 17.01C25.1882 18.06 23.9282 18.375 22.8782 18.375H18.0482ZM10.9082 34.23C10.9082 33.495 11.4332 32.97 12.1682 32.97C12.9032 32.97 13.4282 33.495 13.4282 34.23C13.4282 34.965 12.9032 35.49 12.1682 35.49C11.4332 35.49 10.9082 34.965 10.9082 34.23ZM29.7032 34.44C29.7032 33.705 30.2282 33.18 30.9632 33.18C31.6982 33.18 32.2232 33.705 32.2232 34.44C32.2232 35.175 31.6982 35.7 30.9632 35.7C30.2282 35.595 29.7032 35.07 29.7032 34.44ZM30.1232 31.5C29.3882 31.29 28.8632 31.815 28.7582 32.34L28.0232 35.28C23.8232 37.17 19.0982 37.17 15.0032 35.28L14.2682 32.34C14.0582 31.605 13.5332 31.29 12.9032 31.5L10.4882 32.025C9.96318 31.5 9.64818 30.975 9.12318 30.45H21.7232C21.9332 30.45 21.9332 30.45 21.9332 30.24V25.725C21.9332 25.515 21.7232 25.515 21.7232 25.515H18.0482V22.68H22.0382C22.3532 22.68 23.9282 22.89 24.4532 24.78L25.1882 28.14C25.3982 28.875 26.4482 30.45 27.4982 30.45H34.1132C33.5882 30.975 33.2732 31.71 32.7482 32.235L30.1232 31.5ZM37.2632 19.425C37.4732 20.265 37.4732 21.21 37.2632 22.26H35.6882C35.4782 22.26 35.4782 22.47 35.4782 22.575V23.31C35.4782 25.095 34.4282 25.41 33.5882 25.62C32.7482 25.83 31.8032 25.305 31.6982 24.78C31.1732 21.945 30.4382 21.42 29.0732 20.475C30.6482 19.425 32.2232 18.06 32.2232 15.96C32.2232 13.86 30.8582 12.495 29.8082 11.76C28.4432 10.92 26.8682 10.71 26.4482 10.71H9.85818C12.1682 8.08499 15.2132 6.40499 18.5732 5.87999L20.4632 7.97999C20.9882 8.50499 21.7232 8.50499 22.0382 7.97999L24.3482 5.87999C28.8632 6.71999 32.7482 9.55499 35.1632 13.545L33.5882 16.905C33.2732 17.43 33.5882 18.165 34.1132 18.48L37.2632 19.425ZM40.8332 19.635V19.11L42.4082 17.745C42.6182 17.535 42.6182 17.01 42.4082 16.905L42.1982 16.695L40.3082 15.96L39.9932 15.225L41.2532 13.44C41.4632 13.125 41.4632 12.705 41.0432 12.6H40.8332L38.7332 12.285L38.5232 11.76L39.3632 9.86999C39.5732 9.55499 39.1532 9.02999 38.8382 9.02999H36.7382L36.4232 8.71499L36.9482 6.61499C36.9482 6.29999 36.7382 5.87999 36.4232 5.87999H36.2132L34.1132 6.40499L33.7982 6.08999V3.98999C33.7982 3.67499 33.4832 3.25499 33.0632 3.25499H32.8532L31.1732 4.09499L30.6482 3.88499L30.3332 1.78499C30.3332 1.46999 30.0182 1.25999 29.5982 1.25999H29.3882L27.6032 2.51999L27.0782 2.30999L26.3432 0.419993C26.0282 0.209993 25.6082 0.104993 25.2932 0.209993C25.2932 0.209993 25.0832 0.209993 25.0832 0.419993L23.8232 1.99499H23.2982L22.2482 0.209993C22.0382 -0.105007 21.5132 -0.105007 21.4082 -7.17491e-06L21.1982 0.209993L20.1482 1.99499H19.6232L18.0482 0.209993C17.8382 -7.18236e-06 17.3132 -7.18236e-06 17.2082 0.209993L16.9982 0.419993L16.2632 2.30999L15.7382 2.51999L13.9532 1.25999C13.6382 1.04999 13.2182 1.04999 13.1132 1.46999V1.67999L12.7982 3.77999L12.2732 3.98999L10.3832 3.04499C10.0682 2.83499 9.64818 3.04499 9.54318 3.35999V3.56999V5.66999L9.22818 5.98499L7.12818 5.45999C6.81318 5.45999 6.39318 5.66999 6.39318 5.98499V6.19499L6.91818 8.29499L6.60318 8.60999H4.50318C4.18818 8.60999 3.76818 9.13499 3.97818 9.44999L4.81818 11.34L4.60818 11.865L2.50818 12.18C2.19318 12.18 1.77318 12.915 2.19318 13.23L3.45318 15.015L3.24318 15.54L1.35318 16.275C1.03818 16.485 0.828179 16.8 1.03818 17.115C1.03818 17.115 1.03818 17.325 1.24818 17.325L2.82318 18.69V19.215L1.03818 20.265C0.723179 20.475 0.723179 21 0.828179 21.105L1.03818 21.315L2.82318 22.365V22.89L1.24818 24.255C1.03818 24.465 1.03818 24.99 1.24818 25.095L1.45818 25.305L3.34818 26.04L3.55818 26.565L2.19318 28.35C1.98318 28.665 1.98318 29.085 2.40318 29.19H2.61318L4.71318 29.505L4.92318 30.03L4.08318 31.92C3.87318 32.235 4.08318 32.655 4.39818 32.76H4.60818H6.70818L7.02318 33.075L6.49818 35.175C6.49818 35.49 6.70818 35.91 7.02318 35.91H7.23318L9.33318 35.385L9.64818 35.7V37.8C9.64818 38.115 9.96318 38.535 10.3832 38.535H10.5932L12.4832 37.695L13.0082 37.905L13.3232 40.005C13.3232 40.32 13.6382 40.53 14.0582 40.53H14.2682L16.0532 39.27L16.5782 39.48L17.3132 41.37C17.5232 41.685 17.8382 41.895 18.1532 41.685C18.1532 41.685 18.3632 41.685 18.3632 41.475L19.7282 39.9H20.2532L21.3032 41.685C21.5132 42 22.1432 42 22.3532 41.685L23.4032 39.9H23.9282L25.2932 41.475C25.5032 41.685 26.0282 41.685 26.1332 41.475L26.3432 41.265L27.0782 39.375L27.6032 39.165L29.3882 40.425C29.7032 40.635 30.1232 40.635 30.2282 40.215V40.005L30.5432 37.905L31.0682 37.695L32.9582 38.535C33.2732 38.745 33.6932 38.535 33.7982 38.22V38.01V35.91L34.1132 35.595L36.2132 36.12C36.5282 36.12 36.9482 35.91 36.9482 35.595V35.385L36.4232 33.285L36.7382 32.97H38.8382C39.1532 32.97 39.5732 32.655 39.5732 32.235V32.025L38.4182 30.45L38.6282 29.925L40.7282 29.61C41.0432 29.61 41.2532 29.295 41.2532 28.875V28.665L39.9932 26.88L40.2032 26.355L42.0932 25.62C42.4082 25.41 42.6182 25.095 42.4082 24.78C42.4082 24.78 42.4082 24.57 42.1982 24.57L40.6232 23.205V22.68L42.4082 21.63C42.7232 21.42 42.7232 20.895 42.6182 20.79L42.4082 20.58L40.8332 19.635Z" fill="white"/>
</g>
<defs>
<clipPath id="clip0_0_1584">
<rect width="42" height="42" fill="white" transform="translate(0.723206)"/>
</clipPath>
</defs>
</svg>
