<svg width="42" height="42" viewBox="0 0 42 42" fill="none" xmlns="http://www.w3.org/2000/svg">
<g clip-path="url(#clip0_0_2088)">
<path d="M36.12 23.73C34.65 23.73 33.39 24.15 32.34 24.675C31.92 23.94 31.605 23.205 31.395 22.68C31.29 22.05 31.29 21.735 31.29 21C31.395 20.37 31.815 19.32 31.815 19.215C31.815 19.11 31.71 18.795 30.87 18.795C30.135 18.795 29.295 18.9 29.19 19.215C29.085 19.635 28.98 19.95 28.77 20.475C28.665 21.21 27.09 24.045 26.145 25.41C25.935 24.885 25.62 24.36 25.62 23.94C25.515 23.31 25.515 22.995 25.515 22.26C25.62 21.63 26.04 20.58 26.04 20.475C26.04 20.37 25.935 20.055 25.095 20.055C24.36 20.055 23.52 20.16 23.415 20.475C23.31 20.685 23.31 21.21 22.995 21.735C22.89 22.26 20.79 26.88 20.265 28.035C20.055 28.665 19.74 29.085 19.635 29.505L19.425 29.925C19.32 30.135 19.215 30.345 19.215 30.345C19.215 30.345 19.11 29.82 19.215 29.085C19.425 27.51 20.265 24.99 20.265 24.885C20.265 24.885 20.37 24.36 19.74 24.255C19.11 24.045 19.005 24.36 18.795 24.36L18.69 24.465C18.69 24.465 19.32 21.735 17.43 21.735C16.275 21.735 14.595 22.995 13.755 24.255L9.555 26.46V26.25C7.245 23.73 2.94 21.945 3.045 18.69C3.045 17.535 3.57 14.28 11.34 10.29C17.745 7.14002 22.785 7.98002 23.73 9.87002C24.99 12.6 21 17.85 14.385 18.48C11.865 18.69 10.5 17.85 10.185 17.43C9.765 17.01 9.765 17.01 9.66 17.01C9.45 17.115 9.555 17.535 9.66 17.64C9.765 18.165 10.71 19.11 11.97 19.425C13.125 19.845 16.17 20.055 19.74 18.69C23.73 17.115 26.88 12.81 25.935 9.13502C25.095 5.56502 19.005 4.41002 13.23 6.30002C9.87 7.45502 6.09 9.45002 3.465 11.97C0.315 15.015 -0.21 17.64 -3.35276e-07 18.69C0.735 22.47 5.985 25.095 8.19 26.88L7.98 26.985C6.93 27.51 2.94 29.61 1.89 31.815C0.735 34.335 1.995 36.12 2.94 36.435C5.67 37.17 8.4 35.805 9.975 33.6C11.55 31.395 11.235 28.35 10.605 27.09L11.34 26.565C11.865 26.355 12.39 26.04 12.915 25.62C12.705 26.25 12.495 27.195 12.39 28.35C12.285 29.82 12.915 31.605 13.65 32.445C14.07 32.655 14.385 32.865 14.7 32.865C15.645 32.865 15.96 32.13 16.38 31.185C16.905 30.135 17.43 28.875 17.43 28.875C17.43 28.875 16.8 32.235 18.48 32.235C19.11 32.235 19.635 31.5 20.055 31.08C20.055 31.08 20.055 31.08 20.055 30.975C20.055 30.87 20.16 30.87 20.16 30.87C20.37 30.45 20.895 29.4 21.735 27.825C22.785 25.725 23.835 23.1 23.835 23.1C23.835 23.1 23.94 23.73 24.255 24.78C24.36 25.41 24.78 26.04 25.2 26.775L24.78 27.3C24.675 27.51 24.36 27.825 24.15 28.035C23.415 29.085 22.365 30.135 22.155 30.555C22.05 30.975 22.05 31.185 22.26 31.5C22.47 31.605 22.89 31.605 23.31 31.605C24.045 31.605 24.57 31.395 24.885 31.185C25.41 31.08 25.83 30.765 26.145 30.555C26.88 29.925 27.405 29.085 27.405 27.93C27.405 27.3 27.195 26.67 26.88 26.145L27.09 25.725C28.35 23.94 29.4 21.84 29.4 21.84C29.4 21.84 29.505 22.47 29.82 23.52C29.925 24.045 30.345 24.675 30.555 25.2C29.4 26.25 28.56 27.3 28.35 28.035C27.825 29.505 28.245 30.03 28.98 30.24C29.19 30.24 29.715 30.135 30.135 30.03C30.555 29.925 31.08 29.61 31.605 29.295C32.34 28.665 33.18 27.825 33.18 26.67C33.18 26.145 33.075 25.62 32.76 25.095C33.81 24.675 35.07 24.465 36.75 24.57C40.425 24.99 41.055 27.3 40.95 28.245C40.845 29.19 40.005 29.715 39.795 29.925C39.585 30.03 39.375 30.135 39.585 30.345C39.585 30.45 39.69 30.45 40.005 30.45C40.32 30.45 42 29.715 42 27.93C42 26.04 39.795 23.73 36.12 23.73ZM8.19 33.18C7.035 34.44 5.355 34.965 4.515 34.65C3.78 34.23 3.99 32.34 5.565 30.87C6.51 29.925 7.665 29.19 8.4 28.77L9.135 28.35H9.24L9.345 28.245C9.975 30.03 9.555 31.815 8.19 33.18ZM16.905 27.09C16.485 28.14 15.645 30.765 15.12 30.66C14.595 30.555 14.385 28.56 15.015 26.565C15.435 25.515 16.065 24.36 16.485 23.94C17.115 23.205 17.955 22.89 18.06 23.31C18.165 23.73 17.22 26.565 16.905 27.09ZM24.15 30.66C24.045 30.765 23.73 30.765 23.73 30.765L23.835 30.66C23.835 30.66 24.78 29.715 25.095 29.19L25.725 28.245V28.35C25.725 29.61 24.57 30.345 24.15 30.66ZM29.61 29.295C29.505 29.19 29.505 28.875 30.03 28.035C30.135 27.615 30.555 26.985 31.29 26.46C31.395 26.67 31.395 26.985 31.395 27.09C31.29 28.56 30.345 29.085 29.61 29.295Z" fill="#CF649A"/>
</g>
<defs>
<clipPath id="clip0_0_2088">
<rect width="42" height="42" fill="white"/>
</clipPath>
</defs>
</svg>
