<svg width="78" height="42" viewBox="0 0 78 42" fill="none" xmlns="http://www.w3.org/2000/svg">
<g clip-path="url(#clip0_0_1496)">
<path d="M59.7349 35.6896C69.2462 26.1788 70.827 12.34 63.2654 4.77905C55.705 -2.78107 41.8668 -1.20058 32.356 8.3096C22.8453 17.82 25.5966 35.9901 28.8261 39.2201C31.4358 41.8298 50.2247 45.1997 59.7349 35.6896Z" fill="#F89939"/>
<path d="M20.7085 21.9467C15.1908 16.429 7.16089 15.5105 2.77299 19.8981C-1.6138 24.2851 -0.696621 32.3162 4.82217 37.833C10.341 43.3524 20.884 41.7559 22.7566 39.8817C24.2719 38.3689 26.2279 27.4649 20.7085 21.9467Z" fill="#3499CD"/>
<path d="M39.7465 33.3584C38.7718 34.2556 37.9167 34.9178 37.1818 35.3433C36.4468 35.7701 35.7459 35.9833 35.0789 35.9833C34.3117 35.9833 33.6928 35.6859 33.2235 35.0908C32.7534 34.4952 32.5192 33.6965 32.5192 32.6917C32.5192 31.1862 32.8455 29.3788 33.4982 27.2715C34.1497 25.1625 34.943 23.2192 35.8748 21.4413L38.6069 20.4297C38.6926 20.4011 38.7578 20.3865 38.801 20.3865C39.0082 20.3865 39.1796 20.5392 39.311 20.8434C39.4438 21.1489 39.5106 21.5595 39.5106 22.0756C39.5106 23.5385 39.1739 24.9547 38.4991 26.3243C37.8246 27.6944 36.7709 29.1567 35.337 30.7127C35.2794 31.4586 35.2508 31.9708 35.2508 32.2508C35.2508 32.8751 35.3654 33.3691 35.5948 33.735C35.8245 34.1015 36.1289 34.2834 36.5092 34.2834C36.897 34.2834 37.309 34.1447 37.7465 33.865C38.1832 33.5847 38.8501 33.0045 39.7463 32.1219V33.3584H39.7465ZM35.6274 29.1536C36.5378 28.1412 37.2772 27.0058 37.8434 25.7497C38.4095 24.493 38.6923 23.4121 38.6923 22.5064C38.6923 22.2424 38.6533 22.0279 38.5749 21.8667C38.496 21.7052 38.3949 21.6241 38.2733 21.6241C38.0091 21.6241 37.6229 22.2846 37.1172 23.6059C36.6114 24.9269 36.1149 26.7764 35.6274 29.1536Z" fill="white"/>
<path d="M47.7928 33.3581C46.8823 34.2553 46.0651 34.9175 45.3406 35.343C44.6161 35.7698 43.8174 35.983 42.9421 35.983C41.9668 35.983 41.1799 35.671 40.5803 35.0478C39.9819 34.423 39.6831 33.6027 39.6831 32.5841C39.6831 31.0643 40.2096 29.6891 41.265 28.4593C42.3181 27.229 43.4874 26.6143 44.7708 26.6143C45.4378 26.6143 45.9713 26.787 46.3735 27.131C46.7751 27.4756 46.9758 27.9269 46.9758 28.4863C46.9758 29.971 45.3984 31.1749 42.2434 32.1003C42.5298 33.4979 43.2791 34.1977 44.4911 34.1977C44.9646 34.1977 45.4159 34.0705 45.8458 33.8167C46.2769 33.5617 46.9253 32.9961 47.793 32.1219L47.7928 33.3581ZM42.1566 31.3687C43.9918 30.852 44.9101 29.8989 44.9101 28.5076C44.9101 27.8193 44.6588 27.4753 44.1575 27.4753C43.684 27.4753 43.2327 27.8351 42.8028 28.5565C42.3714 29.2768 42.1566 30.2137 42.1566 31.3687Z" fill="white"/>
<path d="M59.2802 33.3581C58.1328 34.448 57.3116 35.1588 56.8174 35.489C56.3226 35.8187 55.8494 35.9833 55.3973 35.9833C54.2641 35.9833 53.7303 34.9832 53.7946 32.9824C53.0776 34.0074 52.4157 34.7639 51.8097 35.2525C51.2042 35.7401 50.5788 35.9833 49.9327 35.9833C49.3025 35.9833 48.7667 35.6881 48.3249 35.0964C47.8832 34.5047 47.6639 33.7791 47.6639 32.9178C47.6639 31.8428 47.959 30.8172 48.5502 29.8413C49.1424 28.866 49.9006 28.078 50.8254 27.4756C51.7502 26.8733 52.5685 26.5717 53.2776 26.5717C54.1743 26.5717 54.8019 26.9842 55.1605 27.8084L57.3588 26.5936H57.962L57.0126 29.7447C56.5251 31.33 56.2805 32.4165 56.2805 33.0042C56.2805 33.6207 56.4987 33.929 56.9365 33.929C57.215 33.929 57.5234 33.7805 57.8607 33.4825C58.1979 33.1845 58.6703 32.731 59.2797 32.1216V33.3581H59.2802ZM51.4067 33.9504C52.1237 33.9504 52.7993 33.3393 53.4351 32.1168C54.0698 30.8938 54.3868 29.7655 54.3868 28.7332C54.3868 28.3322 54.2964 28.0179 54.1181 27.7924C53.9381 27.5658 53.698 27.4534 53.3975 27.4534C52.68 27.4534 51.9998 28.0628 51.3593 29.2822C50.7176 30.5015 50.396 31.6237 50.396 32.6482C50.396 33.036 50.4915 33.3497 50.6813 33.5901C50.8712 33.8304 51.1121 33.9504 51.4067 33.9504Z" fill="white"/>
<path d="M67.3155 33.3581C65.5154 35.122 64.1276 36.0046 63.1525 36.0046C62.7147 36.0046 62.3452 35.8199 62.0447 35.4517C61.7442 35.0821 61.5928 34.6247 61.5928 34.0793C61.5928 33.0683 62.1348 31.7136 63.2174 30.0138C62.6864 30.2865 62.1062 30.4757 61.4749 30.5836C61.0087 31.444 60.2769 32.3693 59.2805 33.3579H59.0337V32.391C59.5925 31.8102 60.0983 31.186 60.5501 30.519C59.9326 30.2463 59.6248 29.8411 59.6248 29.3041C59.6248 28.7512 59.8124 28.1617 60.1898 27.5335C60.5661 26.9067 61.084 26.5933 61.7442 26.5933C62.3036 26.5933 62.5828 26.8792 62.5828 27.4532C62.5828 27.9051 62.4216 28.5501 62.0983 29.3895C63.2885 29.26 64.3284 28.3502 65.218 26.6574L66.1964 26.6141L65.1961 29.3676C64.7805 30.5294 64.5115 31.3207 64.3899 31.7397C64.2683 32.1587 64.2068 32.5305 64.2068 32.8527C64.2068 33.1543 64.277 33.3952 64.4163 33.5732C64.5561 33.7538 64.7448 33.8426 64.9813 33.8426C65.2391 33.8426 65.4871 33.7544 65.7235 33.5797C65.96 33.4025 66.4907 32.9172 67.3158 32.1214V33.3581H67.3155Z" fill="white"/>
<path d="M77.8785 33.3581C76.2222 35.1088 74.8015 35.9833 73.6189 35.9833C73.1384 35.9833 72.7512 35.8148 72.4572 35.4775C72.1626 35.1408 72.0157 34.6892 72.0157 34.1228C72.0157 33.3556 72.3316 32.1829 72.9629 30.606C73.2996 29.7596 73.4687 29.221 73.4687 28.9924C73.4687 28.7627 73.3783 28.6478 73.1999 28.6478C73.0997 28.6478 72.9663 28.6984 72.8017 28.7981C72.6504 28.8983 72.4748 29.0393 72.2741 29.2182C72.0952 29.3827 71.8938 29.5835 71.6717 29.8194C71.4776 30.0219 71.2695 30.2511 71.0485 30.5083L70.4453 31.2081C70.1805 31.5305 70.0154 31.8706 69.9511 32.2295C69.8429 32.8389 69.7716 33.3988 69.7354 33.9085C69.7135 34.2877 69.7031 34.7999 69.7031 35.4466L67.3259 36.0049C67.2476 35.0369 67.2074 34.316 67.2074 33.8434C67.2074 32.6889 67.3419 31.5951 67.6112 30.5628C67.88 29.5293 68.3116 28.3684 68.9072 27.0772L71.5313 26.572C70.9794 28.0567 70.6175 29.2249 70.4453 30.0778C71.6214 28.7658 72.5538 27.8576 73.2449 27.3513C73.9349 26.8455 74.5493 26.5939 75.0862 26.5939C75.451 26.5939 75.756 26.7315 75.9989 27.007C76.243 27.2827 76.3643 27.629 76.3643 28.0429C76.3643 28.7307 76.0559 29.8638 75.4401 31.442C75.0166 32.5244 74.8049 33.2267 74.8049 33.5511C74.8049 33.9827 74.9809 34.1984 75.3331 34.1984C75.8574 34.1984 76.7066 33.5061 77.8785 32.1222V33.3581Z" fill="white"/>
<path d="M43.8162 21.4678C43.8331 21.6577 43.8806 21.8033 43.9586 21.9046C44.1021 22.0881 44.351 22.1799 44.7055 22.1799C44.9165 22.1799 45.1021 22.1345 45.2625 22.0438C45.4228 21.951 45.503 21.8086 45.503 21.6166C45.503 21.471 45.4386 21.3602 45.3099 21.2843C45.2277 21.2379 45.0652 21.1841 44.8226 21.1229L44.37 21.009C44.081 20.9372 43.8679 20.8571 43.7308 20.7684C43.486 20.6144 43.3636 20.4013 43.3636 20.1292C43.3636 19.8085 43.4786 19.549 43.7086 19.3507C43.9407 19.1523 44.2519 19.0532 44.6422 19.0532C45.1528 19.0532 45.5209 19.203 45.7467 19.5026C45.888 19.6924 45.9566 19.8971 45.9524 20.1165H45.4144C45.4038 19.9878 45.3585 19.8707 45.2783 19.7652C45.1475 19.6154 44.9207 19.5405 44.5979 19.5405C44.3827 19.5405 44.2192 19.5817 44.1074 19.664C43.9976 19.7462 43.9428 19.8549 43.9428 19.9899C43.9428 20.1376 44.0156 20.2558 44.1612 20.3444C44.2455 20.3971 44.37 20.4435 44.5346 20.4836L44.9112 20.5754C45.3205 20.6746 45.5948 20.7706 45.734 20.8634C45.9555 21.009 46.0663 21.2379 46.0663 21.5501C46.0663 21.8518 45.9513 22.1124 45.7214 22.3318C45.4935 22.5512 45.1454 22.6609 44.677 22.6609C44.1728 22.6609 43.8151 22.547 43.6042 22.3192C43.3953 22.0892 43.2835 21.8054 43.2687 21.4678H43.8162ZM48.0253 19.0437C48.4071 19.0437 48.7173 19.1365 48.9557 19.3222C49.1962 19.5078 49.3407 19.8275 49.3893 20.2811H48.8354C48.8017 20.0722 48.7247 19.8992 48.6044 19.7621C48.4841 19.6228 48.2911 19.5532 48.0253 19.5532C47.6624 19.5532 47.4029 19.7304 47.2467 20.0849C47.1455 20.3148 47.0948 20.5986 47.0948 20.9362C47.0948 21.2759 47.1666 21.5617 47.31 21.7938C47.4535 22.0259 47.6793 22.1419 47.9873 22.1419C48.2236 22.1419 48.4103 22.0702 48.5474 21.9267C48.6867 21.7812 48.7827 21.5828 48.8354 21.3318H49.3893C49.326 21.7812 49.1677 22.1103 48.9145 22.3192C48.6614 22.5259 48.3375 22.6293 47.943 22.6293C47.4999 22.6293 47.1465 22.4679 46.8828 22.1451C46.6191 21.8202 46.4872 21.4151 46.4872 20.9298C46.4872 20.3349 46.6317 19.8718 46.9208 19.5405C47.2098 19.2093 47.578 19.0437 48.0253 19.0437ZM49.9589 19.1576H50.538V22.5312H49.9589V19.1576ZM49.9589 17.8822H50.538V18.5278H49.9589V17.8822ZM51.3894 17.8822H51.9368V20.5817L53.3989 19.1418H54.1268L52.8293 20.4108L54.1996 22.5312H53.4717L52.4147 20.8222L51.9368 21.259V22.5312H51.3894V17.8822ZM54.6427 19.1576H55.2218V22.5312H54.6427V19.1576ZM54.6427 17.8822H55.2218V18.5278H54.6427V17.8822ZM56.1997 18.1955H56.7757V19.1418H57.3169V19.607H56.7757V21.8191C56.7757 21.9373 56.8158 22.0164 56.8959 22.0565C56.9403 22.0797 57.0141 22.0913 57.1175 22.0913C57.1449 22.0913 57.1744 22.0913 57.2061 22.0913C57.2377 22.0892 57.2747 22.086 57.3169 22.0818V22.5312C57.2514 22.5502 57.1829 22.5639 57.1111 22.5723C57.0415 22.5808 56.9656 22.585 56.8833 22.585C56.6175 22.585 56.4371 22.5175 56.3421 22.3824C56.2472 22.2453 56.1997 22.0681 56.1997 21.8508V19.607H55.7408V19.1418H56.1997V18.1955Z" fill="white"/>
</g>
<defs>
<clipPath id="clip0_0_1496">
<rect width="77.8785" height="42" fill="white"/>
</clipPath>
</defs>
</svg>
