<svg width="42" height="42" viewBox="0 0 42 42" fill="none" xmlns="http://www.w3.org/2000/svg">
<g clip-path="url(#clip0_0_1903)">
<path d="M38.01 42H3.99C1.785 42 0 40.215 0 38.01V3.99C0 1.785 1.785 0 3.99 0H38.01C40.215 0 42 1.785 42 3.99V38.01C42 40.215 40.215 42 38.01 42Z" fill="#252525"/>
<path d="M35.595 19.425C37.065 21.315 37.8 23.625 37.8 25.935C37.8 31.605 33.39 36.225 27.93 36.225C27.3 36.225 26.67 36.12 26.04 36.015C25.41 35.91 24.78 35.7 24.15 35.385C23.52 35.175 22.995 34.86 22.47 34.44C21.945 34.02 21.42 33.6 21 33.18C20.055 34.125 19.005 34.86 17.85 35.385C17.22 35.595 16.59 35.805 15.96 36.015C15.33 36.12 14.7 36.225 14.07 36.225C8.61001 36.225 4.20001 31.605 4.20001 25.935C4.20001 21.315 7.14001 17.43 11.13 16.065V15.96C11.13 10.29 15.54 5.67004 21 5.67004C26.46 5.67004 30.87 10.29 30.87 15.96V16.065C31.29 16.17 31.815 16.38 32.235 16.59C32.655 16.8 33.075 17.01 33.495 17.325C33.915 17.64 34.23 17.955 34.65 18.27C35.07 18.585 35.28 19.11 35.595 19.425ZM27.93 33.705C32.025 33.705 35.385 30.24 35.385 26.04C35.385 22.785 33.39 19.95 30.555 18.795C30.24 19.95 29.82 21 29.085 21.945C28.77 22.47 28.35 22.89 28.035 23.31C27.615 23.73 27.195 24.15 26.775 24.465C26.565 24.675 26.25 24.675 26.04 24.675C25.62 24.675 25.305 24.465 24.99 24.15C24.885 24.045 24.78 23.835 24.78 23.73C24.78 23.52 24.78 23.415 24.78 23.205C24.78 22.995 24.885 22.89 24.99 22.785C25.095 22.68 25.2 22.47 25.305 22.365C26.25 21.63 27.09 20.685 27.615 19.635C27.93 19.11 28.14 18.48 28.245 17.955C28.35 17.325 28.455 16.8 28.455 16.17C28.455 11.865 25.095 8.40004 21.105 8.40004C17.115 8.40004 13.86 11.655 13.755 15.75C13.965 15.75 14.07 15.75 14.28 15.75C14.595 15.75 14.91 15.75 15.12 15.75C15.435 15.75 15.645 15.855 15.96 15.855C16.485 15.96 17.115 16.065 17.64 16.275C17.85 16.38 18.69 16.695 19.215 17.115C19.32 17.22 19.425 17.325 19.53 17.535C19.635 17.64 19.635 17.85 19.635 18.06C19.635 18.27 19.635 18.375 19.53 18.585C19.53 18.795 19.425 18.9 19.32 19.005C19.215 19.11 19.11 19.215 18.9 19.32C18.795 19.425 18.585 19.425 18.48 19.425C18.27 19.425 18.165 19.425 17.955 19.32C17.85 19.215 17.64 19.215 17.535 19.11C17.43 19.005 17.01 18.795 16.695 18.69C15.855 18.375 15.015 18.27 14.175 18.27C10.08 18.27 6.82501 21.735 6.82501 25.935C6.82501 30.24 10.185 33.705 14.175 33.705C14.7 33.705 15.225 33.6 15.645 33.495C16.695 33.285 17.535 32.865 18.375 32.235C18.795 31.92 19.11 31.605 19.53 31.185C18.69 29.61 18.165 27.825 18.165 25.935C18.165 25.62 18.27 25.305 18.48 24.99C18.585 24.885 18.69 24.78 18.9 24.675C19.005 24.57 19.215 24.57 19.425 24.57C19.635 24.57 19.74 24.57 19.95 24.675C20.16 24.78 20.265 24.885 20.37 24.99C20.475 25.095 20.58 25.305 20.685 25.41C20.79 25.515 20.79 25.725 20.79 25.935C20.58 30.24 23.835 33.705 27.93 33.705Z" fill="#F3702A"/>
</g>
<defs>
<clipPath id="clip0_0_1903">
<rect width="42" height="42" fill="white"/>
</clipPath>
</defs>
</svg>
