<svg width="42" height="42" viewBox="0 0 42 42" fill="none" xmlns="http://www.w3.org/2000/svg">
<path d="M41.79 11.76C41.79 10.92 41.58 9.97504 41.475 9.34504C41.16 7.56004 40.215 6.19504 39.06 5.04004C38.325 4.30504 37.695 3.99004 36.855 3.46504C36.015 3.15004 35.07 2.73004 34.23 2.62504C33.39 2.52004 32.34 2.41504 31.5 2.41504H9.765C9.03 2.41504 8.4 2.41504 7.665 2.62504C6.93 2.52004 6.3 2.73004 5.775 3.04504L5.04 3.25504C4.515 3.57004 3.78 3.88504 3.255 4.20004C3.15 4.41004 2.94 4.41004 2.73 4.62004C2.1 5.14504 1.575 5.77504 1.26 6.51004C0.735 7.24504 0.525 8.08504 0.315 8.92504C0.105 9.76504 0.21 10.5 0 11.34V30.45C0 31.29 0.21 32.235 0.315 32.865C0.63 34.65 1.575 36.015 2.73 37.17C3.465 37.695 4.095 38.22 4.935 38.535C5.775 38.85 6.72 39.27 7.56 39.375C8.4 39.585 9.45 39.585 10.29 39.585H31.5C32.34 39.585 33.39 39.585 34.23 39.375C35.07 39.165 36.015 39.06 36.855 38.535C37.695 38.22 38.43 37.695 39.06 37.17C39.795 36.645 40.32 35.91 40.635 35.28C41.16 34.545 41.37 33.705 41.475 32.865C41.685 32.025 41.685 31.29 41.79 30.45V11.76Z" fill="#EA523B"/>
<path d="M27.93 31.2901C24.255 33.1801 19.11 33.3901 13.86 31.5001C9.86999 29.9251 6.40499 27.3001 3.98999 23.8351C5.03999 24.6751 6.40499 25.2001 7.66499 25.7251C13.02 27.9301 18.27 27.8251 22.05 25.7251C17.22 22.0501 12.705 18.0601 8.81999 13.4401C8.08499 12.7051 7.55999 12.0751 7.03499 11.2351C11.025 14.4901 15.33 17.3251 19.845 19.9501C16.59 16.8001 13.545 13.3351 10.815 9.6601C15.33 13.8601 20.37 17.4301 25.725 20.5801L26.25 20.8951C26.46 20.5801 26.565 20.1601 26.565 19.8451C27.825 15.8551 26.355 11.1301 23.31 7.3501C30.45 11.1301 34.755 18.5851 33.075 24.6751C33.075 24.8851 32.865 24.9901 32.865 25.2001C36.33 29.1901 35.49 33.3901 34.965 32.6551C33.495 29.6101 29.82 30.6601 27.93 31.2901Z" fill="white"/>
</svg>
