<svg width="40" height="42" viewBox="0 0 40 42" fill="none" xmlns="http://www.w3.org/2000/svg">
<path d="M23.1613 7.42999V13.4651L33.6065 19.4973V13.4651L23.1613 7.42999ZM2.26959 13.4651V19.4929L7.49215 22.5067V16.4775L2.26959 13.4651ZM17.9299 16.4819L12.7192 19.4929V37.5849L17.9417 40.6003V28.5345L23.1658 31.5498V25.5221L17.9373 22.5067L17.9299 16.4819Z" fill="#E55B2D"/>
<path d="M23.1613 7.42999L7.49213 16.4775V22.5067L17.9373 16.4775V22.5067L23.1613 19.4929V7.42999ZM38.829 10.4453L33.6064 13.4651V19.4929L38.829 16.4775V10.4453ZM28.3794 22.5067L23.1569 25.5221V31.5542L28.3794 28.5345V22.5067ZM23.1569 31.5542L17.9373 28.5345V40.5959L23.1613 37.5805L23.1569 31.5542Z" fill="#ED8E24"/>
<path d="M23.1613 1.39929L2.26959 13.4651L7.49215 16.4819L23.1613 7.43442L33.6064 13.4651L38.829 10.4498L23.1613 1.39929ZM23.1613 19.4928L17.9373 22.5067L23.1613 25.5221L28.3795 22.5067L23.1613 19.4928Z" fill="#F8BF3C"/>
</svg>
