<svg width="42" height="42" viewBox="0 0 42 42" fill="none" xmlns="http://www.w3.org/2000/svg">
<g clip-path="url(#clip0_0_1689)">
<path d="M6.3 0H35.7C39.165 0 42 2.835 42 6.3V35.7C42 39.165 39.165 42 35.7 42H6.3C2.835 42 0 39.165 0 35.7V6.3C0 2.835 2.835 0 6.3 0Z" fill="#F22F46"/>
<path d="M21 36.75C29.6985 36.75 36.75 29.6985 36.75 21C36.75 12.3015 29.6985 5.25 21 5.25C12.3015 5.25 5.25 12.3015 5.25 21C5.25 29.6985 12.3015 36.75 21 36.75Z" fill="white"/>
<path d="M21 32.55C27.3789 32.55 32.55 27.3789 32.55 21C32.55 14.6211 27.3789 9.45001 21 9.45001C14.6211 9.45001 9.45 14.6211 9.45 21C9.45 27.3789 14.6211 32.55 21 32.55Z" fill="#F22F46"/>
<path d="M17.115 20.37C18.9127 20.37 20.37 18.9127 20.37 17.115C20.37 15.3173 18.9127 13.86 17.115 13.86C15.3173 13.86 13.86 15.3173 13.86 17.115C13.86 18.9127 15.3173 20.37 17.115 20.37Z" fill="white"/>
<path d="M25.515 20.37C27.3127 20.37 28.77 18.9127 28.77 17.115C28.77 15.3173 27.3127 13.86 25.515 13.86C23.7173 13.86 22.26 15.3173 22.26 17.115C22.26 18.9127 23.7173 20.37 25.515 20.37Z" fill="white"/>
<path d="M17.115 28.77C18.9127 28.77 20.37 27.3127 20.37 25.515C20.37 23.7173 18.9127 22.26 17.115 22.26C15.3173 22.26 13.86 23.7173 13.86 25.515C13.86 27.3127 15.3173 28.77 17.115 28.77Z" fill="white"/>
<path d="M25.515 28.77C27.3127 28.77 28.77 27.3127 28.77 25.515C28.77 23.7173 27.3127 22.26 25.515 22.26C23.7173 22.26 22.26 23.7173 22.26 25.515C22.26 27.3127 23.7173 28.77 25.515 28.77Z" fill="white"/>
</g>
<defs>
<clipPath id="clip0_0_1689">
<rect width="42" height="42" fill="white"/>
</clipPath>
</defs>
</svg>
