<svg width="42" height="42" viewBox="0 0 42 42" fill="none" xmlns="http://www.w3.org/2000/svg">
<path d="M0 21V42H42.0013V-0.00134277H0V21ZM33.8474 19.3265C34.9138 19.593 35.7276 20.0668 36.4744 20.8398C36.8616 21.2533 37.4345 22.0067 37.4811 22.1865C37.4942 22.239 35.6678 23.4662 34.5608 24.1532C34.5214 24.1795 34.3606 24.0069 34.1801 23.7398C33.64 22.9523 33.0737 22.613 32.2068 22.5533C30.9337 22.4667 30.1068 23.1334 30.1199 24.2464C30.1199 24.5732 30.1658 24.7662 30.2997 25.0339C30.5799 25.6141 31.1003 25.9606 32.7331 26.668C35.74 27.9608 37.0263 28.8139 37.8256 30.028C38.7181 31.3812 38.9189 33.5416 38.3125 35.1481C37.6458 36.895 35.9927 38.0815 33.6663 38.4753C32.9464 38.6019 31.2395 38.5822 30.4664 38.4424C28.7798 38.1425 27.1799 37.3091 26.1929 36.2158C25.8057 35.7892 25.053 34.6756 25.0996 34.5948C25.1193 34.5686 25.2932 34.4616 25.4868 34.3481L27.0467 33.449L28.2542 32.7488L28.5075 33.1229C28.8606 33.663 29.6343 34.4026 30.1009 34.6493C31.4409 35.3561 33.2811 35.2557 34.1873 34.4426C34.5745 34.0895 34.734 33.7227 34.734 33.1826C34.734 32.6957 34.6749 32.4824 34.421 32.1162C34.0942 31.6502 33.4274 31.2565 31.5335 30.4362C29.3665 29.503 28.4333 28.9229 27.5802 28.0028C27.0867 27.4693 26.6201 26.6162 26.4265 25.9028C26.2664 25.3096 26.2264 23.8225 26.353 23.2227C26.7993 21.1227 28.3795 19.6691 30.66 19.236C31.4003 19.0962 33.1209 19.1493 33.8467 19.3292L33.8474 19.3265ZM23.9872 21.0787L24.0004 22.7981H18.5338V38.3315H14.6672V22.7981H9.20063V21.1115L9.24656 19.379C9.26625 19.3528 12.5934 19.3397 16.6268 19.3462L23.9669 19.3659L23.9872 21.0787Z" fill="#007ACC"/>
</svg>
