<svg width="43" height="42" viewBox="0 0 43 42" fill="none" xmlns="http://www.w3.org/2000/svg">
<path d="M36.1157 37.7497L21.0216 41.9988L5.92746 37.8131L2.56616 0.0144043H39.6038L36.1157 37.7497Z" fill="#3655A2"/>
<path d="M21.0216 38.7644L33.3252 35.4031L36.1157 3.05859H21.0216V38.7644Z" fill="#3C61AB"/>
<path d="M21.0216 17.1379H10.3035L10.684 21.7042H21.0216V17.1379Z" fill="#EBEBEB"/>
<path d="M21.0216 7.68835H9.479L9.85952 12.3815H21.0216V7.68835Z" fill="#EBEBEB"/>
<path d="M21.0216 29.1244L15.8211 27.7926L15.5674 24.0508H13.0306H10.8743L11.5085 31.3442L21.0216 34.0078V29.1244Z" fill="#EBEBEB"/>
<path d="M27.4905 12.3815L27.11 17.138H21.0216V21.7043H26.7295L26.2221 27.7927L21.0216 29.1245V34.0079L30.5347 31.3442V30.5198L31.6763 18.343L31.8031 17.138L32.691 7.68835H21.0216V12.3815H27.4905Z" fill="white"/>
</svg>
