<svg width="43" height="42" viewBox="0 0 43 42" fill="none" xmlns="http://www.w3.org/2000/svg">
<path d="M1.02185 0H41.1318L37.4568 37.695L20.9718 42L4.69685 37.695L1.02185 0Z" fill="#E44E28"/>
<path d="M34.5169 35.385L37.5619 3.255H21.1819V38.85L34.5169 35.385Z" fill="#EC662B"/>
<path d="M14.5669 17.115L14.1469 12.39H21.1819V7.66504H8.58191L9.84191 21.63H20.9719V16.905L14.5669 17.115ZM10.0519 24.045L10.6819 31.29L20.9719 33.81V29.085L15.4069 27.615L14.9869 23.94H12.1519L10.0519 24.045Z" fill="#EBEBEB"/>
<path d="M32.7318 18.48L32.9418 17.22H21.3918V21.945H27.5868L26.7468 27.72L21.1818 29.19V33.915L31.4718 31.395V30.45L32.7318 18.48ZM21.1818 12.39H33.1518L33.5718 7.66504H20.9718L21.1818 12.39Z" fill="white"/>
</svg>
