<svg width="42" height="42" viewBox="0 0 42 42" fill="none" xmlns="http://www.w3.org/2000/svg">
<g clip-path="url(#clip0_0_1800)">
<path d="M12.495 39.7949L3.885 41.9999C3.36 42.1049 2.94 41.7899 2.94 41.2649V32.6549C2.94 32.3399 3.15 32.0249 3.57 31.9199L12.18 29.7149C12.705 29.6099 13.125 29.9249 13.125 30.4499V39.0599C13.125 39.3749 12.915 39.6899 12.495 39.7949Z" fill="#54ABE0"/>
<path d="M12.495 26.775L3.885 28.98C3.36 29.085 2.94 28.77 2.94 28.245V9.44999C2.94 9.13499 3.15 8.81999 3.57 8.71499L12.18 6.50999C12.705 6.40499 13.125 6.71999 13.125 7.24499V26.04C13.125 26.46 12.915 26.775 12.495 26.775Z" fill="#54ABE0"/>
<path d="M25.515 39.3749L16.905 41.5799C16.38 41.6849 15.96 41.3699 15.96 40.8449V29.3999C15.96 29.0849 16.17 28.7699 16.59 28.6649L25.2 26.4599C25.725 26.3549 26.145 26.6699 26.145 27.1949V38.5349C26.145 38.9549 25.83 39.2699 25.515 39.3749Z" fill="#54ABE0"/>
<path d="M25.515 23.6249L16.905 25.8299C16.38 25.9349 15.96 25.6199 15.96 25.0949V9.02994C15.96 8.71494 16.17 8.39994 16.59 8.29494L25.2 6.08994C25.725 5.98494 26.145 6.29994 26.145 6.82494V22.7849C26.145 23.2049 25.83 23.5199 25.515 23.6249Z" fill="#54ABE0"/>
<path d="M38.43 33.2849L29.82 35.4899C29.295 35.5949 28.875 35.2799 28.875 34.7549V26.1449C28.875 25.8299 29.085 25.5149 29.505 25.4099L38.115 23.2049C38.64 23.0999 39.06 23.4149 39.06 23.9399V32.5499C39.06 32.8649 38.85 33.1799 38.43 33.2849Z" fill="#54ABE0"/>
<path d="M38.43 20.37L29.82 22.575C29.295 22.68 28.875 22.365 28.875 21.84V2.93998C28.875 2.62498 29.085 2.30998 29.505 2.20498L38.115 -2.34228e-05C38.64 -0.105023 39.06 0.209977 39.06 0.734977V19.53C39.06 19.95 38.85 20.265 38.43 20.37Z" fill="#54ABE0"/>
</g>
<defs>
<clipPath id="clip0_0_1800">
<rect width="42" height="42" fill="white"/>
</clipPath>
</defs>
</svg>
