
<svg width="108" height="108" viewBox="0 0 108 108" fill="none" xmlns="http://www.w3.org/2000/svg">
    <g id="healthcare 1" clip-path="url(#clip0_718_30)">
        <g id="Main-page">
            <g id="ScnSoft-COM-HomePage-1440_illustrations">
                <g id="Industry">
                    <g id="1">
                        <g id="icon_2_1">
                            <g id="Group-17">
                                <g id="Group-16">
                                    <path id="Fill-2"
                                        d="M63.6992 92.802L93.9039 75.3624C95.5565 74.4087 96.3213 73.1168 96.2554 71.7739"
                                        fill="#BFC3C7" />
                                    <path id="Fill-4"
                                        d="M96.2552 71.7738H96.2668V65.9404L85.4213 63.1352L61.3733 49.2514C57.3256 46.9141 51.2016 46.6594 47.6953 48.6849L23.0638 62.9049L11.5662 65.628V71.3866C11.5581 71.515 11.5608 71.6454 11.5662 71.7738V71.8635H11.571C11.6851 73.3408 12.8052 74.8725 14.902 76.0823L46.4482 94.2962C50.4979 96.6335 56.6213 96.8882 60.1275 94.8641L63.699 92.8019"
                                        fill="#BFC3C7" />
                                    <path id="Fill-6"
                                        d="M93.9038 69.2165L60.1276 88.7183C56.6214 90.7418 50.498 90.487 46.4483 88.1504L14.9021 69.9378C10.8525 67.5992 10.4137 64.0644 13.9199 62.0396L47.6954 42.5391C51.2017 40.5143 57.3251 40.7683 61.3734 43.1056L92.9209 61.3196C96.9713 63.6562 97.41 67.193 93.9038 69.2165Z"
                                        fill="#E9E8E7" />
                                    <path id="Fill-8"
                                        d="M32.8573 24.5492L37.2208 22.0143C38.5535 21.2392 40.1205 21.1475 41.7867 21.6848C42.7723 22.0027 43.7083 22.4313 44.594 22.9435C50.9477 26.6114 54.7297 34.5246 55.3356 35.9564L50.9728 38.4914C50.3669 37.0595 46.5849 29.1477 40.2305 25.4784C39.3448 24.9669 38.4088 24.5377 37.4239 24.2211C35.7577 23.6838 34.19 23.7749 32.8573 24.5492Z"
                                        fill="#650300" />
                                    <path id="Fill-10"
                                        d="M77.1382 54.6392C75.9862 45.4851 71.3945 38.9792 66.6113 35.7664C66.1732 35.4716 65.7507 35.2088 65.3438 34.9731C61.4008 32.6969 58.8896 33.0827 57.3348 33.9861L52.9713 36.5217C54.5261 35.6183 57.0373 35.2325 60.9803 37.5087C61.3879 37.7437 61.8104 38.0079 62.2485 38.3014C67.0317 41.5156 71.6227 48.0207 72.7747 57.1742C73.636 64.0135 70.8477 67.8465 66.868 70.16L71.2315 67.6237C75.2112 65.3116 77.9995 61.4779 77.1382 54.6392Z"
                                        fill="#650300" />
                                    <path id="Fill-12"
                                        d="M73.3672 56.8789C75.3418 72.5599 58.129 72.4397 51.363 74.4156C44.6263 64.6447 27.4753 44.9241 29.5294 31.5688C30.5408 24.9795 33.9492 22.6945 37.9174 23.9742C38.9023 24.2907 39.8383 24.72 40.724 25.2321C47.0777 28.9007 50.8604 36.8126 51.4656 38.2444C52.1211 37.4579 54.6241 33.2017 61.5728 37.2133C61.9797 37.4484 62.4021 37.7112 62.8403 38.006C67.6235 41.2195 72.2152 47.7247 73.3672 56.8789Z"
                                        fill="#E02723" />
                                    <path id="Fill-14"
                                        d="M46.7785 36.2854L51.0197 61.2449L55.538 48.6178L57.4154 58.2522L58.9288 54.0497L60.2357 58.6516L60.9828 58.0104L79.2702 68.2357C79.5208 68.3804 79.7259 68.7329 79.7246 69.0243C79.7239 69.3096 79.5174 69.4299 79.2668 69.2852L61.5561 59.1943L59.9579 60.5596L58.9831 57.1294L57.2837 61.8549L55.4076 52.23L50.8234 65.0399L46.6154 40.2882L42.6405 52.5805L41.2671 47.48L24.055 37.6072C23.803 37.4619 23.5999 37.1059 23.6012 36.8206C23.6019 36.5286 23.8057 36.4124 24.0584 36.5585L41.587 46.614L42.5726 49.2834L46.7785 36.2854Z"
                                        fill="black" />
                                </g>
                            </g>
                        </g>
                    </g>
                </g>
            </g>
        </g>
    </g>
    <defs>
        <clipPath id="clip0_718_30">
            <rect width="108" height="108" fill="white" />
        </clipPath>
    </defs>
</svg>