<svg width="108" height="108" viewBox="0 0 108 108" fill="none" xmlns="http://www.w3.org/2000/svg">
<g id="information-technologies 1" clip-path="url(#clip0_718_467)">
<g id="Main-page">
<g id="ScnSoft-COM-HomePage-1440_illustrations">
<g id="Industry">
<g id="8">
<g id="icon_2_8">
<g id="Group-35">
<g id="Group-34">
<path id="Fill-2" d="M96.255 71.7738H96.2673V65.9404L85.4211 63.1352L61.3737 49.2514C57.3261 46.9141 51.2014 46.6594 47.6951 48.6849L23.0643 62.9049L11.566 65.628V71.3866C11.5579 71.515 11.5613 71.6454 11.566 71.7738V71.8635H11.5708C11.6849 73.3408 12.8057 74.8725 14.9018 76.0823L46.448 94.2962C50.4977 96.6335 56.6211 96.8882 60.128 94.8641L93.9035 75.3623C95.5574 74.4086 96.3216 73.1167 96.255 71.7738Z" fill="#BFC3C7"/>
<path id="Fill-4" d="M93.9035 69.2167L60.1281 88.7185C56.6218 90.742 50.4984 90.4873 46.4481 88.1507L14.9026 69.9381C10.8522 67.5994 10.4134 64.0646 13.9197 62.0398L47.6959 42.5394C51.2021 40.5145 57.3255 40.7686 61.3738 43.1058L92.9214 61.3198C96.971 63.6564 97.4098 67.1932 93.9035 69.2167Z" fill="#E9E8E7"/>
<path id="Fill-6" d="M75.29 37.6106L34.7214 14.4748C34.1664 14.1589 33.6156 14.1576 33.2121 14.4721L31.0657 15.7559L31.5017 16.3774L31.8801 17.2434L32.2598 17.456L32.6218 17.9702V49.3622C32.6218 50.7397 33.4784 52.3488 34.5312 52.9493L72.3753 74.5316L74.4042 77.4177L76.4359 76.2005C76.9168 75.9601 77.2 75.3617 77.2 74.5642V41.1983C77.2 39.8208 76.3428 38.2117 75.29 37.6106Z" fill="#650300"/>
<path id="Fill-8" d="M44.4698 66.2019L52.6955 61.5328C53.4929 61.0777 54.8304 61.13 55.7426 61.6496L60.7466 64.5045L63.1253 65.5668V66.6543H63.109C63.0554 66.9361 62.857 67.1848 62.5351 67.3688L52.4 73.1275C52.036 73.3353 51.5591 73.4372 51.0612 73.4372C50.4689 73.4372 49.8481 73.2925 49.3523 73.0106L42.7649 69.2537C42.2854 68.9807 42.0042 68.618 41.9716 68.207C41.9709 68.1724 41.9702 68.1391 41.9716 68.1187V67.2357L44.4698 66.2019Z" fill="#650300"/>
<path id="Fill-10" d="M62.44 66.3677L52.3043 72.1264C51.5721 72.5441 50.2931 72.4918 49.4481 72.0096L42.8608 68.2527C42.0151 67.7704 41.9234 67.0409 42.6557 66.6238L52.7914 60.8645C53.5229 60.4474 54.8019 60.4997 55.6476 60.982L62.2342 64.7389C63.0799 65.2212 63.1716 65.95 62.44 66.3677Z" fill="#E02723"/>
<path id="Fill-12" d="M42.9177 66.6961L46.968 64.3948L56.3437 69.7574L52.1738 72.1259C51.4422 72.5437 50.1632 72.4914 49.3176 72.0091L43.9726 69.0958C43.4625 68.8044 42.5699 68.0573 42.3791 67.486C42.2534 67.1111 42.6277 66.8618 42.9177 66.6961Z" fill="#CECDCC"/>
<path id="Fill-14" d="M62.3445 66.2006L52.2088 71.9592C51.5316 72.3464 50.3348 72.2941 49.5435 71.8424L42.9562 68.0855C42.5737 67.8675 42.3537 67.593 42.3537 67.3315C42.3537 67.0714 42.5697 66.8941 42.751 66.7908L52.886 61.0322C53.5653 60.645 54.7608 60.6973 55.5521 61.149L62.1387 64.9059C62.5218 65.124 62.7419 65.3984 62.7419 65.6599C62.7419 65.9201 62.5259 66.0973 62.3445 66.2006ZM51.0609 72.6032C51.5588 72.6032 52.0356 72.5006 52.3997 72.2934L62.5347 66.5348C62.9165 66.3174 63.1257 66.0063 63.1257 65.6606C63.1257 65.2571 62.8363 64.8604 62.3303 64.5718L55.7423 60.8148C54.83 60.2959 53.4933 60.2436 52.6958 60.698L42.5608 66.4573C42.1791 66.674 41.9692 66.9851 41.9692 67.3315C41.9692 67.735 42.2599 68.131 42.7653 68.4197L49.3526 72.1766C49.8485 72.4592 50.4693 72.6032 51.0609 72.6032Z" fill="#650300"/>
<path id="Fill-16" d="M31.34 15.5836C31.7326 15.3568 32.2237 15.3887 32.7243 15.6747L73.2923 38.8091C74.3451 39.4095 75.2016 41.0193 75.2016 42.3975V75.7641C75.2016 76.5099 74.9007 76.8427 74.6474 76.9888C74.483 77.0846 74.288 77.1314 74.0714 77.1314C73.7277 77.1314 73.3303 77.0119 72.9187 76.7769L32.5335 54.1485C31.4806 53.548 30.6241 51.9382 30.6241 50.5607V17.1948C30.6241 16.4354 30.8849 15.8486 31.34 15.5836Z" fill="#E02723"/>
<path id="Fill-18" d="M75.1049 71.7175L30.6238 46.3511V50.7268C30.6238 52.0126 31.5408 53.583 32.6684 54.2256L72.9666 77.2071C73.3035 77.3987 73.6323 77.4958 73.9318 77.4958C74.1539 77.4958 74.3591 77.4435 74.5418 77.3376C74.9677 77.0903 75.202 76.5904 75.202 75.9288V71.7732L75.1049 71.7175Z" fill="#CECDCC"/>
<path id="Fill-20" d="M72.4682 40.5251L33.5488 18.3301C33.3315 18.2058 33.1148 18.1949 32.9368 18.2981C32.7364 18.4143 32.6216 18.6609 32.6216 18.974V44.4593C32.6216 44.9938 32.945 45.5977 33.3579 45.8327L72.278 68.0284C72.3969 68.0963 72.5151 68.1296 72.6272 68.1296C72.7202 68.1296 72.8092 68.1059 72.89 68.0597C73.0897 67.9435 73.2045 67.6976 73.2045 67.3838V41.8979C73.2045 41.364 72.8812 40.7608 72.4682 40.5251Z" fill="#E9E8E7"/>
<path id="Fill-22" d="M58.7785 35.7308C58.7629 34.4402 58.5795 33.0953 58.246 31.7484L60.588 30.2072L59.4727 27.6206L58.3614 25.0388L55.5453 25.4606C54.7954 24.2808 53.9402 23.2042 53.0069 22.2736L53.0966 18.533L51.2164 17.3688L49.3879 16.2358L47.7815 16.9619L48.4159 18.6716L48.6754 18.6369L48.4675 19.3352C47.5247 19.0322 46.6261 18.9385 45.8001 19.039L43.9974 15.8079L43.797 15.9308L43.8283 15.8079L42.391 16.5333L42.4623 16.7473L41.4204 17.3857L42.5099 20.8703C41.993 21.4979 41.5752 22.2736 41.2743 23.1797L39.0355 22.1017L37.4278 22.8279L38.8712 23.9459L38.8623 24.0471L38.6925 25.951L40.7805 28.0411C40.8661 29.1618 41.0692 30.305 41.3749 31.4359L39.9009 32.6667L40.7697 34.7276L41.6404 36.7925L43.6075 36.7184C44.2127 37.7427 44.9015 38.7093 45.6609 39.5848L45.6799 42.4941L46.9338 43.5523L46.2383 44.0373L47.1607 45.8258L48.7684 45.1003L49.6012 42.8201C50.4903 43.2881 51.3686 43.5836 52.2095 43.7017L53.5164 46.1002L53.314 46.0798L53.5795 46.217L54.0081 47.0036L54.826 46.8562L55.457 47.1808L57.0647 46.4554L55.9644 42.8676C56.4385 42.5348 56.8637 42.1014 57.2359 41.5818L59.0583 43.2765L60.6647 42.5511L61.1429 40.5039L61.634 38.405L58.7785 35.7308ZM53.7969 35.0774C53.2494 38.0667 50.7389 38.784 48.2597 36.84C45.8708 34.9687 44.282 31.2172 44.642 28.3155C45.0136 25.3146 47.3373 24.1972 49.9089 25.9741C52.5872 27.8251 54.3641 31.9787 53.7969 35.0774Z" fill="#E02723"/>
<path id="Fill-24" d="M57.1719 36.457C57.1562 35.1658 56.9735 33.8215 56.6387 32.4746L58.9807 30.9327L57.8661 28.3461L56.7541 25.7637L53.938 26.1861C53.1888 25.0063 52.3329 23.929 51.3996 22.9998L51.4893 19.2592L49.6092 18.0936L47.7813 16.9613L46.8616 20.06C45.9181 19.7585 45.0195 19.6647 44.1935 19.7639L42.3908 16.5327L41.0805 17.3363L39.8138 18.1106L40.9026 21.5965C40.3857 22.2228 39.9693 22.9991 39.6677 23.9059L37.4289 22.828L37.255 24.7726L37.0859 26.6772L39.1732 28.7666C39.2588 29.8874 39.4626 31.0298 39.7682 32.1608L38.2936 33.3923L39.1624 35.4531L40.0338 37.518L42.0002 37.444C42.6055 38.4683 43.2942 39.4348 44.0543 40.3097L44.0726 43.2189L45.5982 44.5081L47.1605 45.8258L47.9939 43.5456C48.883 44.0136 49.762 44.3091 50.6022 44.428L52.4022 47.7284L53.9033 47.4588L55.4581 47.1803L54.3571 43.5938C55.0329 43.1184 55.6137 42.4534 56.0735 41.6057L59.0575 43.276L59.5356 41.2294L60.0281 39.1305L57.1719 36.457ZM46.6524 37.5662C44.2635 35.6942 42.6747 31.9428 43.0347 29.0417C43.4063 26.0401 45.73 24.9228 48.3023 26.7003C50.9799 28.5506 52.7568 32.7042 52.1896 35.8029C51.6421 38.7923 49.1316 39.5089 46.6524 37.5662Z" fill="#820502"/>
<path id="Fill-26" d="M73.895 34.4989C73.8855 33.728 73.7761 32.9244 73.5764 32.1188L74.9756 31.1985L74.31 29.6518L73.645 28.1086L71.9618 28.3606C71.5135 27.6548 71.0027 27.0123 70.4444 26.456L70.4987 24.2199L69.3746 23.5243L68.2817 22.8471L67.3212 23.2805L67.7009 24.3021L67.8558 24.2817L67.7322 24.6994C67.1677 24.5188 66.6311 24.4624 66.1366 24.5222L65.0593 22.5911L64.9391 22.6637L64.9588 22.5911L64.0989 23.0244L64.1424 23.1528L63.5195 23.5339L64.1702 25.6171C63.8612 25.992 63.6119 26.4553 63.4326 26.998L62.0938 26.3534L61.1326 26.7868L61.9946 27.4551L61.9905 27.5163L61.8886 28.654L63.1357 29.9031C63.1873 30.5729 63.3096 31.2569 63.4923 31.932L62.61 32.6683L63.1296 33.8998L63.6506 35.1347L64.8264 35.0899C65.1877 35.7019 65.6 36.2799 66.0538 36.8029L66.0653 38.5418L66.8573 39.2108L66.3988 39.4642L66.9497 40.534L67.9101 40.1L68.4087 38.7367C68.9406 39.0166 69.4656 39.1932 69.9683 39.2645L70.7494 40.6977L70.6285 40.6848L70.7874 40.7677L71.0435 41.237L71.5319 41.1487L71.9095 41.343L72.87 40.9096L72.2118 38.7653C72.495 38.5656 72.7498 38.3074 72.9726 37.9963L74.0621 39.0098L75.0225 38.5757L75.3078 37.3524L75.6019 36.0979L73.895 34.4989ZM70.9165 34.109C70.5898 35.8961 69.0893 36.3247 67.6072 35.1625C66.1801 34.0438 65.2292 31.8016 65.4452 30.0675C65.6673 28.273 67.0563 27.6059 68.5935 28.6676C70.1938 29.7734 71.2554 32.256 70.9165 34.109Z" fill="#E02723"/>
<path id="Fill-28" d="M72.9345 34.9334C72.9243 34.1611 72.8156 33.3583 72.6159 32.5527L74.0152 31.6323L73.3488 30.085L72.6845 28.5424L71.002 28.7944C70.5531 28.0894 70.0423 27.4454 69.4839 26.8905L69.5383 24.6537L68.4141 23.9575L67.3205 23.281L66.7717 25.1326C66.2073 24.9526 65.6713 24.8969 65.1762 24.956L64.0996 23.0249L63.3157 23.5044L62.559 23.967L63.2097 26.0516C62.9007 26.4259 62.6514 26.8891 62.4714 27.4318L61.1333 26.7866L61.0294 27.9494L60.9282 29.0885L62.1753 30.3363C62.2269 31.0074 62.3491 31.69 62.5325 32.3659L61.6509 33.1015L62.1691 34.3337L62.6901 35.5678L63.8659 35.5237C64.2279 36.1364 64.6396 36.7131 65.0933 37.2374L65.1048 38.9756L66.0157 39.7452L66.9497 40.5338L67.4482 39.1706C67.9794 39.4497 68.5051 39.627 69.0078 39.6977L70.083 41.6702L70.9803 41.5099L71.9095 41.3435L71.2513 39.1998C71.6555 38.9152 72.0033 38.5185 72.2777 38.0111L74.0614 39.0103L74.3473 37.7863L74.6414 36.5317L72.9345 34.9334ZM66.6467 35.5971C65.2196 34.4777 64.2687 32.2348 64.4847 30.5014C64.7068 28.7068 66.0952 28.0391 67.633 29.1021C69.2333 30.2079 70.295 32.6899 69.956 34.5429C69.6293 36.3293 68.1288 36.7579 66.6467 35.5971Z" fill="#ADADAD"/>
<path id="Fill-30" d="M68.7568 50.8949C68.7494 50.3413 68.6706 49.7646 68.5279 49.1866L69.5325 48.5257L69.0537 47.4158L68.5768 46.3086L67.3691 46.49C67.0472 45.9833 66.6804 45.5214 66.2803 45.122L66.3184 43.5176L65.5128 43.0177L64.7282 42.5327L64.0395 42.8431L64.3105 43.5774L64.4219 43.5624L64.3329 43.862C63.9294 43.7323 63.5436 43.6922 63.1898 43.735L62.4161 42.3486L62.3298 42.4016L62.3434 42.3486L61.726 42.6597L61.7572 42.7521L61.311 43.0252L61.7776 44.5202C61.5555 44.7898 61.3775 45.122 61.2485 45.5112L60.2867 45.0493L59.5979 45.3604L60.2167 45.84L60.2126 45.8827L60.1399 46.6999L61.0352 47.5965C61.0725 48.0781 61.1588 48.5664 61.2906 49.0521L60.6582 49.5806L61.0311 50.4649L61.4047 51.3507L62.2483 51.3187C62.5078 51.7582 62.8033 52.1726 63.1293 52.5482L63.1381 53.796L63.6482 54.2273L63.3772 54.4582L63.7732 55.2251L64.462 54.914L64.8193 53.9366C65.2017 54.1363 65.578 54.2633 65.938 54.3142L66.499 55.3433L66.4121 55.3344L66.5262 55.3929L66.7103 55.7304L67.0608 55.668L67.3311 55.8065L68.0205 55.4954L67.5491 53.9563C67.7522 53.8136 67.935 53.6275 68.0946 53.4054L68.8764 54.1322L69.5651 53.8211L69.771 52.9428L69.9815 52.0415L68.7568 50.8949ZM66.6193 50.615C66.3842 51.8981 65.3076 52.2045 64.2439 51.371C63.2196 50.5682 62.5377 48.9584 62.6919 47.714C62.8515 46.4268 63.8486 45.9473 64.951 46.7107C66.1003 47.5041 66.8624 49.2851 66.6193 50.615Z" fill="#E02723"/>
<path id="Fill-32" d="M68.067 51.2067C68.0596 50.6524 67.9821 50.0757 67.8381 49.4977L68.8434 48.8375L68.3645 47.7276L67.8884 46.6197L66.68 46.8011C66.3587 46.295 65.9919 45.8325 65.5905 45.4338L65.6299 43.8294L64.823 43.3295L64.0391 42.8431L63.6445 44.1738C63.2396 44.0427 62.8545 44.0033 62.4999 44.0461L61.7263 42.6604L61.1645 43.0041L60.6211 43.3369L61.0885 44.8319C60.8657 45.1009 60.6877 45.4338 60.5587 45.823L59.5982 45.3597L59.5235 46.1945L59.4508 47.011L60.3467 47.9076C60.3827 48.3885 60.4704 48.8782 60.6021 49.3639L59.9684 49.8916L60.342 50.776L60.7156 51.6624L61.5592 51.6298C61.8187 52.07 62.1141 52.4836 62.4402 52.8593L62.4483 54.1077L63.1018 54.66L63.7728 55.2258L64.1301 54.2476C64.5119 54.448 64.8882 54.5744 65.2495 54.6253L66.0205 56.0415L66.6651 55.9261L67.3321 55.8065L66.86 54.268C67.1487 54.0642 67.3993 53.779 67.597 53.4156L68.876 54.1322L69.0818 53.2546L69.2924 52.3532L68.067 51.2067ZM63.5541 51.6821C62.5305 50.8799 61.8479 49.2701 62.0021 48.0251C62.163 46.7386 63.1588 46.2584 64.2626 47.0212C65.4105 47.8145 66.1733 49.5962 65.9301 50.9261C65.6958 52.2086 64.6185 52.5163 63.5541 51.6821Z" fill="#CECDCC"/>
</g>
</g>
</g>
</g>
</g>
</g>
</g>
</g>
<defs>
<clipPath id="clip0_718_467">
<rect width="108" height="108" fill="white"/>
</clipPath>
</defs>
</svg>
