<svg width="108" height="108" viewBox="0 0 108 108" fill="none" xmlns="http://www.w3.org/2000/svg">
<g id="investment 1" clip-path="url(#clip0_1_739)">
<g id="icon 2 4">
<g id="Group-135">
<g id="Group-134">
<path id="Fill-2" d="M96.252 71.772V66L85.452 63.192L61.368 49.2C57.324 46.872 51.204 46.608 47.7 48.636L23.064 62.904L11.568 65.628V71.388C11.556 71.5157 11.556 71.6443 11.568 71.772V71.868C11.688 73.344 12.768 74.868 14.904 76.08L46.452 94.296C50.496 96.696 56.616 96.888 60.132 94.86L93.9 75.36C94.6052 75.0562 95.2072 74.5544 95.6332 73.9155C96.0591 73.2765 96.2907 72.5278 96.3 71.76" fill="#BFC3C7"/>
<path id="Fill-4" d="M93.9 69.216L60.132 88.716C56.616 90.744 50.532 90.492 46.452 88.152L14.904 69.936C10.848 67.536 10.416 64.068 13.92 62.04L47.7 42.54C51.204 40.512 57.3 40.764 61.368 43.104L92.916 61.32C96.972 63.66 97.416 67.188 93.9 69.216Z" fill="#E9E8E7"/>
</g>
</g>
</g>
<path id="Vector" d="M49.6467 61.9761C51.2575 61.1666 52.1049 59.5984 51.5395 58.4732C50.9741 57.3481 49.21 57.0922 47.5993 57.9016C45.9886 58.711 45.1411 60.2792 45.7065 61.4044C46.2719 62.5295 48.036 62.7855 49.6467 61.9761Z" fill="#650300"/>
<path id="Vector_2" d="M68.832 64.056C68.832 63.984 68.832 63.912 68.832 63.816C68.832 63.744 68.832 63.636 68.832 63.564C68.832 63.468 68.832 63.396 68.832 63.348C68.832 63.252 68.832 63.204 68.832 63.12V63.024C68.832 62.964 68.832 62.904 68.832 62.856C68.8262 62.8002 68.8262 62.7439 68.832 62.688C68.7304 62.027 68.5697 61.3764 68.352 60.744C68.3289 60.6892 68.3089 60.6331 68.292 60.576L68.22 60.36V60.288C68.1949 60.2423 68.1748 60.194 68.16 60.144L68.088 59.976C67.8273 59.3589 67.5225 58.7614 67.176 58.188L67.056 57.996L66.936 57.828V57.756L66.804 57.576C66.771 57.5153 66.7307 57.4589 66.684 57.408L66.54 57.216L66.408 57.048L66 56.664L65.892 56.52L65.376 55.92C64.6494 55.1188 63.8455 54.3913 62.976 53.748L62.784 53.604C62.72 53.5657 62.6598 53.5215 62.604 53.472H62.532C62.208 53.244 61.992 53.112 61.752 52.956L61.404 52.752L61.104 52.572L60.96 52.5L60.816 52.416C60.708 52.356 60.312 52.14 59.82 51.912L59.424 51.6L59.232 51.516L58.968 51.396L58.752 51.312L58.536 51.228H58.452H58.32H58.248H58.176H58.116H57.972H57.9H57.756H57.6L57.408 51.168H57.3H57.204H57.096H57.024H56.892H56.76H56.52H56.316H56.232H56.1H56.028H55.872H55.596H55.2C54.828 51.168 54.552 51.168 54.384 51.096H53.412H52.836H52.452C51.984 51.096 51.612 51.204 51.48 51.228H51.276H51.036H50.832H50.688H50.472H50.376C49.764 51.39 49.1628 51.5904 48.576 51.828H48.468L48 51.6L47.712 51.732L47.4 51.876L47.052 52.056L46.752 52.212L46.512 52.344H46.428L46.248 52.44L46.02 52.572H45.948L45.684 52.728L45.384 52.92L45.084 53.124L44.796 53.328L44.52 53.532L44.268 53.736H44.184L43.956 53.928L43.692 54.156H43.632L43.416 54.36L43.332 54.444L43.224 54.54C42.3119 55.3363 41.4981 56.2387 40.8 57.228V57.312L40.704 57.444L40.632 57.552L40.524 57.696L40.416 57.852C40.3886 57.9105 40.3565 57.9667 40.32 58.02V58.08L40.248 58.2C40.2435 58.2439 40.2435 58.2881 40.248 58.332C40.2459 58.372 40.2459 58.412 40.248 58.452V58.548C40.2084 58.6099 40.1724 58.674 40.14 58.74L39.6 59.28L39.492 59.496L39.408 59.712C39.3677 59.7941 39.3316 59.8782 39.3 59.964C38.8238 61.109 38.5439 62.326 38.472 63.564C38.4661 63.6038 38.4661 63.6442 38.472 63.684C38.472 63.684 38.472 63.804 38.472 63.864V64.188C38.4722 64.7294 38.5042 65.2704 38.568 65.808V66C38.568 66.216 38.568 66.336 38.568 66.348V66.468C38.568 66.468 38.568 66.564 38.568 66.612C38.5634 66.6959 38.5634 66.7801 38.568 66.864V67.044V67.2V67.284V67.428C38.568 67.428 38.568 67.524 38.568 67.644C38.568 67.644 38.568 67.752 38.568 67.812V67.896C38.568 67.968 38.568 68.016 38.568 68.064L38.688 68.472C38.9149 69.159 39.2 69.8254 39.54 70.464L39.636 70.656L39.744 70.848L39.852 71.016C39.8852 71.0608 39.9134 71.1091 39.936 71.16L40.044 71.328V71.412V71.496L40.8 72V72.084L40.86 72.156L40.98 72.3C41.0162 72.3548 41.0563 72.407 41.1 72.456L41.292 72.708L41.376 72.816C41.448 72.888 41.508 72.972 41.58 73.056L41.928 73.44L42.204 73.728L42.504 74.016L42.804 74.292L43.104 74.544L43.404 74.784C43.7869 75.0767 44.1877 75.3452 44.604 75.588L44.976 75.816C45.3026 76.0167 45.639 76.2009 45.984 76.368H46.08L46.224 76.44C46.8052 76.7186 47.4023 76.963 48.012 77.172L48.228 77.232L48.504 77.328H48.696L48.984 77.412L49.56 77.556H49.632L49.992 77.64H50.34L50.82 77.724H50.952H51.144H51.444H51.612H51.888C52.392 77.724 52.92 77.724 53.46 77.724H53.868C54.144 77.724 54.504 77.724 54.78 77.724L55.452 77.652L56.016 77.568H56.136H56.22H56.568H56.724C57.1982 77.4735 57.6669 77.3533 58.128 77.208L58.44 77.112H58.572H58.728L58.956 77.04L59.256 76.92H59.352H59.46L59.952 76.716L60.636 76.392L60.864 76.272L61.308 76.032L61.788 75.756H61.884C62.172 75.576 62.484 75.372 62.796 75.144L63.012 74.988L63.336 74.748C63.66 74.484 63.972 74.22 64.248 73.956L64.32 73.884L64.524 73.692L64.608 73.608L64.716 73.488L64.812 73.392L64.98 73.2C65.0256 73.1614 65.0659 73.1171 65.1 73.068C65.316 72.804 65.556 72.504 65.808 72.168L65.928 71.988L66.036 71.832L66.12 71.7V71.64L66.192 71.52L66.264 71.412V71.34L66.384 71.148V71.052L67.2 70.8V70.74V70.668V70.572L67.296 70.356L67.38 70.152V70.08V69.972V69.888V69.816V69.72V69.648V69.54C67.4034 69.4853 67.4235 69.4292 67.44 69.372C67.4385 69.344 67.4385 69.316 67.44 69.288C67.4691 69.2219 67.4931 69.1537 67.512 69.084L67.584 68.88C67.584 68.808 67.584 68.736 67.644 68.652V68.58C67.6584 68.5105 67.6785 68.4423 67.704 68.376C67.704 68.304 67.704 68.232 67.704 68.16C68.2832 66.8562 68.6635 65.4727 68.832 64.056ZM48.096 53.46V53.28C48.0904 53.2563 48.0904 53.2317 48.096 53.208C48.0948 53.188 48.0948 53.168 48.096 53.148C48.0975 53.12 48.0975 53.092 48.096 53.064V52.98C48.0908 52.9563 48.0908 52.9317 48.096 52.908V52.836V52.764V52.704L48.156 52.644C48.156 52.644 48.156 52.644 48.156 52.584H48.24H48.336L48.444 52.512H48.528L48.708 52.404L48.96 52.272L49.14 52.188H49.224L49.416 52.116H49.512L49.728 52.044H49.848L50.064 51.972H50.172H50.412H50.508H50.724H50.844H51.048H51.168H51.432H52.8H53.04H54.24H54.48H54.588H54.852H54.948H55.188H55.32H55.44H55.56H55.668H55.788H55.896H56.016H56.136H56.268H56.376H56.496H56.616H56.736H56.844H56.952C56.9837 51.9655 57.0163 51.9655 57.048 51.972H57.168H57.264H57.384H57.48L57.648 52.068L57.828 52.188H57.912L57.996 52.26H58.104V52.332C58.104 52.332 58.104 52.332 58.104 52.428V52.536C58.106 52.576 58.106 52.616 58.104 52.656C58.104 52.656 58.104 52.74 58.104 52.788C58.1148 52.8354 58.1148 52.8846 58.104 52.932C58.3269 53.4136 58.398 53.9515 58.308 54.4745C58.218 54.9975 57.9711 55.4807 57.6 55.86L57.384 55.98L57.216 56.064H57.156L57 56.136H56.916L56.736 56.196L56.4 56.4C56.0849 56.4983 55.7643 56.5784 55.44 56.64H55.368H55.188H54.96H54.768H54.48H52.584H52.416H52.32H52.164H52.044H51.948H51.864H51.756H51.672H51.6H51.504H51.408H51.324H51H50.904H50.76H50.652H50.4H50.28H50.124L49.992 56.568H49.872L49.644 56.436L49.308 56.22H49.224L49.2 55.428H49.128C49.1003 55.4335 49.0717 55.4335 49.044 55.428L48.936 55.2H48.864L48.792 55.128L48.732 55.044C48.7269 55.0243 48.7269 55.0037 48.732 54.984C48.7335 54.956 48.7335 54.928 48.732 54.9C48.7384 54.8805 48.7384 54.8595 48.732 54.84C48.732 54.84 48.732 54.84 48.732 54.744C48.732 54.744 48.732 54.744 48.732 54.672V54.576V54.204L48.096 53.46Z" fill="#E02723"/>
<path id="Vector_3" d="M38.52 62.904C38.4881 63.1268 38.4681 63.3511 38.46 63.576C38.4541 63.6158 38.4541 63.6562 38.46 63.696C38.46 63.696 38.46 63.816 38.46 63.876V64.2C38.4602 64.7414 38.4922 65.2823 38.556 65.82V66C38.556 66.216 38.556 66.336 38.556 66.348V66.468V66.612C38.5514 66.6959 38.5514 66.7801 38.556 66.864V67.044V67.2V67.284C38.5618 67.3318 38.5618 67.3802 38.556 67.428C38.556 67.428 38.556 67.524 38.556 67.644C38.556 67.644 38.556 67.752 38.556 67.812V67.896C38.556 67.968 38.556 68.016 38.556 68.064L38.676 68.472C38.9029 69.159 39.188 69.8254 39.528 70.464L39.624 70.656L39.732 70.848L39.84 71.016C39.8732 71.0608 39.9014 71.109 39.924 71.16L40.032 71.328V71.412V71.496L40.8 72V72.072L40.86 72.156L40.968 72.3C41.0042 72.3548 41.0443 72.407 41.088 72.456L41.28 72.708L41.364 72.816C41.436 72.888 41.496 72.972 41.568 73.056L41.916 73.44L42.192 73.728L42.492 74.016L42.792 74.292L43.092 74.544L43.392 74.784C43.836 75.132 44.208 75.384 44.592 75.6L44.964 75.828C45.2906 76.0287 45.627 76.2129 45.972 76.38H46.068L46.212 76.452C46.7932 76.7306 47.3903 76.975 48 77.184L48.216 77.244L48.492 77.34H48.684L48.972 77.424L49.548 77.568H49.62L49.98 77.652H50.328L50.808 77.736H50.94H51.132H51.432H51.6H51.876C52.38 77.736 52.908 77.736 53.448 77.736H53.856C54.132 77.736 54.492 77.736 54.768 77.736L55.44 77.664L56.004 77.58H56.124H56.208H56.556H56.712C57.1862 77.4855 57.6549 77.3653 58.116 77.22L58.428 77.124H58.56H58.716L58.944 77.052L59.244 76.932H59.34H59.448L59.94 76.728L60.624 76.404L60.852 76.284L61.296 76.044L61.776 75.768H61.872C62.16 75.588 62.472 75.384 62.784 75.156L63 75L63.324 74.76C63.648 74.496 63.96 74.232 64.236 73.968L64.308 73.896L64.512 73.704L64.596 73.62L64.704 73.5L64.8 73.404L64.968 73.212C65.0136 73.1734 65.0539 73.129 65.088 73.08C65.304 72.816 65.544 72.516 65.796 72.18L65.916 72L66.024 71.844L66.108 71.712V71.652L66.18 71.532L66.252 71.424V71.352L66.372 71.16V71.064L67.2 70.8V70.74V70.668V70.572L67.296 70.356L67.38 70.152V70.08V69.972V69.888V69.816V69.72V69.648V69.54C67.4034 69.4853 67.4235 69.4292 67.44 69.372V69.288C67.44 69.204 67.44 69.132 67.512 69.084L67.584 68.88C67.584 68.808 67.584 68.736 67.644 68.652V68.58C67.6584 68.5105 67.6785 68.4423 67.704 68.376C67.6984 68.3041 67.6984 68.2319 67.704 68.16C67.9695 67.0236 68.0944 65.8589 68.076 64.692C68.076 64.62 68.076 64.548 68.076 64.452C68.076 64.38 68.076 64.272 68.076 64.2C68.076 64.104 68.076 64.032 68.076 63.984C68.076 63.888 68.076 63.84 68.076 63.756V63.66C68.076 63.66 68.16 76.788 52.956 76.788C37.752 76.788 38.52 62.904 38.52 62.904Z" fill="#2C2C2C"/>
<path id="Vector_4" d="M60.444 47.652V48C60.4496 48.0237 60.4496 48.0483 60.444 48.072C60.444 48.072 60.444 48.132 60.444 48.168V48.276C60.4492 48.3038 60.4492 48.3322 60.444 48.36C60.4425 48.388 60.4425 48.416 60.444 48.444C60.4488 48.4839 60.4488 48.5241 60.444 48.564L57.672 54.564V54.468V54.372C57.672 54.372 57.672 54.372 57.672 54.276C57.672 54.276 57.672 54.204 57.672 54.18V54.06V53.94C57.672 53.94 57.672 53.868 57.672 53.844C57.672 53.844 57.672 53.772 57.672 53.748C57.6652 53.7164 57.6652 53.6836 57.672 53.652V53.568V53.472C57.6743 53.44 57.6743 53.408 57.672 53.376L57.612 53.292L57.54 53.196C57.5151 53.1651 57.4869 53.1369 57.456 53.112L57 52.8H56.928H56.82L56.4 52.38H56.34H56.256H56.196L55.98 52.284L55.764 52.212L55.584 52.152H55.368H55.308H55.14H55.08H54.864H53.196H52.992H52.776H52.668H52.56H52.476H52.38H52.224H52.116H52.056H51.948H51.888H51.768H51.612H51.504H51.444H51.348H51.288L51.084 52.26L50.928 52.356L50.784 52.44L50.712 52.512L50.64 52.596V52.668V52.74V53.376C50.64 53.376 50.64 53.376 50.64 53.448C50.64 53.448 50.64 53.448 50.64 53.52V53.616C50.64 53.616 50.64 53.7 50.64 53.748L47.904 47.748V47.628V47.556C47.9001 47.5281 47.9001 47.4999 47.904 47.472C47.9094 47.4402 47.9094 47.4078 47.904 47.376C47.8984 47.3362 47.8984 47.2958 47.904 47.256C47.904 47.256 47.904 47.172 47.904 47.124C47.8974 47.0964 47.8974 47.0676 47.904 47.04V46.92V46.74C47.9096 46.7163 47.9096 46.6917 47.904 46.668C47.8984 46.6443 47.8984 46.6197 47.904 46.596C47.8983 46.5764 47.8983 46.5556 47.904 46.536V46.464C47.9025 46.436 47.9025 46.408 47.904 46.38C47.9079 46.3521 47.9079 46.3239 47.904 46.296V46.212V46.128V46.032L47.988 45.9L48.072 45.768L48.144 45.66L48.216 45.588L48.312 45.492L48.372 45.432L48.432 45.372H48.492H48.564C48.5837 45.3669 48.6043 45.3669 48.624 45.372L48.696 45.312H48.756H48.84L48.936 45.252L49.104 45.156L49.332 45.036H49.428H49.5H49.596L49.764 44.964H49.86L50.052 44.892H50.124L50.388 44.796L50.604 44.724H50.712H50.892H51H51.18H51.288H51.36H51.444H51.624H51.768H51.948H52.02H52.128H52.212H52.464H52.728H54.708H54.924H55.068H55.344H55.608H55.68H55.752H55.944H56.148H56.22L56.448 44.784H56.52L56.76 44.856H56.82H56.94H57.024H57.096L57.312 44.94H57.372L57.612 45.048H57.672H57.816H57.924L58.068 45.132H58.164H58.236L58.368 45.216L58.536 45.324L58.656 45.396H58.74H58.824H58.884H58.956H59.016C59.016 45.396 59.016 45.396 59.016 45.456L59.088 45.528L59.184 45.636L59.256 45.732V45.816V45.888V45.996L59.316 46.092V46.164V46.248V46.368C59.3212 46.3958 59.3212 46.4242 59.316 46.452C59.3212 46.4798 59.3212 46.5082 59.316 46.536C59.316 46.536 59.316 46.596 59.316 46.62C59.316 46.62 59.316 46.704 59.316 46.74C59.316 46.74 59.316 46.74 59.316 46.824C59.316 46.824 59.316 46.824 59.316 46.896V47.028L60.444 47.652Z" fill="#2C2C2C"/>
<path id="Vector_5" d="M61.452 49.2L61.38 49.332V49.428C61.3862 49.4557 61.3862 49.4844 61.38 49.512C61.3672 49.548 61.3467 49.5807 61.32 49.608L61.224 49.74L61.14 49.848L61.068 49.932L60.984 50.028H60.924C60.8871 50.071 60.847 50.1111 60.804 50.148L60.636 50.292L60.516 50.4H60.444L60.324 50.484H60.252L60.132 50.568H60.06L59.916 50.652L59.7 50.772C59.6132 50.8293 59.5207 50.8776 59.424 50.916H59.352L59.1 51.036L58.824 51.156H58.74L58.5 51.252H58.44L58.14 51.348H58.068L57.816 51.432H57.744L57.432 51.516H57.36L57.096 51.588H57.012L56.688 51.66L56.4 51.72H56.316H55.98H55.668H55.572H55.248H54.912H52.728H52.524H52.344H52.152H51.972H51.78H51.6H51.408H51.228H51.036H50.868H50.676H50.508H50.316H50.16L49.968 51.66H49.812H49.62H49.476L49.284 51.588H49.14L48.96 51.516H48.816L48.624 51.6L48.504 51.54L48.3 51.432H48.204L47.904 51.264C47.0484 50.787 46.3516 50.0693 45.9 49.2L46.128 49.692L48.276 54.372C48.5849 54.9748 49.0706 55.4689 49.668 55.788C49.7319 55.8346 49.8002 55.8748 49.872 55.908H49.944L50.076 55.98H50.16H50.292H50.388H50.52H50.616H50.748H50.856H50.988H51.096H51.228H51.336H51.468H51.588H51.72H51.84H51.972H52.092H52.224H52.344H52.608H52.74H54.264H54.504H54.6H54.912H55.14H55.332H55.56H55.752H55.968L56.4 56.4L56.604 56.328L56.784 56.256L56.988 56.172L57.156 56.088L57.348 55.992L57.492 55.908L57.588 55.848H57.672H57.756L57.852 55.776L57.972 55.68L58.056 55.596H58.128V55.524L58.2 55.428V55.368V55.272C58.932 53.724 59.652 52.164 60.384 50.604L61.452 49.2Z" fill="#650300"/>
<path id="Vector_6" d="M59.664 52.98V53.064L59.592 53.148L59.484 53.244C59.446 53.2901 59.4015 53.3305 59.352 53.364L59.244 53.448L59.148 53.52L59.04 53.592L58.92 53.664L58.74 53.772L58.524 53.892H58.464L58.248 53.988L58.02 54.096H57.948L57.744 54.18L57.492 54.264H57.276L57.012 54.336H56.784H56.52H56.292H56.22H55.944H55.56H55.452H55.164H53.364H53.196H53.052H52.884H52.74H52.584H52.44H52.284H52.14H51.984H51.852H51.696H51.552H51.408H51.276L51.12 54.276H50.988L50.844 54.216H50.724H50.568H50.46L50.304 54.144H50.196L49.2 54.204H49.116L48.876 54.072C48.3721 53.7827 47.9282 53.3999 47.568 52.944L48.24 54.408C48.5489 55.0108 49.0346 55.5048 49.632 55.824C49.6959 55.8706 49.7642 55.9108 49.836 55.944H49.908L50.04 56.016H50.124H50.256H50.352H50.484H50.58H50.712H50.82H50.952H51.06H51.192H51.3H51.432H51.552H51.684H51.804H51.936H52.056H52.188H52.308H52.572H52.704H54.228H54.468H54.564H54.876H55.104H55.296H55.524H55.716H55.932L56.4 56.4L56.604 56.328L56.784 56.256L56.988 56.172L57.156 56.088L57.348 55.992L57.492 55.908L57.588 55.848H57.672H57.756L57.852 55.776L57.972 55.68L58.056 55.596H58.128V55.524L58.2 55.428V55.368V55.272L58.92 53.748L58.848 53.844L59.664 52.98Z" fill="#2C2C2C"/>
<path id="Vector_7" d="M61.56 48.972V48.816V48.66V48.516C61.56 48.516 61.56 48.432 61.56 48.384V48C61.5659 47.9522 61.5659 47.9038 61.56 47.856C61.56 47.856 61.56 47.856 61.56 47.76C61.56 47.76 61.56 47.676 61.56 47.628C61.5544 47.5922 61.5544 47.5558 61.56 47.52V47.424C61.56 47.424 61.56 47.34 61.56 47.292V47.172C61.5643 47.1401 61.5643 47.1078 61.56 47.076C61.5578 47.044 61.5578 47.012 61.56 46.98L61.488 46.86C61.488 46.86 61.488 46.86 61.488 46.764C61.4903 46.736 61.4903 46.7079 61.488 46.68V46.596L61.392 46.488L61.308 46.404L61.236 46.32C61.2111 46.289 61.1829 46.2609 61.152 46.236L61.032 46.128L60.924 46.032L60.84 45.948L60.744 45.876H60.66C60.6276 45.8631 60.5987 45.8425 60.576 45.816L60.48 45.756L60.336 45.66L60.204 45.588L60.072 45.516L58.872 44.4H58.8L58.572 44.292H58.512L58.248 44.184L58.008 44.088H57.912L57.672 44.016H57.588L57.36 43.944L57.024 43.86H56.928H56.676H56.544H56.4H56.34H56.124H55.956H55.728H55.56H55.332H55.176H54.924H52.62H52.308H52.188H51.936H51.816H51.564H51.48L51.144 43.92H51.072H50.808H50.7H50.46H50.4L50.076 44.016H50.016L49.752 44.1H49.656L49.428 44.172H49.344L49.044 44.292L48.78 44.4H48.696L48.492 44.496H48.408C48.3121 44.5408 48.2198 44.5929 48.132 44.652L47.988 44.724H47.892L47.808 44.784H47.724H47.652H47.592H47.532H47.472L46.8 45.6V45.672C46.7659 45.6981 46.7374 45.7307 46.716 45.768C46.6801 45.809 46.648 45.8532 46.62 45.9L46.536 46.032L46.452 46.164L46.392 46.284L46.32 46.428V46.548C46.32 46.548 46.32 46.644 46.32 46.692C46.32 46.692 46.32 46.764 46.32 46.812V46.92C46.32 46.92 46.32 46.92 46.32 46.992C46.3252 47.0238 46.3252 47.0562 46.32 47.088C46.32 47.088 46.32 47.16 46.32 47.196V47.664V47.856C46.32 47.856 46.32 47.928 46.32 47.964C46.3256 47.9998 46.3256 48.0362 46.32 48.072V48.144V48.204V48.276L46.38 48.42L46.452 48.564C46.4755 48.6145 46.5036 48.6627 46.536 48.708C46.565 48.7541 46.597 48.7982 46.632 48.84C46.66 48.8868 46.6921 48.9309 46.728 48.972C46.7639 49.013 46.796 49.0572 46.824 49.104L46.908 49.2L47.028 49.32L46.8 50.4L46.884 50.484L47.016 50.592L47.16 50.688L47.244 50.76H47.328H47.388L47.484 50.82L47.64 50.916L47.88 51.06L48.144 51.192H48.252H48.336L48.54 51.288H48.684L48.912 51.372H49.008L49.248 51.444H49.38L49.704 51.54L50.088 51.648H50.196H50.472H50.616H50.856H51.024H51.252H51.324H51.42H51.66H51.828H52.068H54.18H54.372H54.564H54.756H54.936H55.128H55.32H55.5H55.692H55.848H56.052H56.196H56.4H56.544H56.748H56.892L57.084 51.588H57.228L57.432 51.516H57.552L57.792 51.432H57.876L58.176 51.3L58.392 51.192H58.5L58.812 51.024L59.04 50.892L59.244 50.76L59.448 50.628L59.628 50.484L59.736 50.4L59.844 50.304H59.916V50.244C59.9126 50.2201 59.9126 50.1959 59.916 50.172L59.988 50.076C59.9857 50.048 59.9857 50.0199 59.988 49.992V49.92V49.86C59.9812 49.8082 59.9812 49.7558 59.988 49.704L61.56 48.972ZM59.016 50.04L58.848 50.16L58.68 50.268L58.488 50.376L58.236 50.52H58.14L57.96 50.604L57.708 50.724H57.636L57.432 50.796H57.336L57.156 50.868H57.048H56.88H56.76H56.592H56.472H56.304H56.172H56.004H55.872H55.716H55.56H55.404H55.236H55.08H54.6H54.336H52.524H52.38H52.188H52.044H51.852H51.708H51.516H51.384H51.156H51.06L50.736 50.784L50.4 51.048H50.292L50.1 50.976H49.98L49.788 50.904H49.668L49.488 50.832H49.38L49.2 50.556L49.092 50.496L48.912 50.4H48.828L48.696 50.316C48.6683 50.3215 48.6397 50.3215 48.612 50.316H48.528H48.444L48.324 50.232L48.216 50.136L48 49.692L47.928 49.62L47.832 49.512L47.76 49.428C47.7254 49.3931 47.697 49.3525 47.676 49.308L47.604 49.2L47.532 49.08L47.46 48.948C47.4578 48.908 47.4578 48.868 47.46 48.828V48.708C47.4548 48.6601 47.4548 48.6118 47.46 48.564V48.42V48.264C47.46 48.264 47.46 48.168 47.46 48.12V47.7C47.46 47.7 47.46 47.7 47.46 47.604C47.46 47.604 47.46 47.604 47.46 47.532V47.04C47.4546 47.0082 47.4546 46.9758 47.46 46.944V46.824V46.716C47.4578 46.676 47.4578 46.636 47.46 46.596C47.4623 46.564 47.4623 46.5319 47.46 46.5L47.532 46.392L47.604 46.284L47.7 46.176C47.7362 46.1211 47.7763 46.069 47.82 46.02L47.952 45.876L48.084 45.732L48.24 45.6L48.408 45.468L48.588 45.348L48.78 45.228L49.008 45.096L49.236 44.976H49.308L49.476 44.892H49.548L49.776 44.796L50.028 44.7H50.1L50.292 44.628H50.376H50.592L50.868 44.556H50.94H51.144H51.228H51.444H51.6H51.876H51.948H52.164H52.26H52.476H52.548H52.836H54.816H54.96H55.152H55.296H55.476H55.62H55.8H55.98H56.088H56.292H56.376L56.652 44.628L56.88 44.688H56.952L57.144 44.76H57.228L57.432 44.844L57.684 44.952L57.876 45.036L58.104 45.156L58.32 45.276L58.452 45.36H58.536H58.608H58.692H58.764C58.8013 45.3813 58.8339 45.4099 58.86 45.444L58.968 45.54L59.04 45.6V45.66C59.0455 45.6877 59.0455 45.7163 59.04 45.744L59.112 45.852L59.172 45.924V45.996V46.068V46.176C59.172 46.176 59.172 46.176 59.172 46.272V46.356V46.44C59.1823 46.4752 59.1823 46.5127 59.172 46.548C59.172 46.548 59.172 46.608 59.172 46.632C59.172 46.632 59.172 46.632 59.172 46.728C59.172 46.728 59.172 46.812 59.172 46.848V46.992C59.1773 47.0318 59.1773 47.0722 59.172 47.112V47.256C59.172 47.256 59.172 47.328 59.172 47.352C59.172 47.352 59.172 47.436 59.172 47.472C59.1776 47.5118 59.1776 47.5522 59.172 47.592V47.724C59.1688 47.7679 59.1688 47.812 59.172 47.856C59.172 47.856 59.172 47.94 59.172 47.988L59.1 48.132L59.028 48.276L58.944 48.42L59.88 49.2C59.8428 49.2213 59.8101 49.2499 59.784 49.284L59.688 49.356L59.016 50.04Z" fill="#E02723"/>
<path id="Vector_8" d="M53.316 46.212C53.316 46.212 54.732 39.012 47.388 38.484C44.5048 38.275 41.6448 39.1287 39.348 40.884C39.348 40.884 40.548 40.704 43.572 44.484C46.2 47.832 53.316 46.212 53.316 46.212Z" fill="#BFBEBE"/>
<path id="Vector_9" d="M53.316 46.212C53.316 46.212 50.364 37.812 39.348 40.896C39.348 40.896 49.284 38.016 53.316 46.212Z" fill="#989898"/>
<path id="Vector_10" d="M54.504 28.8V51.6H54.24H52.8V28.8H54.504Z" fill="#989898"/>
<path id="Vector_11" d="M54.252 45.804C55.452 44.508 66.612 38.316 67.344 52.092C65.2299 51.0081 62.8193 50.6457 60.48 51.06C56.4 51.66 51.444 48.72 54.252 45.804Z" fill="#BFBEBE"/>
<path id="Vector_12" d="M54.252 45.804C54.252 45.804 62.916 44.796 67.344 52.092C66.732 50.7039 65.814 49.4723 64.6585 48.4893C63.5031 47.5064 62.1402 46.7976 60.672 46.416C56.088 45 54.252 45.804 54.252 45.804Z" fill="#989898"/>
<path id="Vector_13" d="M60.348 40.332L62.412 39.132C64.512 37.932 65.82 35.316 65.832 31.62C65.832 24.18 60.624 15.132 54.156 11.4C50.892 9.51599 47.952 9.33599 45.756 10.584L43.692 11.784C45.828 10.584 48.768 10.716 52.032 12.6C58.5 16.332 63.72 25.38 63.708 32.82C63.756 36.516 62.4 39.108 60.348 40.332Z" fill="#650300"/>
<g id="Clip path group">
<mask id="mask0_1_739" style="mask-type:luminance" maskUnits="userSpaceOnUse" x="43" y="9" width="23" height="32">
<g id="clip-path">
<path id="Vector_14" d="M60.348 40.332L62.412 39.132C64.512 37.932 65.82 35.316 65.832 31.62C65.832 24.18 60.624 15.132 54.156 11.4C50.892 9.51599 47.952 9.33599 45.756 10.584L43.692 11.784C45.828 10.584 48.768 10.716 52.032 12.6C58.5 16.332 63.72 25.38 63.708 32.82C63.756 36.516 62.4 39.108 60.348 40.332Z" fill="white"/>
</g>
</mask>
<g mask="url(#mask0_1_739)">
<g id="Group">
<path id="Vector_15" d="M60.348 40.332L62.412 39.132C64.512 37.932 65.82 35.316 65.832 31.62C65.832 24.18 60.624 15.132 54.156 11.4C50.892 9.51599 47.952 9.33599 45.756 10.584L43.692 11.784C45.828 10.584 48.768 10.716 52.032 12.6C58.5 16.332 63.72 25.38 63.708 32.82C63.708 36.516 62.388 39.108 60.288 40.332H60.348Z" fill="#650300"/>
</g>
</g>
</g>
<path id="Vector_16" d="M63.768 32.82C63.768 25.38 58.56 16.332 52.092 12.6C47.388 9.88802 43.332 10.728 41.448 14.232C40.6703 15.8043 40.2872 17.5424 40.332 19.296C40.3676 21.7248 40.8265 24.1289 41.688 26.4C43.644 31.788 47.532 36.924 52.008 39.516C58.476 43.2 63.744 40.248 63.768 32.82ZM52.02 37.2C46.704 34.128 42.42 26.652 42.42 20.544C42.42 14.436 46.8 11.904 52.08 14.976C57.36 18.048 61.68 25.512 61.68 31.632C61.68 37.752 57.336 40.212 52.02 37.2Z" fill="#CECDCC"/>
<path id="Vector_17" d="M42.396 20.484C42.396 14.376 46.764 11.904 52.08 14.976C57.396 18.048 61.68 25.512 61.68 31.632C61.68 37.752 57.336 40.212 52.02 37.2C46.704 34.188 42.384 26.592 42.396 20.484ZM52.08 16.356C47.424 13.668 43.68 15.828 43.608 21.156C43.7619 24.0758 44.6029 26.9181 46.0625 29.4516C47.5221 31.9851 49.5592 34.1383 52.008 35.736C56.664 38.424 60.408 36.252 60.48 30.936C60.3243 28.0182 59.4824 25.1783 58.0229 22.647C56.5633 20.1157 54.5272 17.9645 52.08 16.368V16.356Z" fill="#989898"/>
<path id="Vector_18" d="M43.608 21.18C43.608 15.828 47.424 13.668 52.08 16.38C54.5272 17.9765 56.5633 20.1278 58.0229 22.6591C59.4824 25.1903 60.3243 28.0302 60.48 30.948C60.48 36.3 56.664 38.472 52.008 35.748C49.5608 34.1515 47.5247 32.0002 46.0651 29.469C44.6056 26.9377 43.7637 24.0978 43.608 21.18Z" fill="#CECDCC"/>
<path id="Vector_19" d="M53.196 19.2V20.4C54.0202 21.03 54.7018 21.8272 55.1961 22.7392C55.6903 23.6513 55.9861 24.6575 56.064 25.692L53.172 24C53.1428 23.5834 53.0129 23.1801 52.7934 22.8247C52.5739 22.4694 52.2715 22.1726 51.912 21.96C51.3 21.6 50.832 21.708 50.832 22.488C50.832 24.672 56.244 26.82 56.232 31.032C56.232 32.868 55.152 33.804 53.208 33.072V34.212L50.976 32.916V31.716C50.1132 31.0629 49.3987 30.2343 48.8795 29.2849C48.3603 28.3355 48.0483 27.2868 47.964 26.208L50.808 27.852C50.8331 28.3052 50.97 28.7452 51.2067 29.1326C51.4433 29.52 51.7722 29.8427 52.164 30.072C52.944 30.528 53.448 30.372 53.448 29.628C53.448 27.3 47.976 25.38 48.012 20.94C48.012 18.912 49.212 18.36 51.012 19.032V17.904L53.196 19.2Z" fill="#E02723"/>
<path id="Vector_20" d="M52.092 12.6C48.828 10.716 45.888 10.536 43.752 11.784L45.816 10.584C47.952 9.384 50.892 9.516 54.216 11.4C54.564 11.604 54.912 11.82 55.26 12.06L53.184 13.26C52.8 13.02 52.44 12.792 52.092 12.6Z" fill="#650300"/>
<path id="Vector_21" d="M62.772 20.748C60.9621 17.2997 58.3687 14.324 55.2 12.06L53.124 13.26C56.291 15.5342 58.8871 18.5123 60.708 21.96C62.4308 25.0152 63.463 28.4109 63.732 31.908L65.808 30.708C65.5306 27.2071 64.4946 23.8084 62.772 20.748Z" fill="#E02723"/>
<path id="Vector_22" d="M65.832 31.62C65.832 35.316 64.512 37.908 62.412 39.132L60.348 40.332C62.448 39.132 63.756 36.516 63.768 32.82C63.768 32.52 63.768 32.208 63.768 31.896L65.844 30.696C65.82 31.008 65.832 31.32 65.832 31.62Z" fill="#650300"/>
</g>
<defs>
<clipPath id="clip0_1_739">
<rect width="108" height="108" fill="white"/>
</clipPath>
</defs>
</svg>
