<svg width="40" height="40" viewBox="0 0 40 40" fill="none" xmlns="http://www.w3.org/2000/svg">
<g id="javascript_horizontal_5a662283b5 1" clip-path="url(#clip0_1_191)">
<g id="Group">
<path id="Vector" d="M0.599998 27.6C0.599998 27 0.699998 26.5 0.899998 26.1C1.1 25.7 1.3 25.3 1.6 25.1C1.9 24.8 2.3 24.6 2.7 24.5C3.1 24.4 3.6 24.3 4 24.3C4.4 24.3 4.9 24.4 5.3 24.5C5.7 24.6 6.1 24.8 6.4 25.1C6.7 25.4 7 25.7 7.1 26.1C7.3 26.5 7.4 27 7.4 27.6C7.4 28.2 7.3 28.7 7.1 29.1C6.9 29.5 6.7 29.8 6.4 30.1C6.1 30.4 5.7 30.6 5.3 30.7C4.9 30.8 4.4 30.9 4 30.9C3.5 30.9 3.1 30.8 2.7 30.7C2.3 30.6 1.9 30.4 1.6 30.1C1.3 29.8 0.999998 29.5 0.899998 29.1C0.699998 28.7 0.599998 28.2 0.599998 27.6ZM11.6 40C11 40 10.3 40 9.7 39.9C9 39.8 8.5 39.7 8 39.5V34.8C8.4 34.9 8.8 35 9.1 35.1C9.5 35.2 9.9 35.2 10.3 35.2C10.6 35.2 10.9 35.1 11.2 35C11.5 34.9 11.8 34.7 12 34.5C12.2 34.3 12.4 33.9 12.5 33.5C12.6 33.1 12.7 32.5 12.7 31.9V8.6H18.7V32.8C18.7 33.8 18.6 34.7 18.3 35.6C18.1 36.4 17.7 37.2 17.1 37.9C16.5 38.6 15.8 39.1 14.9 39.5C14 39.8 12.9 40 11.6 40ZM12.5 2.9C12.5 2.3 12.6 1.9 12.8 1.5C13 1.1 13.2 0.8 13.5 0.6C13.8 0.4 14.1 0.2 14.5 0.1C14.9 0 15.3 0 15.8 0C16.2 0 16.6 0 17 0.1C17.4 0.2 17.7 0.3 18 0.6C18.3 0.8 18.6 1.1 18.7 1.5C18.9 1.9 19 2.3 19 2.9C19 3.4 18.9 3.9 18.7 4.3C18.6 4.7 18.3 5 18 5.2C17.7 5.4 17.4 5.6 17 5.7C16.6 5.8 16.2 5.8 15.8 5.8C15.4 5.8 14.9 5.8 14.5 5.7C14.1 5.6 13.8 5.4 13.5 5.2C13.2 5 13 4.7 12.8 4.3C12.6 3.9 12.5 3.5 12.5 2.9ZM39.4 23.9C39.4 25 39.2 26 38.8 26.9C38.4 27.7 37.8 28.5 37 29C36.2 29.6 35.3 30 34.2 30.3C33.1 30.6 31.9 30.7 30.5 30.7C29.8 30.7 29.1 30.7 28.5 30.6C27.9 30.6 27.3 30.5 26.8 30.4C26.3 30.3 25.7 30.2 25.2 30C24.7 29.8 24.2 29.6 23.7 29.4V24.5C24.2 24.8 24.8 25 25.4 25.2L27.2 25.8L28.9 26.2C29.4 26.3 30 26.3 30.5 26.3C31 26.3 31.5 26.3 31.9 26.2C32.3 26.1 32.6 25.9 32.8 25.8C33 25.6 33.2 25.4 33.3 25.2C33.4 25 33.5 24.7 33.5 24.4C33.5 24.1 33.5 23.9 33.4 23.7C33.3 23.5 33.1 23.3 32.8 23C32.5 22.8 32.1 22.5 31.5 22.2L29.2 21.1L26.7 19.8C26 19.4 25.4 18.9 25 18.4C24.6 17.9 24.2 17.3 24 16.6C23.8 15.9 23.7 15.1 23.7 14.2C23.7 13.2 23.9 12.3 24.3 11.5C24.7 10.7 25.3 10.1 26 9.6C26.7 9.1 27.6 8.7 28.6 8.5C29.6 8.2 30.7 8.1 32 8.1C33.3 8.1 34.5 8.3 35.7 8.5C36.9 8.8 38.1 9.2 39.3 9.8L37.5 14C36.5 13.5 35.6 13.1 34.7 12.8C33.8 12.5 32.9 12.4 32 12.4C31.2 12.4 30.6 12.5 30.2 12.8C29.8 13.1 29.7 13.5 29.7 14C29.7 14.3 29.7 14.5 29.8 14.7C29.9 14.9 30.1 15.1 30.3 15.3C30.6 15.5 31 15.7 31.5 16L33.4 16.9L35.9 18.1C36.6 18.5 37.2 18.9 37.8 19.4C38.3 19.9 38.7 20.5 39 21.2C39.2 22.1 39.4 22.9 39.4 23.9Z" fill="#555588"/>
</g>
</g>
<defs>
<clipPath id="clip0_1_191">
<rect width="40" height="40" fill="white"/>
</clipPath>
</defs>
</svg>
