<svg width="40" height="40" viewBox="0 0 40 40" fill="none" xmlns="http://www.w3.org/2000/svg">
<g id="mysql_horizontal_aec0b8c464 1" clip-path="url(#clip0_1_203)">
<g id="Group">
<g id="Group_2">
<path id="Vector" fill-rule="evenodd" clip-rule="evenodd" d="M37.3 30.5001C35.1 30.5001 33.4 30.5001 31.7 31.4001C31.3 31.4001 30.4 31.4001 30.4 32.3001C30.8 32.7001 30.8 32.7001 30.8 33.2001C31.2 33.6001 31.7 34.5001 32.1 34.9001L33.8 36.2001C35.1 37.1001 36 37.1001 37.2 37.9001C37.6 38.3001 38.5 38.8001 38.9 39.2001C39.3 39.6001 39.3 39.6001 39.8 40.1001C39.8 39.7001 39.4 39.7001 39.4 39.2001L38.5 38.3001C37.6 37.4001 36.8 36.1001 35.5 35.7001C34.6 35.3001 32.5 34.4001 32.5 33.1001C32.9 33.1001 33.8 32.7001 34.2 32.7001C35.1 32.3001 35.9 32.7001 36.8 32.3001L38.1 31.9001V31.5001C37.7 31.1001 37.2 30.2001 36.8 29.8001C35.5 28.5001 33.8 27.2001 32.1 26.4001C31.2 26.0001 29.9 25.5001 29.1 25.1001C28.7 25.1001 28.2 24.7001 27.8 24.7001C27.4 24.3001 26.9 23.4001 26.5 22.5001L25.6 17.3001C25.2 16.0001 24.7 15.1001 24.3 14.3001C21.8 9.80009 17.9 6.00009 13.6 3.80009C12.7 3.40009 11.4 2.90009 10.2 2.50009H8C7.6 2.50009 7.1 1.60009 6.7 1.60009C5 0.800087 1.1 -1.39991 0.300002 1.20009C-0.599998 3.00009 1.6 4.70009 2 5.50009C2 6.00009 2.9 6.80009 2.9 7.30009C2.9 7.80009 3.3 8.20009 3.3 8.60009L5 12.9001C5.4 13.3001 5.9 14.2001 5.9 14.6001C6.3 15.0001 6.3 15.0001 6.7 15.4001C6.3 15.8001 6.3 16.7001 6.3 17.6001C5.4 20.6001 5.9 24.5001 7.2 27.1001C7.6 28.0001 8.9 29.3001 10.2 28.8001C11.5 28.4001 11.1 26.6001 11.5 25.4001C11.5 25.0001 11.5 25.0001 11.5 24.5001L12.8 26.7001C13.7 28.0001 15 29.3001 16.2 30.6001C17.1 31.0001 17.5 31.9001 18.4 32.3001C18.4 31.9001 18 31.9001 18 31.9001C17.6 31.5001 17.1 31.0001 16.7 30.2001C15.4 28.5001 14.5 26.8001 13.7 25.0001C13.3 24.1001 12.8 23.3001 12.4 22.4001C12.4 22.0001 12.4 21.5001 12 21.5001C11.6 21.9001 11.1 22.8001 10.7 23.2001C10.3 24.5001 10.3 25.8001 9.8 27.5001C8.9 27.5001 8.5 26.2001 8.1 25.8001C7.2 23.6001 7.2 20.6001 7.7 18.5001C7.7 18.1001 8.6 15.9001 8.6 15.5001C8.6 15.1001 7.7 14.6001 7.7 14.2001C7.3 13.8001 6.8 12.9001 6.8 12.5001C6.3 10.7001 5.9 9.00009 5 7.70009C4.6 6.80009 4.2 6.40009 3.7 5.50009C3.2 4.60009 2.4 4.20009 2 3.40009C2 3.00009 1.6 2.50009 2 2.10009C2 1.70009 2 1.70009 2.4 1.70009C2.8 1.30009 3.7 1.70009 4.1 2.10009C5 2.50009 5.9 3.00009 6.7 3.40009C7.2 3.80009 7.6 4.20009 8 4.20009H8.4C9.3 4.20009 10.1 4.20009 11 4.60009C12.3 5.00009 13.6 5.90009 14.9 6.30009C18.8 8.50009 21.4 11.9001 23.5 15.8001C23.9 16.2001 23.9 17.1001 24.4 17.5001L26.1 21.4001C26.5 22.7001 27.4 24.0001 28.3 25.3001C28.7 25.7001 30.5 26.2001 31.3 26.6001C31.7 27.0001 32.6 27.0001 33 27.5001L35.6 29.2001C35.6 29.2001 36.9 29.7001 37.3 30.5001Z" fill="#06688D"/>
<path id="Vector_2" fill-rule="evenodd" clip-rule="evenodd" d="M8.90001 6.40015C8.50001 6.40015 8.00001 6.40015 7.60001 6.40015C8.00001 6.80015 8.00001 7.30015 8.50001 7.70015L8.90001 9.00015C9.30001 8.60015 9.30001 8.10015 9.30001 7.70015C9.30001 7.70015 9.30001 7.30015 8.90001 7.30015C9.30001 6.80015 9.30001 6.40015 8.90001 6.40015Z" fill="#06688D"/>
</g>
</g>
</g>
<defs>
<clipPath id="clip0_1_203">
<rect width="40" height="40" fill="white"/>
</clipPath>
</defs>
</svg>
