<svg width="23" height="22" viewBox="0 0 23 22" fill="none" xmlns="http://www.w3.org/2000/svg">
<g id="arrow_right_outline_24">
<path id="&#226;&#134;&#179; Icon Color" d="M11.9929 4.12843C11.7018 4.41538 11.6745 4.86882 11.9131 5.18696L11.9848 5.27015L16.9103 10.265L4.30685 10.265C3.86097 10.265 3.49951 10.6265 3.49951 11.0724C3.49951 11.4839 3.8075 11.8236 4.20558 11.8734L4.30685 11.8797H16.9103L11.9848 16.8746C11.6978 17.1656 11.6769 17.6194 11.92 17.9341L11.9929 18.0163C12.2839 18.3032 12.7377 18.3241 13.0524 18.081L13.1346 18.0082L19.4139 11.6392C19.698 11.351 19.7216 10.9027 19.4849 10.5879L19.4139 10.5055L13.1346 4.13652C12.8215 3.81901 12.3104 3.81538 11.9929 4.12843Z" fill="white"/>
</g>
</svg>
