<svg width="108" height="108" viewBox="0 0 108 108" fill="none" xmlns="http://www.w3.org/2000/svg">
<g id="banking 1" clip-path="url(#clip0_1_313)">
<g id="Main-page">
<g id="ScnSoft-COM-HomePage-1440_illustrations">
<g id="Industry">
<g id="2">
<g id="icon_2_2">
<g id="Group-165">
<g id="Group-18">
<path id="Fill-2" d="M96.2553 71.7737H96.2669V65.9404L85.4214 63.1351L61.3734 49.2513C57.3258 46.914 51.2017 46.6593 47.6954 48.6848L23.0639 62.9048L11.5664 65.6279V71.3866C11.5582 71.515 11.5609 71.6454 11.5664 71.7737V71.8634H11.5704C11.6852 73.3408 12.8053 74.8725 14.9021 76.0822L46.4483 94.2962C50.498 96.6334 56.6214 96.8882 60.1276 94.864L93.9038 75.3622C95.5571 74.4085 96.3219 73.1166 96.2553 71.7737Z" fill="#BFC3C7"/>
<path id="Fill-4" d="M93.9039 69.2167L60.1277 88.7185C56.6215 90.7419 50.4981 90.4872 46.4484 88.1506L14.9022 69.938C10.8526 67.5994 10.4131 64.0646 13.9193 62.0398L47.6955 42.5393C51.2018 40.5145 57.3252 40.7685 61.3735 43.1058L92.921 61.3198C96.9707 63.6564 97.4101 67.1932 93.9039 69.2167Z" fill="#E9E8E7"/>
<path id="Fill-6" d="M84.5258 68.6502L84.5264 67.6293L82.7047 67.757L51.6625 49.6789C50.7876 49.1735 49.2593 49.2374 48.2493 49.8201L25.3058 63.0077L23.2972 63.1476V64.1475C23.2966 64.176 23.2959 64.2038 23.2972 64.2324C23.319 64.5333 23.5112 64.8179 23.8855 65.0346L56.1605 83.8238C57.0353 84.3292 58.5636 84.2654 59.5744 83.6826L83.693 69.8192C84.2717 69.485 84.5536 69.0537 84.5258 68.6502Z" fill="#E02723"/>
<path id="Fill-8" d="M84.5257 68.6223L84.5264 67.6014L82.7047 67.7284L82.4309 67.5688L81.1213 68.0966L57.6181 82.4463V83.0169V84.1304C58.2967 84.1349 59.014 83.9773 59.5743 83.6547L83.693 69.7913C84.2717 69.4571 84.5536 69.0258 84.5257 68.6223Z" fill="#650300"/>
<path id="Fill-10" d="M83.9977 66.6614L51.722 47.8715C50.8153 47.3485 49.2313 47.4116 48.19 48.0128L24.0707 61.8762C23.5021 62.2042 23.1761 62.6485 23.1761 63.0934C23.1761 63.4704 23.407 63.8107 23.8254 64.0518L56.1011 82.8418C56.5121 83.0802 57.0657 83.1963 57.643 83.1963C58.3359 83.1963 59.0654 83.0285 59.6332 82.7005L83.7525 68.8378C84.3217 68.5097 84.6478 68.0648 84.6478 67.6199C84.6478 67.2436 84.4162 66.9026 83.9977 66.6614Z" fill="#CECDCC"/>
<path id="Fill-12" d="M41.5005 59.0113V58.222H40.3424L38.662 57.2704C38.4385 57.1441 38.0764 57.1441 37.853 57.2704L36.1718 58.222H35.0144V59.012C35.0144 59.0949 35.0701 59.1777 35.1815 59.2409L37.853 60.7522C38.0764 60.8792 38.4385 60.8792 38.662 60.7522L41.3327 59.2409C41.4441 59.1777 41.5005 59.0949 41.5005 59.0113Z" fill="#E02723"/>
<path id="Fill-14" d="M41.3326 58.4509L38.6619 59.9636C38.4384 60.0892 38.0763 60.0892 37.8529 59.9636L35.1814 58.4509C34.9579 58.3245 34.9579 58.1194 35.1814 57.9924L37.8529 56.4811C38.0763 56.354 38.4384 56.354 38.6619 56.4811L41.3326 57.9924C41.5561 58.1194 41.5561 58.3245 41.3326 58.4509Z" fill="#686868"/>
<path id="Fill-16" d="M36.5567 43.9943V57.9963H36.5581C36.5649 58.2381 36.7292 58.4779 37.0546 58.6626C37.7189 59.0376 38.7955 59.0376 39.4591 58.6626C39.7852 58.4779 39.9495 58.2381 39.9563 57.9963H39.9577V43.9943H36.5567Z" fill="#7C7C7C"/>
</g>
<g id="Group-21">
<g id="Fill-19-Clipped">
<g id="Mask group">
<mask id="mask0_1_313" style="mask-type:luminance" maskUnits="userSpaceOnUse" x="36" y="43" width="4" height="16">
<g id="Group">
<path id="Vector" d="M36.5569 43.994V57.9967H36.5583C36.5651 58.2378 36.7295 58.4782 37.0548 58.6623C37.7191 59.0379 38.7957 59.0379 39.4594 58.6623C39.7854 58.4782 39.9498 58.2378 39.9566 57.9967H39.9579V43.994H36.5569Z" fill="white"/>
</g>
</mask>
<g mask="url(#mask0_1_313)">
<path id="Fill-19" d="M39.011 45.786V58.8811L39.4566 58.7487L39.9579 58.3364V44.113L39.3126 44.2543L39.011 45.786Z" fill="#650300"/>
</g>
</g>
</g>
</g>
<g id="Group-24">
<g id="Fill-22-Clipped">
<g id="Mask group_2">
<mask id="mask1_1_313" style="mask-type:luminance" maskUnits="userSpaceOnUse" x="35" y="57" width="7" height="4">
<g id="Group_2">
<path id="Vector_2" d="M37.853 57.2706L36.1718 58.2222H35.0144V59.0121C35.0144 59.095 35.0701 59.1779 35.1815 59.2411L37.853 60.7524C38.0764 60.8794 38.4385 60.8794 38.6626 60.7524L41.3327 59.2411C41.4441 59.1779 41.5005 59.095 41.5005 59.0115V58.2222H40.3424L38.6626 57.2706C38.5506 57.2074 38.4038 57.1761 38.2571 57.1761C38.1111 57.1761 37.9644 57.2074 37.853 57.2706Z" fill="white"/>
</g>
</mask>
<g mask="url(#mask1_1_313)">
<path id="Fill-22" d="M38.1679 60.0594V60.8426L38.6631 60.9465L41.5003 59.1621L41.5804 58.1901C41.5804 58.1901 38.8682 59.8801 38.6624 59.963C38.4552 60.0451 38.1679 60.0594 38.1679 60.0594Z" fill="#650300"/>
</g>
</g>
</g>
</g>
<g id="Group-67">
<path id="Fill-25" d="M75.494 62.9574C75.494 62.9432 75.4946 62.9282 75.494 62.9146L75.4912 47.8171L39.4892 46.6528L39.494 61.7898C39.4491 62.0914 39.6047 62.3855 39.9742 62.5995L57.2338 72.4757C57.9586 72.8941 59.2226 72.8418 60.0581 72.3589L74.8038 63.8751C75.2589 63.6122 75.4912 63.2332 75.494 62.9146V62.9574Z" fill="#AAAAAA"/>
<path id="Fill-27" d="M57.618 47.175V72.5333C58.3577 72.8151 59.4411 72.7289 60.1855 72.2989L74.9313 63.8145C75.3864 63.5516 75.6187 63.1733 75.6214 62.854L75.6193 47.7564L57.618 47.175Z" fill="#650300"/>
<path id="Fill-29" d="M47.8884 67.0992L52.8788 69.9806V58.8539L47.8884 55.9732V67.0992Z" fill="#878686"/>
<path id="Fill-31" d="M52.2868 68.9559V59.1958L48.4803 56.9978L48.4796 66.7579L52.2868 68.9559Z" fill="#CECDCC"/>
<path id="Fill-33" d="M49.0093 57.952V61.8298L51.6475 63.3486V59.4708L50.9159 59.0538L49.9813 58.5131L49.8624 58.4452L49.4854 58.2251H49.4834L49.0093 57.952Z" fill="#E02723"/>
<path id="Fill-35" d="M48.8687 57.7092V57.9517V61.911L51.7874 63.5908V59.3904L48.8687 57.7092ZM49.0093 57.9517L49.4834 58.2255L50.916 59.0535L51.6475 59.4712V63.349L49.0093 61.8295V57.9517Z" fill="#E4E4E4"/>
<path id="Fill-37" d="M49.0093 62.5468V66.4246L51.6475 67.9434V64.0656L50.9159 63.6485L49.9813 63.1079L49.8624 63.0399L49.4854 62.8205H49.4834L49.0093 62.5468Z" fill="#E02723"/>
<path id="Fill-39" d="M48.8687 62.3041V62.5466V66.5059L51.7874 68.1863V63.9852L48.8687 62.3041ZM49.0093 62.5466L49.4834 62.821L50.916 63.6483L51.6475 64.066V67.9439L49.0093 66.4244V62.5466Z" fill="#E4E4E4"/>
<path id="Fill-41" d="M48.3009 61.4783L48.811 61.7731V63.6376L48.6582 63.7259L48.1481 61.5666L48.3009 61.4783Z" fill="#878686"/>
<path id="Fill-43" d="M48.1483 61.5665L48.6584 61.8613V63.7258L48.1476 63.431L48.1483 61.5665Z" fill="#E4E4E4"/>
<path id="Fill-45" d="M42.8981 64.2238L47.8885 67.1044V55.9784L42.8981 53.0977V64.2238Z" fill="#878686"/>
<path id="Fill-47" d="M47.2967 66.0804V56.3204L43.4895 54.1223V63.8824L47.2967 66.0804Z" fill="#CECDCC"/>
<path id="Fill-49" d="M44.0185 55.0758V58.9536L46.6567 60.4731V56.5953L45.9258 56.1775L44.9905 55.6369L44.8723 55.5689L44.4953 55.3495H44.4933L44.0185 55.0758Z" fill="#E02723"/>
<path id="Fill-51" d="M43.8785 54.8337V55.0756V59.0349L46.7972 60.7153V56.5149L43.8785 54.8337ZM44.0184 55.0756L44.4932 55.35L45.9257 56.178L46.6566 56.5957V60.4735L44.0184 58.9534V55.0756Z" fill="#E4E4E4"/>
<path id="Fill-53" d="M44.0185 59.6713V63.5491L46.6567 65.0679V61.1901L45.9258 60.7731L44.9905 60.2324L44.8723 60.1638L44.4953 59.9444H44.4933L44.0185 59.6713Z" fill="#E02723"/>
<path id="Fill-55" d="M43.8785 59.4285V59.671V63.6297L46.7972 65.3101V61.1097L43.8785 59.4285ZM44.0184 59.671L44.4932 59.9448L45.9257 60.7728L46.6566 61.1905V65.0683L44.0184 63.5488V59.671Z" fill="#E4E4E4"/>
<path id="Fill-57" d="M47.018 60.6239L47.5281 60.9187V62.7832L47.3753 62.8715L46.8652 60.7122L47.018 60.6239Z" fill="#878686"/>
<path id="Fill-59" d="M46.8655 60.7121L47.3756 61.0069V62.8714L46.8655 62.5766V60.7121Z" fill="#E4E4E4"/>
<path id="Fill-61" d="M62.1386 77.5792V76.7892H60.9805L59.3007 75.8382C59.0772 75.7112 58.7145 75.7112 58.491 75.8382L56.8106 76.7892H55.6531V77.5792C55.6531 77.662 55.7088 77.7449 55.8202 77.8081L58.491 79.3201C58.7145 79.4464 59.0772 79.4464 59.3007 79.3201L61.9715 77.8081C62.0829 77.7449 62.1386 77.662 62.1386 77.5792Z" fill="#E02723"/>
<path id="Fill-63" d="M61.9714 77.018L59.3006 78.5306C59.0771 78.657 58.7144 78.657 58.4909 78.5306L55.8201 77.018C55.5967 76.8916 55.5967 76.6865 55.8201 76.5601L58.4909 75.0481C58.7144 74.9211 59.0771 74.9211 59.3006 75.0481L61.9714 76.5601C62.1948 76.6865 62.1948 76.8916 61.9714 77.018Z" fill="#686868"/>
<path id="Fill-65" d="M57.1954 62.5615V76.5634H57.1968C57.2036 76.8052 57.368 77.045 57.6933 77.2298C58.3576 77.6047 59.4342 77.6047 60.0978 77.2298C60.4232 77.045 60.5883 76.8052 60.5951 76.5634H60.5964V62.5615H57.1954Z" fill="#7C7C7C"/>
</g>
<g id="Group-70">
<g id="Fill-68-Clipped">
<g id="Mask group_3">
<mask id="mask2_1_313" style="mask-type:luminance" maskUnits="userSpaceOnUse" x="57" y="62" width="4" height="16">
<g id="Group_3">
<path id="Vector_3" d="M57.1951 62.5612V76.5638H57.1972C57.2033 76.8049 57.3683 77.0454 57.6937 77.2301C58.3573 77.6051 59.4346 77.6051 60.0982 77.2301C60.4229 77.0454 60.5886 76.8049 60.5948 76.5638H60.5968V62.5612H57.1951Z" fill="white"/>
</g>
</mask>
<g mask="url(#mask2_1_313)">
<path id="Fill-68" d="M59.6497 64.3531V77.4483L60.0953 77.3158L60.5966 76.9035V62.6801L59.9513 62.8214L59.6497 64.3531Z" fill="#650300"/>
</g>
</g>
</g>
</g>
<g id="Group-73">
<g id="Fill-71-Clipped">
<g id="Mask group_4">
<mask id="mask3_1_313" style="mask-type:luminance" maskUnits="userSpaceOnUse" x="55" y="75" width="8" height="5">
<g id="Group_4">
<path id="Vector_4" d="M58.4911 75.8377L56.8107 76.7893H55.6533V77.5786C55.6533 77.6622 55.709 77.745 55.8204 77.8082L58.4911 79.3202C58.7146 79.4465 59.0773 79.4465 59.3008 79.3202L61.9716 77.8082C62.083 77.745 62.138 77.6622 62.138 77.5786V76.7893H60.9806L59.3008 75.8377C59.1887 75.7745 59.0427 75.7426 58.896 75.7426C58.7493 75.7426 58.6025 75.7745 58.4911 75.8377Z" fill="white"/>
</g>
</mask>
<g mask="url(#mask3_1_313)">
<path id="Fill-71" d="M58.8066 78.6265V79.4097L59.3018 79.5136L62.1383 77.7293L62.2185 76.7573C62.2185 76.7573 59.5069 78.4472 59.3011 78.5301C59.094 78.6123 58.8066 78.6265 58.8066 78.6265Z" fill="#650300"/>
</g>
</g>
</g>
</g>
<g id="Group-80">
<path id="Fill-74" d="M55.6525 74.1106V73.3213H54.4944L52.8139 72.3697C52.5911 72.2433 52.2284 72.2433 52.0049 72.3697L50.3245 73.3213H49.1671V74.1106C49.1671 74.1934 49.2228 74.2763 49.3341 74.3401L52.0049 75.8515C52.2284 75.9785 52.5911 75.9785 52.8139 75.8515L55.4854 74.3401C55.5968 74.2763 55.6525 74.1934 55.6525 74.1106Z" fill="#E02723"/>
<path id="Fill-76" d="M55.4854 73.5501L52.8139 75.0621C52.5911 75.1884 52.2284 75.1884 52.0049 75.0621L49.3341 73.5501C49.1106 73.423 49.1106 73.2186 49.3341 73.0916L52.0049 71.5802C52.2284 71.4532 52.5911 71.4532 52.8139 71.5802L55.4854 73.0916C55.7088 73.2186 55.7088 73.423 55.4854 73.5501Z" fill="#686868"/>
<path id="Fill-78" d="M50.7095 59.0936V73.0948H50.7108C50.7176 73.3367 50.882 73.5771 51.2074 73.7612C51.8717 74.1368 52.9483 74.1368 53.6119 73.7612C53.9372 73.5771 54.1023 73.3367 54.1091 73.0948H54.1105V59.0936H50.7095Z" fill="#7C7C7C"/>
</g>
<g id="Group-83">
<g id="Fill-81-Clipped">
<g id="Mask group_5">
<mask id="mask4_1_313" style="mask-type:luminance" maskUnits="userSpaceOnUse" x="50" y="59" width="5" height="16">
<g id="Group_5">
<path id="Vector_5" d="M50.7097 59.0936V73.0949H50.7111C50.7179 73.336 50.8822 73.5772 51.2076 73.7612C51.8719 74.1369 52.9485 74.1369 53.6121 73.7612C53.9375 73.5772 54.1025 73.336 54.1093 73.0949H54.1107V59.0936H50.7097Z" fill="white"/>
</g>
</mask>
<g mask="url(#mask4_1_313)">
<path id="Fill-81" d="M53.1638 60.8852V73.9804L53.6093 73.8479L54.1106 73.4356V59.2115L53.4653 59.3535L53.1638 60.8852Z" fill="#650300"/>
</g>
</g>
</g>
</g>
<g id="Group-86">
<g id="Fill-84-Clipped">
<g id="Mask group_6">
<mask id="mask5_1_313" style="mask-type:luminance" maskUnits="userSpaceOnUse" x="49" y="72" width="7" height="4">
<g id="Group_6">
<path id="Vector_6" d="M52.0051 72.3702L50.3246 73.3211H49.1672V74.1111C49.1672 74.1933 49.2229 74.2768 49.3343 74.34L52.0051 75.852C52.2279 75.9783 52.5913 75.9783 52.8147 75.852L55.4855 74.34C55.5962 74.2768 55.6526 74.1933 55.6526 74.1111V73.3211H54.4945L52.8147 72.3702C52.7026 72.3063 52.5566 72.2751 52.4099 72.2751C52.2632 72.2751 52.1165 72.3063 52.0051 72.3702Z" fill="white"/>
</g>
</mask>
<g mask="url(#mask5_1_313)">
<path id="Fill-84" d="M52.3206 75.1587V75.9419L52.8158 76.0458L55.6523 74.2607L55.7325 73.2894C55.7325 73.2894 53.0209 74.9794 52.8144 75.0616C52.6079 75.1444 52.3206 75.1587 52.3206 75.1587Z" fill="#650300"/>
</g>
</g>
</g>
</g>
<g id="Group-93">
<path id="Fill-87" d="M35.3574 62.4381V61.6482H34.1999L32.5195 60.6972C32.296 60.5709 31.9333 60.5709 31.7098 60.6972L30.0294 61.6482H28.8719V62.4381C28.8719 62.521 28.9276 62.6039 29.039 62.6677L31.7098 64.179C31.9333 64.3061 32.296 64.3061 32.5195 64.179L35.1903 62.6677C35.3017 62.6039 35.3574 62.521 35.3574 62.4381Z" fill="#E02723"/>
<path id="Fill-89" d="M35.1902 61.8776L32.5195 63.3896C32.296 63.5159 31.9333 63.5159 31.7098 63.3896L29.039 61.8776C28.8155 61.7506 28.8155 61.5461 29.039 61.4191L31.7098 59.9078C31.9333 59.7807 32.296 59.7807 32.5195 59.9078L35.1902 61.4191C35.4137 61.5461 35.4137 61.7506 35.1902 61.8776Z" fill="#686868"/>
<path id="Fill-91" d="M30.4144 47.4204V61.4224H30.4157C30.4225 61.6642 30.5869 61.904 30.9123 62.0887C31.5766 62.4643 32.6532 62.4643 33.3168 62.0887C33.6428 61.904 33.8072 61.6642 33.814 61.4224H33.8153V47.4204H30.4144Z" fill="#7C7C7C"/>
</g>
<g id="Group-96">
<g id="Fill-94-Clipped">
<g id="Mask group_7">
<mask id="mask6_1_313" style="mask-type:luminance" maskUnits="userSpaceOnUse" x="30" y="47" width="4" height="16">
<g id="Group_7">
<path id="Vector_7" d="M30.4146 47.4208V61.4221H30.4159C30.422 61.6639 30.5871 61.9037 30.9124 62.0885C31.5767 62.4648 32.6533 62.4648 33.317 62.0885C33.643 61.9037 33.8074 61.6639 33.8142 61.4221H33.8155V47.4208H30.4146Z" fill="white"/>
</g>
</mask>
<g mask="url(#mask6_1_313)">
<path id="Fill-94" d="M32.8687 49.2128V62.308L33.3142 62.1755L33.8155 61.7632V47.5391L33.1702 47.6811L32.8687 49.2128Z" fill="#650300"/>
</g>
</g>
</g>
</g>
<g id="Group-99">
<g id="Fill-97-Clipped">
<g id="Mask group_8">
<mask id="mask7_1_313" style="mask-type:luminance" maskUnits="userSpaceOnUse" x="28" y="60" width="8" height="5">
<g id="Group_8">
<path id="Vector_8" d="M31.7099 60.6973L30.0301 61.6476H28.872V62.4382C28.872 62.5211 28.9277 62.604 29.0398 62.6678L31.7099 64.1791C31.9334 64.3062 32.2961 64.3062 32.5196 64.1791L35.1903 62.6678C35.3017 62.604 35.3574 62.5211 35.3574 62.4382V61.6476H34.2L32.5196 60.6973C32.4082 60.6342 32.2614 60.6022 32.1147 60.6022C31.968 60.6022 31.822 60.6342 31.7099 60.6973Z" fill="white"/>
</g>
</mask>
<g mask="url(#mask7_1_313)">
<path id="Fill-97" d="M32.0255 63.4861V64.2693L32.5207 64.3732L35.3572 62.5881L35.438 61.6168C35.438 61.6168 32.7258 63.3068 32.52 63.389C32.3128 63.4718 32.0255 63.4861 32.0255 63.4861Z" fill="#650300"/>
</g>
</g>
</g>
</g>
<g id="Group-106">
<path id="Fill-100" d="M68.2809 74.1597V73.3698H67.1228L65.4423 72.4188C65.2189 72.2918 64.8568 72.2918 64.6334 72.4188L62.9529 73.3698H61.7948V74.1597C61.7948 74.2426 61.8505 74.3255 61.9626 74.3886L64.6334 75.9006C64.8568 76.027 65.2189 76.027 65.4423 75.9006L68.1131 74.3886C68.2252 74.3255 68.2809 74.2426 68.2809 74.1597Z" fill="#E02723"/>
<path id="Fill-102" d="M68.1131 73.5985L65.4423 75.1112C65.2188 75.2375 64.8568 75.2375 64.6333 75.1112L61.9625 73.5985C61.7391 73.4722 61.7391 73.2671 61.9625 73.1407L64.6333 71.6287C64.8568 71.5017 65.2188 71.5017 65.4423 71.6287L68.1131 73.1407C68.3366 73.2671 68.3366 73.4722 68.1131 73.5985Z" fill="#686868"/>
<path id="Fill-104" d="M63.3378 59.142V73.144H63.3392C63.3453 73.3858 63.5104 73.6256 63.8357 73.8103C64.5 74.1853 65.5766 74.1853 66.2402 73.8103C66.5656 73.6256 66.7307 73.3858 66.7368 73.144H66.7381V59.142H63.3378Z" fill="#7C7C7C"/>
</g>
<g id="Group-109">
<g id="Fill-107-Clipped">
<g id="Mask group_9">
<mask id="mask8_1_313" style="mask-type:luminance" maskUnits="userSpaceOnUse" x="63" y="59" width="4" height="16">
<g id="Group_9">
<path id="Vector_9" d="M63.3376 59.1418V73.1445H63.3389C63.3451 73.3856 63.5101 73.6254 63.8362 73.8101C64.4998 74.1851 65.5764 74.1851 66.24 73.8101C66.5654 73.6254 66.7304 73.3856 66.7365 73.1445H66.7379V59.1418H63.3376Z" fill="white"/>
</g>
</mask>
<g mask="url(#mask8_1_313)">
<path id="Fill-107" d="M65.7922 60.9343V74.0294L66.2371 73.8963L66.7384 73.484V59.2606L66.0938 59.4019L65.7922 60.9343Z" fill="#650300"/>
</g>
</g>
</g>
</g>
<g id="Group-112">
<g id="Fill-110-Clipped">
<g id="Mask group_10">
<mask id="mask9_1_313" style="mask-type:luminance" maskUnits="userSpaceOnUse" x="61" y="72" width="8" height="4">
<g id="Group_10">
<path id="Vector_10" d="M64.6329 72.4184L62.9531 73.37H61.795V74.16C61.795 74.2429 61.85 74.3257 61.9628 74.3882L64.6329 75.9002C64.857 76.0265 65.2184 76.0265 65.4425 75.9002L68.1133 74.3882C68.2254 74.3257 68.2811 74.2429 68.2811 74.16V73.37H67.123L65.4425 72.4184C65.3305 72.3552 65.1844 72.3233 65.0377 72.3233C64.8917 72.3233 64.7449 72.3552 64.6329 72.4184Z" fill="white"/>
</g>
</mask>
<g mask="url(#mask9_1_313)">
<path id="Fill-110" d="M64.949 75.2071V75.9903L65.4441 76.0942L68.2807 74.3098L68.3608 73.3385C68.3608 73.3385 65.6493 75.0278 65.4428 75.1107C65.2356 75.1928 64.949 75.2071 64.949 75.2071Z" fill="#650300"/>
</g>
</g>
</g>
</g>
<g id="Group-119">
<path id="Fill-113" d="M74.1712 70.7529V69.9636H73.0131L71.3327 69.012C71.1092 68.8857 70.7472 68.8857 70.5237 69.012L68.8432 69.9636H67.6851V70.7529C67.6851 70.8358 67.7408 70.9186 67.8529 70.9825L70.5237 72.4938C70.7472 72.6208 71.1092 72.6208 71.3327 72.4938L74.0035 70.9825C74.1155 70.9186 74.1712 70.8358 74.1712 70.7529Z" fill="#E02723"/>
<path id="Fill-115" d="M74.0034 70.1923L71.3326 71.7043C71.1091 71.8307 70.7471 71.8307 70.5236 71.7043L67.8528 70.1923C67.6294 70.0653 67.6294 69.8609 67.8528 69.7338L70.5236 68.2225C70.7471 68.0955 71.1091 68.0955 71.3326 68.2225L74.0034 69.7338C74.2269 69.8609 74.2269 70.0653 74.0034 70.1923Z" fill="#686868"/>
<path id="Fill-117" d="M69.2281 55.7358V69.7371H69.2295C69.2356 69.9789 69.4007 70.2194 69.726 70.4035C70.3903 70.7791 71.4663 70.7791 72.1299 70.4035C72.4559 70.2194 72.621 69.9789 72.6271 69.7371H72.6285V55.7358H69.2281Z" fill="#7C7C7C"/>
</g>
<g id="Group-122">
<g id="Fill-120-Clipped">
<g id="Mask group_11">
<mask id="mask10_1_313" style="mask-type:luminance" maskUnits="userSpaceOnUse" x="69" y="55" width="4" height="16">
<g id="Group_11">
<path id="Vector_11" d="M69.2286 55.7355V69.7374H69.2293C69.2354 69.9792 69.4005 70.2197 69.7258 70.4031C70.3908 70.7794 71.4668 70.7794 72.1304 70.4031C72.4564 70.2197 72.6215 69.9792 72.6276 69.7374H72.6283V55.7355H69.2286Z" fill="white"/>
</g>
</mask>
<g mask="url(#mask10_1_313)">
<path id="Fill-120" d="M71.6824 57.5275V70.6227L72.1273 70.4903L72.6286 70.078V55.8539L71.984 55.9958L71.6824 57.5275Z" fill="#650300"/>
</g>
</g>
</g>
</g>
<g id="Group-125">
<g id="Fill-123-Clipped">
<g id="Mask group_12">
<mask id="mask11_1_313" style="mask-type:luminance" maskUnits="userSpaceOnUse" x="67" y="68" width="8" height="5">
<g id="Group_12">
<path id="Vector_12" d="M70.524 69.0126L68.8435 69.9636H67.6854V70.7529C67.6854 70.8357 67.7411 70.9186 67.8532 70.9824L70.524 72.4938C70.7468 72.6208 71.1095 72.6208 71.333 72.4938L74.0038 70.9824C74.1152 70.9186 74.1715 70.8357 74.1715 70.7529V69.9636H73.0134L71.333 69.0126C71.2216 68.9495 71.0749 68.9175 70.9281 68.9175C70.7814 68.9175 70.6354 68.9495 70.524 69.0126Z" fill="white"/>
</g>
</mask>
<g mask="url(#mask11_1_313)">
<path id="Fill-123" d="M70.8394 71.8009V72.584L71.3345 72.688L74.1711 70.9029L74.2512 69.9316C74.2512 69.9316 71.5397 71.6215 71.3332 71.7037C71.126 71.7866 70.8394 71.8009 70.8394 71.8009Z" fill="#650300"/>
</g>
</g>
</g>
</g>
<g id="Group-132">
<path id="Fill-126" d="M80.0609 67.557V66.767H78.9028L77.2224 65.8161C76.9989 65.6897 76.6369 65.6897 76.4134 65.8161L74.7329 66.767H73.5748V67.557C73.5748 67.6398 73.6312 67.7227 73.7426 67.7866L76.4134 69.2979C76.6369 69.4249 76.9989 69.4249 77.2224 69.2979L79.8932 67.7866C80.0052 67.7227 80.0609 67.6398 80.0609 67.557Z" fill="#E02723"/>
<path id="Fill-128" d="M79.8931 66.9964L77.2223 68.5084C76.9989 68.6348 76.6368 68.6348 76.4133 68.5084L73.7426 66.9964C73.5191 66.8694 73.5191 66.6649 73.7426 66.5379L76.4133 65.0266C76.6368 64.8996 76.9989 64.8996 77.2223 65.0266L79.8931 66.5379C80.1166 66.6649 80.1166 66.8694 79.8931 66.9964Z" fill="#686868"/>
<path id="Fill-130" d="M75.1178 52.5392V66.5412H75.1192C75.1259 66.783 75.2903 67.0228 75.6157 67.2075C76.28 67.5832 77.3566 67.5832 78.0202 67.2075C78.3456 67.0228 78.5106 66.783 78.5167 66.5412H78.5181V52.5392H75.1178Z" fill="#7C7C7C"/>
</g>
<g id="Group-135">
<g id="Fill-133-Clipped">
<g id="Mask group_13">
<mask id="mask12_1_313" style="mask-type:luminance" maskUnits="userSpaceOnUse" x="75" y="52" width="4" height="16">
<g id="Group_13">
<path id="Vector_13" d="M75.1177 52.5389V66.5416H75.1191C75.1259 66.7827 75.2903 67.0232 75.6163 67.2072C76.2799 67.5835 77.3565 67.5835 78.0202 67.2072C78.3455 67.0232 78.5106 66.7827 78.5167 66.5416H78.518V52.5389H75.1177Z" fill="white"/>
</g>
</mask>
<g mask="url(#mask12_1_313)">
<path id="Fill-133" d="M77.5721 54.3316V67.4268L78.017 67.2943L78.5183 66.882V52.658L77.8737 52.7999L77.5721 54.3316Z" fill="#650300"/>
</g>
</g>
</g>
</g>
<g id="Group-138">
<g id="Fill-136-Clipped">
<g id="Mask group_14">
<mask id="mask13_1_313" style="mask-type:luminance" maskUnits="userSpaceOnUse" x="73" y="65" width="8" height="5">
<g id="Group_14">
<path id="Vector_14" d="M76.413 65.8162L74.7332 66.7671H73.5751V67.5571C73.5751 67.6399 73.6308 67.7228 73.7429 67.7866L76.413 69.298C76.6372 69.425 76.9985 69.425 77.2227 69.298L79.8928 67.7866C80.0055 67.7228 80.0612 67.6399 80.0612 67.5571V66.7671H78.9025L77.2227 65.8162C77.1106 65.753 76.9646 65.7217 76.8179 65.7217C76.6718 65.7217 76.5251 65.753 76.413 65.8162Z" fill="white"/>
</g>
</mask>
<g mask="url(#mask13_1_313)">
<path id="Fill-136" d="M76.729 68.6051V69.3882L77.2242 69.4922L80.0607 67.7071L80.1409 66.7358C80.1409 66.7358 77.4293 68.4257 77.2228 68.5079C77.0163 68.5908 76.729 68.6051 76.729 68.6051Z" fill="#650300"/>
</g>
</g>
</g>
</g>
<g id="Group-145">
<path id="Fill-139" d="M41.4998 65.9935V65.2035H40.3417L38.6613 64.2526C38.4378 64.1255 38.0758 64.1255 37.8523 64.2526L36.1718 65.2035H35.0137V65.9935C35.0137 66.0763 35.0694 66.1592 35.1815 66.2224L37.8523 67.7344C38.0758 67.8607 38.4378 67.8607 38.6613 67.7344L41.3321 66.2224C41.4441 66.1592 41.4998 66.0763 41.4998 65.9935Z" fill="#E02723"/>
<path id="Fill-141" d="M41.332 65.4323L38.6612 66.945C38.4378 67.0713 38.0757 67.0713 37.8523 66.945L35.1815 65.4323C34.958 65.306 34.958 65.1009 35.1815 64.9745L37.8523 63.4625C38.0757 63.3355 38.4378 63.3355 38.6612 63.4625L41.332 64.9745C41.5555 65.1009 41.5555 65.306 41.332 65.4323Z" fill="#686868"/>
<path id="Fill-143" d="M36.5567 50.9758V64.9778H36.5581C36.5642 65.2196 36.7292 65.4594 37.0546 65.6441C37.7189 66.0191 38.7955 66.0191 39.4591 65.6441C39.7845 65.4594 39.9495 65.2196 39.9556 64.9778H39.957V50.9758H36.5567Z" fill="#7C7C7C"/>
</g>
<g id="Group-148">
<g id="Fill-146-Clipped">
<g id="Mask group_15">
<mask id="mask14_1_313" style="mask-type:luminance" maskUnits="userSpaceOnUse" x="36" y="50" width="4" height="16">
<g id="Group_15">
<path id="Vector_15" d="M36.5569 50.976V64.9779H36.5583C36.5644 65.219 36.7295 65.4595 37.0548 65.6443C37.7191 66.0192 38.7957 66.0192 39.4594 65.6443C39.7847 65.4595 39.9498 65.219 39.9552 64.9779H39.9572V50.976H36.5569Z" fill="white"/>
</g>
</mask>
<g mask="url(#mask14_1_313)">
<path id="Fill-146" d="M39.011 52.7681V65.8633L39.4559 65.7301L39.9572 65.3178V51.0944L39.3126 51.2357L39.011 52.7681Z" fill="#650300"/>
</g>
</g>
</g>
</g>
<g id="Group-151">
<g id="Fill-149-Clipped">
<g id="Mask group_16">
<mask id="mask15_1_313" style="mask-type:luminance" maskUnits="userSpaceOnUse" x="35" y="64" width="7" height="4">
<g id="Group_16">
<path id="Vector_16" d="M37.8523 64.2518L36.1718 65.2034H35.0137V65.9934C35.0137 66.0763 35.0694 66.1591 35.1815 66.2223L37.8523 67.7343C38.0758 67.8607 38.4378 67.8607 38.662 67.7343L41.3321 66.2223C41.4441 66.1591 41.4998 66.0763 41.4998 65.9934V65.2034H40.3417L38.662 64.2518C38.5499 64.1887 38.4032 64.1574 38.2571 64.1574C38.1104 64.1574 37.9637 64.1887 37.8523 64.2518Z" fill="white"/>
</g>
</mask>
<g mask="url(#mask15_1_313)">
<path id="Fill-149" d="M38.168 67.0408V67.824L38.6631 67.9279L41.4997 66.1436L41.5798 65.1722C41.5798 65.1722 38.8683 66.8615 38.6618 66.9444C38.4546 67.0266 38.168 67.0408 38.168 67.0408Z" fill="#650300"/>
</g>
</g>
</g>
</g>
<g id="Group-164">
<path id="Fill-152" d="M61.4779 63.7077L27.7499 44.2351V46.5092L61.4779 65.9818V63.7077Z" fill="#E02723"/>
<path id="Fill-154" d="M83.022 51.1994L61.4777 63.7077V65.9818L83.022 53.4735V51.1994Z" fill="#650300"/>
<path id="Fill-156" d="M83.022 51.1994L61.4777 63.7077L27.7498 44.2351L49.2941 31.7268L83.022 51.1994Z" fill="#CECDCC"/>
<path id="Fill-158" d="M66.1601 27.3462L44.6165 39.8559L27.7502 41.1845L49.2931 28.6748L66.1601 27.3462Z" fill="#CECDCC"/>
<path id="Fill-160" d="M44.6168 39.8552L27.7505 41.1844V43.4524L61.4771 62.9257V60.6509L44.6168 39.8552Z" fill="#E02723"/>
<path id="Fill-162" d="M83.0194 48.1474L66.1605 27.3462L44.6169 39.8559L61.4771 60.6509L61.4778 60.6537V62.9278L83.0221 50.4202V48.1454L83.0194 48.1474Z" fill="#650300"/>
</g>
</g>
</g>
</g>
</g>
</g>
</g>
</g>
<defs>
<clipPath id="clip0_1_313">
<rect width="108" height="108" fill="white"/>
</clipPath>
</defs>
</svg>
