<svg width="40" height="40" viewBox="0 0 40 40" fill="none" xmlns="http://www.w3.org/2000/svg">
<g id="getbootstrap_ar21_ebe4405ebc 1" clip-path="url(#clip0_1_196)">
<g id="Group">
<g id="Group_2">
<path id="Vector" d="M6.51605 -0.00292969H33.4772C37.0078 -0.00292969 39.9212 2.88577 39.9212 6.44108V33.5751C39.9212 37.1057 37.0325 40.0191 33.4772 40.0191H6.51605C2.98542 40.0191 0.0720367 37.1304 0.0720367 33.5751V6.44108C0.0967264 2.88577 2.93604 -0.00292969 6.51605 -0.00292969Z" fill="url(#paint0_linear_1_196)"/>
<path id="Vector_2" d="M20.2929 17.2305C21.3299 17.2305 22.0706 17.0083 22.6137 16.5886C23.1569 16.1689 23.3791 15.5023 23.3791 14.6381C23.3791 13.774 23.1322 13.1321 22.6137 12.6876C22.0953 12.2185 21.3299 11.9963 20.2929 11.9963H16.7129V17.2305H20.2929ZM20.5151 28.0693C21.799 28.0693 22.8113 27.8224 23.4532 27.2546C24.0951 26.6867 24.4408 25.8719 24.4408 24.7856C24.4408 23.6992 24.0951 22.9339 23.4532 22.366C22.8113 21.7981 21.8237 21.5512 20.5151 21.5512H16.7129V28.0199L20.5151 28.0693ZM26.5147 19.1316C27.8973 19.5267 28.9837 20.2427 29.7491 21.329C30.5144 22.4154 30.8601 23.6992 30.8601 25.2547C30.8601 27.6249 30.0453 29.4519 28.3911 30.6124C26.7616 31.7728 24.2926 32.39 20.9595 32.39H10.2442V7.60156H19.9472C23.4038 7.60156 25.9468 8.12004 27.5023 9.15701C29.0577 10.194 29.8231 11.8729 29.8231 14.169C29.8231 15.3788 29.5269 16.4158 28.959 17.2305C28.4158 18.0947 27.6011 18.7366 26.5147 19.1316Z" fill="white"/>
</g>
</g>
</g>
<defs>
<linearGradient id="paint0_linear_1_196" x1="2.36759" y1="37.9321" x2="4.50667" y2="35.7556" gradientUnits="userSpaceOnUse">
<stop stop-color="#181632"/>
<stop offset="1" stop-color="#612D51"/>
</linearGradient>
<clipPath id="clip0_1_196">
<rect width="40" height="40" fill="white"/>
</clipPath>
</defs>
</svg>
