<svg width="30" height="31" viewBox="0 0 30 31" fill="none" xmlns="http://www.w3.org/2000/svg">
<g id="linkedin 1" clip-path="url(#clip0_1_2934)">
<g id="Clip path group">
<mask id="mask0_1_2934" style="mask-type:luminance" maskUnits="userSpaceOnUse" x="0" y="0" width="30" height="31">
<g id="clip0_1909_4795">
<path id="Vector" d="M30 0.0458984H0V30.0459H30V0.0458984Z" fill="white"/>
</g>
</mask>
<g mask="url(#mask0_1_2934)">
<g id="Group">
<path id="Vector_2" d="M15 0.0458984C6.717 0.0458984 0 6.76289 0 15.0459C0 23.3289 6.717 30.0459 15 30.0459C23.283 30.0459 30 23.3289 30 15.0459C30 6.76289 23.283 0.0458984 15 0.0458984ZM10.6412 22.7217H6.98799V11.731H10.6412V22.7217ZM8.8147 10.2302H8.79089C7.565 10.2302 6.77216 9.38634 6.77216 8.33165C6.77216 7.25316 7.58926 6.43262 8.83896 6.43262C10.0887 6.43262 10.8577 7.25316 10.8815 8.33165C10.8815 9.38634 10.0887 10.2302 8.8147 10.2302ZM23.8138 22.7217H20.1611V16.8419C20.1611 15.3643 19.6321 14.3565 18.3103 14.3565C17.3012 14.3565 16.7001 15.0363 16.436 15.6925C16.3394 15.9273 16.3158 16.2555 16.3158 16.584V22.7217H12.6629C12.6629 22.7217 12.7107 12.7621 12.6629 11.731H16.3158V13.2872C16.8013 12.5383 17.6699 11.4731 19.6081 11.4731C22.0116 11.4731 23.8138 13.0439 23.8138 16.4196V22.7217Z" fill="white"/>
</g>
</g>
</g>
</g>
<defs>
<clipPath id="clip0_1_2934">
<rect width="30" height="31" fill="white"/>
</clipPath>
</defs>
</svg>
