<svg width="108" height="108" viewBox="0 0 108 108" fill="none" xmlns="http://www.w3.org/2000/svg">
    <g id="manufacturing 1" clip-path="url(#clip0_718_509)">
        <g id="Main-page">
            <g id="ScnSoft-COM-HomePage-1440_illustrations">
                <g id="Industry">
                    <g id="3">
                        <g id="icon_2_5">
                            <g id="Group-81">
                                <g id="Group-80">
                                    <path id="Fill-2"
                                        d="M96.2548 71.7738H96.2671V65.9404L85.4209 63.1352L61.3736 49.2514C57.3259 46.9141 51.2019 46.6594 47.6956 48.6849L23.0641 62.9049L11.5665 65.628V71.3866C11.5584 71.515 11.5611 71.6454 11.5665 71.7738V71.8635H11.5706C11.6847 73.3408 12.8055 74.8725 14.9023 76.0823L46.4478 94.2962C50.4982 96.6335 56.6216 96.8882 60.1278 94.8641L93.9033 75.3623C95.5573 74.4086 96.3221 73.1167 96.2548 71.7738Z"
                                        fill="#BFC3C7" />
                                    <path id="Fill-4"
                                        d="M93.904 69.2167L60.1279 88.7185C56.6216 90.742 50.4982 90.4873 46.4486 88.1507L14.9024 69.9381C10.8527 67.5994 10.4132 64.0646 13.9195 62.0398L47.6957 42.5394C51.2019 40.5145 57.3253 40.7686 61.3736 43.1059L92.9212 61.3198C96.9708 63.6564 97.4103 67.1932 93.904 69.2167Z"
                                        fill="#E9E8E7" />
                                    <path id="Fill-6"
                                        d="M30.7402 48.9222L52.2587 36.418L52.2397 43.1017L30.7219 55.6066L30.7402 48.9222Z"
                                        fill="#ADADAD" />
                                    <path id="Fill-8"
                                        d="M40.5116 54.5638L62.0301 42.0596L62.0111 48.7433L40.4933 61.2483L40.5116 54.5638Z"
                                        fill="#ADADAD" />
                                    <path id="Fill-10"
                                        d="M50.2831 60.2053L71.8016 47.7004L71.7473 66.7872L50.2294 79.2928L50.2831 60.2053Z"
                                        fill="#ADADAD" />
                                    <path id="Fill-12"
                                        d="M50.2831 60.2053L50.2294 79.2928C40.3913 73.6122 30.5551 67.9338 20.7203 62.2553L20.7543 50.0289L30.7405 48.9224L30.7215 55.6061L40.5115 54.5635L40.4931 61.2479L50.2831 60.2053Z"
                                        fill="#E02723" />
                                    <path id="Fill-14"
                                        d="M24.651 62.27L22.7396 61.1662L22.7593 54.3432L24.6693 55.447L24.651 62.27ZM26.9529 63.5993L25.1101 62.5356L25.1292 55.7119L26.9719 56.7756L26.9529 63.5993ZM29.2637 64.9326L27.4114 63.8642L27.4318 57.0412L29.2827 58.1096L29.2637 64.9326ZM31.6458 66.3088L29.7406 65.2091L29.7596 58.3861L31.6649 59.4851L31.6458 66.3088ZM33.9471 67.6374L32.105 66.573L32.124 59.75L33.9668 60.8144L33.9471 67.6374ZM36.2586 68.9721L34.407 67.9023L34.426 61.0793L36.2776 62.1484L36.2586 68.9721ZM38.6407 70.3503L36.7354 69.2506L36.7544 62.4276L38.6597 63.5273L38.6407 70.3503ZM39.1189 63.7929L40.9644 64.8579L40.9454 71.6816L39.0992 70.6152L39.1189 63.7929ZM43.2535 73.0136L41.4012 71.9445L41.4202 65.1215L43.2725 66.1906L43.2535 73.0136ZM45.6349 74.3884L43.7303 73.2887L43.7493 66.4657L45.6546 67.5654L45.6349 74.3884ZM47.9402 75.7197L46.0941 74.654L46.1138 67.831L47.9593 68.8967L47.9402 75.7197ZM50.2538 77.0551L48.3994 75.9846L48.4184 69.1616L50.2735 70.2321L50.2538 77.0551ZM22.5175 53.6531L22.2886 53.7855L22.2668 61.4454C31.6798 66.8793 41.0826 72.3126 50.4956 77.7466L50.7245 77.6128L50.7462 69.9536C41.3359 64.521 31.927 59.0857 22.5175 53.6531Z"
                                        fill="#E2E9EE" />
                                    <path id="Fill-16"
                                        d="M30.7249 47.7063L52.2434 35.2014L52.2393 36.6156L30.7208 49.1205L30.7249 47.7063Z"
                                        fill="#ADADAD" />
                                    <path id="Fill-18"
                                        d="M20.7393 48.8128L42.2577 36.3079L52.2433 35.2014L30.7248 47.7063L20.7393 48.8128Z"
                                        fill="#CECDCC" />
                                    <path id="Fill-20"
                                        d="M30.7249 47.7063L30.7208 49.1205L20.7353 50.227L20.7393 48.8128L30.7249 47.7063Z"
                                        fill="#E02723" />
                                    <path id="Fill-22"
                                        d="M40.4964 53.3479L62.0149 40.843L62.0108 42.2572L40.4923 54.7621L40.4964 53.3479Z"
                                        fill="#ADADAD" />
                                    <path id="Fill-24"
                                        d="M30.7064 54.3906L52.2242 41.8857L62.0148 40.843L40.4963 53.3479L30.7064 54.3906Z"
                                        fill="#CECDCC" />
                                    <path id="Fill-26"
                                        d="M40.4964 53.3479L40.4923 54.7621L30.7017 55.8047L30.7064 54.3905L40.4964 53.3479Z"
                                        fill="#E02723" />
                                    <path id="Fill-28"
                                        d="M40.4778 60.0322L61.9956 47.5273L71.7862 46.4846L50.2678 58.9895L40.4778 60.0322Z"
                                        fill="#CECDCC" />
                                    <path id="Fill-30"
                                        d="M50.2678 58.9895L71.7863 46.4846L71.7822 47.8988L50.2637 60.4037L50.2678 58.9895Z"
                                        fill="#5D3839" />
                                    <path id="Fill-32"
                                        d="M42.6508 50.0386L52.9706 55.9962L52.9482 57.765L42.6284 58.7852L42.6508 50.0386Z"
                                        fill="#E02723" />
                                    <path id="Fill-34"
                                        d="M52.9709 55.9967L69.878 46.1714L69.8556 51.8655L52.9485 61.6908L52.9709 55.9967Z"
                                        fill="#650300" />
                                    <path id="Fill-36"
                                        d="M42.6515 48.9547L59.5586 39.1294L59.5579 39.3406L42.6508 49.1659L42.6515 48.9547Z"
                                        fill="#A2AAB1" />
                                    <path id="Fill-38"
                                        d="M42.6508 49.1656L59.5579 39.3403L69.8777 45.2987L52.9706 55.124L42.6508 49.1656Z"
                                        fill="#B5BEC5" />
                                    <path id="Fill-40"
                                        d="M52.9722 54.638L69.88 44.8127L69.878 46.1712L52.9709 55.9965L52.9722 54.638Z"
                                        fill="#650300" />
                                    <path id="Fill-42"
                                        d="M42.6522 48.6795L59.5593 38.8542L69.8797 44.8133L52.972 54.6379L42.6522 48.6795Z"
                                        fill="#CECDCC" />
                                    <path id="Fill-44"
                                        d="M52.9722 54.638L52.9709 55.9965L42.6511 50.0389L42.6518 48.9548L42.6525 48.6797L52.9722 54.638Z"
                                        fill="#E02723" />
                                    <path id="Fill-46"
                                        d="M40.4778 60.0321L50.2678 58.9895L50.2637 60.4037L40.4737 61.4463L40.4778 60.0321Z"
                                        fill="#E02723" />
                                    <path id="Fill-48"
                                        d="M59.3965 29.6335C58.1121 28.8659 56.0017 28.8449 54.6812 29.5859C53.3594 30.327 53.3295 31.5496 54.6133 32.3165C55.8977 33.0841 58.0088 33.1058 59.3286 32.3647C60.6504 31.6237 60.6803 30.4004 59.3965 29.6335Z"
                                        fill="#650300" />
                                    <path id="Fill-50"
                                        d="M62.544 46.1874C62.544 46.1738 62.5427 46.1623 62.5433 46.1487C62.5454 46.0889 62.5447 46.0305 62.5413 45.9707C62.5406 45.9578 62.542 45.9456 62.5406 45.9327C62.5399 45.9252 62.5386 45.9184 62.5379 45.9109C62.5311 45.8403 62.523 45.771 62.508 45.7004L60.5063 30.6415C60.5063 30.6456 60.5063 30.6497 60.507 30.6531C60.5063 30.6463 60.5056 30.6388 60.5042 30.632C60.4988 30.6089 60.4941 30.5858 60.49 30.5634C60.5036 30.6293 60.5097 30.6959 60.5117 30.7624C60.5131 30.7808 60.5138 30.7991 60.5138 30.8174C60.5131 30.8854 60.509 30.9533 60.4968 31.0205C60.4961 31.0239 60.4954 31.0266 60.4947 31.03C60.4832 31.0939 60.4642 31.1584 60.4411 31.2229C60.435 31.242 60.4275 31.2603 60.4193 31.2793C60.3983 31.3323 60.3725 31.3839 60.3439 31.4356C60.3351 31.4525 60.327 31.4682 60.3175 31.4845C60.2774 31.5524 60.2312 31.6189 60.1782 31.6835C60.1612 31.7039 60.1402 31.7222 60.1239 31.7412C60.0797 31.7908 60.0362 31.839 59.9846 31.8859C59.9758 31.8954 59.9642 31.9042 59.9541 31.9131C59.8963 31.9654 59.8338 32.0156 59.7666 32.0645C59.7503 32.0774 59.7333 32.0897 59.7163 32.1019C59.6335 32.1596 59.5472 32.216 59.4521 32.269C59.3719 32.3138 59.2877 32.3559 59.2021 32.3953C59.1743 32.4082 59.1451 32.4198 59.1165 32.4327C59.0575 32.4585 58.997 32.4836 58.9359 32.5067C58.9019 32.5196 58.8679 32.5319 58.8333 32.5441C58.7742 32.5645 58.7138 32.5848 58.6526 32.6032C58.618 32.614 58.5827 32.6242 58.548 32.6344C58.5086 32.6453 58.4685 32.6555 58.4285 32.6657C58.3035 32.6976 58.1751 32.7254 58.0454 32.7485C58.023 32.7526 58.0019 32.758 57.9788 32.7608C57.8878 32.7764 57.7961 32.7872 57.703 32.7988C57.6793 32.8015 57.6562 32.8056 57.6331 32.8076C57.5991 32.8117 57.5658 32.8131 57.5325 32.8151C57.4565 32.8219 57.3797 32.8287 57.3043 32.8321C57.2751 32.8334 57.2452 32.8334 57.2153 32.8348C57.1393 32.8375 57.0618 32.8389 56.9844 32.8389C56.9498 32.8382 56.9151 32.8375 56.8798 32.8362C56.8098 32.8348 56.7392 32.8321 56.6699 32.828C56.6332 32.826 56.5959 32.8232 56.5592 32.8205C56.4906 32.8151 56.4206 32.809 56.352 32.8015C56.3181 32.7974 56.2841 32.794 56.2508 32.7893C56.1679 32.7791 56.0871 32.7662 56.0056 32.7526C55.9873 32.7492 55.9682 32.7465 55.9492 32.7431C55.8507 32.7254 55.7522 32.7037 55.6544 32.6806C55.6252 32.6731 55.5967 32.665 55.5675 32.6568C55.5002 32.6392 55.4323 32.6208 55.3671 32.6005C55.325 32.5882 55.2836 32.5733 55.2428 32.5597C55.1885 32.5407 55.1355 32.523 55.0839 32.5033C55.0282 32.4816 54.9732 32.4578 54.9195 32.4347C54.8781 32.4171 54.8353 32.3994 54.7952 32.3804C54.6892 32.3301 54.586 32.2771 54.4882 32.2187C54.4345 32.1861 54.3876 32.1515 54.3381 32.1182C54.2973 32.0897 54.2531 32.0632 54.2151 32.0346C54.1703 32.0007 54.1329 31.9654 54.0928 31.93C54.0589 31.9008 54.0208 31.8723 53.9896 31.8417C53.9529 31.8051 53.9224 31.7677 53.8891 31.7303C53.8619 31.6998 53.8313 31.6699 53.8069 31.6386C53.777 31.5992 53.7539 31.5599 53.7274 31.5205C53.707 31.4892 53.6833 31.4586 53.6663 31.4274C53.6432 31.3866 53.6276 31.3445 53.6099 31.3038C53.5956 31.2725 53.578 31.2413 53.5671 31.2094C53.5515 31.1659 53.5427 31.1204 53.5325 31.0762C53.5257 31.047 53.5148 31.0185 53.5101 30.9886C53.5026 30.9397 53.5019 30.8901 53.5005 30.8412C53.4999 30.8161 53.4951 30.7909 53.4958 30.7658C53.4978 30.6918 53.5067 30.6171 53.523 30.5437L53.5073 30.6123C53.4999 30.651 53.4978 30.6904 53.4931 30.7291C53.4978 30.6931 53.4985 30.6578 53.5053 30.6218C52.8199 33.8931 52.1339 42.3979 51.4479 45.6691C51.2516 46.6038 51.7617 47.5812 52.983 48.3114C52.987 48.3141 52.9918 48.3162 52.9959 48.3195C53.112 48.3882 53.2343 48.452 53.3579 48.5145C53.3885 48.5288 53.419 48.5444 53.4503 48.5586C53.4836 48.5756 53.5168 48.5926 53.5508 48.6076C53.595 48.6286 53.6432 48.6442 53.6887 48.6639C53.7743 48.7006 53.8605 48.7366 53.9488 48.7699C53.9787 48.7808 54.0059 48.7943 54.0358 48.8052C54.0874 48.8242 54.1411 48.8392 54.1927 48.8568C54.2599 48.8792 54.3265 48.9017 54.3951 48.922C54.4236 48.9316 54.4508 48.9417 54.4793 48.9499C54.5473 48.9703 54.6179 48.9866 54.6872 49.0049C54.7429 49.0199 54.7979 49.0348 54.855 49.0484C54.8719 49.0531 54.8896 49.0586 54.9079 49.062C55.0261 49.0905 55.1464 49.1143 55.2673 49.1367C55.2856 49.1408 55.3033 49.1448 55.3223 49.1476C55.3223 49.1476 55.327 49.1489 55.3298 49.1496C55.469 49.1747 55.6096 49.1971 55.7516 49.2155C55.7672 49.2175 55.7835 49.2189 55.7991 49.2209C55.8473 49.227 55.8949 49.2304 55.9431 49.2359C56.0212 49.2447 56.0993 49.2549 56.1775 49.2617C56.2141 49.2644 56.2508 49.2657 56.2868 49.2685C56.3459 49.2732 56.405 49.2766 56.4648 49.28C56.515 49.2827 56.5646 49.2868 56.6149 49.2888C56.6713 49.2909 56.7276 49.2902 56.784 49.2916C56.8465 49.2929 56.909 49.2943 56.9722 49.2943C57.0041 49.2943 57.036 49.2963 57.0673 49.2963C57.1406 49.2956 57.2126 49.2909 57.286 49.2895C57.3519 49.2868 57.4184 49.2861 57.4843 49.2834C57.5047 49.282 57.5251 49.282 57.5455 49.2807C57.6188 49.2766 57.6915 49.2685 57.7648 49.2623C57.847 49.2556 57.9306 49.2501 58.0121 49.2413C58.0298 49.2392 58.0467 49.2393 58.0637 49.2365C58.1147 49.2311 58.1636 49.2216 58.2138 49.2148C58.3381 49.1992 58.4611 49.1815 58.5833 49.1605C58.6105 49.1557 58.6377 49.1537 58.6648 49.1489C58.7368 49.1353 58.8061 49.119 58.8775 49.1048C58.9325 49.0925 58.9882 49.0823 59.0425 49.0701C59.1716 49.0402 59.2986 49.0069 59.4242 48.9716C59.4514 48.9642 59.4793 48.958 59.5058 48.9499C59.5098 48.9485 59.5132 48.9479 59.5173 48.9465C59.6586 48.9057 59.7965 48.8589 59.933 48.8093C59.9724 48.7957 60.0104 48.7801 60.0491 48.7651C60.1531 48.7251 60.2563 48.6829 60.3568 48.6381C60.3969 48.6211 60.4356 48.6042 60.4737 48.5858C60.6055 48.524 60.7352 48.4608 60.8595 48.3909C60.9376 48.3474 61.013 48.3026 61.0857 48.2564L61.0877 48.255C61.1855 48.1932 61.2765 48.13 61.3635 48.0662C61.3859 48.0485 61.4083 48.0322 61.4307 48.0146C61.5041 47.9582 61.5734 47.9011 61.6399 47.8434C61.6488 47.8352 61.6596 47.8278 61.6685 47.8196L61.6793 47.8094C61.7072 47.7843 61.7323 47.7585 61.7588 47.7327C61.7873 47.7048 61.8165 47.6777 61.8437 47.6498C61.8682 47.624 61.8913 47.5975 61.915 47.5703C61.9368 47.5466 61.9605 47.5235 61.9809 47.499C61.9843 47.4949 61.9877 47.4902 61.9918 47.4848C62.0047 47.4698 62.0176 47.4528 62.0298 47.4365C62.0584 47.4005 62.0862 47.3652 62.1127 47.3292C62.127 47.3088 62.1405 47.2898 62.1541 47.2701C62.1664 47.2518 62.1806 47.2334 62.1915 47.2151C62.1976 47.2063 62.2017 47.1968 62.2078 47.1879C62.256 47.1098 62.3015 47.0324 62.3396 46.9536L62.3423 46.9482C62.345 46.942 62.347 46.9359 62.3504 46.9291C62.3824 46.8605 62.4102 46.7919 62.434 46.7226C62.4374 46.7118 62.4435 46.7023 62.4462 46.6914C62.4496 46.6812 62.451 46.6703 62.4544 46.6602C62.4747 46.5949 62.4931 46.5284 62.506 46.4611C62.508 46.4543 62.5107 46.4462 62.5128 46.4387C62.5128 46.4387 62.5128 46.4353 62.5135 46.4326C62.5277 46.3586 62.5359 46.2839 62.5406 46.2085C62.5413 46.2017 62.5433 46.1942 62.544 46.1874Z"
                                        fill="#650300" />
                                    <path id="Fill-52"
                                        d="M59.0735 31.9928C57.8984 32.6265 56.0203 32.6075 54.8778 31.952C53.736 31.2966 53.7625 30.2519 54.9376 29.6188C56.1127 28.9858 57.9908 29.0041 59.1333 29.6589C60.2758 30.3151 60.2479 31.3597 59.0735 31.9928ZM59.5225 29.3933C58.1715 28.5857 55.9483 28.5633 54.5592 29.3437C53.1688 30.1235 53.1369 31.4114 54.4879 32.2183C55.8389 33.0259 58.0621 33.049 59.4525 32.2686C60.8422 31.4888 60.8735 30.201 59.5225 29.3933Z"
                                        fill="#CECDCC" />
                                    <path id="Fill-54"
                                        d="M83.4911 42.3308L58.7707 56.6717V86.0817L83.4911 71.8005V42.3308Z"
                                        fill="#650300" />
                                    <path id="Fill-56"
                                        d="M58.771 56.63L50.0977 51.6226L49.9184 52.403L49.9198 52.4044L49.9191 52.437L49.8009 79.0179V79.0186L49.7907 80.8192L58.771 86.0814V56.63Z"
                                        fill="#E02723" />
                                    <path id="Fill-58"
                                        d="M74.8381 37.2834L50.1047 51.5931L50.0979 51.6223L58.7712 56.6888L83.4781 42.3309L74.8381 37.2834Z"
                                        fill="#CECDCC" />
                                    <path id="Fill-60"
                                        d="M55.1167 69.7413L56.2776 70.411L56.2667 74.3384L55.1045 73.668L55.1167 69.7413ZM53.6224 68.8779L54.7751 69.5436L54.7642 73.471L53.6109 72.8046L53.6224 68.8779ZM52.0853 67.9908L53.2807 68.6809L53.2699 72.6083L52.0737 71.9176L52.0853 67.9908ZM56.6145 74.6909L56.6274 70.2412L51.927 67.5276L51.7348 67.6397L51.7219 72.0887L56.4223 74.8023L56.6145 74.6909Z"
                                        fill="#E2E9EE" />
                                    <path id="Fill-62"
                                        d="M53.6395 62.6604L54.7929 63.3254L54.782 67.2528L53.628 66.5865L53.6395 62.6604ZM52.1024 61.7727L53.2985 62.4634L53.287 66.3902L52.0915 65.7001L52.1024 61.7727ZM56.2845 68.1202L55.1237 67.4505L55.1339 63.5231L56.2954 64.1935L56.2845 68.1202ZM51.7526 61.4188L51.739 65.8678L56.4401 68.5814L56.6316 68.4707L56.6445 64.021L51.9441 61.3074L51.7526 61.4188Z"
                                        fill="#E2E9EE" />
                                    <path id="Fill-64"
                                        d="M53.6396 75.2617L54.7929 75.9274L54.7821 79.8541L53.628 79.1885L53.6396 75.2617ZM52.1025 74.374L53.2986 75.0648L53.2871 78.9915L52.0916 78.3014L52.1025 74.374ZM56.2839 80.7222L55.1231 80.0511L55.1339 76.1244L56.2954 76.7955L56.2839 80.7222ZM51.7526 74.0208L51.7391 78.4691L56.4401 81.1834L56.6317 81.0707L56.6446 76.6223L51.9442 73.9087L51.7526 74.0208Z"
                                        fill="#E2E9EE" />
                                    <path id="Fill-66"
                                        d="M53.9705 56.4297L55.1246 57.0954L55.1137 61.0228L53.9597 60.3564L53.9705 56.4297ZM52.4341 55.5419L53.6302 56.2334L53.618 60.1595L52.4232 59.4693L52.4341 55.5419ZM56.6155 61.8902L55.4547 61.2198L55.4655 57.2924L56.6264 57.9628L56.6155 61.8902ZM52.0836 55.1887L52.0714 59.6378L56.771 62.3514L56.9626 62.24L56.9762 57.7902L52.2758 55.0767L52.0836 55.1887Z"
                                        fill="#E2E9EE" />
                                    <path id="Fill-68"
                                        d="M75.4689 43.55L75.454 45.2964L71.6746 47.4931L71.6889 45.746L75.4689 43.55Z"
                                        fill="#650300" />
                                    <path id="Fill-70"
                                        d="M71.6886 45.7461L71.6744 47.4925L66.1711 44.3156L66.1854 42.5686L71.6886 45.7461Z"
                                        fill="#E02723" />
                                    <path id="Fill-72"
                                        d="M75.4689 43.5501L71.6889 45.7461L66.1857 42.5692L69.965 40.3726L75.4689 43.5501Z"
                                        fill="#CECDCC" />
                                    <path id="Fill-74"
                                        d="M70.0436 46.7273L70.0293 48.4743L66.2493 50.671L66.2642 48.9233L70.0436 46.7273Z"
                                        fill="#650300" />
                                    <path id="Fill-76"
                                        d="M66.2639 48.9236L66.2496 50.6706L60.7464 47.4931L60.7607 45.7461L66.2639 48.9236Z"
                                        fill="#E02723" />
                                    <path id="Fill-78"
                                        d="M70.0436 46.7273L66.2642 48.9233L60.761 45.7465L64.5396 43.5498L70.0436 46.7273Z"
                                        fill="#CECDCC" />
                                </g>
                            </g>
                        </g>
                    </g>
                </g>
            </g>
        </g>
    </g>
    <defs>
        <clipPath id="clip0_718_509">
            <rect width="108" height="108" fill="white" />
        </clipPath>
    </defs>
</svg>