<svg width="109" height="108" viewBox="0 0 109 108" fill="none" xmlns="http://www.w3.org/2000/svg">
    <g id="professional-services-1 1" clip-path="url(#clip0_958_51)">
        <g id="Group">
            <g id="Group_2">
                <g id="Group_3">
                    <g id="Group_4">
                        <path id="Vector"
                            d="M85.955 63.1801L61.925 49.2751C57.875 46.9801 51.8 46.7101 48.29 48.7351L23.585 62.9101L12.11 65.6101V71.4151C12.11 71.5501 12.11 71.6851 12.11 71.8201V71.9551C12.245 73.4401 13.325 74.9251 15.485 76.1401L47.075 94.3651C51.125 96.6601 57.2 96.9301 60.71 94.9051L64.22 92.8801L94.46 75.4651C96.08 74.5201 96.89 73.1701 96.755 71.8201V66.0151L85.955 63.1801Z"
                            fill="#BFC3C7" />
                        <path id="Vector_2"
                            d="M94.46 69.2551L60.71 88.6951C57.2 90.7201 51.125 90.4501 47.075 88.1551L15.35 69.9301C11.3 67.6351 10.895 63.9901 14.405 61.9651L48.155 42.5251C51.665 40.5001 57.74 40.7701 61.79 43.0651L93.38 61.2901C97.43 63.7201 97.97 67.2301 94.46 69.2551Z"
                            fill="#E9E8E7" />
                    </g>
                    <g id="Group_5">
                        <path id="Vector_3"
                            d="M31.8199 57.5099L66.7849 77.7599V73.3049L31.8199 53.0549V57.5099Z"
                            fill="#530402" />
                        <path id="Vector_4"
                            d="M66.7849 73.305V77.76L76.3699 72.225V67.77L66.7849 73.305Z"
                            fill="#D0140F" />
                        <g id="Group_6">
                            <path id="Vector_5"
                                d="M66.785 49.0049C66.785 48.7349 66.785 48.5999 66.65 48.3299C66.65 48.1949 66.515 47.9249 66.515 47.7899C66.515 47.6549 66.38 47.3849 66.38 47.2499C66.38 47.1149 66.245 46.8449 66.245 46.7099C66.11 46.5749 66.11 46.3049 65.975 46.1699C65.84 46.0349 65.84 45.7649 65.705 45.6299C65.57 45.4949 65.57 45.3599 65.435 45.0899L65.3 44.9549C65.3 44.8199 65.165 44.8199 65.165 44.6849C65.165 44.5499 65.03 44.4149 65.03 44.4149C64.76 44.0099 64.49 43.7399 64.22 43.3349C64.085 43.1999 63.95 43.0649 63.815 42.7949C63.68 42.6599 63.545 42.5249 63.41 42.3899C63.275 42.2549 63.14 42.1199 63.005 41.9849C62.87 41.8499 62.735 41.7149 62.6 41.5799C62.465 41.4449 62.33 41.3099 62.06 41.3099L36.95 26.5949C36.815 26.4599 36.68 26.4599 36.41 26.3249C36.275 26.1899 36.14 26.1899 35.87 26.1899C35.735 26.1899 35.6 26.0549 35.465 26.0549C35.33 26.0549 35.195 26.0549 35.06 25.9199C34.925 25.9199 34.79 25.9199 34.655 25.9199C34.52 25.9199 34.385 25.9199 34.25 25.9199C34.115 25.9199 33.98 25.9199 33.845 26.0549C33.845 26.0549 33.71 26.0549 33.71 26.1899C33.71 26.1899 33.575 26.1899 33.575 26.3249C32.63 26.8649 32.09 27.9449 32.09 29.5649V53.1899L67.055 73.4399V49.8149C66.92 49.4099 66.92 49.2749 66.785 49.0049Z"
                                fill="#ADADAD" />
                            <g id="Group_7">
                                <path id="Vector_6"
                                    d="M76.4915 43.8411C76.4915 43.7061 76.4915 43.7061 76.4915 43.5711V43.4361V43.3011C76.4915 43.1661 76.4915 43.1661 76.4915 43.0311C76.4915 42.8961 76.4915 42.8961 76.4915 42.7611V42.4911C76.4915 42.3561 76.4915 42.3561 76.4915 42.2211V42.0861V41.9511C76.4915 41.8161 76.4915 41.8161 76.3565 41.6811V41.5461C76.3565 41.4111 76.3565 41.4111 76.2215 41.2761C76.2215 41.1411 76.2215 41.1411 76.0865 41.0061V40.8711C76.0865 40.7361 76.0865 40.7361 75.9515 40.6011C75.9515 40.6011 75.9515 40.4661 75.8165 40.4661C75.8165 40.3311 75.6815 40.3311 75.6815 40.1961C75.6815 40.0611 75.5465 40.0611 75.5465 39.9261C75.5465 39.7911 75.4115 39.7911 75.4115 39.7911C75.4115 39.6561 75.2765 39.6561 75.2765 39.5211L75.1415 39.3861C75.1415 39.2511 75.0065 39.2511 75.0065 39.1161C75.0065 38.9811 74.8715 38.8461 74.7365 38.8461C74.6015 38.7111 74.4665 38.5761 74.4665 38.4411C74.3315 38.3061 74.3315 38.3061 74.1965 38.1711C74.1965 38.0361 74.0615 38.0361 74.0615 37.9011C74.0615 37.7661 73.9265 37.7661 73.9265 37.6311C73.9265 37.4961 73.7915 37.4961 73.7915 37.3611L73.6565 37.2261C73.5215 37.0911 73.5215 37.0911 73.3865 36.9561C73.3865 36.9561 73.2515 36.9561 73.2515 36.8211C73.1165 36.6861 73.1165 36.6861 72.9815 36.6861C72.9815 36.6861 72.9815 36.6861 72.8465 36.5511H72.7115L72.1715 35.8761L72.0365 35.7411C71.9015 35.7411 71.9015 35.6061 71.7665 35.6061C71.7665 35.6061 71.6315 35.4711 71.4965 35.4711L46.5215 21.0261C46.5215 21.0261 46.3865 21.0261 46.3865 20.8911L46.1165 20.7561H45.9815C45.8465 20.7561 45.8465 20.7561 45.7115 20.6211C45.7115 20.6211 45.5765 20.6211 45.5765 20.4861H45.4415C45.3065 20.4861 45.3065 20.4861 45.1715 20.4861H45.0365C45.0365 20.4861 45.0365 20.4861 44.9015 20.4861C44.7665 20.4861 44.7665 20.4861 44.6315 20.4861H44.4965C44.3615 20.4861 44.3615 20.4861 44.2265 20.4861C44.2265 20.4861 44.2265 20.4861 44.0915 20.4861H43.9565C43.9565 20.4861 43.9565 20.4861 43.8215 20.4861C43.6865 20.4861 43.6865 20.4861 43.5515 20.4861C43.4165 20.4861 43.2815 20.4861 43.2815 20.6211C43.1465 20.6211 43.0115 20.7561 42.8765 20.7561L33.2915 26.1561C33.2915 26.1561 33.4265 26.1561 33.4265 26.0211C33.4265 26.0211 33.5615 26.0211 33.5615 25.8861C33.6965 25.8861 33.6965 25.8861 33.8315 25.7511C33.9665 25.7511 33.9665 25.7511 34.1015 25.7511H34.2365C34.2365 25.7511 34.2365 25.7511 34.3715 25.7511C34.5065 25.7511 34.5065 25.7511 34.6415 25.7511H34.7765C34.9115 25.7511 34.9115 25.7511 35.0465 25.7511C35.0465 25.7511 35.0465 25.7511 35.1815 25.7511C35.3165 25.7511 35.3165 25.7511 35.4515 25.7511H35.5865C35.5865 25.7511 35.7215 25.7511 35.8565 25.8861C35.8565 25.8861 35.9915 25.8861 36.1265 26.0211H36.2615C36.2615 26.0211 36.3965 26.1561 36.5315 26.1561C36.5315 26.1561 36.6665 26.1561 36.6665 26.2911L61.6415 40.7361L61.9115 40.8711C62.0465 40.8711 62.0465 41.0061 62.1815 41.0061L62.3165 41.1411C62.4515 41.1411 62.4515 41.2761 62.5865 41.2761H62.7215L62.8565 41.4111C62.9915 41.4111 62.9915 41.5461 63.1265 41.5461L63.2615 41.6811L63.5315 41.9511L63.6665 42.0861L64.0715 42.7611C64.0715 42.8961 64.2065 42.8961 64.2065 43.0311L64.3415 43.3011C64.4765 43.4361 64.4765 43.4361 64.6115 43.5711C64.7465 43.7061 64.8815 43.8411 64.8815 43.9761C64.8815 44.1111 65.0165 44.2461 65.0165 44.2461C65.0165 44.3811 65.1515 44.3811 65.1515 44.5161L65.2865 44.6511L65.4215 44.9211L65.5565 45.1911C65.5565 45.3261 65.6915 45.3261 65.6915 45.4611C65.6915 45.5961 65.8265 45.5961 65.8265 45.7311C65.8265 45.7311 65.8265 45.8661 65.9615 45.8661L66.0965 46.1361V46.2711L66.2315 46.5411C66.2315 46.6761 66.2315 46.6761 66.3665 46.8111V46.9461C66.3665 47.0811 66.3665 47.0811 66.5015 47.2161V47.3511V47.4861C66.5015 47.6211 66.5015 47.6211 66.5015 47.7561V48.0261C66.5015 48.1611 66.5015 48.1611 66.5015 48.2961C66.5015 48.4311 66.5015 48.4311 66.5015 48.5661V48.7011V48.8361V49.1061C66.5015 49.2411 66.5015 49.2411 66.5015 49.3761V73.0011L76.0865 67.4661V43.8411C76.4915 43.9761 76.4915 43.9761 76.4915 43.8411Z"
                                    fill="#E9E8E7" />
                            </g>
                            <path id="Vector_7"
                                d="M66.92 49.4099C66.92 49.2749 66.92 49.2749 66.92 49.1399V49.0049V48.8699C66.92 48.7349 66.92 48.7349 66.92 48.5999C66.92 48.4649 66.92 48.4649 66.92 48.3299C66.92 48.1949 66.92 48.1949 66.92 48.0599V47.7899C66.92 47.7899 66.92 47.7899 66.92 47.6549V47.5199C66.92 47.3849 66.92 47.3849 66.785 47.2499C66.785 47.2499 66.785 47.1149 66.785 46.9799L66.65 46.7099C66.65 46.5749 66.65 46.5749 66.515 46.4399V46.3049C66.515 46.1699 66.515 46.1699 66.38 46.0349L65.975 45.8999C65.975 45.7649 65.84 45.7649 65.84 45.6299C65.84 45.4949 65.705 45.4949 65.705 45.3599C65.705 45.2249 65.57 45.2249 65.57 45.0899C65.57 44.9549 65.435 44.9549 65.435 44.8199C65.435 44.8199 65.435 44.6849 65.3 44.6849C65.3 44.5499 65.165 44.5499 65.165 44.4149C65.03 44.2799 65.03 44.1449 64.895 44.1449C64.76 44.0099 64.625 43.8749 64.625 43.7399C64.49 43.6049 64.49 43.6049 64.355 43.4699C64.355 43.3349 64.22 43.3349 64.22 43.1999C64.22 43.0649 64.085 43.0649 64.085 42.9299C64.085 42.7949 63.95 42.7949 63.95 42.6599L63.815 42.5249C63.68 42.3899 63.68 42.3899 63.545 42.2549L63.41 42.1199C63.275 42.1199 63.275 41.9849 63.14 41.9849C63.14 41.9849 63.14 41.9849 63.005 41.8499H62.87L62.6 41.4449L62.465 41.3099C62.33 41.3099 62.33 41.1749 62.195 41.1749L61.925 41.0399L36.95 26.5949L36.815 26.4599C36.815 26.4599 36.68 26.3249 36.545 26.3249H36.41C36.41 26.3249 36.275 26.3249 36.275 26.1899C36.275 26.1899 36.14 26.1899 36.14 26.0549H36.005C35.87 26.0549 35.87 26.0549 35.735 26.0549H35.6C35.465 26.0549 35.465 26.0549 35.33 26.0549H35.195C35.06 26.0549 35.06 26.0549 34.925 26.0549H34.79H34.655C34.655 26.0549 34.655 26.0549 34.52 26.0549C34.385 26.0549 34.385 26.0549 34.25 26.0549C34.115 26.0549 34.115 26.0549 33.98 26.1899C33.845 26.1899 33.71 26.3249 33.575 26.3249L31.955 27.2699C32.09 27.1349 32.225 27.1349 32.36 27.1349C32.495 27.1349 32.495 27.1349 32.63 26.9999H32.765C32.9 26.9999 33.035 26.9999 33.17 26.9999H33.305C33.44 26.9999 33.575 26.9999 33.71 26.9999C33.845 26.9999 33.98 26.9999 34.115 26.9999C34.25 26.9999 34.385 27.1349 34.52 27.1349C34.655 27.1349 34.79 27.2699 35.06 27.2699C35.195 27.4049 35.465 27.4049 35.6 27.5399L60.17 41.8499C60.305 41.9849 60.44 41.9849 60.71 42.1199C60.845 42.2549 60.98 42.3899 61.115 42.3899C61.25 42.5249 61.385 42.6599 61.52 42.7949C61.655 42.9299 61.79 43.0649 61.925 43.1999C62.06 43.3349 62.195 43.4699 62.33 43.7399C62.465 43.8749 62.6 44.0099 62.735 44.2799V44.4149C62.87 44.5499 62.87 44.6849 63.005 44.8199C63.14 44.9549 63.14 45.0899 63.275 45.0899L63.41 45.3599L63.545 45.4949C63.68 45.6299 63.68 45.7649 63.815 45.8999V46.0349C63.95 46.1699 63.95 46.4399 64.085 46.5749C64.22 46.7099 64.22 46.9799 64.355 47.1149C64.49 47.2499 64.49 47.5199 64.49 47.6549C64.49 47.7899 64.625 48.0599 64.625 48.1949V48.3299C64.625 48.4649 64.76 48.7349 64.76 48.8699C64.76 49.0049 64.76 49.2749 64.895 49.4099C64.895 49.5449 64.895 49.8149 64.895 49.9499V53.9999L66.515 53.0549V49.0049L66.92 49.4099Z"
                                fill="#E9E8E7" />
                            <path id="Vector_8"
                                d="M60.17 41.8499C63.005 43.4699 65.165 47.3849 65.165 50.4899V54.5399C60.71 57.1049 54.5 56.8349 47.615 52.7849C40.73 48.8699 34.655 42.1199 30.2 34.2899V30.2399C30.2 26.9999 32.495 25.7849 35.195 27.4049L60.17 41.8499Z"
                                fill="#CECDCC" />
                            <path id="Vector_9"
                                d="M62.33 28.8899V29.0249V29.1599L62.195 29.2949C62.195 29.2949 62.195 29.2949 62.06 29.2949C62.06 29.2949 62.06 29.2949 61.925 29.4299C61.79 29.5649 61.655 29.5649 61.52 29.5649C61.385 29.5649 61.25 29.5649 60.98 29.5649C60.845 29.5649 60.575 29.5649 60.44 29.5649C60.305 29.5649 60.17 29.4299 60.035 29.4299C59.765 29.2949 59.63 29.0249 59.63 28.8899V35.0999C59.63 35.3699 59.765 35.5049 60.035 35.6399C60.035 35.6399 60.17 35.6399 60.17 35.7749H60.305H60.44H60.575H60.71H60.845H60.98H61.115H61.25C61.25 35.7749 61.25 35.7749 61.385 35.7749H61.52C61.655 35.7749 61.79 35.6399 61.79 35.6399C61.79 35.6399 61.79 35.6399 61.925 35.6399C61.925 35.6399 62.06 35.6399 62.06 35.5049C62.06 35.5049 62.06 35.5049 62.195 35.3699C62.195 35.3699 62.195 35.3699 62.195 35.2349C62.195 35.2349 62.195 35.2349 62.195 35.0999V34.6949C62.33 34.8299 62.33 28.8899 62.33 28.8899Z"
                                fill="#650300" />
                            <path id="Vector_10"
                                d="M62.33 28.8899V29.0249C62.33 29.0249 62.33 29.1599 62.195 29.1599L62.06 29.2949C62.06 29.2949 62.06 29.2949 61.925 29.2949C61.925 29.2949 61.925 29.2949 61.79 29.4299C61.655 29.5649 61.52 29.5649 61.385 29.5649C61.25 29.5649 61.115 29.5649 60.845 29.5649C60.71 29.5649 60.44 29.5649 60.305 29.5649C60.17 29.5649 60.035 29.4299 59.9 29.4299C59.63 29.2949 59.495 29.0249 59.495 28.8899V35.0999C59.495 35.3699 59.63 35.5049 59.9 35.6399C59.9 35.6399 60.035 35.6399 60.17 35.7749H60.305H60.44H60.575H60.71H60.845H60.98H61.115H61.25C61.25 35.7749 61.25 35.7749 61.385 35.7749H61.52C61.655 35.7749 61.79 35.6399 61.79 35.6399C61.79 35.6399 61.79 35.6399 61.925 35.6399C61.925 35.6399 62.06 35.6399 62.06 35.5049C62.06 35.5049 62.06 35.5049 62.195 35.3699C62.195 35.3699 62.195 35.3699 62.195 35.2349C62.195 35.2349 62.195 35.2349 62.195 35.0999V34.6949C62.33 34.8299 62.33 28.8899 62.33 28.8899Z"
                                fill="#650300" />
                            <path id="Vector_11"
                                d="M61.925 28.3499C62.465 28.6199 62.465 29.1599 61.925 29.5649C61.385 29.8349 60.44 29.8349 59.9 29.5649C59.36 29.2949 59.36 28.7549 59.9 28.3499C60.575 28.0799 61.385 27.9449 61.925 28.3499ZM46.67 19.4399V19.5749C46.67 19.5749 46.67 19.7099 46.535 19.7099L46.4 19.8449C46.4 19.8449 46.4 19.8449 46.265 19.9799C46.265 19.9799 46.265 19.9799 46.13 20.1149C45.995 20.2499 45.86 20.2499 45.725 20.2499C45.59 20.2499 45.455 20.2499 45.185 20.2499C45.05 20.2499 44.78 20.2499 44.645 20.2499C44.51 20.2499 44.375 20.1149 44.24 20.1149C43.97 19.9799 43.835 19.7099 43.835 19.5749V25.7849C43.835 26.0549 43.97 26.1899 44.24 26.3249C44.24 26.3249 44.375 26.4599 44.51 26.4599H44.645C44.645 26.4599 44.645 26.4599 44.78 26.4599H44.915H45.05H45.185H45.32H45.455H45.59C45.59 26.4599 45.59 26.4599 45.725 26.4599H45.86C45.995 26.4599 46.13 26.3249 46.13 26.3249C46.13 26.3249 46.13 26.3249 46.265 26.3249C46.265 26.3249 46.4 26.3249 46.4 26.1899C46.4 26.1899 46.4 26.1899 46.535 26.0549C46.535 26.0549 46.535 26.0549 46.535 25.9199C46.535 25.9199 46.535 25.9199 46.535 25.7849V25.3799L46.67 19.4399Z"
                                fill="#650300" />
                            <path id="Vector_12"
                                d="M46.67 19.4399V19.5749V19.7099L46.535 19.8449C46.535 19.8449 46.535 19.8449 46.4 19.9799C46.4 19.9799 46.4 19.9799 46.265 20.1149C46.13 20.2499 45.995 20.2499 45.86 20.2499C45.725 20.2499 45.59 20.2499 45.32 20.2499C45.185 20.2499 44.915 20.2499 44.78 20.2499C44.645 20.2499 44.51 20.1149 44.375 20.1149C44.105 19.9799 43.97 19.7099 43.97 19.5749V25.7849C43.97 26.0549 44.105 26.1899 44.375 26.3249C44.375 26.3249 44.51 26.4599 44.645 26.4599H44.78C44.78 26.4599 44.78 26.4599 44.915 26.4599H45.05H45.185H45.32H45.455H45.59H45.725C45.725 26.4599 45.725 26.4599 45.86 26.4599H45.995C46.13 26.4599 46.265 26.3249 46.265 26.3249C46.265 26.3249 46.265 26.3249 46.4 26.3249C46.4 26.3249 46.535 26.3249 46.535 26.1899C46.535 26.1899 46.535 26.1899 46.67 26.0549C46.67 26.0549 46.67 26.0549 46.67 25.9199C46.67 25.9199 46.67 25.9199 46.67 25.7849V25.3799V19.4399Z"
                                fill="#650300" />
                            <path id="Vector_13"
                                d="M46.13 18.9C46.67 19.17 46.67 19.71 46.13 20.115C45.59 20.385 44.645 20.385 44.105 20.115C43.565 19.845 43.565 19.305 44.105 18.9C44.78 18.63 45.59 18.63 46.13 18.9Z"
                                fill="#650300" />
                            <g id="Group_8">
                                <path id="Vector_14"
                                    d="M66.8714 30.0523V29.9173V29.7823V29.6473V29.5123V29.3773V29.2423V29.1073C66.8714 29.1073 66.8714 29.1073 66.8714 28.9723V28.8373V28.7023V28.5673V28.4323C66.8714 28.4323 66.8714 28.2973 66.7364 28.2973C66.7364 28.2973 66.7364 28.1623 66.6014 28.1623V28.0273L46.8914 17.0923C46.8914 17.0923 46.8914 17.0923 46.7564 17.0923H46.6214C46.6214 17.0923 46.6214 17.0923 46.4864 17.0923H46.3514L41.7614 19.3873C41.7614 19.3873 41.8964 19.3873 41.8964 19.2523C42.0314 19.2523 42.0314 19.2523 42.1664 19.2523C42.3014 19.2523 42.3014 19.2523 42.4364 19.2523C42.5714 19.2523 42.5714 19.3873 42.7064 19.3873L61.3364 30.0523C61.4714 30.0523 61.4714 30.1873 61.6064 30.1873C61.7414 30.3223 61.7414 30.3223 61.8764 30.4573C62.0114 30.5923 62.1464 30.8623 62.2814 30.9973C62.2814 31.1323 62.4164 31.2673 62.4164 31.2673C62.4164 31.4023 62.5514 31.5373 62.5514 31.5373C62.6864 31.8073 62.6864 31.9423 62.6864 32.2123C62.6864 32.3473 62.6864 32.4823 62.6864 32.4823C62.6864 32.6173 62.6864 32.6173 62.5514 32.7523C62.5514 32.7523 62.5514 32.8873 62.4164 32.8873L62.2814 33.0223L66.4664 30.5923L66.6014 30.4573C66.6014 30.4573 66.6014 30.4573 66.6014 30.3223V30.1873V30.0523V29.9173L66.8714 30.0523C66.8714 30.1873 66.8714 30.1873 66.8714 30.0523Z"
                                    fill="#F54A4F" />
                            </g>
                            <g id="Group_9">
                                <path id="Vector_15"
                                    d="M66.8714 30.0523V29.9173V29.7823V29.6473V29.5123V29.3773V29.2423V29.1073C66.8714 29.1073 66.8714 29.1073 66.8714 28.9723V28.8373V28.7023V28.5673V28.4323C66.8714 28.4323 66.8714 28.2973 66.7364 28.2973C66.7364 28.2973 66.7364 28.1623 66.6014 28.1623V28.0273L46.8914 17.0923C46.8914 17.0923 46.8914 17.0923 46.7564 17.0923H46.6214C46.6214 17.0923 46.6214 17.0923 46.4864 17.0923H46.3514L41.7614 19.3873C41.7614 19.3873 41.8964 19.3873 41.8964 19.2523C42.0314 19.2523 42.0314 19.2523 42.1664 19.2523C42.3014 19.2523 42.3014 19.2523 42.4364 19.2523C42.5714 19.2523 42.5714 19.3873 42.7064 19.3873L61.3364 30.0523C61.4714 30.0523 61.4714 30.1873 61.6064 30.1873C61.7414 30.3223 61.7414 30.3223 61.8764 30.4573C62.0114 30.5923 62.1464 30.8623 62.2814 30.9973C62.2814 31.1323 62.4164 31.2673 62.4164 31.2673C62.4164 31.4023 62.5514 31.5373 62.5514 31.5373C62.6864 31.8073 62.6864 31.9423 62.6864 32.2123C62.6864 32.3473 62.6864 32.4823 62.6864 32.4823C62.6864 32.6173 62.6864 32.6173 62.5514 32.7523C62.5514 32.7523 62.5514 32.8873 62.4164 32.8873L62.2814 33.0223L66.4664 30.5923L66.6014 30.4573C66.6014 30.4573 66.6014 30.4573 66.6014 30.3223V30.1873V30.0523V29.9173L66.8714 30.0523C66.8714 30.1873 66.8714 30.1873 66.8714 30.0523Z"
                                    fill="#CECDCC" />
                            </g>
                            <path id="Vector_16"
                                d="M61.2499 30.2399C62.0599 30.6449 62.5999 31.7249 62.5999 32.5349C62.5999 33.3449 61.9249 33.7499 61.2499 33.3449L42.6199 22.6799C41.8099 22.2749 41.2699 21.1949 41.2699 20.3849C41.2699 19.5749 41.9449 19.1699 42.6199 19.5749C42.7549 19.5749 61.2499 30.2399 61.2499 30.2399Z"
                                fill="#ADADAD" />
                            <path id="Vector_17"
                                d="M44.6449 54.5399V51.0299L49.2349 53.7299V57.2399L44.6449 54.5399ZM50.3149 53.0549L43.4299 49.1399V55.4849L50.3149 59.3999V53.0549Z"
                                fill="#E9E8E7" />
                            <path id="Vector_18"
                                d="M49.2349 53.73L44.6449 51.03V54.54L49.2349 57.24V53.73Z"
                                fill="#CECDCC" />
                            <path id="Vector_19"
                                d="M50.3149 53.0549V59.3999L51.9349 58.4549V52.1099L50.3149 53.0549Z"
                                fill="#ADADAD" />
                            <path id="Vector_20"
                                d="M51.935 51.975V51.84V51.705V51.57V51.435V51.3V51.165V51.03V50.895V50.76V50.625V50.49V50.355V50.22V50.085C51.935 50.085 51.935 49.95 51.8 49.95C51.8 49.95 51.8 49.815 51.665 49.815C51.665 49.815 51.53 49.68 51.53 49.545C51.53 49.41 51.395 49.41 51.395 49.275C51.26 49.14 51.26 49.005 51.125 48.87C50.99 48.735 50.99 48.6 50.855 48.6L50.72 48.465L50.585 48.33L50.45 48.195L50.315 48.06C50.315 48.06 50.18 48.06 50.18 47.925L50.045 47.79L49.91 47.655L49.775 47.52C49.775 47.52 49.775 47.52 49.64 47.52L49.505 47.385L49.37 47.25L49.235 47.115L49.1 46.98H48.965L48.83 46.845C48.83 46.845 48.83 46.845 48.695 46.845H48.56H48.425H48.29H48.155H48.02C48.02 46.845 48.02 46.845 47.885 46.845H47.75H47.615H47.48C47.48 46.845 47.48 46.845 47.345 46.845H47.21C47.075 46.845 47.075 46.98 46.94 46.98L45.455 47.925H45.59C45.59 47.925 45.59 47.925 45.725 47.925H45.86H45.995H46.13H46.265H46.4H46.535H46.67H46.805H46.94H47.075C47.075 47.925 47.21 47.925 47.21 48.06H47.345C47.345 48.06 47.48 48.06 47.48 48.195C47.48 48.195 47.615 48.195 47.615 48.33L47.75 48.465L47.885 48.6C47.885 48.6 47.885 48.6 48.02 48.6L48.155 48.735L48.29 48.87L48.425 49.005L48.56 49.14L48.695 49.275L48.83 49.41L48.965 49.545L49.1 49.68C49.235 49.815 49.235 49.815 49.37 49.95C49.505 50.085 49.505 50.22 49.64 50.355L49.775 50.625C49.775 50.76 49.91 50.76 49.91 50.895L50.045 51.03C50.045 51.03 50.045 51.165 50.18 51.165V51.3V51.435V51.57V51.705V51.84V51.975V52.11V52.245V52.38V52.515V52.65V52.785V52.92V53.055V53.19L51.8 52.245C51.935 51.975 51.935 51.975 51.935 51.975Z"
                                fill="#ADADAD" />
                            <path id="Vector_21"
                                d="M50.315 53.055C50.315 52.515 50.18 51.975 50.045 51.435C50.045 51.3 49.91 51.165 49.91 51.165C49.91 51.03 49.775 50.76 49.775 50.625C49.64 50.355 49.505 50.085 49.37 49.815C49.235 49.545 49.1 49.275 48.83 49.005C48.695 48.735 48.425 48.465 48.29 48.33C48.155 48.06 47.885 47.925 47.615 47.79C47.345 47.655 47.21 47.385 46.94 47.385C46.805 47.385 46.67 47.25 46.535 47.25C46.4 47.25 46.265 47.115 46.265 47.115C46.13 47.115 45.995 47.115 45.995 46.98C45.86 46.98 45.86 46.98 45.725 46.98C45.59 46.98 45.59 46.98 45.455 46.98C45.32 46.98 45.32 46.98 45.185 46.98C45.05 46.98 45.05 46.98 44.915 47.115C44.915 47.115 44.915 47.115 44.78 47.115H44.645C43.97 47.52 43.7 48.195 43.7 49.275C43.43 49.005 50.315 53.055 50.315 53.055Z"
                                fill="#E9E8E7" />
                        </g>
                    </g>
                </g>
            </g>
        </g>
    </g>
    <defs>
        <clipPath id="clip0_958_51">
            <rect width="108" height="108" fill="white" transform="translate(0.5)" />
        </clipPath>
    </defs>
</svg>