<svg width="108" height="108" viewBox="0 0 108 108" fill="none" xmlns="http://www.w3.org/2000/svg">
    <g id="retail 1" clip-path="url(#clip0_958_396)">
        <g id="Main-page">
            <g id="ScnSoft-COM-HomePage-1440_illustrations">
                <g id="Industry">
                    <g id="4">
                        <g id="icon_2_6">
                            <g id="Group-119">
                                <g id="Group-118">
                                    <path id="Fill-2"
                                        d="M96.2549 71.7738H96.2671V65.9404L85.4209 63.1352L61.3736 49.2514C57.3259 46.9141 51.2019 46.6594 47.6956 48.6849L23.0641 62.9049L11.5665 65.628V71.3866C11.5584 71.515 11.5611 71.6454 11.5665 71.7738V71.8635H11.5706C11.6847 73.3408 12.8055 74.8725 14.9023 76.0823L46.4478 94.2962C50.4982 96.6335 56.6216 96.8882 60.1278 94.8641L93.9033 75.3623C95.5573 74.4086 96.3221 73.1167 96.2549 71.7738Z"
                                        fill="#BFC3C7" />
                                    <path id="Fill-4"
                                        d="M93.9041 69.2167L60.128 88.7185C56.6217 90.742 50.4983 90.4873 46.448 88.1507L14.9024 69.9381C10.8521 67.5994 10.4133 64.0646 13.9196 62.0398L47.6957 42.5394C51.202 40.5145 57.3254 40.7686 61.3737 43.1059L92.9212 61.3198C96.9709 63.6564 97.4104 67.1932 93.9041 69.2167Z"
                                        fill="#E9E8E7" />
                                    <path id="Fill-6"
                                        d="M59.5127 74.8523C59.387 74.7816 59.2648 74.728 59.1459 74.6859L59.1432 74.6872C58.7221 74.5364 58.3458 74.5493 58.0571 74.711L58.055 74.7062L57.3595 75.1124L57.3649 75.1213C57.0151 75.3441 56.8012 75.7869 56.8093 76.4145C56.8243 77.7133 57.7711 79.2891 58.9231 79.9337C59.5018 80.2584 60.0228 80.2842 60.3957 80.0655L61.0254 79.6994C61.0335 79.6946 61.0417 79.6892 61.0505 79.6844L61.0811 79.6668L61.0797 79.6641C61.2883 79.5282 61.4397 79.3034 61.5307 79.0154L61.5436 79.0072C61.5566 78.9678 61.562 78.9203 61.5715 78.8782C61.5803 78.8395 61.5905 78.8028 61.5959 78.7627C61.6163 78.6411 61.6286 78.5134 61.6265 78.3728C61.6109 77.0734 60.664 75.4969 59.5127 74.8523Z"
                                        fill="#2A2A2A" />
                                    <path id="Fill-8"
                                        d="M56.8892 76.4594C56.9042 77.7085 57.8144 79.2233 58.9215 79.8427C60.0287 80.4636 60.9144 79.9534 60.8988 78.7043C60.8839 77.4552 59.9737 75.9398 58.8665 75.3196C57.7593 74.7002 56.8743 75.2103 56.8892 76.4594Z"
                                        fill="#ADADAD" />
                                    <path id="Fill-10"
                                        d="M57.3376 76.7102C57.3498 77.6802 58.0562 78.8559 58.9154 79.3375C59.7754 79.8191 60.4628 79.4224 60.4505 78.4525C60.4383 77.4832 59.7319 76.3067 58.8727 75.8251C58.0127 75.3442 57.3253 75.7402 57.3376 76.7102Z"
                                        fill="#2C2C2C" />
                                    <path id="Fill-12"
                                        d="M60.3113 78.7334C60.3331 78.6301 60.3467 78.5187 60.3453 78.3938C60.3439 78.2817 60.3317 78.1655 60.3113 78.0487C60.3052 78.012 60.293 77.976 60.2842 77.9387L60.2882 77.9366C60.2801 77.9027 60.2679 77.8687 60.259 77.8347C60.2461 77.7879 60.2393 77.7424 60.2244 77.6969C60.2176 77.6772 60.2095 77.6588 60.2027 77.6405C60.185 77.5889 60.1639 77.5386 60.1436 77.4876C60.1252 77.4408 60.1096 77.3919 60.0885 77.3457C60.0824 77.3321 60.075 77.3206 60.0695 77.3076C60.0403 77.2458 60.0057 77.1854 59.9724 77.1243C59.9513 77.0849 59.933 77.0448 59.9099 77.0061C59.9052 76.9986 59.9011 76.9925 59.897 76.985C59.8427 76.8953 59.7829 76.8098 59.7211 76.7262C59.7122 76.7133 59.7048 76.7011 59.6959 76.6889C59.6939 76.6855 59.6919 76.6821 59.6898 76.68C59.6369 76.6101 59.5778 76.5469 59.5207 76.483C59.4962 76.4552 59.4745 76.426 59.4494 76.3995C59.3882 76.3363 59.3224 76.2799 59.2565 76.2229C59.23 76.2005 59.2055 76.1733 59.1784 76.1516C59.1138 76.1006 59.0473 76.0585 58.98 76.0157C58.9508 75.9974 58.9223 75.9736 58.8924 75.9559C58.8863 75.9526 58.8802 75.9478 58.8741 75.9451C58.0725 75.4961 57.432 75.8649 57.4429 76.769C57.4429 76.7839 57.447 76.7996 57.447 76.8145L57.4456 76.8159C57.447 76.8451 57.4538 76.8763 57.4565 76.9062C57.4626 76.9857 57.4687 77.0658 57.4843 77.1473C57.4911 77.1799 57.5013 77.2126 57.5088 77.2452C57.5278 77.3294 57.5482 77.4136 57.576 77.4978C57.5862 77.5304 57.6018 77.5624 57.6134 77.5956C57.6446 77.6792 57.6752 77.7627 57.7139 77.8442C57.7146 77.847 57.7153 77.849 57.7159 77.851C57.7166 77.8517 57.7166 77.8517 57.7166 77.8524C57.718 77.8551 57.7193 77.8572 57.7207 77.8599C57.7445 77.9108 57.7744 77.9597 57.8008 78.01C57.8314 78.067 57.8593 78.1248 57.8919 78.1798C57.9184 78.2219 57.9482 78.2606 57.9754 78.3007C57.9836 78.315 57.9938 78.3286 58.0033 78.3421C58.0311 78.3822 58.0562 78.425 58.0855 78.4644C58.0929 78.4739 58.0997 78.4848 58.1079 78.4943C58.1439 78.5412 58.1833 78.5826 58.222 78.6267C58.2227 78.6281 58.224 78.6295 58.2247 78.6308C58.2566 78.6668 58.2872 78.7062 58.3198 78.7415C58.3313 78.7531 58.3422 78.7667 58.3531 78.7782C58.3925 78.819 58.4346 78.8523 58.4753 78.8889C58.5025 78.9141 58.5276 78.9426 58.5548 78.9657L58.5582 78.9643C58.5799 78.9827 58.601 79.0051 58.6241 79.0234C58.7178 79.0968 58.815 79.1627 58.9141 79.2184C59.0296 79.2836 59.1403 79.3264 59.2483 79.3576C59.2538 79.3596 59.2599 79.3637 59.266 79.3651L59.2707 79.3624C59.789 79.5043 60.1904 79.2686 60.3073 78.747L60.3107 78.7456C60.3113 78.7415 60.3107 78.7375 60.3113 78.7334Z"
                                        fill="#E02723" />
                                    <path id="Fill-14"
                                        d="M59.2852 74.5815L59.0801 78.3317L59.87 77.7706L61.6293 75.3647L59.2852 74.5815Z"
                                        fill="#ADADAD" />
                                    <path id="Fill-16"
                                        d="M58.661 74.7534L58.265 77.6429L59.0801 78.3317L60.8387 75.9251L58.661 74.7534Z"
                                        fill="#777777" />
                                    <path id="Fill-18"
                                        d="M71.2741 67.76C71.1484 67.6894 71.0261 67.6357 70.9073 67.5936L70.9045 67.5949C70.4834 67.4442 70.1071 67.4571 69.8184 67.6187L69.8164 67.614L69.1209 68.0202L69.1263 68.029C68.7765 68.2518 68.5625 68.6946 68.5707 69.3223C68.5856 70.621 69.5325 72.1968 70.6845 72.8414C71.2632 73.1661 71.7842 73.1919 72.1571 72.9732L72.7867 72.6071C72.7949 72.6023 72.803 72.5969 72.8119 72.5921L72.8424 72.5738L72.8411 72.5718C73.0496 72.4359 73.2011 72.2111 73.2921 71.9231L73.305 71.9149C73.3179 71.8755 73.3233 71.828 73.3328 71.7859C73.3417 71.7472 73.3519 71.7105 73.3573 71.6704C73.3777 71.5488 73.3899 71.4211 73.3879 71.2805C73.3722 69.9811 72.4254 68.4046 71.2741 67.76Z"
                                        fill="#2A2A2A" />
                                    <path id="Fill-20"
                                        d="M68.6507 69.3671C68.6656 70.6163 69.5758 72.131 70.683 72.7504C71.7902 73.3713 72.6759 72.8612 72.6596 71.612C72.6453 70.3629 71.7352 68.8468 70.628 68.2273C69.5208 67.6079 68.6358 68.118 68.6507 69.3671Z"
                                        fill="#ADADAD" />
                                    <path id="Fill-22"
                                        d="M69.099 69.6179C69.1113 70.5879 69.8177 71.7637 70.6769 72.2452C71.5368 72.7268 72.2242 72.3301 72.212 71.3602C72.1998 70.3909 71.4934 69.2144 70.6341 68.7329C69.7742 68.252 69.0868 68.648 69.099 69.6179Z"
                                        fill="#2A2A2A" />
                                    <path id="Fill-24"
                                        d="M72.0728 71.6412C72.0945 71.5379 72.1081 71.4265 72.1068 71.3015C72.1054 71.1888 72.0932 71.0733 72.0728 70.9565C72.0667 70.9198 72.0545 70.8831 72.0456 70.8464L72.0497 70.8444C72.0416 70.8098 72.0293 70.7758 72.0198 70.7412C72.0076 70.695 72.0008 70.6501 71.9852 70.6046C71.9791 70.5849 71.9709 70.5673 71.9641 70.5482C71.9465 70.4966 71.9254 70.4464 71.905 70.3954C71.886 70.3479 71.8711 70.2996 71.85 70.2534C71.8439 70.2399 71.8364 70.2283 71.8303 70.2147C71.8018 70.1536 71.7678 70.0945 71.7345 70.0341C71.7135 69.994 71.6945 69.9532 71.6714 69.9145C71.6666 69.9064 71.6625 69.8996 71.6578 69.8921C71.6041 69.8038 71.545 69.7182 71.4839 69.6353C71.4744 69.6224 71.4662 69.6088 71.4574 69.5966C71.4554 69.5932 71.4533 69.5898 71.4506 69.5878C71.3942 69.5131 71.3318 69.4452 71.2699 69.3765C71.2502 69.3548 71.2319 69.3297 71.2109 69.3079C71.147 69.2414 71.0784 69.1823 71.0105 69.1239C70.986 69.1035 70.9643 69.0797 70.9398 69.06C70.8739 69.007 70.8047 68.9642 70.7361 68.9201C70.7082 68.9024 70.6817 68.88 70.6539 68.8637C70.6478 68.8603 70.6416 68.8556 70.6355 68.8528C69.834 68.4032 69.1935 68.7727 69.2044 69.6768C69.2044 69.6917 69.2084 69.7073 69.2084 69.7223L69.2071 69.723C69.2078 69.7542 69.2152 69.7861 69.2179 69.8167C69.2247 69.8962 69.2302 69.9743 69.2458 70.0551C69.2526 70.0877 69.2628 70.121 69.2709 70.1543C69.2899 70.2385 69.3096 70.3221 69.3375 70.4056C69.3477 70.4382 69.3633 70.4701 69.3748 70.5027C69.4054 70.5863 69.4367 70.6698 69.4747 70.752C69.4761 70.7547 69.4767 70.7568 69.4774 70.7588C69.4774 70.7595 69.4781 70.7595 69.4781 70.7602C69.4808 70.7663 69.4842 70.7724 69.4876 70.7778C69.51 70.8247 69.5358 70.8682 69.5603 70.9144C69.5915 70.9721 69.6201 71.0312 69.6533 71.0876C69.6798 71.1297 69.709 71.1684 69.7362 71.2085C69.745 71.2227 69.7545 71.2363 69.7647 71.2499C69.7919 71.29 69.8177 71.3328 69.8469 71.3722C69.8537 71.3817 69.8612 71.3925 69.8693 71.4021C69.906 71.4496 69.9461 71.4917 69.9848 71.5372C69.9855 71.5379 69.9862 71.5386 69.9875 71.5393C70.0188 71.5759 70.0487 71.614 70.0806 71.6493C70.0928 71.6608 70.103 71.6744 70.1145 71.686C70.1546 71.7274 70.1974 71.7614 70.2395 71.7994C70.2653 71.8239 70.2898 71.851 70.3163 71.8735L70.319 71.8721C70.3414 71.8904 70.3618 71.9129 70.3856 71.9312C70.4786 72.0045 70.5764 72.0704 70.6749 72.1261C70.7911 72.1913 70.9018 72.2341 71.0098 72.2654C71.0152 72.2674 71.0213 72.2715 71.0275 72.2728L71.0322 72.2701C71.5505 72.4121 71.9519 72.1764 72.0687 71.6547L72.0715 71.6534C72.0728 71.6493 72.0721 71.6445 72.0728 71.6412Z"
                                        fill="#E02723" />
                                    <path id="Fill-26"
                                        d="M52.9517 55.1853C52.8254 55.1147 52.7038 55.061 52.5843 55.0182L52.5815 55.0202C52.1611 54.8694 51.7848 54.8824 51.4954 55.044L51.4934 55.0393L50.7985 55.4454L50.8033 55.4536C50.4535 55.6771 50.2395 56.1193 50.2477 56.7469C50.2633 58.0463 51.2102 59.6221 52.3615 60.2667C52.9409 60.5914 53.4612 60.6172 53.8341 60.3985L54.4637 60.0324C54.4719 60.0276 54.4807 60.0222 54.4895 60.0174L54.5194 59.9991L54.5181 59.9971C54.7273 59.8612 54.8781 59.6357 54.9698 59.3484L54.982 59.3402C54.9949 59.3002 55.001 59.2533 55.0105 59.2105C55.0187 59.1718 55.0289 59.1351 55.035 59.0957C55.0547 58.9734 55.0669 58.8457 55.0649 58.7058C55.0499 57.4064 54.1031 55.8299 52.9517 55.1853Z"
                                        fill="#2A2A2A" />
                                    <path id="Fill-28"
                                        d="M50.3276 56.7919C50.3425 58.0411 51.2527 59.5558 52.3599 60.1759C53.4677 60.7961 54.3528 60.286 54.3372 59.0368C54.3222 57.7877 53.412 56.2723 52.3049 55.6528C51.1977 55.0327 50.3126 55.5428 50.3276 56.7919Z"
                                        fill="#ADADAD" />
                                    <path id="Fill-30"
                                        d="M50.776 57.0433C50.7883 58.0132 51.4947 59.189 52.3539 59.6706C53.2139 60.1515 53.9012 59.7555 53.889 58.7855C53.8768 57.8162 53.1704 56.6398 52.3111 56.1582C51.4512 55.6766 50.7638 56.0733 50.776 57.0433Z"
                                        fill="#2C2C2C" />
                                    <path id="Fill-32"
                                        d="M53.7504 59.0658C53.7721 58.9632 53.785 58.8511 53.7836 58.7268C53.7823 58.6141 53.7707 58.4986 53.7504 58.3811C53.7436 58.3451 53.7313 58.3084 53.7232 58.2717L53.7266 58.2697C53.7191 58.235 53.7062 58.2011 53.6974 58.1664C53.6845 58.1203 53.6777 58.0747 53.6627 58.0292C53.6566 58.0102 53.6478 57.9919 53.6417 57.9735C53.624 57.9219 53.603 57.8723 53.5826 57.8214C53.5636 57.7738 53.5479 57.7249 53.5269 57.6781C53.5208 57.6652 53.5133 57.6529 53.5079 57.64C53.4787 57.5789 53.4447 57.5198 53.4121 57.4593C53.3904 57.4193 53.3713 57.3785 53.3482 57.3391C53.3442 57.3316 53.3401 57.3249 53.3353 57.3181C53.2824 57.2298 53.2239 57.1462 53.1635 57.064C53.1533 57.0498 53.1445 57.0348 53.1343 57.0212C53.1322 57.0185 53.1302 57.0151 53.1282 57.0124C53.0725 56.9397 53.012 56.8732 52.9516 56.8073C52.9305 56.7835 52.9108 56.7563 52.8884 56.7332C52.8239 56.666 52.7546 56.6062 52.686 56.5471C52.6622 56.5274 52.6411 56.5043 52.6174 56.4853C52.5494 56.431 52.4795 56.3875 52.4088 56.342C52.3824 56.3257 52.3579 56.3046 52.3314 56.289L52.3301 56.2897C52.3239 56.2856 52.3192 56.2809 52.3131 56.2781C51.5116 55.8285 50.871 56.198 50.8812 57.1021C50.8819 57.117 50.8853 57.1319 50.886 57.1476L50.8839 57.1483C50.8853 57.1788 50.8928 57.2107 50.8955 57.2413C50.9016 57.3208 50.9077 57.3996 50.9233 57.4804C50.9295 57.513 50.9396 57.5456 50.9471 57.5789C50.9668 57.6624 50.9865 57.7467 51.0144 57.8309C51.0245 57.8635 51.0408 57.8961 51.0524 57.9294C51.083 58.0129 51.1135 58.0958 51.1522 58.1773C51.1529 58.1793 51.1536 58.1821 51.155 58.1841C51.1584 58.1909 51.1618 58.1977 51.1645 58.2031C51.1869 58.25 51.2134 58.2935 51.2371 58.339C51.2684 58.3974 51.2969 58.4565 51.3309 58.5129C51.3581 58.5563 51.3879 58.5971 51.4165 58.6392C51.4253 58.6528 51.4348 58.665 51.4436 58.6786C51.4708 58.7173 51.4953 58.7587 51.5238 58.7968C51.5313 58.8063 51.5381 58.8172 51.5462 58.8267C51.5836 58.8756 51.625 58.919 51.6651 58.9659C51.6963 59.0012 51.7262 59.0393 51.7581 59.0739C51.7697 59.0861 51.7805 59.0997 51.7914 59.1113C51.8315 59.152 51.8736 59.186 51.915 59.2233C51.9415 59.2485 51.9667 59.2757 51.9938 59.2987L51.9965 59.2967C52.019 59.3157 52.0393 59.3381 52.0624 59.3565C52.1562 59.4298 52.2533 59.4957 52.3525 59.5514C52.4679 59.6166 52.5793 59.6594 52.6873 59.6907C52.6928 59.6927 52.6989 59.6968 52.7043 59.6981L52.7091 59.6954C53.2273 59.8374 53.6288 59.6017 53.7456 59.08L53.749 59.078C53.7497 59.0746 53.749 59.0698 53.7504 59.0658Z"
                                        fill="#E02723" />
                                    <path id="Fill-34"
                                        d="M38.3485 63.5046C38.2229 63.434 38.1006 63.3803 37.9817 63.3375L37.9783 63.3396C37.5579 63.1888 37.1816 63.2017 36.8929 63.3633L36.8909 63.3586L36.1953 63.7648L36.2007 63.7729C35.8509 63.9964 35.637 64.4386 35.6451 65.0662C35.6601 66.3656 36.6069 67.9415 37.7589 68.5861C38.3377 68.9107 38.8586 68.9366 39.2309 68.7178L39.8612 68.3517C39.8693 68.347 39.8775 68.3415 39.8863 68.3368L39.9169 68.3184L39.9155 68.3164C40.1241 68.1806 40.2755 67.955 40.3666 67.6677L40.3795 67.6596C40.3917 67.6202 40.3978 67.5726 40.4073 67.5305C40.4161 67.4918 40.4256 67.4551 40.4318 67.415C40.4521 67.2928 40.4644 67.1651 40.4623 67.0252C40.4467 65.7258 39.4998 64.1492 38.3485 63.5046Z"
                                        fill="#2A2A2A" />
                                    <path id="Fill-36"
                                        d="M35.7252 65.1113C35.7401 66.3604 36.6503 67.8758 37.7575 68.4953C38.8646 69.1154 39.7504 68.6053 39.7347 67.3562C39.7198 66.107 38.8096 64.5916 37.7024 63.9722C36.5946 63.352 35.7102 63.8621 35.7252 65.1113Z"
                                        fill="#ADADAD" />
                                    <path id="Fill-38"
                                        d="M36.1735 65.3626C36.1857 66.3326 36.8921 67.5083 37.7514 67.9899C38.6113 68.4708 39.2987 68.0748 39.2865 67.1049C39.2743 66.1356 38.5678 64.9591 37.7086 64.4775C36.8487 63.996 36.1613 64.3926 36.1735 65.3626Z"
                                        fill="#2A2A2A" />
                                    <path id="Fill-40"
                                        d="M39.1201 66.5911L39.1242 66.589C39.116 66.5537 39.1031 66.5191 39.0936 66.4844C39.0773 66.4199 39.0603 66.3567 39.0386 66.2929C39.0209 66.2399 38.9985 66.1889 38.9781 66.1366C38.9544 66.0776 38.9326 66.0185 38.9055 65.96C38.8756 65.8962 38.8396 65.8344 38.8056 65.7719C38.7812 65.7271 38.7594 65.6809 38.7329 65.6374C38.6691 65.5314 38.5998 65.4289 38.5258 65.3317C38.2914 65.0247 38.0109 64.7653 37.71 64.5968C36.9085 64.1478 36.268 64.5173 36.2788 65.4214C36.2829 65.7699 36.3855 66.1462 36.5526 66.5028C36.577 66.5537 36.6055 66.6046 36.6327 66.6549C36.6966 66.7751 36.7665 66.8899 36.844 67.002C36.8698 67.04 36.8935 67.0794 36.9214 67.1154C36.9662 67.1752 37.0151 67.2302 37.064 67.2859C37.0946 67.3213 37.1238 67.3593 37.155 67.3932C37.2046 67.4456 37.2569 67.4917 37.3092 67.5393C37.3364 67.5651 37.3629 67.5943 37.3907 67.6181L37.3935 67.6167C37.5083 67.7125 37.6264 67.8015 37.7494 67.8708C38.5509 68.3191 39.1914 67.9502 39.1812 67.0462C39.1792 66.8981 39.1547 66.7453 39.1201 66.5911Z"
                                        fill="#E02723" />
                                    <path id="Fill-42"
                                        d="M37.7297 63.4238L37.8377 67.0021L38.6277 66.441L39.9081 64.5955L37.7297 63.4238Z"
                                        fill="#ADADAD" />
                                    <path id="Fill-44"
                                        d="M37.4186 63.4238L37.0233 66.3133L37.8377 67.0021L39.5963 64.5955L37.4186 63.4238Z"
                                        fill="#777777" />
                                    <path id="Fill-46"
                                        d="M70.4098 66.9773L69.9683 70.2662L70.7827 70.9543L72.5419 68.5484L70.4098 66.9773Z"
                                        fill="#777777" />
                                    <path id="Fill-48"
                                        d="M38.1642 62.9315L50.9415 55.5549C51.2858 55.3566 51.6737 55.2567 52.0602 55.2567C52.5037 55.2567 52.9473 55.3872 53.3249 55.6446L72.2365 68.5489C72.3241 68.608 72.335 68.6943 72.3336 68.7398C72.3316 68.7853 72.3146 68.8695 72.2222 68.9232L63.2956 74.0773C62.6598 74.4441 61.1288 75.1158 60.4652 74.8054L38.1798 63.3241C38.0752 63.2746 38.0555 63.1835 38.0541 63.134C38.0514 63.083 38.0636 62.9906 38.1642 62.9315ZM72.8186 67.6964L53.907 54.7928C52.8739 54.0878 51.508 54.0361 50.4252 54.661L37.6486 62.039C37.2424 62.272 37.0027 62.7087 37.0224 63.1768C37.0421 63.6447 37.3178 64.0598 37.7417 64.2581L60.0264 75.7394C60.4686 75.9472 60.944 76.0498 61.4188 76.0498C61.9853 76.0498 63.3071 75.2626 63.8118 74.9712L72.7378 69.8177C73.1134 69.6004 73.3484 69.2118 73.364 68.7785C73.381 68.3451 73.1766 67.9403 72.8186 67.6964Z"
                                        fill="#ADADAD" />
                                    <path id="Fill-50"
                                        d="M41.7183 60.7047L40.6859 60.4493L41.6518 56.3976L39.9808 55.6755L38.5415 62.017L38.0124 62.6847L37.3488 62.5665L39.2126 54.1819L42.8934 55.7754L41.7183 60.7047Z"
                                        fill="#ADADAD" />
                                    <path id="Fill-52"
                                        d="M28.6946 26.0407C28.9337 25.7004 29.3257 25.4966 29.7427 25.4966C30.0069 25.4966 30.2603 25.5767 30.4749 25.7296C30.6332 25.8396 34.3453 28.4853 34.9912 32.5757L35.354 34.879C35.4069 35.2159 35.3254 35.5542 35.1244 35.8299C34.9233 36.1057 34.6265 36.2871 34.2882 36.3407C34.2223 36.3509 34.1558 36.3564 34.0892 36.3564C33.4575 36.3564 32.9263 35.9019 32.8285 35.2764L32.4658 32.9737C31.9951 29.9911 29.0322 27.84 29.0044 27.8196C28.4284 27.4148 28.2898 26.6167 28.6946 26.0407Z"
                                        fill="#E02723" />
                                    <path id="Fill-54"
                                        d="M53.036 58.0966C53.036 58.0966 52.9681 57.3766 53.9469 57.3773L52.8682 56.3557L52.6088 57.5573L53.036 58.0966Z"
                                        fill="#6B8FA6" />
                                    <path id="Fill-56"
                                        d="M45.1099 16.5903C45.3538 16.2731 45.724 16.0911 46.124 16.0911C46.408 16.0911 46.6776 16.1821 46.9031 16.356C47.0363 16.4592 50.1771 18.9208 50.8244 23.037L51.056 25.3403C51.1273 26.042 50.6145 26.6703 49.9108 26.7403C49.868 26.7443 49.8259 26.7464 49.7838 26.7464C49.1243 26.7464 48.5781 26.2526 48.5136 25.5964L48.2908 23.3644C47.8201 20.3819 45.44 18.4589 45.3436 18.3815C44.7859 17.9522 44.6813 17.1486 45.1099 16.5903Z"
                                        fill="#E02723" />
                                    <path id="Fill-58"
                                        d="M77.0743 53.801C77.183 53.801 77.2889 53.7453 77.3494 53.6441C77.4391 53.4919 77.3888 53.2963 77.236 53.2066L50.6544 37.5195C50.5056 37.4305 50.308 37.4801 50.2176 37.6322C50.1273 37.7844 50.1775 37.98 50.3304 38.0703L76.912 53.7575C76.9622 53.7867 77.0186 53.801 77.0743 53.801Z"
                                        fill="#565656" />
                                    <path id="Fill-60"
                                        d="M77.796 47.7342C77.904 47.7342 78.0099 47.6792 78.0697 47.5794C78.1607 47.4286 78.1118 47.2323 77.961 47.1412L50.1901 30.4182C50.0386 30.3279 49.8423 30.3754 49.752 30.5269C49.661 30.6784 49.7099 30.8747 49.8607 30.9657L77.6316 47.6887C77.6832 47.72 77.7403 47.7342 77.796 47.7342Z"
                                        fill="#565656" />
                                    <path id="Fill-62"
                                        d="M55.8006 47.5339H55.802C55.9793 47.5325 56.1219 47.3892 56.1206 47.2119L56.0051 26.9697C56.0037 26.7938 55.8604 26.6519 55.6852 26.6519H55.6838C55.5065 26.6525 55.3639 26.7965 55.3652 26.9725L55.4807 47.216C55.4821 47.3919 55.6254 47.5339 55.8006 47.5339Z"
                                        fill="#565656" />
                                    <path id="Fill-64"
                                        d="M72.0097 62.3142C72.1754 62.3142 72.3364 62.2279 72.4254 62.0737C72.5579 61.8455 72.4791 61.5521 72.2502 61.4196L46.6854 46.6596C46.4551 46.5271 46.1624 46.6066 46.0306 46.8355C45.8982 47.0651 45.977 47.3572 46.2059 47.4903L71.7706 62.2496C71.846 62.2938 71.9289 62.3142 72.0097 62.3142Z"
                                        fill="#3A393A" />
                                    <path id="Fill-66"
                                        d="M56.9244 64.5442C56.9794 64.5442 57.0337 64.5299 57.0847 64.5014L71.2327 56.2941C71.3855 56.2051 71.4371 56.0095 71.3488 55.8567C71.2598 55.7032 71.0635 55.6522 70.9121 55.7405L56.7641 63.9478C56.6106 64.0368 56.5589 64.2324 56.6479 64.3853C56.707 64.4872 56.8143 64.5442 56.9244 64.5442Z"
                                        fill="#3A393A" />
                                    <path id="Fill-68"
                                        d="M34.7958 39.8757C34.8508 39.8757 34.9065 39.8615 34.9568 39.8323L50.1868 30.9681C50.339 30.8798 50.3906 30.6842 50.3023 30.5314C50.2119 30.3785 50.017 30.3269 49.8648 30.4159L34.6355 39.2794C34.4827 39.3683 34.431 39.564 34.52 39.7168C34.5798 39.8187 34.6864 39.8757 34.7958 39.8757Z"
                                        fill="#565656" />
                                    <path id="Fill-70"
                                        d="M35.834 46.4672C35.8876 46.4672 35.942 46.4529 35.9915 46.4251L50.6503 38.0724C50.8038 37.9855 50.8575 37.7898 50.7699 37.6363C50.6823 37.4821 50.4873 37.4298 50.3352 37.5168L35.6764 45.8695C35.5229 45.9571 35.4692 46.1527 35.5561 46.3062C35.6159 46.4088 35.7239 46.4672 35.834 46.4672Z"
                                        fill="#565656" />
                                    <path id="Fill-72"
                                        d="M41.644 55.7074C41.6983 55.7074 41.7533 55.6931 41.8036 55.6646L55.9604 47.4905C56.1139 47.4022 56.1662 47.2073 56.0772 47.0545C55.9896 46.9016 55.794 46.85 55.6405 46.9376L41.4843 55.111C41.3315 55.1993 41.2792 55.3942 41.3675 55.5478C41.4266 55.6496 41.5346 55.7074 41.644 55.7074Z"
                                        fill="#3A393A" />
                                    <path id="Fill-74"
                                        d="M66.2766 53.546C66.4464 53.546 66.587 53.4136 66.5952 53.2424L67.5278 34.3852C67.5359 34.2086 67.4008 34.0592 67.2249 34.0503C67.0605 34.0401 66.8988 34.1774 66.89 34.3533L65.9574 53.2105C65.9492 53.3871 66.0844 53.5372 66.261 53.546H66.2766Z"
                                        fill="#565656" />
                                    <path id="Fill-76"
                                        d="M42.0314 49.933C42.047 49.933 42.0626 49.9317 42.0789 49.9296C42.2528 49.9031 42.3737 49.7408 42.3479 49.5662L39.3178 29.3397C39.292 29.1644 39.129 29.0469 38.9551 29.0707C38.7805 29.0972 38.6603 29.2595 38.6861 29.4341L41.7155 49.6613C41.7393 49.8196 41.8758 49.933 42.0314 49.933Z"
                                        fill="#565656" />
                                    <path id="Fill-78"
                                        d="M46.4452 47.3946C46.4568 47.3946 46.4676 47.3939 46.4785 47.3925C46.6544 47.3749 46.7821 47.2173 46.7638 47.0414L44.6126 26.4528C44.5943 26.2762 44.4401 26.1451 44.2615 26.1682C44.0862 26.1858 43.9585 26.3434 43.9769 26.5187L46.128 47.1079C46.145 47.2723 46.2842 47.3946 46.4452 47.3946Z"
                                        fill="#565656" />
                                    <path id="Fill-80"
                                        d="M61.3096 50.4492C61.4828 50.4492 61.6255 50.3106 61.6296 50.1367L62.0575 30.8638C62.0609 30.6872 61.921 30.5412 61.745 30.5371H61.7376C61.5644 30.5371 61.4217 30.6757 61.4176 30.8496L60.9897 50.1231C60.9856 50.2991 61.1256 50.4451 61.3022 50.4492H61.3096Z"
                                        fill="#565656" />
                                    <path id="Fill-82"
                                        d="M67.2079 65.08C67.3743 65.08 67.5346 64.9944 67.6236 64.8402C67.7567 64.6113 67.6772 64.3186 67.4483 64.1861L41.8836 49.4261C41.6533 49.2937 41.3606 49.3725 41.2288 49.6014C41.097 49.831 41.1751 50.1237 41.4047 50.2562L66.9688 65.0162C67.0449 65.0596 67.127 65.08 67.2079 65.08Z"
                                        fill="#3A393A" />
                                    <path id="Fill-84"
                                        d="M52.0655 61.7089C52.1198 61.7089 52.1741 61.6947 52.2244 61.6668L66.4356 53.5036C66.5884 53.4153 66.6414 53.2204 66.5531 53.0669C66.4655 52.9141 66.2692 52.8624 66.117 52.9494L51.9065 61.1119C51.753 61.2002 51.7 61.3951 51.7883 61.5486C51.8474 61.6512 51.9547 61.7089 52.0655 61.7089Z"
                                        fill="#3A393A" />
                                    <path id="Fill-86"
                                        d="M47.0024 58.7859C47.0574 58.7859 47.1131 58.7716 47.1634 58.7424L61.4703 50.406C61.6225 50.3171 61.6748 50.1214 61.5858 49.9693C61.4968 49.8165 61.3012 49.7655 61.1484 49.8538L46.8414 58.1902C46.6893 58.2792 46.637 58.4748 46.7266 58.6276C46.7857 58.7288 46.8924 58.7859 47.0024 58.7859Z"
                                        fill="#3A393A" />
                                    <path id="Fill-88"
                                        d="M36.8514 53.2436C36.9594 53.2436 37.0695 53.2164 37.1707 53.158L51.3146 44.9921C51.6202 44.8155 51.7249 44.4249 51.5489 44.1186C51.3716 43.8129 50.9804 43.7083 50.6754 43.8849L36.5308 52.0508C36.2252 52.2274 36.1205 52.6187 36.2972 52.9236C36.4153 53.1294 36.6307 53.2436 36.8514 53.2436Z"
                                        fill="#565656" />
                                    <path id="Fill-90"
                                        d="M50.9942 45.0774C51.0084 45.0774 51.022 45.0774 51.0356 45.0761C51.3881 45.0543 51.6558 44.75 51.6327 44.3982L50.2715 23.0441C50.2477 22.6922 49.9427 22.4185 49.5929 22.4477C49.2397 22.4701 48.9721 22.7737 48.9952 23.1263L50.357 44.479C50.3788 44.8173 50.66 45.0774 50.9942 45.0774Z"
                                        fill="#565656" />
                                    <path id="Fill-92"
                                        d="M76.6093 59.8086C76.8307 59.8086 77.0453 59.6938 77.1635 59.488C77.3395 59.1823 77.2342 58.7918 76.9285 58.6152L51.3135 43.885C51.0092 43.7078 50.6173 43.8137 50.4407 44.1194C50.2647 44.4257 50.37 44.8163 50.6757 44.9929L76.2914 59.723C76.3912 59.7807 76.5013 59.8086 76.6093 59.8086Z"
                                        fill="#565656" />
                                    <path id="Fill-94"
                                        d="M71.0731 56.3367C71.2361 56.3367 71.376 56.2103 71.391 56.0446L72.9682 37.8911C72.9838 37.7145 72.8534 37.5596 72.6775 37.5447C72.5029 37.5263 72.3473 37.6588 72.3317 37.8354L70.7538 55.9889C70.7382 56.1648 70.8686 56.3204 71.0445 56.3353C71.0541 56.336 71.0636 56.3367 71.0731 56.3367Z"
                                        fill="#565656" />
                                    <path id="Fill-96"
                                        d="M29.348 27.1683C29.4138 26.9211 29.5714 26.7139 29.7929 26.5849L45.7714 17.2955C45.9181 17.2113 46.0846 17.1658 46.2523 17.1658C46.5933 17.1658 46.9105 17.3492 47.0803 17.6433C47.2101 17.8647 47.2454 18.1228 47.1795 18.3701C47.1136 18.6173 46.956 18.8252 46.7346 18.9535L30.7567 28.2429C30.61 28.3271 30.4436 28.372 30.2751 28.372C29.9341 28.372 29.6169 28.1892 29.4471 27.8958C29.3174 27.6744 29.2821 27.4156 29.348 27.1683Z"
                                        fill="#E02723" />
                                    <path id="Fill-98"
                                        d="M55.3656 47.6791V61.2606L44.4508 54.9586C43.9264 54.6556 43.6038 54.0966 43.6038 53.4927V40.8887L55.3656 47.6791Z"
                                        fill="#E02723" />
                                    <path id="Fill-100"
                                        d="M55.3656 47.6791L67.1274 40.8887V53.5844C67.1274 54.1326 66.8353 54.6386 66.3605 54.9117L55.3656 61.2606V47.6791Z"
                                        fill="#650300" />
                                    <path id="Fill-102"
                                        d="M43.5564 40.9012L54.6342 34.5055C55.0873 34.2439 55.6449 34.2439 56.0973 34.5055L67.1744 40.9012L55.3658 47.7195L43.5564 40.9012Z"
                                        fill="#CECDCC" />
                                    <path id="Fill-104"
                                        d="M50.2991 44.7922L48.7959 43.9248V49.769L50.2991 50.6364V44.7922Z"
                                        fill="#ADADAD" />
                                    <path id="Fill-106"
                                        d="M60.6304 44.6829L62.0785 43.8447L62.1329 49.6557L60.5978 50.5421L60.6304 44.6829Z"
                                        fill="#ADADAD" />
                                    <path id="Fill-108"
                                        d="M62.0784 43.8444L50.3139 36.9949L48.8114 37.8596L60.618 44.6799L62.0784 43.8444Z"
                                        fill="#ADADAD" />
                                    <path id="Fill-110"
                                        d="M48.796 43.9115L50.2992 44.7789L62.0984 37.9742L60.5911 37.1082L48.796 43.9115Z"
                                        fill="#ADADAD" />
                                    <path id="Fill-112"
                                        d="M40.2994 43.2647L40.7572 48.6817L36.4834 46.1596L35.5766 40.4023L40.2994 43.2647ZM45.8196 46.61L46.2034 51.8959L41.4317 49.0797L40.9753 43.6749L45.8196 46.61ZM51.0362 49.7719L51.2781 54.89L46.8745 52.2912L46.4901 47.0162L51.0362 49.7719ZM56.4512 53.0533L56.5191 57.9832L52.265 55.4728L52.0239 50.3703L56.4512 53.0533ZM61.7765 56.2811V61.086L57.1637 58.3636L57.0965 53.4445L61.7765 56.2811ZM66.9958 54.0192L66.9462 58.8846L63.0548 61.1023V56.2946L66.9958 54.0192ZM72.1017 51.0706L71.9115 56.0555L67.5895 58.5185L67.6377 53.6483L72.1017 51.0706ZM77.0778 48.1987L76.5501 53.4119L72.5663 55.6826L72.7571 50.6936L77.0778 48.1987ZM72.5371 56.4352L76.4713 54.1931L76.0067 58.7793L72.3673 60.8809L72.5371 56.4352ZM67.582 59.2582L71.8823 56.8075L71.7125 61.2586L67.5378 63.6692L67.582 59.2582ZM63.0548 61.838L66.9394 59.6243L66.8946 64.0401L63.0548 66.2578V61.838ZM57.1739 59.1122L61.7765 61.8285V66.2578L57.2364 63.6359L57.1739 59.1122ZM52.301 56.2369L56.5293 58.7318L56.5911 63.2637L52.5224 60.9142L52.301 56.2369ZM46.9309 53.0669L51.3141 55.6541L51.5362 60.345L47.2807 57.8882L46.9309 53.0669ZM41.4983 49.8608L46.2598 52.6715L46.6116 57.5017L41.914 54.7901L41.4983 49.8608ZM36.6118 46.9774L40.8231 49.4628L41.2402 54.4009L37.4344 52.2035L36.6118 46.9774ZM77.2307 59.284C77.2334 59.2663 77.2436 59.2514 77.2456 59.2337L79.03 41.6141C79.0646 41.2636 78.8085 40.9498 78.4581 40.9138C78.0953 40.8819 77.7931 41.1346 77.7571 41.4857L77.1573 47.4135L72.7857 49.9376L72.9759 44.9662C72.982 44.7896 72.8448 44.6415 72.6688 44.6354C72.6641 44.6347 72.66 44.6347 72.6566 44.6347C72.4855 44.6347 72.3435 44.7699 72.3367 44.9424L72.1309 50.3159L67.6452 52.9059L67.6934 48.0907C67.6954 47.9155 67.5541 47.7708 67.3769 47.7688H67.3741C67.1996 47.7688 67.0569 47.91 67.0549 48.0853L67.0026 53.2768L63.0548 55.557V51.0305C63.0548 50.6773 62.7689 50.3913 62.4156 50.3913C62.0618 50.3913 61.7765 50.6773 61.7765 51.0305V55.5339L57.0856 52.6912L57.0122 47.3008C57.0095 47.1242 56.8716 46.9672 56.6876 46.9863C56.511 46.9876 56.3697 47.133 56.3724 47.3096L56.441 52.3007L51.9872 49.6014L51.7094 43.7279C51.6972 43.463 51.4445 43.2674 51.2088 43.2722C50.9439 43.2837 50.7394 43.5085 50.7523 43.7734L50.9996 49.0023L46.4337 46.235L45.9881 40.1103C45.9745 39.9343 45.8251 39.7999 45.6458 39.8148C45.4698 39.8277 45.3374 39.9805 45.3503 40.1565L45.7626 45.8282L40.9087 42.887L40.3646 36.4403C40.3504 36.2637 40.1914 36.1312 40.0196 36.1482C39.8436 36.1632 39.7132 36.318 39.7275 36.494L40.2329 42.4774L35.4462 39.5764L34.2867 32.2113C34.231 31.8622 33.9064 31.6238 33.5559 31.6788C33.2074 31.7338 32.969 32.0612 33.0233 32.4103L36.2192 52.7042C36.2212 52.7164 36.2287 52.7259 36.2307 52.7368C36.2382 52.7721 36.2525 52.8033 36.2661 52.8359C36.2824 52.878 36.2987 52.9188 36.3238 52.9562C36.3415 52.9826 36.3632 53.0051 36.3849 53.0288C36.4182 53.0655 36.4535 53.0974 36.4936 53.1253C36.5079 53.1348 36.5167 53.1497 36.531 53.1579L62.0957 67.9186C62.0971 67.9192 62.0978 67.9192 62.0991 67.9199C62.1134 67.9281 62.1297 67.9315 62.1439 67.9383C62.1616 67.9464 62.1779 67.9532 62.1956 67.9593C62.1969 67.96 62.199 67.9607 62.2003 67.9614C62.271 67.9865 62.3423 68.0042 62.415 68.0042H62.4163C62.4883 68.0042 62.5603 67.9865 62.631 67.9607C62.6323 67.96 62.6337 67.96 62.635 67.9593C62.6527 67.9532 62.6704 67.9464 62.6867 67.9383C62.7016 67.9308 62.7179 67.9281 62.7315 67.9199C62.7329 67.9192 62.7335 67.9186 62.7349 67.9186L76.9291 59.7228C76.9467 59.7126 76.9569 59.6949 76.9732 59.6834C77.0119 59.6562 77.0459 59.627 77.0778 59.5917C77.1023 59.5652 77.1233 59.538 77.1424 59.5082C77.1648 59.4722 77.1824 59.4355 77.1974 59.3947C77.2116 59.358 77.2232 59.3227 77.2307 59.284Z"
                                        fill="#ADADAD" />
                                    <path id="Fill-114"
                                        d="M78.7384 41.0126L49.9778 22.5474C49.9527 22.5311 49.9241 22.5283 49.8976 22.5161C49.8555 22.4957 49.8148 22.4754 49.7693 22.4652C49.7278 22.4563 49.6878 22.4577 49.6463 22.457C49.6056 22.4557 49.5669 22.4529 49.5268 22.4597C49.482 22.4665 49.4412 22.4855 49.3991 22.5025C49.3706 22.5141 49.3407 22.5161 49.3135 22.5317L33.3356 31.7566C33.3288 31.76 33.3261 31.7668 33.3193 31.7708C33.2833 31.7932 33.2548 31.8252 33.2235 31.8551C33.1923 31.8849 33.1583 31.9114 33.1339 31.9461C33.1298 31.9522 33.1237 31.9549 33.1196 31.9617C33.1026 31.9868 33.0999 32.0154 33.087 32.0419C33.0673 32.0846 33.0456 32.1261 33.0354 32.1723C33.0266 32.213 33.0279 32.2524 33.0272 32.2925C33.0259 32.3339 33.0218 32.3726 33.0286 32.4141C33.0367 32.4609 33.0558 32.5044 33.0741 32.5486C33.085 32.5751 33.087 32.6036 33.1013 32.6294C33.106 32.6369 33.1121 32.6423 33.1169 32.6491C33.1278 32.6654 33.14 32.6783 33.1522 32.6946C33.1903 32.7442 33.2344 32.7877 33.2833 32.823C33.2921 32.8298 33.2969 32.8393 33.3057 32.8461L62.0663 51.5661C62.1743 51.636 62.2952 51.6693 62.4148 51.6693C62.6233 51.6693 62.8284 51.5668 62.9507 51.3793C63.1436 51.0831 63.0601 50.6871 62.7639 50.4949L34.8768 32.3421L49.6158 23.8332L78.0476 42.0879C78.1549 42.1565 78.2745 42.1891 78.3927 42.1891C78.6032 42.1891 78.809 42.0852 78.9313 41.895C79.1215 41.5982 79.0352 41.2028 78.7384 41.0126Z"
                                        fill="#CECDCC" />
                                    <path id="Fill-116"
                                        d="M58.7266 48.6296C58.9046 48.3565 59.2048 48.1935 59.5309 48.1935C59.7163 48.1935 59.897 48.2478 60.0532 48.349L62.4387 49.9018L76.569 41.5179L74.769 40.3625C74.3248 40.0772 74.1944 39.4828 74.4804 39.0373C74.6576 38.7622 74.9599 38.5964 75.288 38.5964C75.4714 38.5964 75.65 38.6501 75.8056 38.7493L78.9118 40.7435C79.0333 40.8216 79.1284 40.9235 79.2011 41.039C79.2059 41.0472 79.2133 41.0533 79.2188 41.0607C79.231 41.0811 79.2371 41.1022 79.2473 41.1225C79.2595 41.1477 79.2724 41.1728 79.2826 41.2C79.2955 41.2326 79.3057 41.2665 79.3152 41.3012C79.322 41.3263 79.3281 41.3515 79.3336 41.3773C79.3397 41.4119 79.3438 41.4459 79.3451 41.4798C79.3478 41.509 79.3492 41.5369 79.3485 41.5661C79.3478 41.5967 79.3451 41.6265 79.3424 41.6571C79.339 41.689 79.3343 41.721 79.3275 41.7529C79.3207 41.7807 79.3132 41.8079 79.3044 41.8351C79.2942 41.867 79.284 41.8982 79.2704 41.9295C79.2589 41.958 79.2439 41.9845 79.2296 42.0117C79.2188 42.03 79.212 42.0497 79.2004 42.0681C79.1957 42.0762 79.1882 42.081 79.1828 42.0891C79.1481 42.1394 79.1094 42.1869 79.0646 42.2304C79.0564 42.2385 79.0496 42.2481 79.0415 42.2562C78.9933 42.3004 78.941 42.3398 78.8826 42.3744L62.9053 51.8546C62.9006 51.8573 62.8945 51.8587 62.8897 51.8614C62.8395 51.8899 62.7858 51.9096 62.7308 51.9287C62.707 51.9368 62.6853 51.9497 62.6615 51.9558C62.5875 51.9755 62.51 51.985 62.4312 51.9864C62.4258 51.9871 62.421 51.9891 62.4163 51.9891H62.4149C62.4109 51.9891 62.4068 51.9871 62.402 51.9871C62.3185 51.9857 62.237 51.9742 62.1582 51.9518C62.1256 51.9429 62.0957 51.9259 62.0644 51.913C62.0149 51.8933 61.9659 51.8736 61.9198 51.8458C61.9109 51.841 61.9007 51.8397 61.8926 51.8336L59.0072 49.9555C58.7925 49.8162 58.6451 49.6016 58.5921 49.3509C58.5392 49.0996 58.5867 48.8435 58.7266 48.6296Z"
                                        fill="#E02723" />
                                </g>
                            </g>
                        </g>
                    </g>
                </g>
            </g>
        </g>
    </g>
    <defs>
        <clipPath id="clip0_958_396">
            <rect width="108" height="108" fill="white" />
        </clipPath>
    </defs>
</svg>