<svg width="40" height="40" viewBox="0 0 40 40" fill="none" xmlns="http://www.w3.org/2000/svg">
<g id="stripe_bae5568e2e 1" clip-path="url(#clip0_1_178)">
<g id="Group">
<path id="Vector" d="M6.3 20.2C5.9 19.9 5.5 19.6 5 19.4C4.5 19.2 4 19.1 3.5 18.8C3.3 18.7 3.2 18.7 3 18.5C2.7 18.2 2.8 17.7 3.1 17.6C3.2 17.5 3.4 17.5 3.6 17.5C4.6 17.5 5.5 17.7 6.4 18.1L6.5 18.2C6.5 17.4 6.5 16.6 6.5 15.9C6.5 15.6 6.5 15.6 6.3 15.6C5.6 15.3 4.8 15.2 4.1 15.2C3.4 15.2 2.6 15.3 1.8 15.5C0.8 15.9 0.3 16.6 0.1 17.7C0.1 17.8 0.1 17.9 0 18C0 18 0 18 0 18.1C0.1 18.2 0 18.4 0 18.5C0 18.5 0 18.5 0 18.6V18.7C0 19 0.1 19.2 0.2 19.4C0.4 20 0.9 20.4 1.4 20.6C1.9 20.8 2.4 21.1 2.9 21.2C3.2 21.3 3.6 21.4 3.9 21.6C4 21.7 4.2 21.8 4.2 21.9C4.3 22.2 4.1 22.6 3.7 22.7C3.4 22.8 2.9 22.8 2.6 22.7C1.8 22.6 0.9 22.3 0.2 21.9C0.2 21.9 0.1 21.8 0.1 21.9C0.1 22.7 0.1 23.5 0.1 24.2C0.1 24.5 0.1 24.5 0.4 24.5C1.2 25 2 25.2 2.8 25.3C3.6 25.4 4.4 25.2 5.1 25C5.8 24.7 6.3 24.3 6.7 23.6C7 23.1 7 22.6 7 21.9C7 21.3 6.8 20.7 6.3 20.2Z" fill="#4E56A2"/>
<path id="Vector_2" d="M22.7 28.3C22.7 24 22.7 19.8 22.7 15.6C22.7 15.5 22.7 15.5 22.7 15.5C22.6 15.6 22.7 15.6 22.7 15.6C22.7 19.8 22.7 24 22.7 28.3C22.8 28.3 22.8 28.3 22.7 28.3Z" fill="#4E56A2"/>
<path id="Vector_3" d="M29.5 16.0001C28.7 15.3001 27.7 15.1001 26.6 15.3001C26.1 15.4001 25.7 15.6001 25.3 16.0001C25.2 16.1001 25.2 16.1001 25.2 16.0001C25.2 15.9001 25.1 15.7001 25.1 15.5001C25.1 15.4001 25 15.4001 25 15.4001C24.2 15.4001 23.4 15.4001 22.7 15.4001V15.5001C22.7 15.6001 22.7 15.6001 22.7 15.6001C22.7 19.7001 22.7 23.9001 22.7 28.0001C22.7 28.1001 22.7 28.1001 22.7 28.2001C23.5 28.0001 24.4 27.9001 25.3 27.6001C25.4 27.6001 25.4 27.5001 25.4 27.5001C25.4 26.5001 25.4 25.6001 25.4 24.6001C25.4 24.5001 25.4 24.5001 25.4 24.5001C25.5 24.5001 25.5 24.6001 25.5 24.6001C26.6 25.4001 27.8 25.4001 29 24.8001C29.8 24.4001 30.4 23.6001 30.7 22.8001C31 22.2001 31.1 21.5001 31.1 20.8001C31.2 20.0001 31.1 19.1001 30.9 18.4001C30.8 17.5001 30.3 16.6001 29.5 16.0001ZM28.2 21.8001C28.1 22.1001 27.9 22.4001 27.6 22.6001C27.2 22.9001 26.8 22.9001 26.4 22.8001C26.1 22.7001 25.8 22.6001 25.6 22.4001C25.5 22.3001 25.5 22.3001 25.5 22.3001C25.5 21.6001 25.5 21.0001 25.5 20.3001C25.5 19.7001 25.5 19.0001 25.5 18.4001C25.5 18.3001 25.5 18.3001 25.6 18.2001C26.2 17.6001 27.1 17.6001 27.6 18.0001C27.9 18.3001 28.2 18.6001 28.4 19.0001C28.6 20.0001 28.6 20.9001 28.2 21.8001Z" fill="#4E56A2"/>
<path id="Vector_4" d="M39.9 19.1999C39.8 18.3999 39.6 17.6999 39.2 17.0999C38.8 16.2999 38.2 15.7999 37.4 15.3999C36.7 15.0999 36 15.0999 35.3 15.1999C34.5 15.2999 33.7 15.7999 33.2 16.2999C32.6 16.8999 32.2 17.5999 32 18.3999C31.8 19.0999 31.7 19.8999 31.8 20.4999C31.8 21.0999 31.9 21.5999 32.1 22.0999C32.7 23.7999 33.9 24.7999 35.7 25.0999C36.3 25.1999 36.9 25.1999 37.5 25.0999C38.2 24.9999 38.8 24.7999 39.4 24.4999C39.5 24.3999 39.5 24.3999 39.5 24.1999C39.5 24.0999 39.5 24.0999 39.5 23.9999C39.5 23.3999 39.5 22.7999 39.5 22.1999C39.4 22.1999 39.4 22.1999 39.4 22.1999C38.4 22.6999 37.3 22.7999 36.2 22.7999C35.9 22.6999 35.4 22.6999 35.2 22.3999C34.9 22.0999 34.6 21.6999 34.6 21.2999C34.6 21.1999 34.6 21.1999 34.7 21.1999C35.6 21.1999 36.5 21.1999 37.4 21.1999C38.2 21.1999 39.1 21.1999 39.9 21.1999C40 21.1999 40 21.1999 40 21.0999C40 20.4999 40 19.8999 39.9 19.1999ZM37.3 19.2999C36.9 19.2999 36.4 19.2999 36 19.2999C35.6 19.2999 35.1 19.2999 34.7 19.2999C34.6 19.2999 34.6 19.2999 34.6 19.1999C34.6 18.7999 34.7 18.3999 34.9 17.9999C35.5 17.1999 36.8 17.1999 37.2 18.1999C37.3 18.4999 37.4 18.7999 37.4 19.0999C37.4 19.2999 37.3 19.2999 37.3 19.2999Z" fill="#4E56A2"/>
<path id="Vector_5" d="M10.5 17.7999C11.1 17.7999 11.7 17.7999 12.4 17.7999C12.5 17.7999 12.5 17.7999 12.5 17.6999C12.5 16.9999 12.5 16.1999 12.5 15.5999C12.5 15.4999 12.5 15.4999 12.4 15.4999C11.8 15.4999 11.2 15.4999 10.5 15.4999C10.4 15.4999 10.4 15.4999 10.4 15.3999C10.4 14.5999 10.4 13.8999 10.4 13.1999C10.4 13.0999 10.4 13.0999 10.3 13.0999C9.5 13.2999 8.6 13.3999 7.8 13.6999C7.7 13.6999 7.7 13.7999 7.7 13.7999C7.7 16.6999 7.7 19.5999 7.7 22.4999C7.7 22.6999 7.7 22.8999 7.8 23.0999C8 24.2999 9 25.1999 10.3 25.3999C10.7 25.4999 11.1 25.3999 11.5 25.3999C11.8 25.2999 12.2 25.2999 12.5 25.0999C12.6 25.0999 12.6 24.9999 12.6 24.9999C12.6 24.2999 12.6 23.5999 12.6 22.9999V22.8999C12.5 22.8999 12.5 22.8999 12.5 22.8999C12.2 22.9999 11.8 22.9999 11.5 22.9999C11 22.9999 10.7 22.6999 10.6 22.3999C10.3 22.1999 10.3 22.0999 10.3 21.7999C10.3 20.5999 10.3 19.1999 10.3 17.9999C10.3 17.7999 10.3 17.7999 10.5 17.7999Z" fill="#4E56A2"/>
<path id="Vector_6" d="M18.2 15.4C18.1 15.3 17.9 15.3 17.8 15.3C17.3 15.2 16.9 15.3 16.5 15.6C16.3 15.7 16.2 15.9 15.9 16.2C15.8 15.9 15.8 15.7 15.8 15.5C15.8 15.4 15.7 15.4 15.7 15.4C14.9 15.4 14.2 15.4 13.5 15.4C13.4 15.4 13.4 15.4 13.4 15.5C13.4 18.7 13.4 21.8 13.4 25C13.4 25.1 13.4 25.1 13.5 25.1C14.3 25.1 15.2 25.1 16.1 25.1C16.2 25.1 16.2 25.1 16.2 25C16.2 22.9 16.2 20.8 16.2 18.6C16.2 18.5 16.2 18.5 16.3 18.5C16.6 18.2 17.1 17.9 17.5 17.9C17.8 17.9 18.1 17.9 18.3 18C18.3 17.2 18.3 16.4 18.3 15.6C18.2 15.4 18.2 15.4 18.2 15.4Z" fill="#4E56A2"/>
<path id="Vector_7" d="M21.5 15.3999C20.7 15.3999 19.8 15.3999 18.9 15.3999C18.8 15.3999 18.8 15.3999 18.8 15.4999C18.8 17.0999 18.8 18.5999 18.8 20.1999C18.8 21.7999 18.8 23.3999 18.8 24.9999C18.8 25.0999 18.8 25.0999 18.9 25.0999C19.7 25.0999 20.6 25.0999 21.5 25.0999C21.6 25.0999 21.6 25.0999 21.6 24.9999C21.6 21.7999 21.6 18.6999 21.6 15.4999C21.7 15.3999 21.7 15.3999 21.5 15.3999Z" fill="#4E56A2"/>
<path id="Vector_8" d="M18.9 14.6C19.8 14.4 20.7 14.2 21.6 14C21.7 14 21.7 13.9 21.7 13.9C21.7 13.2 21.7 12.5 21.7 11.8C21.7 11.7 21.7 11.7 21.6 11.7C20.7 11.9 19.9 12 19 12.3C18.9 12.3 18.9 12.4 18.9 12.4C18.9 13.2 18.9 13.9 18.9 14.6C18.9 14.5 18.9 14.5 18.9 14.6Z" fill="#4E56A2"/>
</g>
</g>
<defs>
<clipPath id="clip0_1_178">
<rect width="40" height="40" fill="white"/>
</clipPath>
</defs>
</svg>
