<svg width="109" height="108" viewBox="0 0 109 108" fill="none" xmlns="http://www.w3.org/2000/svg">
    <g id="transportation 1" clip-path="url(#clip0_958_171)">
        <g id="Main-page">
            <g id="ScnSoft-COM-HomePage-1440_illustrations">
                <g id="Industry">
                    <g id="7">
                        <g id="icon_2_7">
                            <g id="Group-63">
                                <g id="Group-8">
                                    <path id="Fill-2"
                                        d="M96.755 71.7738H96.7672V65.9404L85.921 63.1352L61.8737 49.2514C57.8261 46.9141 51.702 46.6594 48.1957 48.6849L23.5643 62.9049L12.0667 65.628V71.3866C12.0585 71.515 12.0612 71.6454 12.0667 71.7738V71.8635H12.0707C12.1849 73.3408 13.3056 74.8725 15.4018 76.0823L46.948 94.2962C50.9976 96.6335 57.121 96.8882 60.628 94.8641L94.4034 75.3623C96.0574 74.4086 96.8222 73.1167 96.755 71.7738Z"
                                        fill="#BFC3C7" />
                                    <path id="Fill-4"
                                        d="M94.4035 69.2167L60.628 88.7185C57.1218 90.742 50.9984 90.4873 46.948 88.1507L15.4025 69.9381C11.3522 67.5994 10.9134 64.0646 14.4196 62.0398L48.1958 42.5394C51.7021 40.5145 57.8255 40.7686 61.8738 43.1059L93.4213 61.3198C97.471 63.6564 97.9098 67.1932 94.4035 69.2167Z"
                                        fill="#E9E8E7" />
                                    <path id="Fill-6"
                                        d="M78.0319 59.1209L78.3886 59.3281C78.3396 59.2995 78.2982 59.2574 78.2656 59.2038L77.9083 58.9966C77.9409 59.0502 77.983 59.0924 78.0319 59.1209Z"
                                        fill="#841512" />
                                </g>
                                <g id="Group-11">
                                    <g id="Fill-9-Clipped">
                                        <g id="Mask group">
                                            <mask id="mask0_958_171" style="mask-type:luminance"
                                                maskUnits="userSpaceOnUse" x="77" y="58" width="2"
                                                height="2">
                                                <g id="Group">
                                                    <path id="Vector"
                                                        d="M78.0318 59.1209L78.389 59.3281C78.3395 59.2995 78.298 59.2574 78.2654 59.2038L77.9088 58.9966C77.9407 59.0502 77.9829 59.0924 78.0318 59.1209Z"
                                                        fill="white" />
                                                </g>
                                            </mask>
                                            <g mask="url(#mask0_958_171)">
                                                <path id="Fill-9"
                                                    d="M78.2654 59.2038L77.9088 58.9966C77.9407 59.0502 77.9829 59.0924 78.0318 59.1209L78.389 59.3281C78.3395 59.2995 78.298 59.2574 78.2654 59.2038Z"
                                                    fill="#841512" />
                                            </g>
                                        </g>
                                    </g>
                                </g>
                                <g id="Group-62">
                                    <path id="Fill-12"
                                        d="M77.2538 60.3016L76.8972 60.0938L77.0507 60.2391L77.408 60.447L77.2538 60.3016Z"
                                        fill="#D33C38" />
                                    <path id="Fill-14"
                                        d="M80.2362 56.7501C80.1126 56.6781 79.9414 56.6883 79.7526 56.797L78.5068 57.517C78.4729 57.536 78.4396 57.5577 78.4084 57.5822C78.3656 57.6134 78.3282 57.6549 78.2895 57.6929C78.2691 57.7126 78.2481 57.7276 78.229 57.7493C78.1564 57.8288 78.0912 57.9171 78.0348 58.0128C78.0246 58.0305 78.0178 58.0488 78.009 58.0665C77.9655 58.1473 77.9295 58.2288 77.901 58.3131C77.8901 58.3463 77.8833 58.3776 77.8745 58.4109C77.8656 58.4482 77.8507 58.4856 77.8446 58.5223C77.8364 58.5773 77.8317 58.6323 77.8317 58.686L77.8351 58.7322L76.897 60.0947L77.2536 60.3019L78.1917 58.9393L78.1883 58.8925C78.1876 58.8048 78.208 58.7125 78.2318 58.6194C78.2399 58.5861 78.2474 58.5528 78.2582 58.5189C78.2861 58.436 78.3221 58.3552 78.3642 58.2757C78.3744 58.258 78.3812 58.2377 78.3914 58.22C78.4471 58.1242 78.5136 58.0366 78.5856 57.9565C78.6047 57.9354 78.6264 57.9198 78.6461 57.8994C78.7154 57.8328 78.786 57.7683 78.8634 57.7242L80.1092 57.0048C80.2987 56.8955 80.4699 56.8853 80.5928 56.9573L80.2362 56.7501Z"
                                        fill="#CECDCC" />
                                    <path id="Fill-16"
                                        d="M78.8631 57.724C78.4882 57.9406 78.1872 58.4643 78.1886 58.8936L78.192 58.9398L77.254 60.3017L77.4075 60.4471L78.2654 59.204C78.3774 59.3902 78.6043 59.4343 78.8679 59.2822L80.1143 58.5628C80.4892 58.3462 80.7915 57.8225 80.7901 57.3911C80.7894 56.9619 80.4845 56.788 80.1095 57.0046L78.8631 57.724Z"
                                        fill="#841512" />
                                    <path id="Fill-18"
                                        d="M32.3361 56.1937C32.9053 55.8629 33.6715 55.8724 34.5239 56.2868C34.6156 56.3316 34.7094 56.3805 34.8038 56.4348C36.0407 57.1494 37.1254 58.5221 37.7354 59.9975C38.0696 60.8051 38.2625 61.6433 38.2598 62.4217C38.2571 63.5146 37.8706 64.2842 37.2477 64.6455L34.8989 66.0108C35.5211 65.6495 35.9075 64.8799 35.9109 63.787C35.913 63.0086 35.7208 62.1704 35.3866 61.3621C34.7766 59.8868 33.6918 58.5147 32.4543 57.8001C32.3605 57.7458 32.2668 57.6969 32.1751 57.6514C31.3226 57.2377 30.5558 57.2275 29.9872 57.559L32.3361 56.1937Z"
                                        fill="#2C2C2C" />
                                    <path id="Fill-20"
                                        d="M32.4542 57.8002C30.5394 56.6943 28.9819 57.5821 28.9758 59.7829C28.969 61.9829 30.5163 64.6632 32.4318 65.7691C34.3466 66.8749 35.9048 65.9878 35.9109 63.7863C35.917 61.5863 34.369 58.906 32.4542 57.8002Z"
                                        fill="#650300" />
                                    <path id="Fill-22"
                                        d="M32.4482 60.0621C31.5584 59.5486 30.8343 59.9615 30.8316 60.9831C30.8289 62.0061 31.5482 63.2518 32.4373 63.766C33.3278 64.2795 34.0512 63.8672 34.0546 62.8449C34.0573 61.822 33.3387 60.5763 32.4482 60.0621Z"
                                        fill="#CECDCC" />
                                    <path id="Fill-24"
                                        d="M69.5785 65.4836L68.1596 63.0926L68.1555 63.0954L68.1596 44.8196L51.7178 54.3745L51.713 72.6584L51.7178 72.6564L51.713 74.218L69.5785 65.4836Z"
                                        fill="#650300" />
                                    <path id="Fill-26"
                                        d="M59.5477 71.9442C60.117 71.614 60.8838 71.6229 61.7363 72.0372C61.828 72.082 61.921 72.1309 62.0154 72.1853C63.253 72.9005 64.3371 74.2733 64.9471 75.7486C65.2813 76.5556 65.4742 77.3937 65.4721 78.1728C65.4687 79.2651 65.0822 80.0346 64.4594 80.3967L62.1105 81.7613C62.7334 81.3999 63.1199 80.6303 63.1226 79.5374C63.1253 78.759 62.9324 77.9208 62.5982 77.1132C61.9883 75.6372 60.9042 74.2651 59.6666 73.5506C59.5722 73.4962 59.4791 73.4473 59.3868 73.4018C58.535 72.9882 57.7681 72.9786 57.1989 73.3094L59.5477 71.9442Z"
                                        fill="#2C2C2C" />
                                    <path id="Fill-28"
                                        d="M59.6665 73.5508C57.7517 72.445 56.1935 73.3334 56.1874 75.5335C56.1813 77.7336 57.7286 80.4139 59.6441 81.5197C61.5589 82.6255 63.1164 81.7384 63.1225 79.537C63.1293 77.3369 61.5813 74.6566 59.6665 73.5508Z"
                                        fill="#650300" />
                                    <path id="Fill-30"
                                        d="M59.6605 75.6841C58.77 75.1699 58.0466 75.5829 58.0432 76.6051C58.0405 77.6274 58.7598 78.8731 59.6496 79.3873C60.5394 79.9008 61.2635 79.4885 61.2662 78.4663C61.269 77.4433 60.5503 76.1976 59.6605 75.6841Z"
                                        fill="#CECDCC" />
                                    <path id="Fill-32"
                                        d="M54.8189 57.8328L54.8019 63.8454L65.7072 70.1475L62.976 62.5427L54.8189 57.8328Z"
                                        fill="#E9E8E7" />
                                    <path id="Fill-34"
                                        d="M80.5227 67.4853L79.2946 64.354L79.2926 64.3547L79.2939 64.354L75.9133 54.9858L63.5416 62.175L66.9235 71.5431L68.1509 74.6751L68.1407 81.8717L80.5118 74.6826L80.5227 67.4853Z"
                                        fill="#650300" />
                                    <path id="Fill-36"
                                        d="M78.8439 64.1322L75.5815 55.6614L63.9929 62.3961L67.2546 70.867L78.8439 64.1322Z"
                                        fill="#E9E8E7" />
                                    <path id="Fill-38"
                                        d="M42.7291 30.0632L26.2873 39.6182L51.7176 54.3741L68.1594 44.8198L42.7291 30.0632Z"
                                        fill="#CECDCC" />
                                    <path id="Fill-40"
                                        d="M66.6281 49.6248L54.2563 56.8139L63.5416 62.1752L75.9133 54.986L66.6281 49.6248Z"
                                        fill="#CECDCC" />
                                    <path id="Fill-42"
                                        d="M26.2873 39.6184L26.2825 57.9023L26.2873 57.905L26.2825 59.4619L51.7135 74.2178L51.7176 72.6487L51.7135 72.646L51.7176 54.3743L26.2873 39.6184Z"
                                        fill="#E02723" />
                                    <path id="Fill-44"
                                        d="M54.8017 63.845L54.8187 57.8323L62.9757 62.5422L65.7076 70.1471L54.8017 63.845ZM66.9235 71.5429L63.5415 62.1748L54.2562 56.8135L54.2359 64.2118L54.2223 67.8077L54.2121 73.7776L55.8206 74.7096C56.0705 73.4237 56.9148 72.6311 58.1103 72.6311C58.6754 72.6311 59.2738 72.8111 59.8885 73.1663C61.8577 74.3027 63.4152 76.892 63.5558 79.1899L68.1414 81.8715L68.1509 74.6749L66.9235 71.5429Z"
                                        fill="#E02723" />
                                    <path id="Fill-46"
                                        d="M71.4564 77.6476L78.1069 73.8079V75.9169L71.4564 79.7764V77.6476Z"
                                        fill="#2C2C2C" />
                                    <path id="Fill-48"
                                        d="M65.1535 67.6958L64.0654 67.3772L64.477 67.617L65.5645 67.9355L65.1535 67.6958Z"
                                        fill="#CECDCC" />
                                    <path id="Fill-50"
                                        d="M63.8408 66.8194C63.6982 66.7365 63.5019 66.7481 63.2852 66.8731L61.8452 67.7045C61.8071 67.7262 61.7691 67.7513 61.7324 67.7792C61.4064 68.0223 61.1456 68.4598 61.0817 68.8653C61.0715 68.9285 61.0661 68.9916 61.0668 69.0528C61.0674 69.3 61.1544 69.4739 61.2957 69.5554L61.7066 69.7952C61.566 69.7137 61.4784 69.5398 61.4777 69.2925C61.4777 69.2314 61.4831 69.1682 61.4933 69.1044C61.5572 68.6995 61.8173 68.2608 62.1434 68.0183C62.1807 67.9911 62.2181 67.9653 62.2575 67.9429L63.6968 67.1122C63.9128 66.9872 64.1098 66.9749 64.2517 67.0585L63.8408 66.8194Z"
                                        fill="#CECDCC" />
                                    <path id="Fill-52"
                                        d="M62.2567 67.9432C61.826 68.1925 61.4769 68.7977 61.4783 69.2922C61.479 69.7901 61.8315 69.9905 62.2621 69.7412L63.7014 68.9105C64.0057 68.7345 64.2659 68.382 64.3936 68.0186L65.388 68.3073L65.5646 67.9351L64.4771 67.6172L64.4805 67.5594C64.4785 67.0636 64.1273 66.8639 63.6967 67.1118L62.2567 67.9432Z"
                                        fill="#650300" />
                                    <path id="Fill-54"
                                        d="M77.4914 71.7043C77.4914 72.4922 78.1299 72.7625 78.9185 72.3074L78.9626 72.2816C79.7512 71.8265 80.3904 70.8185 80.3904 70.0306C80.3904 69.242 79.7512 68.9723 78.9626 69.4267L78.9185 69.4532C78.1299 69.9076 77.4914 70.9163 77.4914 71.7043Z"
                                        fill="#E02723" />
                                    <path id="Fill-56"
                                        d="M78.2058 72.2686C78.3763 72.2686 78.5773 72.204 78.7879 72.0825L78.8334 72.0566C79.5364 71.6505 80.1307 70.7233 80.1307 70.0305C80.1307 69.7724 80.052 69.4653 79.6757 69.4653C79.5052 69.4653 79.3034 69.5299 79.0929 69.6514L79.048 69.6779C78.345 70.0834 77.7507 71.0113 77.7507 71.7041C77.7507 71.9616 77.8295 72.2686 78.2058 72.2686Z"
                                        fill="#CECDCC" />
                                    <path id="Fill-58"
                                        d="M68.4018 76.9988C68.4018 77.7867 69.0403 78.057 69.8289 77.6019L69.873 77.5768C70.661 77.121 71.3008 76.113 71.3008 75.3251C71.3008 74.5372 70.661 74.2675 69.873 74.7219L69.8289 74.7477C69.0403 75.2028 68.4018 76.2108 68.4018 76.9988Z"
                                        fill="#E02723" />
                                    <path id="Fill-60"
                                        d="M69.1162 77.5633C69.286 77.5633 69.4878 77.4988 69.6983 77.3779L69.7438 77.3514C70.4469 76.9459 71.0405 76.018 71.0405 75.3252C71.0405 75.0671 70.9624 74.7607 70.5854 74.7607C70.4156 74.7607 70.2139 74.8253 70.0033 74.9469L69.9578 74.9727C69.2555 75.3782 68.6611 76.306 68.6611 76.9989C68.6611 77.2563 68.7399 77.5633 69.1162 77.5633Z"
                                        fill="#CECDCC" />
                                </g>
                            </g>
                        </g>
                    </g>
                </g>
            </g>
        </g>
    </g>
    <defs>
        <clipPath id="clip0_958_171">
            <rect width="108" height="108" fill="white" transform="translate(0.5)" />
        </clipPath>
    </defs>
</svg>